  0
SECTION
  2
HEADER
  9
$ACADVER
  1
AC1014
  9
$ACADMAINTVER
 70
     9
  9
$DWGCODEPAGE
  3
ANSI_1252
  9
$INSBASE
 10
0.0
 20
0.0
 30
0.0
  9
$EXTMIN
 10
1.000000000000000E+20
 20
1.000000000000000E+20
 30
1.000000000000000E+20
  9
$EXTMAX
 10
-1.000000000000000E+20
 20
-1.000000000000000E+20
 30
-1.000000000000000E+20
  9
$LIMMIN
 10
0.0
 20
0.0
  9
$LIMMAX
 10
12.0
 20
9.0
  9
$ORTHOMODE
 70
     0
  9
$REGENMODE
 70
     1
  9
$FILLMODE
 70
     1
  9
$QTEXTMODE
 70
     0
  9
$MIRRTEXT
 70
     1
  9
$DRAGMODE
 70
     2
  9
$LTSCALE
 40
0.5
  9
$OSMODE
 70
    23
  9
$ATTMODE
 70
     1
  9
$TEXTSIZE
 40
0.12
  9
$TRACEWID
 40
0.05
  9
$TEXTSTYLE
  7
ONSHAPE-STANDARD
  9
$CLAYER
  8
0
  9
$CELTYPE
  6
BYLAYER
  9
$CECOLOR
 62
   256
  9
$CELTSCALE
 40
1.0
  9
$DELOBJ
 70
     1
  9
$DISPSILH
 70
     0
  9
$DIMSCALE
 40
1.0
  9
$DIMASZ
 40
0.18
  9
$DIMEXO
 40
0.0625
  9
$DIMDLI
 40
0.38
  9
$DIMRND
 40
0.0
  9
$DIMDLE
 40
0.0
  9
$DIMEXE
 40
0.08
  9
$DIMTP
 40
0.0
  9
$DIMTM
 40
0.0
  9
$DIMTXT
 40
0.12
  9
$DIMCEN
 40
0.09
  9
$DIMTSZ
 40
0.0
  9
$DIMTOL
 70
     0
  9
$DIMLIM
 70
     0
  9
$DIMTIH
 70
     1
  9
$DIMTOH
 70
     1
  9
$DIMSE1
 70
     0
  9
$DIMSE2
 70
     0
  9
$DIMTAD
 70
     0
  9
$DIMZIN
 70
     7
  9
$DIMBLK
  1

  9
$DIMASO
 70
     1
  9
$DIMSHO
 70
     1
  9
$DIMPOST
  1

  9
$DIMAPOST
  1

  9
$DIMALT
 70
     0
  9
$DIMALTD
 70
     2
  9
$DIMALTF
 40
25.4
  9
$DIMLFAC
 40
1.0
  9
$DIMTOFL
 70
     0
  9
$DIMTVP
 40
0.0
  9
$DIMTIX
 70
     0
  9
$DIMSOXD
 70
     0
  9
$DIMSAH
 70
     0
  9
$DIMBLK1
  1

  9
$DIMBLK2
  1

  9
$DIMSTYLE
  2
ONSHAPE-STANDARD
  9
$DIMCLRD
 70
     0
  9
$DIMCLRE
 70
     0
  9
$DIMCLRT
 70
     0
  9
$DIMTFAC
 40
1.0
  9
$DIMGAP
 40
0.09
  9
$DIMJUST
 70
     0
  9
$DIMSD1
 70
     0
  9
$DIMSD2
 70
     0
  9
$DIMTOLJ
 70
     1
  9
$DIMTZIN
 70
     7
  9
$DIMALTZ
 70
     0
  9
$DIMALTTZ
 70
     0
  9
$DIMFIT
 70
     3
  9
$DIMUPT
 70
     1
  9
$DIMUNIT
 70
     2
  9
$DIMDEC
 70
     3
  9
$DIMTDEC
 70
     3
  9
$DIMALTU
 70
     2
  9
$DIMALTTD
 70
     2
  9
$DIMTXSTY
  7
ONSHAPE-STANDARD-DIMENSION
  9
$DIMAUNIT
 70
     0
  9
$LUNITS
 70
     2
  9
$LUPREC
 70
     4
  9
$SKETCHINC
 40
0.1
  9
$FILLETRAD
 40
0.5
  9
$AUNITS
 70
     0
  9
$AUPREC
 70
     0
  9
$MENU
  1
.
  9
$ELEVATION
 40
0.0
  9
$PELEVATION
 40
0.0
  9
$THICKNESS
 40
0.0
  9
$LIMCHECK
 70
     0
  9
$CHAMFERA
 40
0.0
  9
$CHAMFERB
 40
0.0
  9
$CHAMFERC
 40
0.0
  9
$CHAMFERD
 40
0.0
  9
$SKPOLY
 70
     0
  9
$TDCREATE
 40
2457809.242974525
  9
$TDUPDATE
 40
2457809.242974525
  9
$TDINDWG
 40
0.0
  9
$TDUSRTIMER
 40
0.0
  9
$USRTIMER
 70
     1
  9
$ANGBASE
 50
0.0
  9
$ANGDIR
 70
     0
  9
$PDMODE
 70
     0
  9
$PDSIZE
 40
0.0
  9
$PLINEWID
 40
0.0
  9
$COORDS
 70
     1
  9
$SPLFRAME
 70
     0
  9
$SPLINETYPE
 70
     6
  9
$SPLINESEGS
 70
     8
  9
$ATTDIA
 70
     0
  9
$ATTREQ
 70
     1
  9
$HANDLING
 70
     1
  9
$HANDSEED
  5
2CA
  9
$SURFTAB1
 70
     6
  9
$SURFTAB2
 70
     6
  9
$SURFTYPE
 70
     6
  9
$SURFU
 70
     6
  9
$SURFV
 70
     6
  9
$UCSNAME
  2

  9
$UCSORG
 10
0.0
 20
0.0
 30
0.0
  9
$UCSXDIR
 10
1.0
 20
0.0
 30
0.0
  9
$UCSYDIR
 10
0.0
 20
1.0
 30
0.0
  9
$PUCSNAME
  2

  9
$PUCSORG
 10
0.0
 20
0.0
 30
0.0
  9
$PUCSXDIR
 10
1.0
 20
0.0
 30
0.0
  9
$PUCSYDIR
 10
0.0
 20
1.0
 30
0.0
  9
$USERI1
 70
     0
  9
$USERI2
 70
     0
  9
$USERI3
 70
     0
  9
$USERI4
 70
     0
  9
$USERI5
 70
     0
  9
$USERR1
 40
0.0
  9
$USERR2
 40
0.0
  9
$USERR3
 40
0.0
  9
$USERR4
 40
0.0
  9
$USERR5
 40
0.0
  9
$WORLDVIEW
 70
     1
  9
$SHADEDGE
 70
     3
  9
$SHADEDIF
 70
    70
  9
$TILEMODE
 70
     1
  9
$MAXACTVP
 70
    64
  9
$PINSBASE
 10
0.0
 20
0.0
 30
0.0
  9
$PLIMCHECK
 70
     0
  9
$PEXTMIN
 10
1.000000000000000E+20
 20
1.000000000000000E+20
 30
1.000000000000000E+20
  9
$PEXTMAX
 10
-1.000000000000000E+20
 20
-1.000000000000000E+20
 30
-1.000000000000000E+20
  9
$PLIMMIN
 10
0.0
 20
0.0
  9
$PLIMMAX
 10
12.0
 20
9.0
  9
$UNITMODE
 70
     0
  9
$VISRETAIN
 70
     1
  9
$PLINEGEN
 70
     0
  9
$PSLTSCALE
 70
     1
  9
$TREEDEPTH
 70
  3020
  9
$PICKSTYLE
 70
     1
  9
$CMLSTYLE
  2
STANDARD
  9
$CMLJUST
 70
     0
  9
$CMLSCALE
 40
1.0
  9
$PROXYGRAPHICS
 70
     1
  9
$MEASUREMENT
 70
     0
  0
ENDSEC
  0
SECTION
  2
CLASSES
  0
CLASS
  1
ACDBDICTIONARYWDFLT
  2
AcDbDictionaryWithDefault
  3
ObjectDBX Classes
 90
        0
280
     0
281
     0
  0
CLASS
  1
VISUALSTYLE
  2
AcDbVisualStyle
  3
ObjectDBX Classes
 90
     4095
280
     0
281
     0
  0
CLASS
  1
MATERIAL
  2
AcDbMaterial
  3
ObjectDBX Classes
 90
     1153
280
     0
281
     0
  0
CLASS
  1
SCALE
  2
AcDbScale
  3
ObjectDBX Classes
 90
     1153
280
     0
281
     0
  0
CLASS
  1
SUN
  2
AcDbSun
  3
SCENEOE
 90
     1153
280
     0
281
     0
  0
CLASS
  1
TABLESTYLE
  2
AcDbTableStyle
  3
ObjectDBX Classes
 90
     4095
280
     0
281
     0
  0
CLASS
  1
DICTIONARYVAR
  2
AcDbDictionaryVar
  3
ObjectDBX Classes
 90
        0
280
     0
281
     0
  0
CLASS
  1
XRECORD
  2
AcDbXrecord
  3
ObjectDBX Classes
 90
        0
280
     0
281
     0
  0
CLASS
  1
LWPOLYLINE
  2
AcDbPolyline
  3
ObjectDBX Classes
 90
        0
280
     0
281
     1
  0
CLASS
  1
HATCH
  2
AcDbHatch
  3
ObjectDBX Classes
 90
        0
280
     0
281
     1
  0
CLASS
  1
ACDBPLACEHOLDER
  2
AcDbPlaceHolder
  3
ObjectDBX Classes
 90
        0
280
     0
281
     0
  0
CLASS
  1
LAYOUT
  2
AcDbLayout
  3
ObjectDBX Classes
 90
        0
280
     0
281
     0
  0
ENDSEC
  0
SECTION
  2
TABLES
  0
TABLE
  2
VPORT
  5
8
330
0
100
AcDbSymbolTable
 70
     1
  0
VPORT
  5
29
330
8
100
AcDbSymbolTableRecord
100
AcDbViewportTableRecord
  2
*ACTIVE
 70
     0
 10
0.0
 20
0.0
 11
1.0
 21
1.0
 12
0.5965889577697627
 22
5.451497830335947
 13
0.0
 23
0.0
 14
0.5
 24
0.5
 15
0.5
 25
0.5
 16
0.0
 26
0.0
 36
1.0
 17
0.0
 27
0.0
 37
0.0
 40
1.335030147233246
 41
0.8116209670414934
 42
50.0
 43
0.0
 44
0.0
 50
0.0
 51
0.0
 71
     0
 72
   100
 73
     1
 74
     3
 75
     0
 76
     0
 77
     0
 78
     0
  0
ENDTAB
  0
TABLE
  2
LTYPE
  5
5
330
0
100
AcDbSymbolTable
 70
     1
  0
LTYPE
  5
14
330
5
100
AcDbSymbolTableRecord
100
AcDbLinetypeTableRecord
  2
BYBLOCK
 70
     0
  3

 72
    65
 73
     0
 40
0.0
  0
LTYPE
  5
15
330
5
100
AcDbSymbolTableRecord
100
AcDbLinetypeTableRecord
  2
BYLAYER
 70
     0
  3

 72
    65
 73
     0
 40
0.0
  0
LTYPE
  5
16
330
5
100
AcDbSymbolTableRecord
100
AcDbLinetypeTableRecord
  2
CONTINUOUS
 70
     0
  3
Solid line
 72
    65
 73
     0
 40
0.0
  0
ENDTAB
  0
TABLE
  2
LAYER
  5
2
330
0
100
AcDbSymbolTable
 70
     3
  0
LAYER
  5
10
330
2
100
AcDbSymbolTableRecord
100
AcDbLayerTableRecord
  2
0
 70
     0
 62
     7
  6
CONTINUOUS
  0
LAYER
  5
72
330
2
100
AcDbSymbolTableRecord
100
AcDbLayerTableRecord
  2
ANNOTATION_TEXT
 70
     0
 62
     7
  6
CONTINUOUS
  0
LAYER
  5
76
330
2
100
AcDbSymbolTableRecord
100
AcDbLayerTableRecord
  2
VISIBLE
 70
     0
 62
     7
  6
CONTINUOUS
  0
ENDTAB
  0
TABLE
  2
STYLE
  5
3
330
0
100
AcDbSymbolTable
 70
     3
  0
STYLE
  5
11
330
3
100
AcDbSymbolTableRecord
100
AcDbTextStyleTableRecord
  2
STANDARD
 70
     0
 40
0.0
 41
1.0
 50
0.0
 71
     0
 42
0.12
  3
txt
  4

  0
STYLE
  5
6E
330
3
100
AcDbSymbolTableRecord
100
AcDbTextStyleTableRecord
  2
ONSHAPE-STANDARD
 70
     0
 40
0.0
 41
1.0
 50
0.0
 71
     0
 42
0.12
  3
NotoSans-Regular.ttf
  4

1001
ACAD
1000
Noto Sans
1071
        0
  0
STYLE
  5
70
330
3
100
AcDbSymbolTableRecord
100
AcDbTextStyleTableRecord
  2
ONSHAPE-STANDARD-DIMENSION
 70
     0
 40
0.0
 41
1.0
 50
0.0
 71
     0
 42
0.12
  3

  4

1001
ACAD
1000
Noto Sans
1071
        0
  0
ENDTAB
  0
TABLE
  2
VIEW
  5
6
330
0
100
AcDbSymbolTable
 70
     0
  0
ENDTAB
  0
TABLE
  2
UCS
  5
7
330
0
100
AcDbSymbolTable
 70
     0
  0
ENDTAB
  0
TABLE
  2
APPID
  5
9
330
0
100
AcDbSymbolTable
 70
     1
  0
APPID
  5
12
330
9
100
AcDbSymbolTableRecord
100
AcDbRegAppTableRecord
  2
ACAD
 70
     0
  0
ENDTAB
  0
TABLE
  2
DIMSTYLE
  5
A
330
0
100
AcDbSymbolTable
 70
     2
  0
DIMSTYLE
105
27
330
A
100
AcDbSymbolTableRecord
100
AcDbDimStyleTableRecord
  2
STANDARD
 70
     0
  3

  4

  5

  6

  7

 40
1.0
 41
0.18
 42
0.0625
 43
0.38
 44
0.18
 45
0.0
 46
0.0
 47
0.0
 48
0.0
140
0.18
141
0.09
142
0.0
143
25.4
144
1.0
145
0.0
146
1.0
147
0.09
 71
     0
 72
     0
 73
     1
 74
     1
 75
     0
 76
     0
 77
     0
 78
     0
170
     0
171
     2
172
     0
173
     0
174
     0
175
     0
176
     0
177
     0
178
     0
270
     2
271
     4
272
     4
273
     2
274
     2
340
11
275
     0
280
     0
281
     0
282
     0
283
     1
284
     0
285
     0
286
     0
287
     3
288
     0
  0
DIMSTYLE
105
6F
330
A
100
AcDbSymbolTableRecord
100
AcDbDimStyleTableRecord
  2
ONSHAPE-STANDARD
 70
     0
  3

  4

  5

  6

  7

 40
1.0
 41
0.18
 42
0.0625
 43
0.38
 44
0.08
 45
0.0
 46
0.0
 47
0.0
 48
0.0
140
0.12
141
0.09
142
0.0
143
25.4
144
1.0
145
0.0
146
1.0
147
0.09
 71
     0
 72
     0
 73
     1
 74
     1
 75
     0
 76
     0
 77
     0
 78
     7
170
     0
171
     2
172
     0
173
     0
174
     0
175
     0
176
     0
177
     0
178
     0
179
     1
270
     2
271
     3
272
     3
273
     2
274
     2
340
70
275
     0
280
     0
281
     0
282
     0
283
     1
284
     7
285
     0
286
     0
287
     3
288
     1
  0
ENDTAB
  0
TABLE
  2
BLOCK_RECORD
  5
1
330
0
100
AcDbSymbolTable
 70
     1
  0
BLOCK_RECORD
  5
1F
330
1
100
AcDbSymbolTableRecord
100
AcDbBlockTableRecord
  2
*MODEL_SPACE
  0
BLOCK_RECORD
  5
1B
330
1
100
AcDbSymbolTableRecord
100
AcDbBlockTableRecord
  2
*PAPER_SPACE
  0
ENDTAB
  0
ENDSEC
  0
SECTION
  2
BLOCKS
  0
BLOCK
  5
20
330
1F
100
AcDbEntity
  8
0
100
AcDbBlockBegin
  2
*MODEL_SPACE
 70
     0
 10
0.0
 20
0.0
 30
0.0
  3
*MODEL_SPACE
  1

  0
ENDBLK
  5
21
330
1F
100
AcDbEntity
  8
0
100
AcDbBlockEnd
  0
BLOCK
  5
1C
330
1B
100
AcDbEntity
 67
     1
  8
0
100
AcDbBlockBegin
  2
*PAPER_SPACE
 70
     0
 10
0.0
 20
0.0
 30
0.0
  3
*PAPER_SPACE
  1

  0
ENDBLK
  5
1D
330
1B
100
AcDbEntity
 67
     1
  8
0
100
AcDbBlockEnd
  0
ENDSEC
  0
SECTION
  2
ENTITIES
  0
MTEXT
  5
71
330
1F
100
AcDbEntity
  8
ANNOTATION_TEXT
 60
     1
100
AcDbMText
 10
0.5965889577697636
 20
4.671628633298413
 30
0.0
 40
0.12
 41
0.0
 71
     2
 72
     1
  1

  7
ONSHAPE-STANDARD
1001
ACAD
1000
ACAD_MTEXT_DEFINED_HEIGHT_BEGIN
1070
    46
1040
0.12
1000
ACAD_MTEXT_DEFINED_HEIGHT_END
  0
ELLIPSE
  5
77
330
1F
100
AcDbEntity
  8
VISIBLE
100
AcDbEllipse
 10
1.02364423373182
 20
5.692092349712304
 30
0.0
 11
0.1038342573987219
 21
0.0
 31
0.0
210
0.0
220
0.0
230
-1.0
 40
0.577350269189623
 41
0.0497793961439618
 42
2.271275542788944
  0
ELLIPSE
  5
78
330
1F
100
AcDbEntity
  8
VISIBLE
100
AcDbEllipse
 10
1.029871653976175
 20
5.694462906117055
 30
0.0
 11
0.05185889626375051
 21
0.08982224315326093
 31
0.0
210
0.0
220
0.0
230
1.0
 40
0.5773502691896278
 41
2.426701538021975
 42
3.201670754525308
  0
ARC
  5
79
330
1F
100
AcDbEntity
  8
VISIBLE
100
AcDbCircle
 10
1.02364423373182
 20
5.698058308871491
 30
0.0
 40
0.1040910275315675
100
AcDbArc
 50
245.9478284883509
 51
250.480233683055
  0
ARC
  5
7A
330
1F
100
AcDbEntity
  8
VISIBLE
100
AcDbCircle
 10
1.02364423373182
 20
5.698058308871491
 30
0.0
 40
0.1040910275315675
100
AcDbArc
 50
250.480233683055
 51
259.3294075320707
  0
ARC
  5
7B
330
1F
100
AcDbEntity
  8
VISIBLE
100
AcDbCircle
 10
1.02364423373182
 20
5.698058308871491
 30
0.0
 40
0.1040910275315675
100
AcDbArc
 50
259.3294075320707
 51
287.3750121347528
  0
ARC
  5
7C
330
1F
100
AcDbEntity
  8
VISIBLE
100
AcDbCircle
 10
1.02364423373182
 20
5.698058308871491
 30
0.0
 40
0.1040910275315675
100
AcDbArc
 50
287.3750121347528
 51
289.1125667243126
  0
ARC
  5
7D
330
1F
100
AcDbEntity
  8
VISIBLE
100
AcDbCircle
 10
1.02364423373182
 20
5.698058308871491
 30
0.0
 40
0.1040910275315675
100
AcDbArc
 50
289.1125667243126
 51
300.0000000000002
  0
ARC
  5
7E
330
1F
100
AcDbEntity
  8
VISIBLE
100
AcDbCircle
 10
1.02364423373182
 20
5.698058308871491
 30
0.0
 40
0.1040910275315675
100
AcDbArc
 50
300.0000000000002
 51
355.0680652477205
  0
ELLIPSE
  5
7F
330
1F
100
AcDbEntity
  8
VISIBLE
100
AcDbEllipse
 10
1.029871653976175
 20
5.694462906117055
 30
0.0
 11
0.05185889626375139
 21
0.08982224315326093
 31
0.0
210
0.0
220
0.0
230
1.0
 40
0.5773502691896252
 41
6.223107206244053
 42
6.344339971480658
  0
ELLIPSE
  5
80
330
1F
100
AcDbEntity
  8
VISIBLE
100
AcDbEllipse
 10
1.029871653976175
 20
5.694462906117055
 30
0.0
 11
0.05185889626375139
 21
0.08982224315326093
 31
0.0
210
0.0
220
0.0
230
1.0
 40
0.5773502691896252
 41
1.293852550853637
 42
2.271179956907821
  0
ELLIPSE
  5
81
330
1F
100
AcDbEntity
  8
VISIBLE
100
AcDbEllipse
 10
1.02364423373182
 20
5.705249114380361
 30
0.0
 11
-0.1037177925275019
 21
0.0
 31
0.0
210
0.0
220
0.0
230
1.0
 40
0.577350269189623
 41
0.8704126966819742
 42
3.201670754525324
  0
ARC
  5
82
330
1F
100
AcDbEntity
  8
VISIBLE
100
AcDbCircle
 10
1.02364423373182
 20
5.698058308871491
 30
0.0
 40
0.1040910275315675
100
AcDbArc
 50
5.947828488350506
 51
54.05217151164923
  0
ELLIPSE
  5
83
330
1F
100
AcDbEntity
  8
VISIBLE
100
AcDbEllipse
 10
1.02364423373182
 20
5.705249114380361
 30
0.0
 11
-0.1037177925275019
 21
0.0
 31
0.0
210
0.0
220
0.0
230
1.0
 40
0.577350269189623
 41
6.223107206244054
 42
6.998076422747394
  0
ELLIPSE
  5
84
330
1F
100
AcDbEntity
  8
VISIBLE
100
AcDbEllipse
 10
1.018477561542024
 20
5.701041288451083
 30
0.0
 11
-0.05191712869936094
 21
-0.089923104690385
 31
0.0
210
0.0
220
0.0
230
-1.0
 40
0.5773502691896272
 41
0.8703171108008315
 42
1.785841572334499
  0
ARC
  5
85
330
1F
100
AcDbEntity
  8
VISIBLE
100
AcDbCircle
 10
1.02364423373182
 20
5.698058308871491
 30
0.0
 40
0.1040910275315675
100
AcDbArc
 50
140.8481886692188
 51
174.0521715116495
  0
ELLIPSE
  5
86
330
1F
100
AcDbEntity
  8
VISIBLE
100
AcDbEllipse
 10
1.02364423373182
 20
5.692092349712304
 30
0.0
 11
0.1038342573987219
 21
0.0
 31
0.0
210
0.0
220
0.0
230
-1.0
 40
0.577350269189623
 41
0.0497793961439618
 42
2.271275542788944
  0
ELLIPSE
  5
87
330
1F
100
AcDbEntity
  8
VISIBLE
100
AcDbEllipse
 10
1.029871653976175
 20
5.694462906117055
 30
0.0
 11
0.05185889626375139
 21
0.08982224315326093
 31
0.0
210
0.0
220
0.0
230
1.0
 40
0.5773502691896252
 41
6.223107206244053
 42
6.344339971480658
  0
ELLIPSE
  5
88
330
1F
100
AcDbEntity
  8
VISIBLE
100
AcDbEllipse
 10
1.029871653976175
 20
5.694462906117055
 30
0.0
 11
0.05185889626375139
 21
0.08982224315326093
 31
0.0
210
0.0
220
0.0
230
1.0
 40
0.5773502691896252
 41
1.293852550853637
 42
2.271179956907821
  0
ELLIPSE
  5
89
330
1F
100
AcDbEntity
  8
VISIBLE
100
AcDbEllipse
 10
1.02364423373182
 20
5.705249114380361
 30
0.0
 11
-0.1037177925275019
 21
0.0
 31
0.0
210
0.0
220
0.0
230
1.0
 40
0.577350269189623
 41
6.223107206244054
 42
6.998076422747394
  0
ELLIPSE
  5
8A
330
1F
100
AcDbEntity
  8
VISIBLE
100
AcDbEllipse
 10
1.018477561542024
 20
5.701041288451083
 30
0.0
 11
-0.05191712869936094
 21
-0.089923104690385
 31
0.0
210
0.0
220
0.0
230
-1.0
 40
0.5773502691896272
 41
0.0497793961439776
 42
0.7149703303264268
  0
ELLIPSE
  5
8B
330
1F
100
AcDbEntity
  8
VISIBLE
100
AcDbEllipse
 10
1.029871653976175
 20
5.694462906117055
 30
0.0
 11
0.05185889626375051
 21
0.08982224315326093
 31
0.0
210
0.0
220
0.0
230
1.0
 40
0.5773502691896278
 41
2.426701538021975
 42
3.201670754525308
  0
ELLIPSE
  5
8C
330
1F
100
AcDbEntity
  8
VISIBLE
100
AcDbEllipse
 10
1.02364423373182
 20
5.705249114380361
 30
0.0
 11
-0.1037177925275019
 21
0.0
 31
0.0
210
0.0
220
0.0
230
1.0
 40
0.577350269189623
 41
0.8704126966819742
 42
3.201670754525324
  0
ELLIPSE
  5
8D
330
1F
100
AcDbEntity
  8
VISIBLE
100
AcDbEllipse
 10
1.018477561542024
 20
5.701041288451083
 30
0.0
 11
-0.05191712869936094
 21
-0.089923104690385
 31
0.0
210
0.0
220
0.0
230
-1.0
 40
0.5773502691896272
 41
0.8703171108008315
 42
1.785841572334499
  0
ELLIPSE
  5
8E
330
1F
100
AcDbEntity
  8
VISIBLE
100
AcDbEllipse
 10
1.02364423373182
 20
5.692092349712304
 30
0.0
 11
0.1038342573987219
 21
0.0
 31
0.0
210
0.0
220
0.0
230
-1.0
 40
0.577350269189623
 41
2.426622323263344
 42
3.091813257445831
  0
ARC
  5
8F
330
1F
100
AcDbEntity
  8
VISIBLE
100
AcDbCircle
 10
1.02364423373182
 20
5.698058308871491
 30
0.0
 40
0.1040910275315675
100
AcDbArc
 50
235.0680652477209
 51
245.9478284883509
  0
ARC
  5
90
330
1F
100
AcDbEntity
  8
VISIBLE
100
AcDbCircle
 10
1.02364423373182
 20
5.698058308871491
 30
0.0
 40
0.1040910275315675
100
AcDbArc
 50
174.0521715116495
 51
184.9319347522795
  0
ARC
  5
91
330
1F
100
AcDbEntity
  8
VISIBLE
100
AcDbCircle
 10
1.02364423373182
 20
5.698058308871491
 30
0.0
 40
0.1040910275315675
100
AcDbArc
 50
54.05217151164923
 51
58.01130793310754
  0
ARC
  5
92
330
1F
100
AcDbEntity
  8
VISIBLE
100
AcDbCircle
 10
1.02364423373182
 20
5.698058308871491
 30
0.0
 40
0.1040910275315675
100
AcDbArc
 50
355.0680652477205
 51
5.947828488350506
  0
ELLIPSE
  5
93
330
1F
100
AcDbEntity
  8
VISIBLE
100
AcDbEllipse
 10
1.018477561542024
 20
5.701041288451083
 30
0.0
 11
-0.05191712869936094
 21
-0.089923104690385
 31
0.0
210
0.0
220
0.0
230
-1.0
 40
0.5773502691896272
 41
0.0497793961439776
 42
0.7149703303264268
  0
ELLIPSE
  5
94
330
1F
100
AcDbEntity
  8
VISIBLE
100
AcDbEllipse
 10
1.02364423373182
 20
5.692092349712304
 30
0.0
 11
0.1038342573987219
 21
0.0
 31
0.0
210
0.0
220
0.0
230
-1.0
 40
0.577350269189623
 41
2.426622323263344
 42
3.091813257445831
  0
ARC
  5
95
330
1F
100
AcDbEntity
  8
VISIBLE
100
AcDbCircle
 10
1.02364423373182
 20
5.698058308871491
 30
0.0
 40
0.1040910275315675
100
AcDbArc
 50
184.9319347522795
 51
235.0680652477209
  0
ELLIPSE
  5
96
330
1F
100
AcDbEntity
  8
VISIBLE
100
AcDbEllipse
 10
0.6758345070334064
 20
5.981843633295769
 30
0.0
 11
-0.03635163860893087
 21
0.09726310389859893
 31
0.0
210
0.0
220
0.0
230
-1.0
 40
0.6688348434219149
 41
0.7664275636970886
 42
3.078239872030494
  0
ELLIPSE
  5
97
330
1F
100
AcDbEntity
  8
VISIBLE
100
AcDbEllipse
 10
0.6769737484479785
 20
5.976346547060301
 30
0.0
 11
0.05185889626375139
 21
0.08982224315326093
 31
0.0
210
0.0
220
0.0
230
1.0
 40
0.5773502691896252
 41
6.223107206244059
 42
6.823543497547961
  0
ARC
  5
98
330
1F
100
AcDbEntity
  8
VISIBLE
100
AcDbCircle
 10
0.6707463282036228
 20
5.979941949814735
 30
0.0
 40
0.1040910275315675
100
AcDbArc
 50
295.9111824232489
 51
300.0000000000005
  0
ARC
  5
99
330
1F
100
AcDbEntity
  8
VISIBLE
100
AcDbCircle
 10
0.6707463282036228
 20
5.979941949814735
 30
0.0
 40
0.1040910275315675
100
AcDbArc
 50
300.0000000000005
 51
321.5886827775212
  0
ARC
  5
9A
330
1F
100
AcDbEntity
  8
VISIBLE
100
AcDbCircle
 10
0.6707463282036228
 20
5.979941949814735
 30
0.0
 40
0.1040910275315675
100
AcDbArc
 50
321.5886827775212
 51
323.1760660394449
  0
ARC
  5
9B
330
1F
100
AcDbEntity
  8
VISIBLE
100
AcDbCircle
 10
0.6707463282036228
 20
5.979941949814735
 30
0.0
 40
0.1040910275315675
100
AcDbArc
 50
323.1760660394449
 51
323.4521824009944
  0
ARC
  5
9C
330
1F
100
AcDbEntity
  8
VISIBLE
100
AcDbCircle
 10
0.6707463282036228
 20
5.979941949814735
 30
0.0
 40
0.1040910275315675
100
AcDbArc
 50
323.4521824009944
 51
327.0241697789073
  0
ARC
  5
9D
330
1F
100
AcDbEntity
  8
VISIBLE
100
AcDbCircle
 10
0.6707463282036228
 20
5.979941949814735
 30
0.0
 40
0.1040910275315675
100
AcDbArc
 50
327.0241697789073
 51
26.75233774153023
  0
ARC
  5
9E
330
1F
100
AcDbEntity
  8
VISIBLE
100
AcDbCircle
 10
0.6707463282036228
 20
5.979941949814735
 30
0.0
 40
0.1040910275315675
100
AcDbArc
 50
26.75233774153023
 51
35.03754142380932
  0
ARC
  5
9F
330
1F
100
AcDbEntity
  8
VISIBLE
100
AcDbCircle
 10
0.6707463282036228
 20
5.979941949814735
 30
0.0
 40
0.1040910275315675
100
AcDbArc
 50
35.03754142380932
 51
44.42909302162442
  0
ARC
  5
A0
330
1F
100
AcDbEntity
  8
VISIBLE
100
AcDbCircle
 10
0.6707463282036228
 20
5.979941949814735
 30
0.0
 40
0.1040910275315675
100
AcDbArc
 50
44.42909302162442
 51
49.61296705430003
  0
ARC
  5
A1
330
1F
100
AcDbEntity
  8
VISIBLE
100
AcDbCircle
 10
0.6707463282036228
 20
5.979941949814735
 30
0.0
 40
0.1040910275315675
100
AcDbArc
 50
49.61296705430003
 51
54.05217151164923
  0
ELLIPSE
  5
A2
330
1F
100
AcDbEntity
  8
VISIBLE
100
AcDbEllipse
 10
0.8163440159951474
 20
5.99823794281134
 30
0.0
 11
0.05185889626375139
 21
0.08982224315326093
 31
0.0
210
0.0
220
0.0
230
1.0
 40
0.5773502691896252
 41
6.223107206244059
 42
6.474477647149095
  0
ELLIPSE
  5
A3
330
1F
100
AcDbEntity
  8
VISIBLE
100
AcDbEllipse
 10
0.8047234916191384
 20
6.002315038198033
 30
0.0
 11
-0.009226968992914308
 21
-0.1033065512442546
 31
0.0
210
0.0
220
0.0
230
1.0
 40
0.7886751345948135
 41
6.174043894394236
 42
8.98888401661261
  0
ELLIPSE
  5
A4
330
1F
100
AcDbEntity
  8
VISIBLE
100
AcDbEllipse
 10
0.8049499235609963
 20
6.004816325145368
 30
0.0
 11
-0.05191712869936094
 21
-0.089923104690385
 31
0.0
210
0.0
220
0.0
230
-1.0
 40
0.5773502691896272
 41
1.625947452986161
 42
2.794874318387243
  0
ELLIPSE
  5
A5
330
1F
100
AcDbEntity
  8
VISIBLE
100
AcDbEllipse
 10
0.8145910651201813
 20
6.001433702081079
 30
0.0
 11
0.009237329970806842
 21
0.1034225543319947
 31
0.0
210
0.0
220
0.0
230
-1.0
 40
0.7886751345948109
 41
0.0903928220896691
 42
0.280451577801255
  0
ELLIPSE
  5
A6
330
1F
100
AcDbEntity
  8
VISIBLE
100
AcDbEllipse
 10
0.8145910651201813
 20
6.001433702081079
 30
0.0
 11
0.009237329970806842
 21
0.1034225543319947
 31
0.0
210
0.0
220
0.0
230
-1.0
 40
0.7886751345948109
 41
0.4357983582756416
 42
3.051199831500135
  0
ELLIPSE
  5
A7
330
1F
100
AcDbEntity
  8
VISIBLE
100
AcDbEllipse
 10
0.8163440159951474
 20
5.99823794281134
 30
0.0
 11
0.05185889626375139
 21
0.08982224315326093
 31
0.0
210
0.0
220
0.0
230
1.0
 40
0.5773502691896252
 41
0.34681392108368
 42
1.586140726283045
  0
ELLIPSE
  5
A8
330
1F
100
AcDbEntity
  8
VISIBLE
100
AcDbEllipse
 10
0.8163440159951474
 20
5.99823794281134
 30
0.0
 11
0.05185889626375139
 21
0.08982224315326093
 31
0.0
210
0.0
220
0.0
230
1.0
 40
0.5773502691896252
 41
2.912655521841811
 42
3.201670754525321
  0
ELLIPSE
  5
A9
330
1F
100
AcDbEntity
  8
VISIBLE
100
AcDbEllipse
 10
0.8047234916191384
 20
6.002315038198033
 30
0.0
 11
-0.009226968992914308
 21
-0.1033065512442546
 31
0.0
210
0.0
220
0.0
230
1.0
 40
0.7886751345948135
 41
2.861220290547184
 42
3.250734066375126
  0
ELLIPSE
  5
AA
330
1F
100
AcDbEntity
  8
VISIBLE
100
AcDbEllipse
 10
0.8049499235609963
 20
6.004816325145368
 30
0.0
 11
-0.05191712869936094
 21
-0.089923104690385
 31
0.0
210
0.0
220
0.0
230
-1.0
 40
0.5773502691896272
 41
2.95022109886165
 42
3.091813257445825
  0
ARC
  5
AB
330
1F
100
AcDbEntity
  8
VISIBLE
100
AcDbCircle
 10
0.8101165957507916
 20
6.001833345565775
 30
0.0
 40
0.1040910275315675
100
AcDbArc
 50
256.9861744449194
 51
271.4521416535562
  0
ARC
  5
AC
330
1F
100
AcDbEntity
  8
VISIBLE
100
AcDbCircle
 10
0.8101165957507916
 20
6.001833345565775
 30
0.0
 40
0.1040910275315675
100
AcDbArc
 50
236.2647572021517
 51
245.9478284883507
  0
ARC
  5
AD
330
1F
100
AcDbEntity
  8
VISIBLE
100
AcDbCircle
 10
0.8101165957507916
 20
6.001833345565775
 30
0.0
 40
0.1040910275315675
100
AcDbArc
 50
78.34003962440967
 51
92.80600683304641
  0
ARC
  5
AE
330
1F
100
AcDbEntity
  8
VISIBLE
100
AcDbCircle
 10
0.8101165957507916
 20
6.001833345565775
 30
0.0
 40
0.1040910275315675
100
AcDbArc
 50
54.05217151164923
 51
64.93193475227923
  0
ELLIPSE
  5
AF
330
1F
100
AcDbEntity
  8
VISIBLE
100
AcDbEllipse
 10
0.8145910651201813
 20
6.001433702081079
 30
0.0
 11
0.009237329970806842
 21
0.1034225543319947
 31
0.0
210
0.0
220
0.0
230
-1.0
 40
0.7886751345948109
 41
0.0903928220896691
 42
0.280451577801255
  0
ELLIPSE
  5
B0
330
1F
100
AcDbEntity
  8
VISIBLE
100
AcDbEllipse
 10
0.8049499235609963
 20
6.004816325145368
 30
0.0
 11
-0.05191712869936094
 21
-0.089923104690385
 31
0.0
210
0.0
220
0.0
230
-1.0
 40
0.5773502691896272
 41
2.95022109886165
 42
3.091813257445825
  0
ARC
  5
B1
330
1F
100
AcDbEntity
  8
VISIBLE
100
AcDbCircle
 10
0.8101165957507916
 20
6.001833345565775
 30
0.0
 40
0.1040910275315675
100
AcDbArc
 50
64.93193475227923
 51
78.34003962440967
  0
ELLIPSE
  5
B2
330
1F
100
AcDbEntity
  8
VISIBLE
100
AcDbEllipse
 10
0.999656755221868
 20
5.847260264313135
 30
0.0
 11
0.09688995917218524
 21
0.03733482049181625
 31
0.0
210
0.0
220
0.0
230
-1.0
 40
0.7399972093835979
 41
0.0774973495939353
 42
2.517967377040331
  0
ELLIPSE
  5
B3
330
1F
100
AcDbEntity
  8
VISIBLE
100
AcDbEllipse
 10
1.004117069503353
 20
5.848250790253148
 30
0.0
 11
0.05185889626375051
 21
0.08982224315326093
 31
0.0
210
0.0
220
0.0
230
1.0
 40
0.5773502691896278
 41
2.775767388420845
 42
3.201670754525308
  0
ARC
  5
B4
330
1F
100
AcDbEntity
  8
VISIBLE
100
AcDbCircle
 10
0.9978896492589975
 20
5.851846193007583
 30
0.0
 40
0.1040910275315675
100
AcDbArc
 50
245.9478284883509
 51
250.3775369479482
  0
ARC
  5
B5
330
1F
100
AcDbEntity
  8
VISIBLE
100
AcDbCircle
 10
0.9978896492589975
 20
5.851846193007583
 30
0.0
 40
0.1040910275315675
100
AcDbArc
 50
250.3775369479482
 51
321.0026945425525
  0
ARC
  5
B6
330
1F
100
AcDbEntity
  8
VISIBLE
100
AcDbCircle
 10
0.9978896492589975
 20
5.851846193007583
 30
0.0
 40
0.1040910275315675
100
AcDbArc
 50
321.0026945425525
 51
15.08277408271506
  0
ELLIPSE
  5
B7
330
1F
100
AcDbEntity
  8
VISIBLE
100
AcDbEllipse
 10
1.004117069503353
 20
5.848250790253148
 30
0.0
 11
0.05185889626375139
 21
0.08982224315326093
 31
0.0
210
0.0
220
0.0
230
1.0
 40
0.5773502691896252
 41
6.223107206244059
 42
6.756094580358886
  0
ELLIPSE
  5
B8
330
1F
100
AcDbEntity
  8
VISIBLE
100
AcDbEllipse
 10
1.004117069503353
 20
5.848250790253148
 30
0.0
 11
0.05185889626375139
 21
0.08982224315326093
 31
0.0
210
0.0
220
0.0
230
1.0
 40
0.5773502691896252
 41
1.824585985095694
 42
2.620245807306695
  0
ELLIPSE
  5
B9
330
1F
100
AcDbEntity
  8
VISIBLE
100
AcDbEllipse
 10
0.9957597460944738
 20
5.85737363971639
 30
0.0
 11
-0.0967812833179913
 21
-0.03729294418654394
 31
0.0
210
0.0
220
0.0
230
1.0
 40
0.7399972093835986
 41
0.6237208624305804
 42
3.235148392517707
  0
ARC
  5
BA
330
1F
100
AcDbEntity
  8
VISIBLE
100
AcDbCircle
 10
0.9978896492589975
 20
5.851846193007583
 30
0.0
 40
0.1040910275315675
100
AcDbArc
 50
28.29966757903766
 51
54.05217151164923
  0
ELLIPSE
  5
BB
330
1F
100
AcDbEntity
  8
VISIBLE
100
AcDbEllipse
 10
0.9927229770692021
 20
5.854829172587176
 30
0.0
 11
-0.05191712869936094
 21
-0.089923104690385
 31
0.0
210
0.0
220
0.0
230
-1.0
 40
0.5773502691896272
 41
0.5212512604019593
 42
1.232835383757657
  0
ELLIPSE
  5
BC
330
1F
100
AcDbEntity
  8
VISIBLE
100
AcDbEllipse
 10
0.9927229770692021
 20
5.854829172587176
 30
0.0
 11
-0.05191712869936094
 21
-0.089923104690385
 31
0.0
210
0.0
220
0.0
230
-1.0
 40
0.5773502691896272
 41
2.850141576261199
 42
3.091813257445825
  0
ELLIPSE
  5
BD
330
1F
100
AcDbEntity
  8
VISIBLE
100
AcDbEllipse
 10
0.9957597460944738
 20
5.857373639716391
 30
0.0
 11
-0.0967812833179913
 21
-0.03729294418654394
 31
0.0
210
0.0
220
0.0
230
1.0
 40
0.7399972093835986
 41
6.189629568251689
 42
6.751384588496024
  0
ARC
  5
BE
330
1F
100
AcDbEntity
  8
VISIBLE
100
AcDbCircle
 10
0.9978896492589975
 20
5.851846193007583
 30
0.0
 40
0.1040910275315675
100
AcDbArc
 50
64.93193475227923
 51
73.37893351720416
  0
ARC
  5
BF
330
1F
100
AcDbEntity
  8
VISIBLE
100
AcDbCircle
 10
0.9978896492589975
 20
5.851846193007583
 30
0.0
 40
0.1040910275315675
100
AcDbArc
 50
176.8288852048302
 51
193.8468924412903
  0
ELLIPSE
  5
C0
330
1F
100
AcDbEntity
  8
VISIBLE
100
AcDbEllipse
 10
0.999656755221868
 20
5.847260264313135
 30
0.0
 11
0.09688995917218524
 21
0.03733482049181625
 31
0.0
210
0.0
220
0.0
230
-1.0
 40
0.7399972093835979
 41
0.0774973495939353
 42
2.517967377040331
  0
ELLIPSE
  5
C1
330
1F
100
AcDbEntity
  8
VISIBLE
100
AcDbEllipse
 10
1.004117069503353
 20
5.848250790253148
 30
0.0
 11
0.05185889626375139
 21
0.08982224315326093
 31
0.0
210
0.0
220
0.0
230
1.0
 40
0.5773502691896252
 41
6.223107206244059
 42
6.756094580358886
  0
ELLIPSE
  5
C2
330
1F
100
AcDbEntity
  8
VISIBLE
100
AcDbEllipse
 10
1.004117069503353
 20
5.848250790253148
 30
0.0
 11
0.05185889626375139
 21
0.08982224315326093
 31
0.0
210
0.0
220
0.0
230
1.0
 40
0.5773502691896252
 41
1.824585985095694
 42
2.620245807306695
  0
ELLIPSE
  5
C3
330
1F
100
AcDbEntity
  8
VISIBLE
100
AcDbEllipse
 10
0.9957597460944738
 20
5.857373639716391
 30
0.0
 11
-0.0967812833179913
 21
-0.03729294418654394
 31
0.0
210
0.0
220
0.0
230
1.0
 40
0.7399972093835986
 41
6.189629568251689
 42
6.751384588496024
  0
ELLIPSE
  5
C4
330
1F
100
AcDbEntity
  8
VISIBLE
100
AcDbEllipse
 10
0.9927229770692021
 20
5.854829172587176
 30
0.0
 11
-0.05191712869936094
 21
-0.089923104690385
 31
0.0
210
0.0
220
0.0
230
-1.0
 40
0.5773502691896272
 41
0.0497793961439776
 42
0.3659044799275694
  0
ELLIPSE
  5
C5
330
1F
100
AcDbEntity
  8
VISIBLE
100
AcDbEllipse
 10
1.004117069503353
 20
5.848250790253148
 30
0.0
 11
0.05185889626375051
 21
0.08982224315326093
 31
0.0
210
0.0
220
0.0
230
1.0
 40
0.5773502691896278
 41
2.775767388420845
 42
3.201670754525308
  0
ELLIPSE
  5
C6
330
1F
100
AcDbEntity
  8
VISIBLE
100
AcDbEllipse
 10
0.9957597460944738
 20
5.85737363971639
 30
0.0
 11
-0.0967812833179913
 21
-0.03729294418654394
 31
0.0
210
0.0
220
0.0
230
1.0
 40
0.7399972093835986
 41
0.6237208624305804
 42
3.235148392517707
  0
ELLIPSE
  5
C7
330
1F
100
AcDbEntity
  8
VISIBLE
100
AcDbEllipse
 10
0.9927229770692021
 20
5.854829172587176
 30
0.0
 11
-0.05191712869936094
 21
-0.089923104690385
 31
0.0
210
0.0
220
0.0
230
-1.0
 40
0.5773502691896272
 41
0.5212512604019593
 42
1.232835383757657
  0
ELLIPSE
  5
C8
330
1F
100
AcDbEntity
  8
VISIBLE
100
AcDbEllipse
 10
0.9927229770692021
 20
5.854829172587176
 30
0.0
 11
-0.05191712869936094
 21
-0.089923104690385
 31
0.0
210
0.0
220
0.0
230
-1.0
 40
0.5773502691896272
 41
2.850141576261199
 42
3.091813257445825
  0
ELLIPSE
  5
C9
330
1F
100
AcDbEntity
  8
VISIBLE
100
AcDbEllipse
 10
0.999656755221868
 20
5.847260264313135
 30
0.0
 11
0.09688995917218524
 21
0.03733482049181713
 31
0.0
210
0.0
220
0.0
230
-1.0
 40
0.7399972093835955
 41
2.673314157514742
 42
3.064095303995839
  0
ARC
  5
CA
330
1F
100
AcDbEntity
  8
VISIBLE
100
AcDbCircle
 10
0.9978896492589975
 20
5.851846193007583
 30
0.0
 40
0.1040910275315675
100
AcDbArc
 50
235.0680652477206
 51
238.0113079331082
  0
ARC
  5
CB
330
1F
100
AcDbEntity
  8
VISIBLE
100
AcDbCircle
 10
0.9978896492589975
 20
5.851846193007583
 30
0.0
 40
0.1040910275315675
100
AcDbArc
 50
238.0113079331082
 51
245.9478284883509
  0
ARC
  5
CC
330
1F
100
AcDbEntity
  8
VISIBLE
100
AcDbCircle
 10
0.9978896492589975
 20
5.851846193007583
 30
0.0
 40
0.1040910275315675
100
AcDbArc
 50
193.8468924412903
 51
207.0637859376126
  0
ARC
  5
CD
330
1F
100
AcDbEntity
  8
VISIBLE
100
AcDbCircle
 10
0.9978896492589975
 20
5.851846193007583
 30
0.0
 40
0.1040910275315675
100
AcDbArc
 50
54.05217151164923
 51
64.93193475227923
  0
ARC
  5
CE
330
1F
100
AcDbEntity
  8
VISIBLE
100
AcDbCircle
 10
0.9978896492589975
 20
5.851846193007583
 30
0.0
 40
0.1040910275315675
100
AcDbArc
 50
15.08277408271506
 51
28.29966757903766
  0
ELLIPSE
  5
CF
330
1F
100
AcDbEntity
  8
VISIBLE
100
AcDbEllipse
 10
0.9927229770692021
 20
5.854829172587176
 30
0.0
 11
-0.05191712869936094
 21
-0.089923104690385
 31
0.0
210
0.0
220
0.0
230
-1.0
 40
0.5773502691896272
 41
0.0497793961439776
 42
0.3659044799275694
  0
ELLIPSE
  5
D0
330
1F
100
AcDbEntity
  8
VISIBLE
100
AcDbEllipse
 10
0.999656755221868
 20
5.847260264313135
 30
0.0
 11
0.09688995917218524
 21
0.03733482049181713
 31
0.0
210
0.0
220
0.0
230
-1.0
 40
0.7399972093835955
 41
2.673314157514742
 42
3.064095303995839
  0
ARC
  5
D1
330
1F
100
AcDbEntity
  8
VISIBLE
100
AcDbCircle
 10
0.9978896492589975
 20
5.851846193007583
 30
0.0
 40
0.1040910275315675
100
AcDbArc
 50
207.0637859376126
 51
235.0680652477206
  0
ELLIPSE
  5
D2
330
1F
100
AcDbEntity
  8
VISIBLE
100
AcDbEllipse
 10
0.9270533516920505
 20
5.954693388544858
 30
0.0
 11
0.06480379402390213
 21
0.08112965727557153
 31
0.0
210
0.0
220
0.0
230
-1.0
 40
0.8133895649302385
 41
0.0985538489524525
 42
2.934035426884159
  0
ELLIPSE
  5
D3
330
1F
100
AcDbEntity
  8
VISIBLE
100
AcDbEllipse
 10
0.929959699069494
 20
5.953750753338482
 30
0.0
 11
0.05185889626375051
 21
0.08982224315326093
 31
0.0
210
0.0
220
0.0
230
1.0
 40
0.5773502691896278
 41
3.124833238819719
 42
3.201670754525308
  0
ARC
  5
D4
330
1F
100
AcDbEntity
  8
VISIBLE
100
AcDbCircle
 10
0.9237322788251383
 20
5.957346156092918
 30
0.0
 40
0.1040910275315675
100
AcDbArc
 50
245.9478284883507
 51
253.3789335172048
  0
ARC
  5
D5
330
1F
100
AcDbEntity
  8
VISIBLE
100
AcDbCircle
 10
0.9237322788251383
 20
5.957346156092918
 30
0.0
 40
0.1040910275315675
100
AcDbArc
 50
253.3789335172048
 51
356.8288852048297
  0
ARC
  5
D6
330
1F
100
AcDbEntity
  8
VISIBLE
100
AcDbCircle
 10
0.9237322788251383
 20
5.957346156092918
 30
0.0
 40
0.1040910275315675
100
AcDbArc
 50
356.8288852048297
 51
44.45248253801614
  0
ELLIPSE
  5
D7
330
1F
100
AcDbEntity
  8
VISIBLE
100
AcDbEllipse
 10
0.9197293702517557
 20
5.960543552352155
 30
0.0
 11
-0.06473110736234489
 21
-0.08103865883899175
 31
0.0
210
0.0
220
0.0
230
1.0
 40
0.8133895649302378
 41
0.2076528125867629
 42
3.179216399607521
  0
ELLIPSE
  5
D8
330
1F
100
AcDbEntity
  8
VISIBLE
100
AcDbEllipse
 10
0.929959699069494
 20
5.953750753338482
 30
0.0
 11
0.05185889626375139
 21
0.08982224315326093
 31
0.0
210
0.0
220
0.0
230
1.0
 40
0.5773502691896252
 41
6.280933377864404
 42
7.322024277750328
  0
ELLIPSE
  5
D9
330
1F
100
AcDbEntity
  8
VISIBLE
100
AcDbEllipse
 10
0.929959699069494
 20
5.953750753338482
 30
0.0
 11
0.05185889626375139
 21
0.08982224315326093
 31
0.0
210
0.0
220
0.0
230
1.0
 40
0.5773502691896252
 41
2.388120697836823
 42
2.969311657705556
  0
ELLIPSE
  5
DA
330
1F
100
AcDbEntity
  8
VISIBLE
100
AcDbEllipse
 10
0.9185656066353429
 20
5.96032913567251
 30
0.0
 11
-0.05191712869936094
 21
-0.089923104690385
 31
0.0
210
0.0
220
0.0
230
-1.0
 40
0.5773502691896272
 41
0.1721854100031109
 42
0.6152831432949095
  0
ELLIPSE
  5
DB
330
1F
100
AcDbEntity
  8
VISIBLE
100
AcDbEllipse
 10
0.9185656066353429
 20
5.96032913567251
 30
0.0
 11
-0.05191712869936094
 21
-0.089923104690385
 31
0.0
210
0.0
220
0.0
230
-1.0
 40
0.5773502691896272
 41
2.208291299794192
 42
3.091813257445825
  0
ELLIPSE
  5
DC
330
1F
100
AcDbEntity
  8
VISIBLE
100
AcDbEllipse
 10
0.9197293702517557
 20
5.960543552352155
 30
0.0
 11
-0.06473110736234489
 21
-0.08103865883899175
 31
0.0
210
0.0
220
0.0
230
1.0
 40
0.8133895649302378
 41
6.164176079864919
 42
6.335316538652194
  0
ARC
  5
DD
330
1F
100
AcDbEntity
  8
VISIBLE
100
AcDbCircle
 10
0.9237322788251383
 20
5.957346156092918
 30
0.0
 40
0.1040910275315675
100
AcDbArc
 50
64.93193475227923
 51
104.4972793821824
  0
ARC
  5
DE
330
1F
100
AcDbEntity
  8
VISIBLE
100
AcDbCircle
 10
0.9237322788251383
 20
5.957346156092918
 30
0.0
 40
0.1040910275315675
100
AcDbArc
 50
212.7362191570154
 51
223.0202490280623
  0
ELLIPSE
  5
DF
330
1F
100
AcDbEntity
  8
VISIBLE
100
AcDbEllipse
 10
0.9270533516920505
 20
5.954693388544858
 30
0.0
 11
0.06480379402390213
 21
0.08112965727557153
 31
0.0
210
0.0
220
0.0
230
-1.0
 40
0.8133895649302385
 41
0.0985538489524525
 42
2.934035426884159
  0
ELLIPSE
  5
E0
330
1F
100
AcDbEntity
  8
VISIBLE
100
AcDbEllipse
 10
0.9197293702517557
 20
5.960543552352155
 30
0.0
 11
-0.06473110736234489
 21
-0.08103865883899175
 31
0.0
210
0.0
220
0.0
230
1.0
 40
0.8133895649302378
 41
6.164176079864919
 42
6.335316538652194
  0
ELLIPSE
  5
E1
330
1F
100
AcDbEntity
  8
VISIBLE
100
AcDbEllipse
 10
0.929959699069494
 20
5.953750753338482
 30
0.0
 11
0.05185889626375051
 21
0.08982224315326093
 31
0.0
210
0.0
220
0.0
230
1.0
 40
0.5773502691896278
 41
3.124833238819719
 42
3.201670754525308
  0
ELLIPSE
  5
E2
330
1F
100
AcDbEntity
  8
VISIBLE
100
AcDbEllipse
 10
0.929959699069494
 20
5.953750753338482
 30
0.0
 11
0.05185889626375139
 21
0.08982224315326093
 31
0.0
210
0.0
220
0.0
230
1.0
 40
0.5773502691896252
 41
6.280933377864404
 42
7.322024277750328
  0
ELLIPSE
  5
E3
330
1F
100
AcDbEntity
  8
VISIBLE
100
AcDbEllipse
 10
0.929959699069494
 20
5.953750753338482
 30
0.0
 11
0.05185889626375139
 21
0.08982224315326093
 31
0.0
210
0.0
220
0.0
230
1.0
 40
0.5773502691896252
 41
2.388120697836823
 42
2.969311657705556
  0
ELLIPSE
  5
E4
330
1F
100
AcDbEntity
  8
VISIBLE
100
AcDbEllipse
 10
0.9197293702517557
 20
5.960543552352155
 30
0.0
 11
-0.06473110736234489
 21
-0.08103865883899175
 31
0.0
210
0.0
220
0.0
230
1.0
 40
0.8133895649302378
 41
0.2076528125867629
 42
3.179216399607521
  0
ELLIPSE
  5
E5
330
1F
100
AcDbEntity
  8
VISIBLE
100
AcDbEllipse
 10
0.9185656066353429
 20
5.96032913567251
 30
0.0
 11
-0.05191712869936094
 21
-0.089923104690385
 31
0.0
210
0.0
220
0.0
230
-1.0
 40
0.5773502691896272
 41
0.1721854100031109
 42
0.6152831432949095
  0
ELLIPSE
  5
E6
330
1F
100
AcDbEntity
  8
VISIBLE
100
AcDbEllipse
 10
0.9185656066353429
 20
5.96032913567251
 30
0.0
 11
-0.05191712869936094
 21
-0.089923104690385
 31
0.0
210
0.0
220
0.0
230
-1.0
 40
0.5773502691896272
 41
2.208291299794192
 42
3.091813257445825
  0
ARC
  5
E7
330
1F
100
AcDbEntity
  8
VISIBLE
100
AcDbCircle
 10
0.9237322788251383
 20
5.957346156092918
 30
0.0
 40
0.1040910275315675
100
AcDbArc
 50
223.0202490280623
 51
245.9478284883507
  0
ARC
  5
E8
330
1F
100
AcDbEntity
  8
VISIBLE
100
AcDbCircle
 10
0.9237322788251383
 20
5.957346156092918
 30
0.0
 40
0.1040910275315675
100
AcDbArc
 50
44.45248253801614
 51
64.93193475227923
  0
ELLIPSE
  5
E9
330
1F
100
AcDbEntity
  8
VISIBLE
100
AcDbEllipse
 10
0.8145910651201813
 20
6.001433702081079
 30
0.0
 11
0.009237329970806842
 21
0.1034225543319947
 31
0.0
210
0.0
220
0.0
230
-1.0
 40
0.7886751345948109
 41
0.4357983582756416
 42
3.051199831500135
  0
ELLIPSE
  5
EA
330
1F
100
AcDbEntity
  8
VISIBLE
100
AcDbEllipse
 10
0.8163440159951474
 20
5.99823794281134
 30
0.0
 11
0.05185889626375139
 21
0.08982224315326093
 31
0.0
210
0.0
220
0.0
230
1.0
 40
0.5773502691896252
 41
6.223107206244059
 42
6.474477647149095
  0
ARC
  5
EB
330
1F
100
AcDbEntity
  8
VISIBLE
100
AcDbCircle
 10
0.8101165957507916
 20
6.001833345565775
 30
0.0
 40
0.1040910275315675
100
AcDbArc
 50
271.4521416535562
 51
284.4972793821819
  0
ARC
  5
EC
330
1F
100
AcDbEntity
  8
VISIBLE
100
AcDbCircle
 10
0.8101165957507916
 20
6.001833345565775
 30
0.0
 40
0.1040910275315675
100
AcDbArc
 50
284.4972793821819
 51
32.7362191570161
  0
ARC
  5
ED
330
1F
100
AcDbEntity
  8
VISIBLE
100
AcDbCircle
 10
0.8101165957507916
 20
6.001833345565775
 30
0.0
 40
0.1040910275315675
100
AcDbArc
 50
32.7362191570161
 51
54.05217151164923
  0
ELLIPSE
  5
EE
330
1F
100
AcDbEntity
  8
VISIBLE
100
AcDbEllipse
 10
0.8047234916191384
 20
6.002315038198033
 30
0.0
 11
-0.009226968992914308
 21
-0.1033065512442546
 31
0.0
210
0.0
220
0.0
230
1.0
 40
0.7886751345948135
 41
6.174043894394236
 42
8.98888401661261
  0
ELLIPSE
  5
EF
330
1F
100
AcDbEntity
  8
VISIBLE
100
AcDbEllipse
 10
0.8163440159951474
 20
5.99823794281134
 30
0.0
 11
0.05185889626375139
 21
0.08982224315326093
 31
0.0
210
0.0
220
0.0
230
1.0
 40
0.5773502691896252
 41
0.34681392108368
 42
1.586140726283045
  0
ELLIPSE
  5
F0
330
1F
100
AcDbEntity
  8
VISIBLE
100
AcDbEllipse
 10
0.8163440159951474
 20
5.99823794281134
 30
0.0
 11
0.05185889626375139
 21
0.08982224315326093
 31
0.0
210
0.0
220
0.0
230
1.0
 40
0.5773502691896252
 41
2.912655521841811
 42
3.201670754525321
  0
ARC
  5
F1
330
1F
100
AcDbEntity
  8
VISIBLE
100
AcDbCircle
 10
0.8101165957507916
 20
6.001833345565775
 30
0.0
 40
0.1040910275315675
100
AcDbArc
 50
245.9478284883507
 51
256.9861744449194
  0
ELLIPSE
  5
F2
330
1F
100
AcDbEntity
  8
VISIBLE
100
AcDbEllipse
 10
0.8049499235609963
 20
6.004816325145368
 30
0.0
 11
-0.05191712869936094
 21
-0.089923104690385
 31
0.0
210
0.0
220
0.0
230
-1.0
 40
0.5773502691896272
 41
1.625947452986161
 42
2.794874318387243
  0
ELLIPSE
  5
F3
330
1F
100
AcDbEntity
  8
VISIBLE
100
AcDbEllipse
 10
0.8047234916191384
 20
6.002315038198033
 30
0.0
 11
-0.009226968992914308
 21
-0.1033065512442546
 31
0.0
210
0.0
220
0.0
230
1.0
 40
0.7886751345948135
 41
2.861220290547184
 42
3.250734066375126
  0
ARC
  5
F4
330
1F
100
AcDbEntity
  8
VISIBLE
100
AcDbCircle
 10
0.8101165957507916
 20
6.001833345565775
 30
0.0
 40
0.1040910275315675
100
AcDbArc
 50
92.80600683304641
 51
141.6748204457413
  0
ELLIPSE
  5
F5
330
1F
100
AcDbEntity
  8
VISIBLE
100
AcDbEllipse
 10
0.2654427281410063
 20
5.571774030199096
 30
0.0
 11
0.09232401542038904
 21
-0.04726157703075184
 31
0.0
210
0.0
220
0.0
230
-1.0
 40
0.0711623659616815
 41
0.00605794585756
 42
2.103059899064823
  0
ELLIPSE
  5
F6
330
1F
100
AcDbEntity
  8
VISIBLE
100
AcDbEllipse
 10
0.2756730569587447
 20
5.575998184388665
 30
0.0
 11
0.05185889626375095
 21
0.08982224315326093
 31
0.0
210
0.0
220
0.0
230
1.0
 40
0.5773502691896228
 41
1.743077322679121
 42
3.201670754525315
  0
ARC
  5
F7
330
1F
100
AcDbEntity
  8
VISIBLE
100
AcDbCircle
 10
0.2694456367143889
 20
5.5795935871431
 30
0.0
 40
0.1040910275315675
100
AcDbArc
 50
245.9478284883505
 51
257.4972690818481
  0
ARC
  5
F8
330
1F
100
AcDbEntity
  8
VISIBLE
100
AcDbCircle
 10
0.2694456367143889
 20
5.5795935871431
 30
0.0
 40
0.1040910275315675
100
AcDbArc
 50
257.4972690818481
 51
258.8059742776285
  0
ARC
  5
F9
330
1F
100
AcDbEntity
  8
VISIBLE
100
AcDbCircle
 10
0.2694456367143889
 20
5.5795935871431
 30
0.0
 40
0.1040910275315675
100
AcDbArc
 50
258.8059742776285
 51
300.0
  0
ARC
  5
FA
330
1F
100
AcDbEntity
  8
VISIBLE
100
AcDbCircle
 10
0.2694456367143889
 20
5.5795935871431
 30
0.0
 40
0.1040910275315675
100
AcDbArc
 50
300.0
 51
328.0258120146564
  0
ELLIPSE
  5
FB
330
1F
100
AcDbEntity
  8
VISIBLE
100
AcDbEllipse
 10
0.1901215940907335
 20
5.054132447243904
 30
0.0
 11
-0.05191712869936094
 21
-0.089923104690385
 31
0.0
210
0.0
220
0.0
230
-1.0
 40
0.5773502691896272
 41
0.049779396143965
 42
0.3514133655951895
  0
ELLIPSE
  5
FC
330
1F
100
AcDbEntity
  8
VISIBLE
100
AcDbEllipse
 10
0.1974181694450534
 20
5.045622020955505
 30
0.0
 11
0.09678128331799085
 21
0.03729294418654394
 31
0.0
210
0.0
220
0.0
230
-1.0
 40
0.7399972093836001
 41
2.673393372273365
 42
3.048036914661883
  0
ARC
  5
FD
330
1F
100
AcDbEntity
  8
VISIBLE
100
AcDbCircle
 10
0.1952882662805298
 20
5.051149467664311
 30
0.0
 40
0.1040910275315675
100
AcDbArc
 50
208.2996675790376
 51
235.0680652477202
  0
ELLIPSE
  5
FE
330
1F
100
AcDbEntity
  8
VISIBLE
100
AcDbEllipse
 10
0.5173434085061213
 20
4.921152027376126
 30
0.0
 11
0.03635163860893132
 21
-0.09726310389859895
 31
0.0
210
0.0
220
0.0
230
1.0
 40
0.6688348434219175
 41
6.219832525620294
 42
8.658350397072304
  0
ELLIPSE
  5
FF
330
1F
100
AcDbEntity
  8
VISIBLE
100
AcDbEllipse
 10
0.5286590075802602
 20
4.919458308102723
 30
0.0
 11
0.05185889626375095
 21
0.08982224315326093
 31
0.0
210
0.0
220
0.0
230
1.0
 40
0.5773502691896228
 41
6.223107206244054
 42
6.80903601209307
  0
ELLIPSE
  5
100
330
1F
100
AcDbEntity
  8
VISIBLE
100
AcDbEllipse
 10
0.5285643990738111
 20
4.925345821092356
 30
0.0
 11
-0.03631086508181935
 21
0.09715400950958131
 31
0.0
210
0.0
220
0.0
230
-1.0
 40
0.6688348434219162
 41
0.0764685991393636
 42
0.6110015684640658
  0
ELLIPSE
  5
101
330
1F
100
AcDbEntity
  8
VISIBLE
100
AcDbEllipse
 10
0.5172649151461086
 20
4.926036690436752
 30
0.0
 11
-0.05191712869936094
 21
-0.089923104690385
 31
0.0
210
0.0
220
0.0
230
-1.0
 40
0.5773502691896272
 41
1.625947452986189
 42
2.460299582320779
  0
ELLIPSE
  5
102
330
1F
100
AcDbEntity
  8
VISIBLE
100
AcDbEllipse
 10
0.5286590075802602
 20
4.919458308102723
 30
0.0
 11
0.05185889626375095
 21
0.08982224315326093
 31
0.0
210
0.0
220
0.0
230
1.0
 40
0.5773502691896228
 41
0.6813722860276538
 42
1.586140726283043
  0
ELLIPSE
  5
103
330
1F
100
AcDbEntity
  8
VISIBLE
100
AcDbEllipse
 10
0.5286590075802602
 20
4.919458308102723
 30
0.0
 11
0.05185889626375095
 21
0.08982224315326093
 31
0.0
210
0.0
220
0.0
230
1.0
 40
0.5773502691896228
 41
2.912655521841776
 42
3.201670754525315
  0
ELLIPSE
  5
104
330
1F
100
AcDbEntity
  8
VISIBLE
100
AcDbEllipse
 10
0.5285643990738111
 20
4.925345821092356
 30
0.0
 11
-0.03631086508181935
 21
0.09715400950958131
 31
0.0
210
0.0
220
0.0
230
-1.0
 40
0.6688348434219162
 41
0.7665231495782278
 42
3.065124054450424
  0
ELLIPSE
  5
105
330
1F
100
AcDbEntity
  8
VISIBLE
100
AcDbEllipse
 10
0.5172649151461086
 20
4.926036690436752
 30
0.0
 11
-0.05191712869936049
 21
-0.089923104690385
 31
0.0
210
0.0
220
0.0
230
-1.0
 40
0.5773502691896284
 41
2.615646362795174
 42
3.091813257445825
  0
ELLIPSE
  5
106
330
1F
100
AcDbEntity
  8
VISIBLE
100
AcDbEllipse
 10
0.5173434085061213
 20
4.921152027376126
 30
0.0
 11
0.03635163860893132
 21
-0.09726310389859895
 31
0.0
210
0.0
220
0.0
230
1.0
 40
0.6688348434219175
 41
2.530511870367109
 42
3.204945435149085
  0
ARC
  5
107
330
1F
100
AcDbEntity
  8
VISIBLE
100
AcDbCircle
 10
0.5224315873359044
 20
4.923053710857159
 30
0.0
 40
0.1040910275315675
100
AcDbArc
 50
285.0748151010903
 51
297.0279980829451
  0
ARC
  5
108
330
1F
100
AcDbEntity
  8
VISIBLE
100
AcDbCircle
 10
0.5224315873359044
 20
4.923053710857159
 30
0.0
 40
0.1040910275315675
100
AcDbArc
 50
236.2647572021515
 51
245.9478284883509
  0
ARC
  5
109
330
1F
100
AcDbEntity
  8
VISIBLE
100
AcDbCircle
 10
0.5224315873359044
 20
4.923053710857159
 30
0.0
 40
0.1040910275315675
100
AcDbArc
 50
103.9579994413944
 51
115.9111824232491
  0
ARC
  5
10A
330
1F
100
AcDbEntity
  8
VISIBLE
100
AcDbCircle
 10
0.5224315873359044
 20
4.923053710857159
 30
0.0
 40
0.1040910275315675
100
AcDbArc
 50
54.05217151164904
 51
64.64994311787211
  0
ARC
  5
10B
330
1F
100
AcDbEntity
  8
VISIBLE
100
AcDbCircle
 10
0.5224315873359044
 20
4.923053710857159
 30
0.0
 40
0.1040910275315675
100
AcDbArc
 50
64.64994311787211
 51
64.93193475227945
  0
ELLIPSE
  5
10C
330
1F
100
AcDbEntity
  8
VISIBLE
100
AcDbEllipse
 10
0.9185656066353429
 20
5.326385053108387
 30
0.0
 11
-0.05191712869936094
 21
-0.089923104690385
 31
0.0
210
0.0
220
0.0
230
-1.0
 40
0.5773502691896272
 41
0.0497793961439776
 42
1.413102031124169
  0
ELLIPSE
  5
10D
330
1F
100
AcDbEntity
  8
VISIBLE
100
AcDbEllipse
 10
0.9204112059582252
 20
5.316914461353314
 30
0.0
 11
0.09242768620149988
 21
-0.04731464712941502
 31
0.0
210
0.0
220
0.0
230
-1.0
 40
0.0711623659616787
 41
2.258502265420336
 42
3.136572235419446
  0
ARC
  5
10E
330
1F
100
AcDbEntity
  8
VISIBLE
100
AcDbCircle
 10
0.9237322788251383
 20
5.323402073528794
 30
0.0
 40
0.1040910275315675
100
AcDbArc
 50
156.9271391457034
 51
235.0680652477202
  0
ELLIPSE
  5
10F
330
1F
100
AcDbEntity
  8
VISIBLE
100
AcDbEllipse
 10
0.3778946475989398
 20
5.758255846609825
 30
0.0
 11
-0.05191712869936049
 21
-0.089923104690385
 31
0.0
210
0.0
220
0.0
230
-1.0
 40
0.5773502691896284
 41
1.903023547665059
 42
3.091813257445825
  0
ELLIPSE
  5
110
330
1F
100
AcDbEntity
  8
VISIBLE
100
AcDbEllipse
 10
0.3875357891581253
 20
5.760839182704723
 30
0.0
 11
-0.08092881802570373
 21
0.06505443430317825
 31
0.0
210
0.0
220
0.0
230
-1.0
 40
0.2113248654051844
 41
0.015215043956388
 42
0.8684541813488283
  0
ARC
  5
111
330
1F
100
AcDbEntity
  8
VISIBLE
100
AcDbCircle
 10
0.3830613197887356
 20
5.755272867030232
 30
0.0
 40
0.1040910275315675
100
AcDbArc
 50
64.93193475227945
 51
137.0876101178199
  0
ELLIPSE
  5
112
330
1F
100
AcDbEntity
  8
VISIBLE
100
AcDbEllipse
 10
0.2015156865248855
 20
5.047554064909876
 30
0.0
 11
0.05185889626375095
 21
0.08982224315326093
 31
0.0
210
0.0
220
0.0
230
1.0
 40
0.5773502691896228
 41
6.223107206244054
 42
6.344339971480665
  0
ELLIPSE
  5
113
330
1F
100
AcDbEntity
  8
VISIBLE
100
AcDbEllipse
 10
0.2015156865248855
 20
5.047554064909876
 30
0.0
 11
0.05185889626375095
 21
0.08982224315326093
 31
0.0
210
0.0
220
0.0
230
1.0
 40
0.5773502691896228
 41
1.293852550853636
 42
2.634753292761561
  0
ELLIPSE
  5
114
330
1F
100
AcDbEntity
  8
VISIBLE
100
AcDbEllipse
 10
0.1935211603176592
 20
5.055735396358759
 30
0.0
 11
-0.09688995917218568
 21
-0.03733482049181713
 31
0.0
210
0.0
220
0.0
230
1.0
 40
0.7399972093835927
 41
0.6236252765494544
 42
3.219090003183748
  0
ARC
  5
115
330
1F
100
AcDbEntity
  8
VISIBLE
100
AcDbCircle
 10
0.1952882662805298
 20
5.051149467664311
 30
0.0
 40
0.1040910275315675
100
AcDbArc
 50
27.06378593761272
 51
54.05217151164923
  0
ELLIPSE
  5
116
330
1F
100
AcDbEntity
  8
VISIBLE
100
AcDbEllipse
 10
0.5285643990738111
 20
4.925345821092356
 30
0.0
 11
-0.03631086508181935
 21
0.09715400950958131
 31
0.0
210
0.0
220
0.0
230
-1.0
 40
0.6688348434219162
 41
0.7665231495782278
 42
3.065124054450424
  0
ELLIPSE
  5
117
330
1F
100
AcDbEntity
  8
VISIBLE
100
AcDbEllipse
 10
0.5286590075802602
 20
4.919458308102723
 30
0.0
 11
0.05185889626375095
 21
0.08982224315326093
 31
0.0
210
0.0
220
0.0
230
1.0
 40
0.5773502691896228
 41
6.223107206244054
 42
6.80903601209307
  0
ARC
  5
118
330
1F
100
AcDbEntity
  8
VISIBLE
100
AcDbCircle
 10
0.5224315873359044
 20
4.923053710857159
 30
0.0
 40
0.1040910275315675
100
AcDbArc
 50
297.0279980829451
 51
300.0
  0
ARC
  5
119
330
1F
100
AcDbEntity
  8
VISIBLE
100
AcDbCircle
 10
0.5224315873359044
 20
4.923053710857159
 30
0.0
 40
0.1040910275315675
100
AcDbArc
 50
300.0
 51
355.3818905553413
  0
ARC
  5
11A
330
1F
100
AcDbEntity
  8
VISIBLE
100
AcDbCircle
 10
0.5224315873359044
 20
4.923053710857159
 30
0.0
 40
0.1040910275315675
100
AcDbArc
 50
355.3818905553413
 51
356.8590952197165
  0
ARC
  5
11B
330
1F
100
AcDbEntity
  8
VISIBLE
100
AcDbCircle
 10
0.5224315873359044
 20
4.923053710857159
 30
0.0
 40
0.1040910275315675
100
AcDbArc
 50
356.8590952197165
 51
36.64625903926282
  0
ARC
  5
11C
330
1F
100
AcDbEntity
  8
VISIBLE
100
AcDbCircle
 10
0.5224315873359044
 20
4.923053710857159
 30
0.0
 40
0.1040910275315675
100
AcDbArc
 50
36.64625903926282
 51
45.31211767851671
  0
ARC
  5
11D
330
1F
100
AcDbEntity
  8
VISIBLE
100
AcDbCircle
 10
0.5224315873359044
 20
4.923053710857159
 30
0.0
 40
0.1040910275315675
100
AcDbArc
 50
45.31211767851671
 51
54.05217151164904
  0
ELLIPSE
  5
11E
330
1F
100
AcDbEntity
  8
VISIBLE
100
AcDbEllipse
 10
0.9185656066353429
 20
5.326385053108387
 30
0.0
 11
-0.05191712869936094
 21
-0.089923104690385
 31
0.0
210
0.0
220
0.0
230
-1.0
 40
0.5773502691896272
 41
1.568448811598566
 42
2.826874946915567
  0
ELLIPSE
  5
11F
330
1F
100
AcDbEntity
  8
VISIBLE
100
AcDbEllipse
 10
0.9277351873985209
 20
5.331221630472799
 30
0.0
 11
-0.09232401542038904
 21
0.04726157703075184
 31
0.0
210
0.0
220
0.0
230
1.0
 40
0.0711623659616796
 41
6.277127361321999
 42
7.166196480590425
  0
ARC
  5
120
330
1F
100
AcDbEntity
  8
VISIBLE
100
AcDbCircle
 10
0.9237322788251383
 20
5.323402073528794
 30
0.0
 40
0.1040910275315675
100
AcDbArc
 50
78.80597427762847
 51
148.0258120146564
  0
ELLIPSE
  5
121
330
1F
100
AcDbEntity
  8
VISIBLE
100
AcDbEllipse
 10
0.2756730569587447
 20
5.575998184388665
 30
0.0
 11
0.05185889626375095
 21
0.08982224315326093
 31
0.0
210
0.0
220
0.0
230
1.0
 40
0.5773502691896228
 41
6.223107206244045
 42
7.870741048744573
  0
ELLIPSE
  5
122
330
1F
100
AcDbEntity
  8
VISIBLE
100
AcDbEllipse
 10
0.272766709581302
 20
5.58608119931858
 30
0.0
 11
-0.09242768620149945
 21
0.04731464712941503
 31
0.0
210
0.0
220
0.0
230
1.0
 40
0.0711623659616809
 41
1.038437168643808
 42
3.146613071760211
  0
ARC
  5
123
330
1F
100
AcDbEntity
  8
VISIBLE
100
AcDbCircle
 10
0.2694456367143889
 20
5.5795935871431
 30
0.0
 40
0.1040910275315675
100
AcDbArc
 50
336.9271391457035
 51
54.05217151164923
  0
ELLIPSE
  5
124
330
1F
100
AcDbEntity
  8
VISIBLE
100
AcDbEllipse
 10
0.1974181694450534
 20
5.045622020955505
 30
0.0
 11
0.09678128331799085
 21
0.03729294418654394
 31
0.0
210
0.0
220
0.0
230
-1.0
 40
0.7399972093836001
 41
0.0935557389278992
 42
2.517871791159205
  0
ELLIPSE
  5
125
330
1F
100
AcDbEntity
  8
VISIBLE
100
AcDbEllipse
 10
0.2015156865248851
 20
5.047554064909876
 30
0.0
 11
0.05185889626375095
 21
0.08982224315326093
 31
0.0
210
0.0
220
0.0
230
1.0
 40
0.5773502691896228
 41
2.790274873875728
 42
3.201670754525315
  0
ARC
  5
126
330
1F
100
AcDbEntity
  8
VISIBLE
100
AcDbCircle
 10
0.1952882662805298
 20
5.051149467664311
 30
0.0
 40
0.1040910275315675
100
AcDbArc
 50
245.9478284883505
 51
253.3789335172042
  0
ARC
  5
127
330
1F
100
AcDbEntity
  8
VISIBLE
100
AcDbCircle
 10
0.1952882662805298
 20
5.051149467664311
 30
0.0
 40
0.1040910275315675
100
AcDbArc
 50
253.3789335172042
 51
259.09969559079
  0
ARC
  5
128
330
1F
100
AcDbEntity
  8
VISIBLE
100
AcDbCircle
 10
0.1952882662805298
 20
5.051149467664311
 30
0.0
 40
0.1040910275315675
100
AcDbArc
 50
259.09969559079
 51
263.7915888819855
  0
ARC
  5
129
330
1F
100
AcDbEntity
  8
VISIBLE
100
AcDbCircle
 10
0.1952882662805298
 20
5.051149467664311
 30
0.0
 40
0.1040910275315675
100
AcDbArc
 50
263.7915888819855
 51
271.5395030552099
  0
ARC
  5
12A
330
1F
100
AcDbEntity
  8
VISIBLE
100
AcDbCircle
 10
0.1952882662805298
 20
5.051149467664311
 30
0.0
 40
0.1040910275315675
100
AcDbArc
 50
271.5395030552099
 51
279.492548307354
  0
ARC
  5
12B
330
1F
100
AcDbEntity
  8
VISIBLE
100
AcDbCircle
 10
0.1952882662805298
 20
5.051149467664311
 30
0.0
 40
0.1040910275315675
100
AcDbArc
 50
279.492548307354
 51
300.0
  0
ARC
  5
12C
330
1F
100
AcDbEntity
  8
VISIBLE
100
AcDbCircle
 10
0.1952882662805298
 20
5.051149467664311
 30
0.0
 40
0.1040910275315675
100
AcDbArc
 50
300.0
 51
351.4396664576984
  0
ARC
  5
12D
330
1F
100
AcDbEntity
  8
VISIBLE
100
AcDbCircle
 10
0.1952882662805298
 20
5.051149467664311
 30
0.0
 40
0.1040910275315675
100
AcDbArc
 50
351.4396664576984
 51
353.1937491220718
  0
ARC
  5
12E
330
1F
100
AcDbEntity
  8
VISIBLE
100
AcDbCircle
 10
0.1952882662805298
 20
5.051149467664311
 30
0.0
 40
0.1040910275315675
100
AcDbArc
 50
353.1937491220718
 51
355.9204843899594
  0
ARC
  5
12F
330
1F
100
AcDbEntity
  8
VISIBLE
100
AcDbCircle
 10
0.1952882662805298
 20
5.051149467664311
 30
0.0
 40
0.1040910275315675
100
AcDbArc
 50
355.9204843899594
 51
356.8288852048297
  0
ARC
  5
130
330
1F
100
AcDbEntity
  8
VISIBLE
100
AcDbCircle
 10
0.1952882662805298
 20
5.051149467664311
 30
0.0
 40
0.1040910275315675
100
AcDbArc
 50
356.8288852048297
 51
13.84689244129035
  0
ELLIPSE
  5
131
330
1F
100
AcDbEntity
  8
VISIBLE
100
AcDbEllipse
 10
0.5285643990738111
 20
4.925345821092356
 30
0.0
 11
-0.03631086508181935
 21
0.09715400950958131
 31
0.0
210
0.0
220
0.0
230
-1.0
 40
0.6688348434219162
 41
0.0764685991393636
 42
0.6110015684640658
  0
ELLIPSE
  5
132
330
1F
100
AcDbEntity
  8
VISIBLE
100
AcDbEllipse
 10
0.5172649151461086
 20
4.926036690436752
 30
0.0
 11
-0.05191712869936049
 21
-0.089923104690385
 31
0.0
210
0.0
220
0.0
230
-1.0
 40
0.5773502691896284
 41
2.615646362795174
 42
3.091813257445825
  0
ARC
  5
133
330
1F
100
AcDbEntity
  8
VISIBLE
100
AcDbCircle
 10
0.5224315873359044
 20
4.923053710857159
 30
0.0
 40
0.1040910275315675
100
AcDbArc
 50
64.93193475227945
 51
103.9579994413944
  0
ELLIPSE
  5
134
330
1F
100
AcDbEntity
  8
VISIBLE
100
AcDbEllipse
 10
0.9204112059582252
 20
5.316914461353314
 30
0.0
 11
0.09242768620149988
 21
-0.04731464712941502
 31
0.0
210
0.0
220
0.0
230
-1.0
 40
0.0711623659616826
 41
0.0050204181704254
 42
2.103155484945934
  0
ELLIPSE
  5
135
330
1F
100
AcDbEntity
  8
VISIBLE
100
AcDbEllipse
 10
0.929959699069494
 20
5.319806670774359
 30
0.0
 11
0.05185889626375139
 21
0.08982224315326093
 31
0.0
210
0.0
220
0.0
230
1.0
 40
0.5773502691896252
 41
6.223107206244059
 42
7.856233563289656
  0
ELLIPSE
  5
136
330
1F
100
AcDbEntity
  8
VISIBLE
100
AcDbEllipse
 10
0.9277351873985209
 20
5.331221630472799
 30
0.0
 11
-0.09232401542038904
 21
0.04726157703075184
 31
0.0
210
0.0
220
0.0
230
1.0
 40
0.0711623659616796
 41
6.277127361321999
 42
7.166196480590425
  0
ELLIPSE
  5
137
330
1F
100
AcDbEntity
  8
VISIBLE
100
AcDbEllipse
 10
0.9185656066353429
 20
5.326385053108387
 30
0.0
 11
-0.05191712869936094
 21
-0.089923104690385
 31
0.0
210
0.0
220
0.0
230
-1.0
 40
0.5773502691896272
 41
0.0497793961439776
 42
1.413102031124169
  0
ELLIPSE
  5
138
330
1F
100
AcDbEntity
  8
VISIBLE
100
AcDbEllipse
 10
0.929959699069494
 20
5.319806670774359
 30
0.0
 11
0.05185889626375051
 21
0.08982224315326093
 31
0.0
210
0.0
220
0.0
230
1.0
 40
0.5773502691896278
 41
1.728569837224243
 42
3.201670754525308
  0
ELLIPSE
  5
139
330
1F
100
AcDbEntity
  8
VISIBLE
100
AcDbEllipse
 10
0.9277351873985209
 20
5.331221630472799
 30
0.0
 11
-0.09232401542038904
 21
0.04726157703075184
 31
0.0
210
0.0
220
0.0
230
1.0
 40
0.0711623659616796
 41
1.038532754524972
 42
3.147650599447275
  0
ELLIPSE
  5
13A
330
1F
100
AcDbEntity
  8
VISIBLE
100
AcDbEllipse
 10
0.9185656066353429
 20
5.326385053108387
 30
0.0
 11
-0.05191712869936094
 21
-0.089923104690385
 31
0.0
210
0.0
220
0.0
230
-1.0
 40
0.5773502691896272
 41
1.568448811598566
 42
2.826874946915567
  0
ELLIPSE
  5
13B
330
1F
100
AcDbEntity
  8
VISIBLE
100
AcDbEllipse
 10
0.9204112059582252
 20
5.316914461353314
 30
0.0
 11
0.09242768620149988
 21
-0.04731464712941502
 31
0.0
210
0.0
220
0.0
230
-1.0
 40
0.0711623659616787
 41
2.258502265420336
 42
3.136572235419446
  0
ARC
  5
13C
330
1F
100
AcDbEntity
  8
VISIBLE
100
AcDbCircle
 10
0.9237322788251383
 20
5.323402073528794
 30
0.0
 40
0.1040910275315675
100
AcDbArc
 50
235.0680652477202
 51
245.9478284883509
  0
ARC
  5
13D
330
1F
100
AcDbEntity
  8
VISIBLE
100
AcDbCircle
 10
0.9237322788251383
 20
5.323402073528794
 30
0.0
 40
0.1040910275315675
100
AcDbArc
 50
148.0258120146564
 51
156.9271391457034
  0
ARC
  5
13E
330
1F
100
AcDbEntity
  8
VISIBLE
100
AcDbCircle
 10
0.9237322788251383
 20
5.323402073528794
 30
0.0
 40
0.1040910275315675
100
AcDbArc
 50
54.05217151164923
 51
58.78197949636513
  0
ARC
  5
13F
330
1F
100
AcDbEntity
  8
VISIBLE
100
AcDbCircle
 10
0.9237322788251383
 20
5.323402073528794
 30
0.0
 40
0.1040910275315675
100
AcDbArc
 50
328.8561490467425
 51
337.7574761777897
  0
ELLIPSE
  5
140
330
1F
100
AcDbEntity
  8
VISIBLE
100
AcDbEllipse
 10
0.6646135164657156
 20
5.977649839579539
 30
0.0
 11
0.03631086508181891
 21
-0.09715400950958131
 31
0.0
210
0.0
220
0.0
230
1.0
 40
0.6688348434219213
 41
6.206716708040216
 42
8.658254811191178
  0
ELLIPSE
  5
141
330
1F
100
AcDbEntity
  8
VISIBLE
100
AcDbEllipse
 10
0.6769737484479785
 20
5.976346547060301
 30
0.0
 11
0.05185889626375139
 21
0.08982224315326093
 31
0.0
210
0.0
220
0.0
230
1.0
 40
0.5773502691896252
 41
0.6958797714825461
 42
2.104359971332033
  0
ELLIPSE
  5
142
330
1F
100
AcDbEntity
  8
VISIBLE
100
AcDbEllipse
 10
0.6769737484479785
 20
5.976346547060301
 30
0.0
 11
0.05185889626375139
 21
0.08982224315326093
 31
0.0
210
0.0
220
0.0
230
1.0
 40
0.5773502691896252
 41
3.162015156912691
 42
3.201670754525321
  0
ARC
  5
143
330
1F
100
AcDbEntity
  8
VISIBLE
100
AcDbCircle
 10
0.6707463282036228
 20
5.979941949814735
 30
0.0
 40
0.1040910275315675
100
AcDbArc
 50
245.9478284883507
 51
283.9579994413944
  0
ELLIPSE
  5
144
330
1F
100
AcDbEntity
  8
VISIBLE
100
AcDbEllipse
 10
0.2642789645245931
 20
5.582576566722694
 30
0.0
 11
-0.05191712869936094
 21
-0.089923104690385
 31
0.0
210
0.0
220
0.0
230
-1.0
 40
0.5773502691896272
 41
0.049779396143965
 42
1.398610916791785
  0
ELLIPSE
  5
145
330
1F
100
AcDbEntity
  8
VISIBLE
100
AcDbEllipse
 10
0.2654427281410063
 20
5.571774030199096
 30
0.0
 11
0.09232401542038904
 21
-0.04726157703075184
 31
0.0
210
0.0
220
0.0
230
-1.0
 40
0.0711623659616815
 41
2.258581480178981
 42
3.135534707732333
  0
ARC
  5
146
330
1F
100
AcDbEntity
  8
VISIBLE
100
AcDbCircle
 10
0.2694456367143889
 20
5.5795935871431
 30
0.0
 40
0.1040910275315675
100
AcDbArc
 50
157.7574761777896
 51
235.0680652477202
  0
ELLIPSE
  5
147
330
1F
100
AcDbEntity
  8
VISIBLE
100
AcDbEllipse
 10
0.2015156865248855
 20
5.047554064909876
 30
0.0
 11
0.05185889626375095
 21
0.08982224315326093
 31
0.0
210
0.0
220
0.0
230
1.0
 40
0.5773502691896228
 41
6.223107206244054
 42
6.344339971480665
  0
ELLIPSE
  5
148
330
1F
100
AcDbEntity
  8
VISIBLE
100
AcDbEllipse
 10
0.2015156865248855
 20
5.047554064909876
 30
0.0
 11
0.05185889626375095
 21
0.08982224315326093
 31
0.0
210
0.0
220
0.0
230
1.0
 40
0.5773502691896228
 41
1.293852550853636
 42
2.634753292761561
  0
ELLIPSE
  5
149
330
1F
100
AcDbEntity
  8
VISIBLE
100
AcDbEllipse
 10
0.1974181694450534
 20
5.045622020955505
 30
0.0
 11
0.09678128331799085
 21
0.03729294418654394
 31
0.0
210
0.0
220
0.0
230
-1.0
 40
0.7399972093836001
 41
0.0935557389278992
 42
2.517871791159205
  0
ELLIPSE
  5
14A
330
1F
100
AcDbEntity
  8
VISIBLE
100
AcDbEllipse
 10
0.1901215940907335
 20
5.054132447243904
 30
0.0
 11
-0.05191712869936094
 21
-0.089923104690385
 31
0.0
210
0.0
220
0.0
230
-1.0
 40
0.5773502691896272
 41
0.049779396143965
 42
0.3514133655951895
  0
ELLIPSE
  5
14B
330
1F
100
AcDbEntity
  8
VISIBLE
100
AcDbEllipse
 10
0.1935211603176592
 20
5.055735396358759
 30
0.0
 11
-0.09688995917218524
 21
-0.03733482049181625
 31
0.0
210
0.0
220
0.0
230
1.0
 40
0.7399972093835979
 41
6.205687957585635
 42
6.751463803254645
  0
ELLIPSE
  5
14C
330
1F
100
AcDbEntity
  8
VISIBLE
100
AcDbEllipse
 10
0.1935211603176592
 20
5.055735396358759
 30
0.0
 11
-0.09688995917218568
 21
-0.03733482049181713
 31
0.0
210
0.0
220
0.0
230
1.0
 40
0.7399972093835927
 41
0.6236252765494544
 42
3.219090003183748
  0
ELLIPSE
  5
14D
330
1F
100
AcDbEntity
  8
VISIBLE
100
AcDbEllipse
 10
0.2015156865248851
 20
5.047554064909876
 30
0.0
 11
0.05185889626375095
 21
0.08982224315326093
 31
0.0
210
0.0
220
0.0
230
1.0
 40
0.5773502691896228
 41
2.790274873875728
 42
3.201670754525315
  0
ELLIPSE
  5
14E
330
1F
100
AcDbEntity
  8
VISIBLE
100
AcDbEllipse
 10
0.1974181694450534
 20
5.045622020955505
 30
0.0
 11
0.09678128331799085
 21
0.03729294418654394
 31
0.0
210
0.0
220
0.0
230
-1.0
 40
0.7399972093836001
 41
2.673393372273365
 42
3.048036914661883
  0
ELLIPSE
  5
14F
330
1F
100
AcDbEntity
  8
VISIBLE
100
AcDbEllipse
 10
0.1901215940907335
 20
5.054132447243905
 30
0.0
 11
-0.05191712869936049
 21
-0.089923104690385
 31
0.0
210
0.0
220
0.0
230
-1.0
 40
0.5773502691896284
 41
0.5067601460695768
 42
1.785841572334493
  0
ARC
  5
150
330
1F
100
AcDbEntity
  8
VISIBLE
100
AcDbCircle
 10
0.1952882662805298
 20
5.051149467664311
 30
0.0
 40
0.1040910275315675
100
AcDbArc
 50
235.0680652477202
 51
245.9478284883505
  0
ARC
  5
151
330
1F
100
AcDbEntity
  8
VISIBLE
100
AcDbCircle
 10
0.1952882662805298
 20
5.051149467664311
 30
0.0
 40
0.1040910275315675
100
AcDbArc
 50
195.082774082715
 51
208.2996675790376
  0
ARC
  5
152
330
1F
100
AcDbEntity
  8
VISIBLE
100
AcDbCircle
 10
0.1952882662805298
 20
5.051149467664311
 30
0.0
 40
0.1040910275315675
100
AcDbArc
 50
54.05217151164923
 51
58.01130793310822
  0
ARC
  5
153
330
1F
100
AcDbEntity
  8
VISIBLE
100
AcDbCircle
 10
0.1952882662805298
 20
5.051149467664311
 30
0.0
 40
0.1040910275315675
100
AcDbArc
 50
13.84689244129035
 51
27.06378593761272
  0
ELLIPSE
  5
154
330
1F
100
AcDbEntity
  8
VISIBLE
100
AcDbEllipse
 10
0.5172649151461086
 20
4.926036690436752
 30
0.0
 11
-0.05191712869936094
 21
-0.089923104690385
 31
0.0
210
0.0
220
0.0
230
-1.0
 40
0.5773502691896272
 41
1.625947452986189
 42
2.460299582320779
  0
ELLIPSE
  5
155
330
1F
100
AcDbEntity
  8
VISIBLE
100
AcDbEllipse
 10
0.5173434085061213
 20
4.921152027376126
 30
0.0
 11
0.03635163860893132
 21
-0.09726310389859895
 31
0.0
210
0.0
220
0.0
230
1.0
 40
0.6688348434219175
 41
2.530511870367109
 42
3.204945435149085
  0
ARC
  5
156
330
1F
100
AcDbEntity
  8
VISIBLE
100
AcDbCircle
 10
0.5224315873359044
 20
4.923053710857159
 30
0.0
 40
0.1040910275315675
100
AcDbArc
 50
115.9111824232491
 51
141.5886827775208
  0
ELLIPSE
  5
157
330
1F
100
AcDbEntity
  8
VISIBLE
100
AcDbEllipse
 10
0.9961225432961269
 20
5.507905185277748
 30
0.0
 11
0.1003280457150346
 21
-0.02675511638071982
 31
0.0
210
0.0
220
0.0
230
-1.0
 40
0.3450663657488949
 41
0.0258741343874938
 42
2.148431743437017
  0
ELLIPSE
  5
158
330
1F
100
AcDbEntity
  8
VISIBLE
100
AcDbEllipse
 10
1.004117069503353
 20
5.510936189424459
 30
0.0
 11
0.05185889626375051
 21
0.08982224315326093
 31
0.0
210
0.0
220
0.0
230
1.0
 40
0.5773502691896278
 41
2.07763568762311
 42
3.201670754525308
  0
ARC
  5
159
330
1F
100
AcDbEntity
  8
VISIBLE
100
AcDbCircle
 10
0.9978896492589975
 20
5.514531592178895
 30
0.0
 40
0.1040910275315675
100
AcDbArc
 50
245.9478284883507
 51
257.4972690818516
  0
ARC
  5
15A
330
1F
100
AcDbEntity
  8
VISIBLE
100
AcDbCircle
 10
0.9978896492589975
 20
5.514531592178895
 30
0.0
 40
0.1040910275315675
100
AcDbArc
 50
257.4972690818516
 51
299.9999999999998
  0
ARC
  5
15B
330
1F
100
AcDbEntity
  8
VISIBLE
100
AcDbCircle
 10
0.9978896492589975
 20
5.514531592178895
 30
0.0
 40
0.1040910275315675
100
AcDbArc
 50
299.9999999999998
 51
340.7789230084628
  0
ELLIPSE
  5
15C
330
1F
100
AcDbEntity
  8
VISIBLE
100
AcDbEllipse
 10
0.6655796560138274
 20
5.982924929394329
 30
0.0
 11
-0.05191712869936094
 21
-0.089923104690385
 31
0.0
210
0.0
220
0.0
230
-1.0
 40
0.5773502691896272
 41
1.094302728558636
 42
2.445808467988382
  0
ELLIPSE
  5
15D
330
1F
100
AcDbEntity
  8
VISIBLE
100
AcDbEllipse
 10
0.6646135164657156
 20
5.977649839579539
 30
0.0
 11
0.03631086508181891
 21
-0.09715400950958131
 31
0.0
210
0.0
220
0.0
230
1.0
 40
0.6688348434219213
 41
2.530591085125742
 42
3.218061252729172
  0
ARC
  5
15E
330
1F
100
AcDbEntity
  8
VISIBLE
100
AcDbCircle
 10
0.6707463282036228
 20
5.979941949814735
 30
0.0
 40
0.1040910275315675
100
AcDbArc
 50
117.0279980829454
 51
175.3500568821277
  0
ELLIPSE
  5
15F
330
1F
100
AcDbEntity
  8
VISIBLE
100
AcDbEllipse
 10
0.2756730569587447
 20
5.575998184388665
 30
0.0
 11
0.05185889626375095
 21
0.08982224315326093
 31
0.0
210
0.0
220
0.0
230
1.0
 40
0.5773502691896228
 41
6.223107206244045
 42
7.870741048744573
  0
ELLIPSE
  5
160
330
1F
100
AcDbEntity
  8
VISIBLE
100
AcDbEllipse
 10
0.2654427281410063
 20
5.571774030199096
 30
0.0
 11
0.09232401542038904
 21
-0.04726157703075184
 31
0.0
210
0.0
220
0.0
230
-1.0
 40
0.0711623659616815
 41
0.00605794585756
 42
2.103059899064823
  0
ELLIPSE
  5
161
330
1F
100
AcDbEntity
  8
VISIBLE
100
AcDbEllipse
 10
0.2642789645245931
 20
5.582576566722694
 30
0.0
 11
-0.05191712869936094
 21
-0.089923104690385
 31
0.0
210
0.0
220
0.0
230
-1.0
 40
0.5773502691896272
 41
0.049779396143965
 42
1.398610916791785
  0
ELLIPSE
  5
162
330
1F
100
AcDbEntity
  8
VISIBLE
100
AcDbEllipse
 10
0.272766709581302
 20
5.58608119931858
 30
0.0
 11
-0.09242768620149945
 21
0.04731464712941503
 31
0.0
210
0.0
220
0.0
230
1.0
 40
0.0711623659616809
 41
6.278164889009188
 42
7.166275695349041
  0
ELLIPSE
  5
163
330
1F
100
AcDbEntity
  8
VISIBLE
100
AcDbEllipse
 10
0.272766709581302
 20
5.58608119931858
 30
0.0
 11
-0.09242768620149945
 21
0.04731464712941503
 31
0.0
210
0.0
220
0.0
230
1.0
 40
0.0711623659616809
 41
1.038437168643808
 42
3.146613071760211
  0
ELLIPSE
  5
164
330
1F
100
AcDbEntity
  8
VISIBLE
100
AcDbEllipse
 10
0.2756730569587447
 20
5.575998184388665
 30
0.0
 11
0.05185889626375095
 21
0.08982224315326093
 31
0.0
210
0.0
220
0.0
230
1.0
 40
0.5773502691896228
 41
1.743077322679121
 42
3.201670754525315
  0
ELLIPSE
  5
165
330
1F
100
AcDbEntity
  8
VISIBLE
100
AcDbEllipse
 10
0.2654427281410063
 20
5.571774030199096
 30
0.0
 11
0.09232401542038904
 21
-0.04726157703075184
 31
0.0
210
0.0
220
0.0
230
-1.0
 40
0.0711623659616815
 41
2.258581480178981
 42
3.135534707732333
  0
ELLIPSE
  5
166
330
1F
100
AcDbEntity
  8
VISIBLE
100
AcDbEllipse
 10
0.2642789645245931
 20
5.582576566722694
 30
0.0
 11
-0.05191712869936049
 21
-0.089923104690385
 31
0.0
210
0.0
220
0.0
230
-1.0
 40
0.5773502691896284
 41
1.553957697266175
 42
3.091813257445825
  0
ARC
  5
167
330
1F
100
AcDbEntity
  8
VISIBLE
100
AcDbCircle
 10
0.2694456367143889
 20
5.5795935871431
 30
0.0
 40
0.1040910275315675
100
AcDbArc
 50
235.0680652477202
 51
238.7819794963651
  0
ARC
  5
168
330
1F
100
AcDbEntity
  8
VISIBLE
100
AcDbCircle
 10
0.2694456367143889
 20
5.5795935871431
 30
0.0
 40
0.1040910275315675
100
AcDbArc
 50
238.7819794963651
 51
243.7564759193045
  0
ARC
  5
169
330
1F
100
AcDbEntity
  8
VISIBLE
100
AcDbCircle
 10
0.2694456367143889
 20
5.5795935871431
 30
0.0
 40
0.1040910275315675
100
AcDbArc
 50
243.7564759193045
 51
245.9478284883505
  0
ARC
  5
16A
330
1F
100
AcDbEntity
  8
VISIBLE
100
AcDbCircle
 10
0.2694456367143889
 20
5.5795935871431
 30
0.0
 40
0.1040910275315675
100
AcDbArc
 50
148.856149046743
 51
157.7574761777896
  0
ARC
  5
16B
330
1F
100
AcDbEntity
  8
VISIBLE
100
AcDbCircle
 10
0.2694456367143889
 20
5.5795935871431
 30
0.0
 40
0.1040910275315675
100
AcDbArc
 50
54.05217151164923
 51
64.93193475227966
  0
ARC
  5
16C
330
1F
100
AcDbEntity
  8
VISIBLE
100
AcDbCircle
 10
0.2694456367143889
 20
5.5795935871431
 30
0.0
 40
0.1040910275315675
100
AcDbArc
 50
328.0258120146564
 51
336.9271391457035
  0
ELLIPSE
  5
16D
330
1F
100
AcDbEntity
  8
VISIBLE
100
AcDbEllipse
 10
0.1901215940907335
 20
5.054132447243905
 30
0.0
 11
-0.05191712869936049
 21
-0.089923104690385
 31
0.0
210
0.0
220
0.0
230
-1.0
 40
0.5773502691896284
 41
0.5067601460695768
 42
1.785841572334493
  0
ELLIPSE
  5
16E
330
1F
100
AcDbEntity
  8
VISIBLE
100
AcDbEllipse
 10
0.1935211603176592
 20
5.055735396358759
 30
0.0
 11
-0.09688995917218524
 21
-0.03733482049181625
 31
0.0
210
0.0
220
0.0
230
1.0
 40
0.7399972093835979
 41
6.205687957585635
 42
6.751463803254645
  0
ARC
  5
16F
330
1F
100
AcDbEntity
  8
VISIBLE
100
AcDbCircle
 10
0.1952882662805298
 20
5.051149467664311
 30
0.0
 40
0.1040910275315675
100
AcDbArc
 50
140.8481886692184
 51
195.082774082715
  0
ELLIPSE
  5
170
330
1F
100
AcDbEntity
  8
VISIBLE
100
AcDbEllipse
 10
0.6656581493738392
 20
5.004709627068836
 30
0.0
 11
0.06390995593685478
 21
-0.08183563124759985
 31
0.0
210
0.0
220
0.0
230
1.0
 40
0.4683231991813364
 41
6.245877735598475
 42
8.481180598575527
  0
ELLIPSE
  5
171
330
1F
100
AcDbEntity
  8
VISIBLE
100
AcDbEllipse
 10
0.6769737484479785
 20
5.005087863667489
 30
0.0
 11
0.05185889626375051
 21
0.08982224315326093
 31
0.0
210
0.0
220
0.0
230
1.0
 40
0.5773502691896278
 41
1.030438136426516
 42
2.104359971332028
  0
ELLIPSE
  5
172
330
1F
100
AcDbEntity
  8
VISIBLE
100
AcDbEllipse
 10
0.6769737484479785
 20
5.005087863667489
 30
0.0
 11
0.05185889626375051
 21
0.08982224315326093
 31
0.0
210
0.0
220
0.0
230
1.0
 40
0.5773502691896278
 41
3.162015156912657
 42
3.201670754525308
  0
ARC
  5
173
330
1F
100
AcDbEntity
  8
VISIBLE
100
AcDbCircle
 10
0.6707463282036228
 20
5.008683266421925
 30
0.0
 40
0.1040910275315675
100
AcDbArc
 50
245.9478284883503
 51
300.0000000000002
  0
ARC
  5
174
330
1F
100
AcDbEntity
  8
VISIBLE
100
AcDbCircle
 10
0.6707463282036228
 20
5.008683266421925
 30
0.0
 40
0.1040910275315675
100
AcDbArc
 50
300.0000000000002
 51
303.4314550889114
  0
ELLIPSE
  5
175
330
1F
100
AcDbEntity
  8
VISIBLE
100
AcDbEllipse
 10
1.004117069503353
 20
5.510936189424459
 30
0.0
 11
0.05185889626375139
 21
0.08982224315326093
 31
0.0
210
0.0
220
0.0
230
1.0
 40
0.5773502691896252
 41
6.223107206244059
 42
6.249390466935072
  0
ELLIPSE
  5
176
330
1F
100
AcDbEntity
  8
VISIBLE
100
AcDbEllipse
 10
1.004117069503353
 20
5.510936189424459
 30
0.0
 11
0.05185889626375139
 21
0.08982224315326093
 31
0.0
210
0.0
220
0.0
230
1.0
 40
0.5773502691896252
 41
0.7819425225424669
 42
1.922114106508959
  0
ELLIPSE
  5
177
330
1F
100
AcDbEntity
  8
VISIBLE
100
AcDbEllipse
 10
1.000019552423521
 20
5.522518439218474
 30
0.0
 11
-0.1002155135583394
 21
0.02672510671664696
 31
0.0
210
0.0
220
0.0
230
1.0
 40
0.345066365748904
 41
0.9932564960338922
 42
3.172815507627793
  0
ARC
  5
178
330
1F
100
AcDbEntity
  8
VISIBLE
100
AcDbCircle
 10
0.9978896492589975
 20
5.514531592178895
 30
0.0
 40
0.1040910275315675
100
AcDbArc
 50
350.2399869663864
 51
54.05217151164923
  0
ELLIPSE
  5
179
330
1F
100
AcDbEntity
  8
VISIBLE
100
AcDbEllipse
 10
0.6769737484479785
 20
5.976346547060301
 30
0.0
 11
0.05185889626375139
 21
0.08982224315326093
 31
0.0
210
0.0
220
0.0
230
1.0
 40
0.5773502691896252
 41
6.223107206244059
 42
6.823543497547961
  0
ELLIPSE
  5
17A
330
1F
100
AcDbEntity
  8
VISIBLE
100
AcDbEllipse
 10
0.6646135164657156
 20
5.977649839579539
 30
0.0
 11
0.03631086508181891
 21
-0.09715400950958131
 31
0.0
210
0.0
220
0.0
230
1.0
 40
0.6688348434219213
 41
6.206716708040216
 42
8.658254811191178
  0
ELLIPSE
  5
17B
330
1F
100
AcDbEntity
  8
VISIBLE
100
AcDbEllipse
 10
0.6655796560138274
 20
5.982924929394329
 30
0.0
 11
-0.05191712869936094
 21
-0.089923104690385
 31
0.0
210
0.0
220
0.0
230
-1.0
 40
0.5773502691896272
 41
1.094302728558636
 42
2.445808467988382
  0
ELLIPSE
  5
17C
330
1F
100
AcDbEntity
  8
VISIBLE
100
AcDbEllipse
 10
0.6758345070334064
 20
5.981843633295768
 30
0.0
 11
-0.03635163860893087
 21
0.09726310389859893
 31
0.0
210
0.0
220
0.0
230
-1.0
 40
0.6688348434219149
 41
0.0633527815592741
 42
0.6110807832226641
  0
ELLIPSE
  5
17D
330
1F
100
AcDbEntity
  8
VISIBLE
100
AcDbEllipse
 10
0.6758345070334064
 20
5.981843633295769
 30
0.0
 11
-0.03635163860893087
 21
0.09726310389859893
 31
0.0
210
0.0
220
0.0
230
-1.0
 40
0.6688348434219149
 41
0.7664275636970886
 42
3.078239872030494
  0
ELLIPSE
  5
17E
330
1F
100
AcDbEntity
  8
VISIBLE
100
AcDbEllipse
 10
0.6769737484479785
 20
5.976346547060301
 30
0.0
 11
0.05185889626375139
 21
0.08982224315326093
 31
0.0
210
0.0
220
0.0
230
1.0
 40
0.5773502691896252
 41
0.6958797714825461
 42
2.104359971332033
  0
ELLIPSE
  5
17F
330
1F
100
AcDbEntity
  8
VISIBLE
100
AcDbEllipse
 10
0.6769737484479785
 20
5.976346547060301
 30
0.0
 11
0.05185889626375139
 21
0.08982224315326093
 31
0.0
210
0.0
220
0.0
230
1.0
 40
0.5773502691896252
 41
3.162015156912691
 42
3.201670754525321
  0
ELLIPSE
  5
180
330
1F
100
AcDbEntity
  8
VISIBLE
100
AcDbEllipse
 10
0.6646135164657156
 20
5.977649839579539
 30
0.0
 11
0.03631086508181891
 21
-0.09715400950958131
 31
0.0
210
0.0
220
0.0
230
1.0
 40
0.6688348434219213
 41
2.530591085125742
 42
3.218061252729172
  0
ELLIPSE
  5
181
330
1F
100
AcDbEntity
  8
VISIBLE
100
AcDbEllipse
 10
0.6655796560138274
 20
5.982924929394329
 30
0.0
 11
-0.05191712869936094
 21
-0.089923104690385
 31
0.0
210
0.0
220
0.0
230
-1.0
 40
0.5773502691896272
 41
2.601155248462772
 42
3.091813257445825
  0
ARC
  5
182
330
1F
100
AcDbEntity
  8
VISIBLE
100
AcDbCircle
 10
0.6707463282036228
 20
5.979941949814735
 30
0.0
 40
0.1040910275315675
100
AcDbArc
 50
283.9579994413944
 51
295.9111824232489
  0
ARC
  5
183
330
1F
100
AcDbEntity
  8
VISIBLE
100
AcDbCircle
 10
0.6707463282036228
 20
5.979941949814735
 30
0.0
 40
0.1040910275315675
100
AcDbArc
 50
244.6499431178717
 51
245.9478284883507
  0
ARC
  5
184
330
1F
100
AcDbEntity
  8
VISIBLE
100
AcDbCircle
 10
0.6707463282036228
 20
5.979941949814735
 30
0.0
 40
0.1040910275315675
100
AcDbArc
 50
105.0748151010906
 51
117.0279980829454
  0
ARC
  5
185
330
1F
100
AcDbEntity
  8
VISIBLE
100
AcDbCircle
 10
0.6707463282036228
 20
5.979941949814735
 30
0.0
 40
0.1040910275315675
100
AcDbArc
 50
54.05217151164923
 51
56.26475720215176
  0
ARC
  5
186
330
1F
100
AcDbEntity
  8
VISIBLE
100
AcDbCircle
 10
0.6707463282036228
 20
5.979941949814735
 30
0.0
 40
0.1040910275315675
100
AcDbArc
 50
56.26475720215176
 51
64.93193475227987
  0
ELLIPSE
  5
187
330
1F
100
AcDbEntity
  8
VISIBLE
100
AcDbEllipse
 10
0.2642789645245931
 20
5.582576566722694
 30
0.0
 11
-0.05191712869936049
 21
-0.089923104690385
 31
0.0
210
0.0
220
0.0
230
-1.0
 40
0.5773502691896284
 41
1.553957697266175
 42
3.091813257445825
  0
ELLIPSE
  5
188
330
1F
100
AcDbEntity
  8
VISIBLE
100
AcDbEllipse
 10
0.272766709581302
 20
5.58608119931858
 30
0.0
 11
-0.09242768620149945
 21
0.04731464712941503
 31
0.0
210
0.0
220
0.0
230
1.0
 40
0.0711623659616809
 41
6.278164889009188
 42
7.166275695349041
  0
ARC
  5
189
330
1F
100
AcDbEntity
  8
VISIBLE
100
AcDbCircle
 10
0.2694456367143889
 20
5.5795935871431
 30
0.0
 40
0.1040910275315675
100
AcDbArc
 50
64.93193475227966
 51
148.856149046743
  0
ELLIPSE
  5
18A
330
1F
100
AcDbEntity
  8
VISIBLE
100
AcDbEllipse
 10
0.2661245638474758
 20
4.948302272127036
 30
0.0
 11
-0.06480379402390213
 21
-0.08112965727557153
 31
0.0
210
0.0
220
0.0
230
1.0
 40
0.8133895649302353
 41
0.2075572267056397
 42
3.179311985488659
  0
ELLIPSE
  5
18B
330
1F
100
AcDbEntity
  8
VISIBLE
100
AcDbEllipse
 10
0.2756730569587447
 20
4.942054101824541
 30
0.0
 11
0.05185889626375095
 21
0.08982224315326093
 31
0.0
210
0.0
220
0.0
230
1.0
 40
0.5773502691896228
 41
6.266425892409505
 42
6.756094580358838
  0
ELLIPSE
  5
18C
330
1F
100
AcDbEntity
  8
VISIBLE
100
AcDbEllipse
 10
0.2756730569587447
 20
4.942054101824541
 30
0.0
 11
0.05185889626375095
 21
0.08982224315326093
 31
0.0
210
0.0
220
0.0
230
1.0
 40
0.5773502691896228
 41
1.824585985095729
 42
2.98381914316043
  0
ELLIPSE
  5
18D
330
1F
100
AcDbEntity
  8
VISIBLE
100
AcDbEllipse
 10
0.6769737484479785
 20
5.005087863667489
 30
0.0
 11
0.05185889626375139
 21
0.08982224315326093
 31
0.0
210
0.0
220
0.0
230
1.0
 40
0.5773502691896252
 41
6.223107206244059
 42
7.158101862491953
  0
ELLIPSE
  5
18E
330
1F
100
AcDbEntity
  8
VISIBLE
100
AcDbEllipse
 10
0.676879139941529
 20
5.013472717202268
 30
0.0
 11
-0.06383827184169899
 21
0.08174384096091458
 31
0.0
210
0.0
220
0.0
230
-1.0
 40
0.4683231991813421
 41
0.943692948074979
 42
3.096570359259714
  0
ARC
  5
18F
330
1F
100
AcDbEntity
  8
VISIBLE
100
AcDbCircle
 10
0.6707463282036228
 20
5.008683266421925
 30
0.0
 40
0.1040910275315675
100
AcDbArc
 50
313.483190008734
 51
26.08369505052913
  0
ARC
  5
190
330
1F
100
AcDbEntity
  8
VISIBLE
100
AcDbCircle
 10
0.6707463282036228
 20
5.008683266421925
 30
0.0
 40
0.1040910275315675
100
AcDbArc
 50
26.08369505052913
 51
27.60001310350486
  0
ARC
  5
191
330
1F
100
AcDbEntity
  8
VISIBLE
100
AcDbCircle
 10
0.6707463282036228
 20
5.008683266421925
 30
0.0
 40
0.1040910275315675
100
AcDbArc
 50
27.60001310350486
 51
44.03697263121532
  0
ARC
  5
192
330
1F
100
AcDbEntity
  8
VISIBLE
100
AcDbCircle
 10
0.6707463282036228
 20
5.008683266421925
 30
0.0
 40
0.1040910275315675
100
AcDbArc
 50
44.03697263121532
 51
53.24153493331302
  0
ARC
  5
193
330
1F
100
AcDbEntity
  8
VISIBLE
100
AcDbCircle
 10
0.6707463282036228
 20
5.008683266421925
 30
0.0
 40
0.1040910275315675
100
AcDbArc
 50
53.24153493331302
 51
54.05217151164923
  0
ELLIPSE
  5
194
330
1F
100
AcDbEntity
  8
VISIBLE
100
AcDbEllipse
 10
0.9927229770692021
 20
5.517514571758489
 30
0.0
 11
-0.05191712869936094
 21
-0.089923104690385
 31
0.0
210
0.0
220
0.0
230
-1.0
 40
0.5773502691896272
 41
1.219382961199686
 42
2.303612508861059
  0
ELLIPSE
  5
195
330
1F
100
AcDbEntity
  8
VISIBLE
100
AcDbEllipse
 10
1.000019552423521
 20
5.522518439218474
 30
0.0
 11
-0.1002155135583394
 21
0.02672510671664696
 31
0.0
210
0.0
220
0.0
230
1.0
 40
0.345066365748904
 41
6.251962453141613
 42
7.120920222099323
  0
ARC
  5
196
330
1F
100
AcDbEntity
  8
VISIBLE
100
AcDbCircle
 10
0.9978896492589975
 20
5.514531592178895
 30
0.0
 40
0.1040910275315675
100
AcDbArc
 50
109.1120419212668
 51
159.8961434163685
  0
ELLIPSE
  5
197
330
1F
100
AcDbEntity
  8
VISIBLE
100
AcDbEllipse
 10
0.6758345070334064
 20
5.981843633295768
 30
0.0
 11
-0.03635163860893087
 21
0.09726310389859893
 31
0.0
210
0.0
220
0.0
230
-1.0
 40
0.6688348434219149
 41
0.0633527815592741
 42
0.6110807832226641
  0
ELLIPSE
  5
198
330
1F
100
AcDbEntity
  8
VISIBLE
100
AcDbEllipse
 10
0.6655796560138274
 20
5.982924929394329
 30
0.0
 11
-0.05191712869936094
 21
-0.089923104690385
 31
0.0
210
0.0
220
0.0
230
-1.0
 40
0.5773502691896272
 41
2.601155248462772
 42
3.091813257445825
  0
ARC
  5
199
330
1F
100
AcDbEntity
  8
VISIBLE
100
AcDbCircle
 10
0.6707463282036228
 20
5.979941949814735
 30
0.0
 40
0.1040910275315675
100
AcDbArc
 50
64.93193475227987
 51
105.0748151010906
  0
ELLIPSE
  5
19A
330
1F
100
AcDbEntity
  8
VISIBLE
100
AcDbEllipse
 10
0.2015156865248855
 20
5.384868665738563
 30
0.0
 11
0.05185889626375095
 21
0.08982224315326093
 31
0.0
210
0.0
220
0.0
230
1.0
 40
0.5773502691896228
 41
6.223107206244054
 42
8.219806899143418
  0
ELLIPSE
  5
19B
330
1F
100
AcDbEntity
  8
VISIBLE
100
AcDbEllipse
 10
0.1970553722434008
 20
5.395090475394147
 30
0.0
 11
-0.1003280457150346
 21
0.02675511638071982
 31
0.0
210
0.0
220
0.0
230
1.0
 40
0.3450663657488959
 41
0.993160910152775
 42
3.167466787977304
  0
ARC
  5
19C
330
1F
100
AcDbEntity
  8
VISIBLE
100
AcDbCircle
 10
0.1952882662805298
 20
5.388464068492999
 30
0.0
 40
0.1040910275315675
100
AcDbArc
 50
349.3572073742923
 51
54.05217151164923
  0
ELLIPSE
  5
19D
330
1F
100
AcDbEntity
  8
VISIBLE
100
AcDbEllipse
 10
0.2734485452877715
 20
4.94245210831974
 30
0.0
 11
0.06473110736234533
 21
0.08103865883899175
 31
0.0
210
0.0
220
0.0
230
-1.0
 40
0.8133895649302356
 41
0.1190092273146604
 42
2.933939841003016
  0
ELLIPSE
  5
19E
330
1F
100
AcDbEntity
  8
VISIBLE
100
AcDbEllipse
 10
0.2756730569587447
 20
4.942054101824541
 30
0.0
 11
0.05185889626375095
 21
0.08982224315326093
 31
0.0
210
0.0
220
0.0
230
1.0
 40
0.5773502691896228
 41
3.139340724274591
 42
3.201670754525308
  0
ARC
  5
19F
330
1F
100
AcDbEntity
  8
VISIBLE
100
AcDbCircle
 10
0.2694456367143889
 20
4.945649504578977
 30
0.0
 40
0.1040910275315675
100
AcDbArc
 50
245.9478284883509
 51
284.4972793821825
  0
ARC
  5
1A0
330
1F
100
AcDbEntity
  8
VISIBLE
100
AcDbCircle
 10
0.2694456367143889
 20
4.945649504578977
 30
0.0
 40
0.1040910275315675
100
AcDbArc
 50
284.4972793821825
 51
290.2847638875139
  0
ARC
  5
1A1
330
1F
100
AcDbEntity
  8
VISIBLE
100
AcDbCircle
 10
0.2694456367143889
 20
4.945649504578977
 30
0.0
 40
0.1040910275315675
100
AcDbArc
 50
290.2847638875139
 51
290.8025301564608
  0
ARC
  5
1A2
330
1F
100
AcDbEntity
  8
VISIBLE
100
AcDbCircle
 10
0.2694456367143889
 20
4.945649504578977
 30
0.0
 40
0.1040910275315675
100
AcDbArc
 50
290.8025301564608
 51
295.6907998211514
  0
ARC
  5
1A3
330
1F
100
AcDbEntity
  8
VISIBLE
100
AcDbCircle
 10
0.2694456367143889
 20
4.945649504578977
 30
0.0
 40
0.1040910275315675
100
AcDbArc
 50
295.6907998211514
 51
296.5588971881477
  0
ARC
  5
1A4
330
1F
100
AcDbEntity
  8
VISIBLE
100
AcDbCircle
 10
0.2694456367143889
 20
4.945649504578977
 30
0.0
 40
0.1040910275315675
100
AcDbArc
 50
296.5588971881477
 51
299.9999999999998
  0
ARC
  5
1A5
330
1F
100
AcDbEntity
  8
VISIBLE
100
AcDbCircle
 10
0.2694456367143889
 20
4.945649504578977
 30
0.0
 40
0.1040910275315675
100
AcDbArc
 50
299.9999999999998
 51
12.9238490747204
  0
ARC
  5
1A6
330
1F
100
AcDbEntity
  8
VISIBLE
100
AcDbCircle
 10
0.2694456367143889
 20
4.945649504578977
 30
0.0
 40
0.1040910275315675
100
AcDbArc
 50
12.9238490747204
 51
20.29460133673571
  0
ARC
  5
1A7
330
1F
100
AcDbEntity
  8
VISIBLE
100
AcDbCircle
 10
0.2694456367143889
 20
4.945649504578977
 30
0.0
 40
0.1040910275315675
100
AcDbArc
 50
20.29460133673571
 51
29.16266952205032
  0
ARC
  5
1A8
330
1F
100
AcDbEntity
  8
VISIBLE
100
AcDbCircle
 10
0.2694456367143889
 20
4.945649504578977
 30
0.0
 40
0.1040910275315675
100
AcDbArc
 50
29.16266952205032
 51
31.90431769148759
  0
ARC
  5
1A9
330
1F
100
AcDbEntity
  8
VISIBLE
100
AcDbCircle
 10
0.2694456367143889
 20
4.945649504578977
 30
0.0
 40
0.1040910275315675
100
AcDbArc
 50
31.90431769148759
 51
32.7362191570161
  0
ARC
  5
1AA
330
1F
100
AcDbEntity
  8
VISIBLE
100
AcDbCircle
 10
0.2694456367143889
 20
4.945649504578977
 30
0.0
 40
0.1040910275315675
100
AcDbArc
 50
32.7362191570161
 51
43.02024902806227
  0
ELLIPSE
  5
1AB
330
1F
100
AcDbEntity
  8
VISIBLE
100
AcDbEllipse
 10
0.676879139941529
 20
5.013472717202268
 30
0.0
 11
-0.06383827184169899
 21
0.08174384096091458
 31
0.0
210
0.0
220
0.0
230
-1.0
 40
0.4683231991813421
 41
0.045022294330047
 42
0.7881713669608237
  0
ELLIPSE
  5
1AC
330
1F
100
AcDbEntity
  8
VISIBLE
100
AcDbEllipse
 10
0.6655796560138265
 20
5.011666246001519
 30
0.0
 11
-0.05191712869936094
 21
-0.089923104690385
 31
0.0
210
0.0
220
0.0
230
-1.0
 40
0.5773502691896272
 41
2.266580512396305
 42
3.091813257445825
  0
ARC
  5
1AD
330
1F
100
AcDbEntity
  8
VISIBLE
100
AcDbCircle
 10
0.6707463282036228
 20
5.008683266421925
 30
0.0
 40
0.1040910275315675
100
AcDbArc
 50
64.93193475227987
 51
122.4932890296057
  0
ELLIPSE
  5
1AE
330
1F
100
AcDbEntity
  8
VISIBLE
100
AcDbEllipse
 10
0.9961225432961269
 20
5.507905185277748
 30
0.0
 11
0.1003280457150346
 21
-0.02675511638071982
 31
0.0
210
0.0
220
0.0
230
-1.0
 40
0.3450663657488949
 41
0.0258741343874938
 42
2.148431743437017
  0
ELLIPSE
  5
1AF
330
1F
100
AcDbEntity
  8
VISIBLE
100
AcDbEllipse
 10
1.004117069503353
 20
5.510936189424459
 30
0.0
 11
0.05185889626375139
 21
0.08982224315326093
 31
0.0
210
0.0
220
0.0
230
1.0
 40
0.5773502691896252
 41
6.223107206244059
 42
6.249390466935072
  0
ELLIPSE
  5
1B0
330
1F
100
AcDbEntity
  8
VISIBLE
100
AcDbEllipse
 10
1.004117069503353
 20
5.510936189424459
 30
0.0
 11
0.05185889626375139
 21
0.08982224315326093
 31
0.0
210
0.0
220
0.0
230
1.0
 40
0.5773502691896252
 41
0.7819425225424669
 42
1.922114106508959
  0
ELLIPSE
  5
1B1
330
1F
100
AcDbEntity
  8
VISIBLE
100
AcDbEllipse
 10
1.000019552423521
 20
5.522518439218474
 30
0.0
 11
-0.1002155135583394
 21
0.02672510671664696
 31
0.0
210
0.0
220
0.0
230
1.0
 40
0.345066365748904
 41
6.251962453141613
 42
7.120920222099323
  0
ELLIPSE
  5
1B2
330
1F
100
AcDbEntity
  8
VISIBLE
100
AcDbEllipse
 10
0.9927229770692021
 20
5.517514571758489
 30
0.0
 11
-0.05191712869936094
 21
-0.089923104690385
 31
0.0
210
0.0
220
0.0
230
-1.0
 40
0.5773502691896272
 41
0.0497793961439776
 42
1.064036180725315
  0
ELLIPSE
  5
1B3
330
1F
100
AcDbEntity
  8
VISIBLE
100
AcDbEllipse
 10
1.004117069503353
 20
5.510936189424459
 30
0.0
 11
0.05185889626375051
 21
0.08982224315326093
 31
0.0
210
0.0
220
0.0
230
1.0
 40
0.5773502691896278
 41
2.07763568762311
 42
3.201670754525308
  0
ELLIPSE
  5
1B4
330
1F
100
AcDbEntity
  8
VISIBLE
100
AcDbEllipse
 10
1.000019552423521
 20
5.522518439218474
 30
0.0
 11
-0.1002155135583394
 21
0.02672510671664696
 31
0.0
210
0.0
220
0.0
230
1.0
 40
0.345066365748904
 41
0.9932564960338922
 42
3.172815507627793
  0
ELLIPSE
  5
1B5
330
1F
100
AcDbEntity
  8
VISIBLE
100
AcDbEllipse
 10
0.9927229770692021
 20
5.517514571758489
 30
0.0
 11
-0.05191712869936094
 21
-0.089923104690385
 31
0.0
210
0.0
220
0.0
230
-1.0
 40
0.5773502691896272
 41
1.219382961199686
 42
2.303612508861059
  0
ELLIPSE
  5
1B6
330
1F
100
AcDbEntity
  8
VISIBLE
100
AcDbEllipse
 10
0.9961225432961269
 20
5.507905185277748
 30
0.0
 11
0.1003280457150346
 21
-0.02675511638071982
 31
0.0
210
0.0
220
0.0
230
-1.0
 40
0.3450663657488949
 41
2.303778523911392
 42
3.115718519202278
  0
ARC
  5
1B7
330
1F
100
AcDbEntity
  8
VISIBLE
100
AcDbCircle
 10
0.9978896492589975
 20
5.514531592178895
 30
0.0
 40
0.1040910275315675
100
AcDbArc
 50
235.0680652477202
 51
238.7819794963647
  0
ARC
  5
1B8
330
1F
100
AcDbEntity
  8
VISIBLE
100
AcDbCircle
 10
0.9978896492589975
 20
5.514531592178895
 30
0.0
 40
0.1040910275315675
100
AcDbArc
 50
238.7819794963647
 51
243.7564759193015
  0
ARC
  5
1B9
330
1F
100
AcDbEntity
  8
VISIBLE
100
AcDbCircle
 10
0.9978896492589975
 20
5.514531592178895
 30
0.0
 40
0.1040910275315675
100
AcDbArc
 50
243.7564759193015
 51
245.9478284883507
  0
ARC
  5
1BA
330
1F
100
AcDbEntity
  8
VISIBLE
100
AcDbCircle
 10
0.9978896492589975
 20
5.514531592178895
 30
0.0
 40
0.1040910275315675
100
AcDbArc
 50
159.8961434163685
 51
169.3572073742918
  0
ARC
  5
1BB
330
1F
100
AcDbEntity
  8
VISIBLE
100
AcDbCircle
 10
0.9978896492589975
 20
5.514531592178895
 30
0.0
 40
0.1040910275315675
100
AcDbArc
 50
54.05217151164923
 51
54.9109542373478
  0
ARC
  5
1BC
330
1F
100
AcDbEntity
  8
VISIBLE
100
AcDbCircle
 10
0.9978896492589975
 20
5.514531592178895
 30
0.0
 40
0.1040910275315675
100
AcDbArc
 50
340.7789230084628
 51
350.2399869663864
  0
ELLIPSE
  5
1BD
330
1F
100
AcDbEntity
  8
VISIBLE
100
AcDbEllipse
 10
0.5286590075802602
 20
5.890716991495534
 30
0.0
 11
0.05185889626375095
 21
0.08982224315326093
 31
0.0
210
0.0
220
0.0
230
1.0
 40
0.5773502691896228
 41
6.223107206244045
 42
7.172609347946834
  0
ELLIPSE
  5
1BE
330
1F
100
AcDbEntity
  8
VISIBLE
100
AcDbEllipse
 10
0.5275197661656881
 20
5.898286033603058
 30
0.0
 11
-0.06390995593685524
 21
0.08183563124759986
 31
0.0
210
0.0
220
0.0
230
-1.0
 40
0.4683231991813352
 41
0.9435973621938492
 42
3.104285082008679
  0
ARC
  5
1BF
330
1F
100
AcDbEntity
  8
VISIBLE
100
AcDbCircle
 10
0.5224315873359044
 20
5.894312394249969
 30
0.0
 40
0.1040910275315675
100
AcDbArc
 50
312.5450239494282
 51
355.3500568821282
  0
ARC
  5
1C0
330
1F
100
AcDbEntity
  8
VISIBLE
100
AcDbCircle
 10
0.5224315873359044
 20
5.894312394249969
 30
0.0
 40
0.1040910275315675
100
AcDbArc
 50
355.3500568821282
 51
46.07114187377081
  0
ARC
  5
1C1
330
1F
100
AcDbEntity
  8
VISIBLE
100
AcDbCircle
 10
0.5224315873359044
 20
5.894312394249969
 30
0.0
 40
0.1040910275315675
100
AcDbArc
 50
46.07114187377081
 51
54.05217151164923
  0
ELLIPSE
  5
1C2
330
1F
100
AcDbEntity
  8
VISIBLE
100
AcDbEllipse
 10
0.1931583631160056
 20
5.38047722145342
 30
0.0
 11
0.1002155135583398
 21
-0.02672510671664697
 31
0.0
210
0.0
220
0.0
230
-1.0
 40
0.3450663657489035
 41
0.0312228540379779
 42
2.148336157555902
  0
ELLIPSE
  5
1C3
330
1F
100
AcDbEntity
  8
VISIBLE
100
AcDbEllipse
 10
0.2015156865248855
 20
5.384868665738563
 30
0.0
 11
0.05185889626375095
 21
0.08982224315326093
 31
0.0
210
0.0
220
0.0
230
1.0
 40
0.5773502691896228
 41
2.09214317307799
 42
3.201670754525308
  0
ARC
  5
1C4
330
1F
100
AcDbEntity
  8
VISIBLE
100
AcDbCircle
 10
0.1952882662805298
 20
5.388464068492999
 30
0.0
 40
0.1040910275315675
100
AcDbArc
 50
245.9478284883505
 51
250.480233683054
  0
ARC
  5
1C5
330
1F
100
AcDbEntity
  8
VISIBLE
100
AcDbCircle
 10
0.1952882662805298
 20
5.388464068492999
 30
0.0
 40
0.1040910275315675
100
AcDbArc
 50
250.480233683054
 51
259.3294075320707
  0
ARC
  5
1C6
330
1F
100
AcDbEntity
  8
VISIBLE
100
AcDbCircle
 10
0.1952882662805298
 20
5.388464068492999
 30
0.0
 40
0.1040910275315675
100
AcDbArc
 50
259.3294075320707
 51
287.375012134753
  0
ARC
  5
1C7
330
1F
100
AcDbEntity
  8
VISIBLE
100
AcDbCircle
 10
0.1952882662805298
 20
5.388464068492999
 30
0.0
 40
0.1040910275315675
100
AcDbArc
 50
287.375012134753
 51
289.0964486470941
  0
ARC
  5
1C8
330
1F
100
AcDbEntity
  8
VISIBLE
100
AcDbCircle
 10
0.1952882662805298
 20
5.388464068492999
 30
0.0
 40
0.1040910275315675
100
AcDbArc
 50
289.0964486470941
 51
300.0
  0
ARC
  5
1C9
330
1F
100
AcDbEntity
  8
VISIBLE
100
AcDbCircle
 10
0.1952882662805298
 20
5.388464068492999
 30
0.0
 40
0.1040910275315675
100
AcDbArc
 50
300.0
 51
339.8961434163684
  0
ELLIPSE
  5
1CA
330
1F
100
AcDbEntity
  8
VISIBLE
100
AcDbEllipse
 10
0.6656581493738392
 20
5.004709627068836
 30
0.0
 11
0.06390995593685478
 21
-0.08183563124759985
 31
0.0
210
0.0
220
0.0
230
1.0
 40
0.4683231991813364
 41
6.245877735598475
 42
8.481180598575527
  0
ELLIPSE
  5
1CB
330
1F
100
AcDbEntity
  8
VISIBLE
100
AcDbEllipse
 10
0.6769737484479785
 20
5.005087863667489
 30
0.0
 11
0.05185889626375139
 21
0.08982224315326093
 31
0.0
210
0.0
220
0.0
230
1.0
 40
0.5773502691896252
 41
6.223107206244059
 42
7.158101862491953
  0
ELLIPSE
  5
1CC
330
1F
100
AcDbEntity
  8
VISIBLE
100
AcDbEllipse
 10
0.676879139941529
 20
5.013472717202268
 30
0.0
 11
-0.06383827184169899
 21
0.08174384096091458
 31
0.0
210
0.0
220
0.0
230
-1.0
 40
0.4683231991813421
 41
0.045022294330047
 42
0.7881713669608237
  0
ELLIPSE
  5
1CD
330
1F
100
AcDbEntity
  8
VISIBLE
100
AcDbEllipse
 10
0.6655796560138265
 20
5.011666246001519
 30
0.0
 11
-0.05191712869936094
 21
-0.089923104690385
 31
0.0
210
0.0
220
0.0
230
-1.0
 40
0.5773502691896272
 41
1.094302728558636
 42
2.111233731921905
  0
ELLIPSE
  5
1CE
330
1F
100
AcDbEntity
  8
VISIBLE
100
AcDbEllipse
 10
0.6769737484479785
 20
5.005087863667489
 30
0.0
 11
0.05185889626375051
 21
0.08982224315326093
 31
0.0
210
0.0
220
0.0
230
1.0
 40
0.5773502691896278
 41
1.030438136426516
 42
2.104359971332028
  0
ELLIPSE
  5
1CF
330
1F
100
AcDbEntity
  8
VISIBLE
100
AcDbEllipse
 10
0.6769737484479785
 20
5.005087863667489
 30
0.0
 11
0.05185889626375051
 21
0.08982224315326093
 31
0.0
210
0.0
220
0.0
230
1.0
 40
0.5773502691896278
 41
3.162015156912657
 42
3.201670754525308
  0
ELLIPSE
  5
1D0
330
1F
100
AcDbEntity
  8
VISIBLE
100
AcDbEllipse
 10
0.676879139941529
 20
5.013472717202268
 30
0.0
 11
-0.06383827184169899
 21
0.08174384096091458
 31
0.0
210
0.0
220
0.0
230
-1.0
 40
0.4683231991813421
 41
0.943692948074979
 42
3.096570359259714
  0
ELLIPSE
  5
1D1
330
1F
100
AcDbEntity
  8
VISIBLE
100
AcDbEllipse
 10
0.6655796560138265
 20
5.011666246001519
 30
0.0
 11
-0.05191712869936094
 21
-0.089923104690385
 31
0.0
210
0.0
220
0.0
230
-1.0
 40
0.5773502691896272
 41
2.266580512396305
 42
3.091813257445825
  0
ELLIPSE
  5
1D2
330
1F
100
AcDbEntity
  8
VISIBLE
100
AcDbEllipse
 10
0.6656581493738392
 20
5.004709627068837
 30
0.0
 11
0.06390995593685478
 21
-0.08183563124759985
 31
0.0
210
0.0
220
0.0
230
1.0
 40
0.4683231991813364
 41
2.353342071870331
 42
3.178900225170914
  0
ARC
  5
1D3
330
1F
100
AcDbEntity
  8
VISIBLE
100
AcDbCircle
 10
0.6707463282036228
 20
5.008683266421925
 30
0.0
 40
0.1040910275315675
100
AcDbArc
 50
244.6499431178717
 51
245.9478284883503
  0
ARC
  5
1D4
330
1F
100
AcDbEntity
  8
VISIBLE
100
AcDbCircle
 10
0.6707463282036228
 20
5.008683266421925
 30
0.0
 40
0.1040910275315675
100
AcDbArc
 50
122.4932890296057
 51
132.5450239494278
  0
ARC
  5
1D5
330
1F
100
AcDbEntity
  8
VISIBLE
100
AcDbCircle
 10
0.6707463282036228
 20
5.008683266421925
 30
0.0
 40
0.1040910275315675
100
AcDbArc
 50
54.05217151164923
 51
63.91028820747145
  0
ARC
  5
1D6
330
1F
100
AcDbEntity
  8
VISIBLE
100
AcDbCircle
 10
0.6707463282036228
 20
5.008683266421925
 30
0.0
 40
0.1040910275315675
100
AcDbArc
 50
63.91028820747145
 51
64.93193475227987
  0
ARC
  5
1D7
330
1F
100
AcDbEntity
  8
VISIBLE
100
AcDbCircle
 10
0.6707463282036228
 20
5.008683266421925
 30
0.0
 40
0.1040910275315675
100
AcDbArc
 50
303.4314550889114
 51
313.483190008734
  0
ELLIPSE
  5
1D8
330
1F
100
AcDbEntity
  8
VISIBLE
100
AcDbEllipse
 10
0.9927229770692021
 20
5.517514571758489
 30
0.0
 11
-0.05191712869936094
 21
-0.089923104690385
 31
0.0
210
0.0
220
0.0
230
-1.0
 40
0.5773502691896272
 41
0.0497793961439776
 42
1.064036180725315
  0
ELLIPSE
  5
1D9
330
1F
100
AcDbEntity
  8
VISIBLE
100
AcDbEllipse
 10
0.9961225432961269
 20
5.507905185277748
 30
0.0
 11
0.1003280457150346
 21
-0.02675511638071982
 31
0.0
210
0.0
220
0.0
230
-1.0
 40
0.3450663657488949
 41
2.303778523911392
 42
3.115718519202278
  0
ARC
  5
1DA
330
1F
100
AcDbEntity
  8
VISIBLE
100
AcDbCircle
 10
0.9978896492589975
 20
5.514531592178895
 30
0.0
 40
0.1040910275315675
100
AcDbArc
 50
169.3572073742918
 51
235.0680652477202
  0
ELLIPSE
  5
1DB
330
1F
100
AcDbEntity
  8
VISIBLE
100
AcDbEllipse
 10
0.5162987755979977
 20
5.889522943469627
 30
0.0
 11
0.06383827184169899
 21
-0.08174384096091458
 31
0.0
210
0.0
220
0.0
230
1.0
 40
0.4683231991813387
 41
6.238163012849538
 42
8.481085012694392
  0
ELLIPSE
  5
1DC
330
1F
100
AcDbEntity
  8
VISIBLE
100
AcDbEllipse
 10
0.5286590075802602
 20
5.890716991495534
 30
0.0
 11
0.05185889626375095
 21
0.08982224315326093
 31
0.0
210
0.0
220
0.0
230
1.0
 40
0.5773502691896228
 41
1.044945621881411
 42
2.621813819390172
  0
ELLIPSE
  5
1DD
330
1F
100
AcDbEntity
  8
VISIBLE
100
AcDbEllipse
 10
0.5286590075802602
 20
5.890716991495534
 30
0.0
 11
0.05185889626375095
 21
0.08982224315326093
 31
0.0
210
0.0
220
0.0
230
1.0
 40
0.5773502691896228
 41
3.136776646347357
 42
3.201670754525315
  0
ARC
  5
1DE
330
1F
100
AcDbEntity
  8
VISIBLE
100
AcDbCircle
 10
0.5224315873359044
 20
5.894312394249969
 30
0.0
 40
0.1040910275315675
100
AcDbArc
 50
245.9478284883505
 51
300.0000000000002
  0
ARC
  5
1DF
330
1F
100
AcDbEntity
  8
VISIBLE
100
AcDbCircle
 10
0.5224315873359044
 20
5.894312394249969
 30
0.0
 40
0.1040910275315675
100
AcDbArc
 50
300.0000000000002
 51
302.4932890296056
  0
ELLIPSE
  5
1E0
330
1F
100
AcDbEntity
  8
VISIBLE
100
AcDbEllipse
 10
0.1901215940907339
 20
5.391447048072592
 30
0.0
 11
-0.05191712869936094
 21
-0.089923104690385
 31
0.0
210
0.0
220
0.0
230
-1.0
 40
0.5773502691896272
 41
0.049779396143965
 42
1.049545066392919
  0
ELLIPSE
  5
1E1
330
1F
100
AcDbEntity
  8
VISIBLE
100
AcDbEllipse
 10
0.1931583631160056
 20
5.38047722145342
 30
0.0
 11
0.1002155135583398
 21
-0.02672510671664697
 31
0.0
210
0.0
220
0.0
230
-1.0
 40
0.3450663657489035
 41
2.303857738670057
 42
3.110369799551822
  0
ARC
  5
1E2
330
1F
100
AcDbEntity
  8
VISIBLE
100
AcDbCircle
 10
0.1952882662805298
 20
5.388464068492999
 30
0.0
 40
0.1040910275315675
100
AcDbArc
 50
170.2399869663863
 51
235.0680652477202
  0
ELLIPSE
  5
1E3
330
1F
100
AcDbEntity
  8
VISIBLE
100
AcDbEllipse
 10
0.2734485452877715
 20
4.94245210831974
 30
0.0
 11
0.06473110736234533
 21
0.08103865883899175
 31
0.0
210
0.0
220
0.0
230
-1.0
 40
0.8133895649302356
 41
0.1190092273146604
 42
2.933939841003016
  0
ELLIPSE
  5
1E4
330
1F
100
AcDbEntity
  8
VISIBLE
100
AcDbEllipse
 10
0.2661245638474754
 20
4.948302272127036
 30
0.0
 11
-0.06480379402390213
 21
-0.08112965727557153
 31
0.0
210
0.0
220
0.0
230
1.0
 40
0.8133895649302385
 41
6.184631458227127
 42
6.335395753410828
  0
ELLIPSE
  5
1E5
330
1F
100
AcDbEntity
  8
VISIBLE
100
AcDbEllipse
 10
0.2756730569587447
 20
4.942054101824541
 30
0.0
 11
0.05185889626375095
 21
0.08982224315326093
 31
0.0
210
0.0
220
0.0
230
1.0
 40
0.5773502691896228
 41
6.266425892409505
 42
6.756094580358838
  0
ELLIPSE
  5
1E6
330
1F
100
AcDbEntity
  8
VISIBLE
100
AcDbEllipse
 10
0.2756730569587447
 20
4.942054101824541
 30
0.0
 11
0.05185889626375095
 21
0.08982224315326093
 31
0.0
210
0.0
220
0.0
230
1.0
 40
0.5773502691896228
 41
1.824585985095729
 42
2.98381914316043
  0
ELLIPSE
  5
1E7
330
1F
100
AcDbEntity
  8
VISIBLE
100
AcDbEllipse
 10
0.2661245638474758
 20
4.948302272127036
 30
0.0
 11
-0.06480379402390213
 21
-0.08112965727557153
 31
0.0
210
0.0
220
0.0
230
1.0
 40
0.8133895649302353
 41
0.2075572267056397
 42
3.179311985488659
  0
ELLIPSE
  5
1E8
330
1F
100
AcDbEntity
  8
VISIBLE
100
AcDbEllipse
 10
0.2756730569587447
 20
4.942054101824541
 30
0.0
 11
0.05185889626375095
 21
0.08982224315326093
 31
0.0
210
0.0
220
0.0
230
1.0
 40
0.5773502691896228
 41
3.139340724274591
 42
3.201670754525308
  0
ELLIPSE
  5
1E9
330
1F
100
AcDbEntity
  8
VISIBLE
100
AcDbEllipse
 10
0.2642789645245931
 20
4.94863248415857
 30
0.0
 11
-0.05191712869936094
 21
-0.089923104690385
 31
0.0
210
0.0
220
0.0
230
-1.0
 40
0.5773502691896272
 41
0.1576942956707118
 42
1.232835383757657
  0
ELLIPSE
  5
1EA
330
1F
100
AcDbEntity
  8
VISIBLE
100
AcDbEllipse
 10
0.2642789645245931
 20
4.94863248415857
 30
0.0
 11
-0.05191712869936094
 21
-0.089923104690385
 31
0.0
210
0.0
220
0.0
230
-1.0
 40
0.5773502691896272
 41
2.850141576261231
 42
3.091813257445825
  0
ARC
  5
1EB
330
1F
100
AcDbEntity
  8
VISIBLE
100
AcDbCircle
 10
0.2694456367143889
 20
4.945649504578977
 30
0.0
 40
0.1040910275315675
100
AcDbArc
 50
224.4524825380156
 51
245.9478284883509
  0
ARC
  5
1EC
330
1F
100
AcDbEntity
  8
VISIBLE
100
AcDbCircle
 10
0.2694456367143889
 20
4.945649504578977
 30
0.0
 40
0.1040910275315675
100
AcDbArc
 50
43.02024902806227
 51
64.93193475227945
  0
ELLIPSE
  5
1ED
330
1F
100
AcDbEntity
  8
VISIBLE
100
AcDbEllipse
 10
0.6655796560138265
 20
5.011666246001519
 30
0.0
 11
-0.05191712869936094
 21
-0.089923104690385
 31
0.0
210
0.0
220
0.0
230
-1.0
 40
0.5773502691896272
 41
1.094302728558636
 42
2.111233731921905
  0
ELLIPSE
  5
1EE
330
1F
100
AcDbEntity
  8
VISIBLE
100
AcDbEllipse
 10
0.6656581493738392
 20
5.004709627068837
 30
0.0
 11
0.06390995593685478
 21
-0.08183563124759985
 31
0.0
210
0.0
220
0.0
230
1.0
 40
0.4683231991813364
 41
2.353342071870331
 42
3.178900225170914
  0
ARC
  5
1EF
330
1F
100
AcDbEntity
  8
VISIBLE
100
AcDbCircle
 10
0.6707463282036228
 20
5.008683266421925
 30
0.0
 40
0.1040910275315675
100
AcDbArc
 50
132.5450239494278
 51
175.3500568821277
  0
ELLIPSE
  5
1F0
330
1F
100
AcDbEntity
  8
VISIBLE
100
AcDbEllipse
 10
0.5172649151461086
 20
5.897295373829563
 30
0.0
 11
-0.05191712869936094
 21
-0.089923104690385
 31
0.0
210
0.0
220
0.0
230
-1.0
 40
0.5773502691896272
 41
0.5821805735978403
 42
2.096742617589522
  0
ELLIPSE
  5
1F1
330
1F
100
AcDbEntity
  8
VISIBLE
100
AcDbEllipse
 10
0.5162987755979977
 20
5.889522943469627
 30
0.0
 11
0.06383827184169899
 21
-0.08174384096091458
 31
0.0
210
0.0
220
0.0
230
1.0
 40
0.4683231991813387
 41
2.353421286628973
 42
3.186614947919845
  0
ARC
  5
1F2
330
1F
100
AcDbEntity
  8
VISIBLE
100
AcDbCircle
 10
0.5224315873359044
 20
5.894312394249969
 30
0.0
 40
0.1040910275315675
100
AcDbArc
 50
133.4831900087338
 51
205.9845493408867
  0
ELLIPSE
  5
1F3
330
1F
100
AcDbEntity
  8
VISIBLE
100
AcDbEllipse
 10
0.2015156865248855
 20
5.384868665738563
 30
0.0
 11
0.05185889626375095
 21
0.08982224315326093
 31
0.0
210
0.0
220
0.0
230
1.0
 40
0.5773502691896228
 41
6.223107206244054
 42
8.219806899143418
  0
ELLIPSE
  5
1F4
330
1F
100
AcDbEntity
  8
VISIBLE
100
AcDbEllipse
 10
0.1931583631160056
 20
5.38047722145342
 30
0.0
 11
0.1002155135583398
 21
-0.02672510671664697
 31
0.0
210
0.0
220
0.0
230
-1.0
 40
0.3450663657489035
 41
0.0312228540379779
 42
2.148336157555902
  0
ELLIPSE
  5
1F5
330
1F
100
AcDbEntity
  8
VISIBLE
100
AcDbEllipse
 10
0.1901215940907339
 20
5.391447048072592
 30
0.0
 11
-0.05191712869936094
 21
-0.089923104690385
 31
0.0
210
0.0
220
0.0
230
-1.0
 40
0.5773502691896272
 41
0.049779396143965
 42
1.049545066392919
  0
ELLIPSE
  5
1F6
330
1F
100
AcDbEntity
  8
VISIBLE
100
AcDbEllipse
 10
0.1970553722434003
 20
5.395090475394146
 30
0.0
 11
-0.1003280457150346
 21
0.02675511638071982
 31
0.0
210
0.0
220
0.0
230
1.0
 40
0.3450663657489043
 41
6.257311172792095
 42
7.120999436857972
  0
ELLIPSE
  5
1F7
330
1F
100
AcDbEntity
  8
VISIBLE
100
AcDbEllipse
 10
0.1970553722434008
 20
5.395090475394147
 30
0.0
 11
-0.1003280457150346
 21
0.02675511638071982
 31
0.0
210
0.0
220
0.0
230
1.0
 40
0.3450663657488959
 41
0.993160910152775
 42
3.167466787977304
  0
ELLIPSE
  5
1F8
330
1F
100
AcDbEntity
  8
VISIBLE
100
AcDbEllipse
 10
0.2015156865248855
 20
5.384868665738563
 30
0.0
 11
0.05185889626375095
 21
0.08982224315326093
 31
0.0
210
0.0
220
0.0
230
1.0
 40
0.5773502691896228
 41
2.09214317307799
 42
3.201670754525308
  0
ELLIPSE
  5
1F9
330
1F
100
AcDbEntity
  8
VISIBLE
100
AcDbEllipse
 10
0.1931583631160056
 20
5.38047722145342
 30
0.0
 11
0.1002155135583398
 21
-0.02672510671664697
 31
0.0
210
0.0
220
0.0
230
-1.0
 40
0.3450663657489035
 41
2.303857738670057
 42
3.110369799551822
  0
ELLIPSE
  5
1FA
330
1F
100
AcDbEntity
  8
VISIBLE
100
AcDbEllipse
 10
0.1901215940907335
 20
5.391447048072592
 30
0.0
 11
-0.05191712869936049
 21
-0.089923104690385
 31
0.0
210
0.0
220
0.0
230
-1.0
 40
0.5773502691896284
 41
1.204891846867326
 42
2.826874946915555
  0
ARC
  5
1FB
330
1F
100
AcDbEntity
  8
VISIBLE
100
AcDbCircle
 10
0.1952882662805298
 20
5.388464068492999
 30
0.0
 40
0.1040910275315675
100
AcDbArc
 50
235.0680652477202
 51
245.9478284883505
  0
ARC
  5
1FC
330
1F
100
AcDbEntity
  8
VISIBLE
100
AcDbCircle
 10
0.1952882662805298
 20
5.388464068492999
 30
0.0
 40
0.1040910275315675
100
AcDbArc
 50
160.7789230084622
 51
170.2399869663863
  0
ARC
  5
1FD
330
1F
100
AcDbEntity
  8
VISIBLE
100
AcDbCircle
 10
0.1952882662805298
 20
5.388464068492999
 30
0.0
 40
0.1040910275315675
100
AcDbArc
 50
54.05217151164923
 51
58.78197949636559
  0
ARC
  5
1FE
330
1F
100
AcDbEntity
  8
VISIBLE
100
AcDbCircle
 10
0.1952882662805298
 20
5.388464068492999
 30
0.0
 40
0.1040910275315675
100
AcDbArc
 50
339.8961434163684
 51
349.3572073742923
  0
ELLIPSE
  5
1FF
330
1F
100
AcDbEntity
  8
VISIBLE
100
AcDbEllipse
 10
0.2661245638474754
 20
4.948302272127036
 30
0.0
 11
-0.06480379402390213
 21
-0.08112965727557153
 31
0.0
210
0.0
220
0.0
230
1.0
 40
0.8133895649302385
 41
6.184631458227127
 42
6.335395753410828
  0
ELLIPSE
  5
200
330
1F
100
AcDbEntity
  8
VISIBLE
100
AcDbEllipse
 10
0.2642789645245931
 20
4.94863248415857
 30
0.0
 11
-0.05191712869936094
 21
-0.089923104690385
 31
0.0
210
0.0
220
0.0
230
-1.0
 40
0.5773502691896272
 41
0.1576942956707118
 42
1.232835383757657
  0
ELLIPSE
  5
201
330
1F
100
AcDbEntity
  8
VISIBLE
100
AcDbEllipse
 10
0.2642789645245931
 20
4.94863248415857
 30
0.0
 11
-0.05191712869936094
 21
-0.089923104690385
 31
0.0
210
0.0
220
0.0
230
-1.0
 40
0.5773502691896272
 41
2.850141576261231
 42
3.091813257445825
  0
ARC
  5
202
330
1F
100
AcDbEntity
  8
VISIBLE
100
AcDbCircle
 10
0.2694456367143889
 20
4.945649504578977
 30
0.0
 40
0.1040910275315675
100
AcDbArc
 50
64.93193475227945
 51
73.37893351720477
  0
ARC
  5
203
330
1F
100
AcDbEntity
  8
VISIBLE
100
AcDbCircle
 10
0.2694456367143889
 20
4.945649504578977
 30
0.0
 40
0.1040910275315675
100
AcDbArc
 50
176.8288852048297
 51
224.4524825380156
  0
ELLIPSE
  5
204
330
1F
100
AcDbEntity
  8
VISIBLE
100
AcDbEllipse
 10
0.805642126381402
 20
5.142156477967172
 30
0.0
 11
0.08092881802570329
 21
-0.06505443430317825
 31
0.0
210
0.0
220
0.0
230
1.0
 40
0.2113248654051824
 41
6.267970263223235
 42
8.400976998946167
  0
ELLIPSE
  5
205
330
1F
100
AcDbEntity
  8
VISIBLE
100
AcDbEllipse
 10
0.8163440159951474
 20
5.144127390887227
 30
0.0
 11
0.05185889626375051
 21
0.08982224315326093
 31
0.0
210
0.0
220
0.0
230
1.0
 40
0.5773502691896278
 41
1.379503986825384
 42
2.621813819390195
  0
ELLIPSE
  5
206
330
1F
100
AcDbEntity
  8
VISIBLE
100
AcDbEllipse
 10
0.8163440159951474
 20
5.144127390887227
 30
0.0
 11
0.05185889626375051
 21
0.08982224315326093
 31
0.0
210
0.0
220
0.0
230
1.0
 40
0.5773502691896278
 41
3.136776646347318
 42
3.201670754525308
  0
ARC
  5
207
330
1F
100
AcDbEntity
  8
VISIBLE
100
AcDbCircle
 10
0.8101165957507916
 20
5.147722793641663
 30
0.0
 40
0.1040910275315675
100
AcDbArc
 50
245.9478284883507
 51
300.0000000000002
  0
ARC
  5
208
330
1F
100
AcDbEntity
  8
VISIBLE
100
AcDbCircle
 10
0.8101165957507916
 20
5.147722793641663
 30
0.0
 40
0.1040910275315675
100
AcDbArc
 50
300.0000000000002
 51
317.08761011782
  0
ELLIPSE
  5
209
330
1F
100
AcDbEntity
  8
VISIBLE
100
AcDbEllipse
 10
0.5286590075802602
 20
5.890716991495534
 30
0.0
 11
0.05185889626375095
 21
0.08982224315326093
 31
0.0
210
0.0
220
0.0
230
1.0
 40
0.5773502691896228
 41
6.223107206244045
 42
7.172609347946834
  0
ELLIPSE
  5
20A
330
1F
100
AcDbEntity
  8
VISIBLE
100
AcDbEllipse
 10
0.5162987755979977
 20
5.889522943469627
 30
0.0
 11
0.06383827184169899
 21
-0.08174384096091458
 31
0.0
210
0.0
220
0.0
230
1.0
 40
0.4683231991813387
 41
6.238163012849538
 42
8.481085012694392
  0
ELLIPSE
  5
20B
330
1F
100
AcDbEntity
  8
VISIBLE
100
AcDbEllipse
 10
0.5172649151461086
 20
5.897295373829563
 30
0.0
 11
-0.05191712869936094
 21
-0.089923104690385
 31
0.0
210
0.0
220
0.0
230
-1.0
 40
0.5773502691896272
 41
0.5821805735978403
 42
2.096742617589522
  0
ELLIPSE
  5
20C
330
1F
100
AcDbEntity
  8
VISIBLE
100
AcDbEllipse
 10
0.5275197661656881
 20
5.898286033603058
 30
0.0
 11
-0.06390995593685524
 21
0.08183563124759986
 31
0.0
210
0.0
220
0.0
230
-1.0
 40
0.4683231991813352
 41
0.0373075715811328
 42
0.7882505817194609
  0
ELLIPSE
  5
20D
330
1F
100
AcDbEntity
  8
VISIBLE
100
AcDbEllipse
 10
0.5275197661656881
 20
5.898286033603058
 30
0.0
 11
-0.06390995593685524
 21
0.08183563124759986
 31
0.0
210
0.0
220
0.0
230
-1.0
 40
0.4683231991813352
 41
0.9435973621938492
 42
3.104285082008679
  0
ELLIPSE
  5
20E
330
1F
100
AcDbEntity
  8
VISIBLE
100
AcDbEllipse
 10
0.5286590075802602
 20
5.890716991495534
 30
0.0
 11
0.05185889626375095
 21
0.08982224315326093
 31
0.0
210
0.0
220
0.0
230
1.0
 40
0.5773502691896228
 41
1.044945621881411
 42
2.621813819390172
  0
ELLIPSE
  5
20F
330
1F
100
AcDbEntity
  8
VISIBLE
100
AcDbEllipse
 10
0.5286590075802602
 20
5.890716991495534
 30
0.0
 11
0.05185889626375095
 21
0.08982224315326093
 31
0.0
210
0.0
220
0.0
230
1.0
 40
0.5773502691896228
 41
3.136776646347357
 42
3.201670754525315
  0
ELLIPSE
  5
210
330
1F
100
AcDbEntity
  8
VISIBLE
100
AcDbEllipse
 10
0.5162987755979977
 20
5.889522943469627
 30
0.0
 11
0.06383827184169899
 21
-0.08174384096091458
 31
0.0
210
0.0
220
0.0
230
1.0
 40
0.4683231991813387
 41
2.353421286628973
 42
3.186614947919845
  0
ELLIPSE
  5
211
330
1F
100
AcDbEntity
  8
VISIBLE
100
AcDbEllipse
 10
0.5172649151461086
 20
5.897295373829563
 30
0.0
 11
-0.05191712869936049
 21
-0.089923104690385
 31
0.0
210
0.0
220
0.0
230
-1.0
 40
0.5773502691896284
 41
2.252089398063924
 42
3.091813257445832
  0
ARC
  5
212
330
1F
100
AcDbEntity
  8
VISIBLE
100
AcDbCircle
 10
0.5224315873359044
 20
5.894312394249969
 30
0.0
 40
0.1040910275315675
100
AcDbArc
 50
243.9102882074719
 51
245.9478284883505
  0
ARC
  5
213
330
1F
100
AcDbEntity
  8
VISIBLE
100
AcDbCircle
 10
0.5224315873359044
 20
5.894312394249969
 30
0.0
 40
0.1040910275315675
100
AcDbArc
 50
123.4314550889112
 51
133.4831900087338
  0
ARC
  5
214
330
1F
100
AcDbEntity
  8
VISIBLE
100
AcDbCircle
 10
0.5224315873359044
 20
5.894312394249969
 30
0.0
 40
0.1040910275315675
100
AcDbArc
 50
54.05217151164923
 51
64.64994311787211
  0
ARC
  5
215
330
1F
100
AcDbEntity
  8
VISIBLE
100
AcDbCircle
 10
0.5224315873359044
 20
5.894312394249969
 30
0.0
 40
0.1040910275315675
100
AcDbArc
 50
64.64994311787211
 51
64.93193475227966
  0
ARC
  5
216
330
1F
100
AcDbEntity
  8
VISIBLE
100
AcDbCircle
 10
0.5224315873359044
 20
5.894312394249969
 30
0.0
 40
0.1040910275315675
100
AcDbArc
 50
302.4932890296056
 51
312.5450239494282
  0
ELLIPSE
  5
217
330
1F
100
AcDbEntity
  8
VISIBLE
100
AcDbEllipse
 10
0.1970553722434003
 20
5.395090475394146
 30
0.0
 11
-0.1003280457150346
 21
0.02675511638071982
 31
0.0
210
0.0
220
0.0
230
1.0
 40
0.3450663657489043
 41
6.257311172792095
 42
7.120999436857972
  0
ELLIPSE
  5
218
330
1F
100
AcDbEntity
  8
VISIBLE
100
AcDbEllipse
 10
0.1901215940907335
 20
5.391447048072592
 30
0.0
 11
-0.05191712869936049
 21
-0.089923104690385
 31
0.0
210
0.0
220
0.0
230
-1.0
 40
0.5773502691896284
 41
1.204891846867326
 42
2.826874946915555
  0
ARC
  5
219
330
1F
100
AcDbEntity
  8
VISIBLE
100
AcDbCircle
 10
0.1952882662805298
 20
5.388464068492999
 30
0.0
 40
0.1040910275315675
100
AcDbArc
 50
78.80597427762847
 51
160.7789230084622
  0
ELLIPSE
  5
21A
330
1F
100
AcDbEntity
  8
VISIBLE
100
AcDbEllipse
 10
0.3785868504193459
 20
4.901561958590816
 30
0.0
 11
-0.009237329970807284
 21
-0.1034225543319947
 31
0.0
210
0.0
220
0.0
230
1.0
 40
0.7886751345948105
 41
6.192792485089933
 42
8.988979602493728
  0
ELLIPSE
  5
21B
330
1F
100
AcDbEntity
  8
VISIBLE
100
AcDbEllipse
 10
0.3892887400330909
 20
4.897566912351685
 30
0.0
 11
0.05185889626375095
 21
0.08982224315326093
 31
0.0
210
0.0
220
0.0
230
1.0
 40
0.5773502691896228
 41
0.3323064356287897
 42
1.038838970570478
  0
ELLIPSE
  5
21C
330
1F
100
AcDbEntity
  8
VISIBLE
100
AcDbEllipse
 10
0.3892887400330909
 20
4.897566912351685
 30
0.0
 11
0.05185889626375095
 21
0.08982224315326093
 31
0.0
210
0.0
220
0.0
230
1.0
 40
0.5773502691896228
 41
2.388120697837109
 42
3.201670754525315
  0
ARC
  5
21D
330
1F
100
AcDbEntity
  8
VISIBLE
100
AcDbCircle
 10
0.3830613197887356
 20
4.90116231510612
 30
0.0
 40
0.1040910275315675
100
AcDbArc
 50
245.9478284883505
 51
258.3400396244099
  0
ELLIPSE
  5
21E
330
1F
100
AcDbEntity
  8
VISIBLE
100
AcDbEllipse
 10
0.8163440159951474
 20
5.144127390887227
 30
0.0
 11
0.05185889626375139
 21
0.08982224315326093
 31
0.0
210
0.0
220
0.0
230
1.0
 40
0.5773502691896252
 41
6.223107206244059
 42
7.507167712890806
  0
ELLIPSE
  5
21F
330
1F
100
AcDbEntity
  8
VISIBLE
100
AcDbEllipse
 10
0.8155096998824449
 20
5.154431906518276
 30
0.0
 11
-0.08083804485887569
 21
0.06498146651293979
 31
0.0
210
0.0
220
0.0
230
-1.0
 40
0.2113248654051892
 41
1.023896547704343
 42
3.123232956293814
  0
ARC
  5
220
330
1F
100
AcDbEntity
  8
VISIBLE
100
AcDbCircle
 10
0.8101165957507916
 20
5.147722793641663
 30
0.0
 40
0.1040910275315675
100
AcDbArc
 50
326.1719118251413
 51
54.05217151164923
  0
ELLIPSE
  5
221
330
1F
100
AcDbEntity
  8
VISIBLE
100
AcDbEllipse
 10
0.5275197661656881
 20
5.898286033603058
 30
0.0
 11
-0.06390995593685524
 21
0.08183563124759986
 31
0.0
210
0.0
220
0.0
230
-1.0
 40
0.4683231991813352
 41
0.0373075715811328
 42
0.7882505817194609
  0
ELLIPSE
  5
222
330
1F
100
AcDbEntity
  8
VISIBLE
100
AcDbEllipse
 10
0.5172649151461086
 20
5.897295373829563
 30
0.0
 11
-0.05191712869936049
 21
-0.089923104690385
 31
0.0
210
0.0
220
0.0
230
-1.0
 40
0.5773502691896284
 41
2.252089398063924
 42
3.091813257445832
  0
ARC
  5
223
330
1F
100
AcDbEntity
  8
VISIBLE
100
AcDbCircle
 10
0.5224315873359044
 20
5.894312394249969
 30
0.0
 40
0.1040910275315675
100
AcDbArc
 50
64.93193475227966
 51
123.4314550889112
  0
ELLIPSE
  5
224
330
1F
100
AcDbEntity
  8
VISIBLE
100
AcDbEllipse
 10
0.1757611020520629
 20
5.201341949045969
 30
0.0
 11
0.05185889626375095
 21
0.08982224315326093
 31
0.0
210
0.0
220
0.0
230
1.0
 40
0.5773502691896228
 41
6.223107206244045
 42
6.249390466935036
  0
ELLIPSE
  5
225
330
1F
100
AcDbEntity
  8
VISIBLE
100
AcDbEllipse
 10
0.1757611020520629
 20
5.201341949045969
 30
0.0
 11
0.05185889626375095
 21
0.08982224315326093
 31
0.0
210
0.0
220
0.0
230
1.0
 40
0.5773502691896228
 41
0.7819425225424829
 42
2.285687442362702
  0
ELLIPSE
  5
226
330
1F
100
AcDbEntity
  8
VISIBLE
100
AcDbEllipse
 10
0.1695336818077071
 20
5.210903310959591
 30
0.0
 11
-0.1038342573987214
 21
0.0
 31
0.0
210
0.0
220
0.0
230
1.0
 40
0.5773502691896254
 41
0.8703171108008305
 42
3.191372049733769
  0
ARC
  5
227
330
1F
100
AcDbEntity
  8
VISIBLE
100
AcDbCircle
 10
0.1695336818077071
 20
5.204937351800404
 30
0.0
 40
0.1040910275315675
100
AcDbArc
 50
4.931934752279527
 51
54.05217151164923
  0
ELLIPSE
  5
228
330
1F
100
AcDbEntity
  8
VISIBLE
100
AcDbEllipse
 10
0.3884544239203889
 20
4.900680622473862
 30
0.0
 11
0.009226968992914308
 21
0.1033065512442546
 31
0.0
210
0.0
220
0.0
230
-1.0
 40
0.7886751345948094
 41
0.4358939441567762
 42
3.032451240804448
  0
ELLIPSE
  5
229
330
1F
100
AcDbEntity
  8
VISIBLE
100
AcDbEllipse
 10
0.3892887400330909
 20
4.897566912351685
 30
0.0
 11
0.05185889626375095
 21
0.08982224315326093
 31
0.0
210
0.0
220
0.0
230
1.0
 40
0.5773502691896228
 41
6.223107206244054
 42
6.459970161694206
  0
ARC
  5
22A
330
1F
100
AcDbEntity
  8
VISIBLE
100
AcDbCircle
 10
0.3830613197887356
 20
4.90116231510612
 30
0.0
 40
0.1040910275315675
100
AcDbArc
 50
272.8060068330464
 51
299.9999999999998
  0
ARC
  5
22B
330
1F
100
AcDbEntity
  8
VISIBLE
100
AcDbCircle
 10
0.3830613197887356
 20
4.90116231510612
 30
0.0
 40
0.1040910275315675
100
AcDbArc
 50
299.9999999999998
 51
321.5886827775207
  0
ARC
  5
22C
330
1F
100
AcDbEntity
  8
VISIBLE
100
AcDbCircle
 10
0.3830613197887356
 20
4.90116231510612
 30
0.0
 40
0.1040910275315675
100
AcDbArc
 50
321.5886827775207
 51
323.1760660394439
  0
ARC
  5
22D
330
1F
100
AcDbEntity
  8
VISIBLE
100
AcDbCircle
 10
0.3830613197887356
 20
4.90116231510612
 30
0.0
 40
0.1040910275315675
100
AcDbArc
 50
323.1760660394439
 51
333.5811571252684
  0
ARC
  5
22E
330
1F
100
AcDbEntity
  8
VISIBLE
100
AcDbCircle
 10
0.3830613197887356
 20
4.90116231510612
 30
0.0
 40
0.1040910275315675
100
AcDbArc
 50
333.5811571252684
 51
340.9114333841449
  0
ARC
  5
22F
330
1F
100
AcDbEntity
  8
VISIBLE
100
AcDbCircle
 10
0.3830613197887356
 20
4.90116231510612
 30
0.0
 40
0.1040910275315675
100
AcDbArc
 50
340.9114333841449
 51
26.75233774153089
  0
ARC
  5
230
330
1F
100
AcDbEntity
  8
VISIBLE
100
AcDbCircle
 10
0.3830613197887356
 20
4.90116231510612
 30
0.0
 40
0.1040910275315675
100
AcDbArc
 50
26.75233774153089
 51
35.03754142380878
  0
ARC
  5
231
330
1F
100
AcDbEntity
  8
VISIBLE
100
AcDbCircle
 10
0.3830613197887356
 20
4.90116231510612
 30
0.0
 40
0.1040910275315675
100
AcDbArc
 50
35.03754142380878
 51
51.10897493327474
  0
ARC
  5
232
330
1F
100
AcDbEntity
  8
VISIBLE
100
AcDbCircle
 10
0.3830613197887356
 20
4.90116231510612
 30
0.0
 40
0.1040910275315675
100
AcDbArc
 50
51.10897493327474
 51
54.05217151164942
  0
ELLIPSE
  5
233
330
1F
100
AcDbEntity
  8
VISIBLE
100
AcDbEllipse
 10
0.8049499235609963
 20
5.150705773221255
 30
0.0
 11
-0.05191712869936094
 21
-0.089923104690385
 31
0.0
210
0.0
220
0.0
230
-1.0
 40
0.5773502691896272
 41
1.917514661997421
 42
3.091813257445825
  0
ELLIPSE
  5
234
330
1F
100
AcDbEntity
  8
VISIBLE
100
AcDbEllipse
 10
0.8155096998824449
 20
5.154431906518276
 30
0.0
 11
-0.08083804485887569
 21
0.06498146651293979
 31
0.0
210
0.0
220
0.0
230
-1.0
 40
0.2113248654051892
 41
0.0183596972959751
 42
0.868374966590198
  0
ARC
  5
235
330
1F
100
AcDbEntity
  8
VISIBLE
100
AcDbCircle
 10
0.8101165957507916
 20
5.147722793641663
 30
0.0
 40
0.1040910275315675
100
AcDbArc
 50
64.93193475227923
 51
136.2401344008652
  0
ELLIPSE
  5
236
330
1F
100
AcDbEntity
  8
VISIBLE
100
AcDbEllipse
 10
0.3892887400330913
 20
5.751677464275796
 30
0.0
 11
0.05185889626375095
 21
0.08982224315326093
 31
0.0
210
0.0
220
0.0
230
1.0
 40
0.5773502691896228
 41
6.223107206244054
 42
7.521675198345694
  0
ELLIPSE
  5
237
330
1F
100
AcDbEntity
  8
VISIBLE
100
AcDbEllipse
 10
0.3875357891581253
 20
5.760839182704722
 30
0.0
 11
-0.08092881802570373
 21
0.06505443430317825
 31
0.0
210
0.0
220
0.0
230
-1.0
 40
0.2113248654051844
 41
1.023800961823211
 42
3.126377609633407
  0
ARC
  5
238
330
1F
100
AcDbEntity
  8
VISIBLE
100
AcDbCircle
 10
0.3830613197887356
 20
5.755272867030232
 30
0.0
 40
0.1040910275315675
100
AcDbArc
 50
325.3244361081864
 51
25.95358140977298
  0
ARC
  5
239
330
1F
100
AcDbEntity
  8
VISIBLE
100
AcDbCircle
 10
0.3830613197887356
 20
5.755272867030232
 30
0.0
 40
0.1040910275315675
100
AcDbArc
 50
25.95358140977298
 51
53.24153493331566
  0
ARC
  5
23A
330
1F
100
AcDbEntity
  8
VISIBLE
100
AcDbCircle
 10
0.3830613197887356
 20
5.755272867030232
 30
0.0
 40
0.1040910275315675
100
AcDbArc
 50
53.24153493331566
 51
54.05217151164904
  0
ELLIPSE
  5
23B
330
1F
100
AcDbEntity
  8
VISIBLE
100
AcDbEllipse
 10
0.1695336818077071
 20
5.197746546291533
 30
0.0
 11
0.1037177925275019
 21
0.0
 31
0.0
210
0.0
220
0.0
230
-1.0
 40
0.577350269189623
 41
0.0600781009355327
 42
2.271179956907816
  0
ELLIPSE
  5
23C
330
1F
100
AcDbEntity
  8
VISIBLE
100
AcDbEllipse
 10
0.1757611020520629
 20
5.201341949045968
 30
0.0
 11
0.05185889626375095
 21
0.08982224315326093
 31
0.0
210
0.0
220
0.0
230
1.0
 40
0.5773502691896228
 41
2.441209023476857
 42
3.201670754525315
  0
ARC
  5
23D
330
1F
100
AcDbEntity
  8
VISIBLE
100
AcDbCircle
 10
0.1695336818077071
 20
5.204937351800404
 30
0.0
 40
0.1040910275315675
100
AcDbArc
 50
245.9478284883505
 51
248.5186756881669
  0
ARC
  5
23E
330
1F
100
AcDbEntity
  8
VISIBLE
100
AcDbCircle
 10
0.1695336818077071
 20
5.204937351800404
 30
0.0
 40
0.1040910275315675
100
AcDbArc
 50
248.5186756881669
 51
321.0026945425524
  0
ARC
  5
23F
330
1F
100
AcDbEntity
  8
VISIBLE
100
AcDbCircle
 10
0.1695336818077071
 20
5.204937351800404
 30
0.0
 40
0.1040910275315675
100
AcDbArc
 50
321.0026945425524
 51
354.0521715116495
  0
ELLIPSE
  5
240
330
1F
100
AcDbEntity
  8
VISIBLE
100
AcDbEllipse
 10
0.3884544239203889
 20
4.900680622473862
 30
0.0
 11
0.009226968992914308
 21
0.1033065512442546
 31
0.0
210
0.0
220
0.0
230
-1.0
 40
0.7886751345948094
 41
0.1091414127853401
 42
0.2803723630426161
  0
ELLIPSE
  5
241
330
1F
100
AcDbEntity
  8
VISIBLE
100
AcDbEllipse
 10
0.3778946475989398
 20
4.904145294685714
 30
0.0
 11
-0.05191712869936049
 21
-0.089923104690385
 31
0.0
210
0.0
220
0.0
230
-1.0
 40
0.5773502691896284
 41
2.964712213194043
 42
3.091813257445832
  0
ARC
  5
242
330
1F
100
AcDbEntity
  8
VISIBLE
100
AcDbCircle
 10
0.3830613197887356
 20
4.90116231510612
 30
0.0
 40
0.1040910275315675
100
AcDbArc
 50
64.93193475227966
 51
76.98617444491919
  0
ELLIPSE
  5
243
330
1F
100
AcDbEntity
  8
VISIBLE
100
AcDbEllipse
 10
0.805642126381402
 20
5.142156477967172
 30
0.0
 11
0.08092881802570329
 21
-0.06505443430317825
 31
0.0
210
0.0
220
0.0
230
1.0
 40
0.2113248654051824
 41
6.267970263223235
 42
8.400976998946167
  0
ELLIPSE
  5
244
330
1F
100
AcDbEntity
  8
VISIBLE
100
AcDbEllipse
 10
0.8163440159951474
 20
5.144127390887227
 30
0.0
 11
0.05185889626375139
 21
0.08982224315326093
 31
0.0
210
0.0
220
0.0
230
1.0
 40
0.5773502691896252
 41
6.223107206244059
 42
7.507167712890806
  0
ELLIPSE
  5
245
330
1F
100
AcDbEntity
  8
VISIBLE
100
AcDbEllipse
 10
0.8155096998824449
 20
5.154431906518276
 30
0.0
 11
-0.08083804485887569
 21
0.06498146651293979
 31
0.0
210
0.0
220
0.0
230
-1.0
 40
0.2113248654051892
 41
0.0183596972959751
 42
0.868374966590198
  0
ELLIPSE
  5
246
330
1F
100
AcDbEntity
  8
VISIBLE
100
AcDbEllipse
 10
0.8049499235609963
 20
5.150705773221256
 30
0.0
 11
-0.05191712869936094
 21
-0.089923104690385
 31
0.0
210
0.0
220
0.0
230
-1.0
 40
0.5773502691896272
 41
0.5821805735978567
 42
1.762167881523043
  0
ELLIPSE
  5
247
330
1F
100
AcDbEntity
  8
VISIBLE
100
AcDbEllipse
 10
0.8163440159951474
 20
5.144127390887227
 30
0.0
 11
0.05185889626375051
 21
0.08982224315326093
 31
0.0
210
0.0
220
0.0
230
1.0
 40
0.5773502691896278
 41
1.379503986825384
 42
2.621813819390195
  0
ELLIPSE
  5
248
330
1F
100
AcDbEntity
  8
VISIBLE
100
AcDbEllipse
 10
0.8163440159951474
 20
5.144127390887227
 30
0.0
 11
0.05185889626375051
 21
0.08982224315326093
 31
0.0
210
0.0
220
0.0
230
1.0
 40
0.5773502691896278
 41
3.136776646347318
 42
3.201670754525308
  0
ELLIPSE
  5
249
330
1F
100
AcDbEntity
  8
VISIBLE
100
AcDbEllipse
 10
0.8155096998824449
 20
5.154431906518276
 30
0.0
 11
-0.08083804485887569
 21
0.06498146651293979
 31
0.0
210
0.0
220
0.0
230
-1.0
 40
0.2113248654051892
 41
1.023896547704343
 42
3.123232956293814
  0
ELLIPSE
  5
24A
330
1F
100
AcDbEntity
  8
VISIBLE
100
AcDbEllipse
 10
0.8049499235609963
 20
5.150705773221255
 30
0.0
 11
-0.05191712869936094
 21
-0.089923104690385
 31
0.0
210
0.0
220
0.0
230
-1.0
 40
0.5773502691896272
 41
1.917514661997421
 42
3.091813257445825
  0
ELLIPSE
  5
24B
330
1F
100
AcDbEntity
  8
VISIBLE
100
AcDbEllipse
 10
0.805642126381402
 20
5.142156477967172
 30
0.0
 11
0.08092881802570329
 21
-0.06505443430317737
 31
0.0
210
0.0
220
0.0
230
1.0
 40
0.2113248654051836
 41
2.273138472240954
 42
3.156807697546155
  0
ARC
  5
24C
330
1F
100
AcDbEntity
  8
VISIBLE
100
AcDbCircle
 10
0.8101165957507916
 20
5.147722793641663
 30
0.0
 40
0.1040910275315675
100
AcDbArc
 50
243.9102882074715
 51
245.9478284883507
  0
ARC
  5
24D
330
1F
100
AcDbEntity
  8
VISIBLE
100
AcDbCircle
 10
0.8101165957507916
 20
5.147722793641663
 30
0.0
 40
0.1040910275315675
100
AcDbArc
 50
136.2401344008652
 51
145.3244361081865
  0
ARC
  5
24E
330
1F
100
AcDbEntity
  8
VISIBLE
100
AcDbCircle
 10
0.8101165957507916
 20
5.147722793641663
 30
0.0
 40
0.1040910275315675
100
AcDbArc
 50
54.05217151164923
 51
64.93193475227923
  0
ARC
  5
24F
330
1F
100
AcDbEntity
  8
VISIBLE
100
AcDbCircle
 10
0.8101165957507916
 20
5.147722793641663
 30
0.0
 40
0.1040910275315675
100
AcDbArc
 50
317.08761011782
 51
326.1719118251413
  0
ELLIPSE
  5
250
330
1F
100
AcDbEntity
  8
VISIBLE
100
AcDbEllipse
 10
0.3776682156570819
 20
5.748563754153619
 30
0.0
 11
0.08083804485887569
 21
-0.06498146651293979
 31
0.0
210
0.0
220
0.0
230
1.0
 40
0.2113248654051892
 41
6.264825609883583
 42
8.400881413065035
  0
ELLIPSE
  5
251
330
1F
100
AcDbEntity
  8
VISIBLE
100
AcDbEllipse
 10
0.3892887400330913
 20
5.751677464275796
 30
0.0
 11
0.05185889626375095
 21
0.08982224315326093
 31
0.0
210
0.0
220
0.0
230
1.0
 40
0.5773502691896228
 41
1.394011472280259
 42
3.201670754525315
  0
ARC
  5
252
330
1F
100
AcDbEntity
  8
VISIBLE
100
AcDbCircle
 10
0.3830613197887356
 20
5.755272867030232
 30
0.0
 40
0.1040910275315675
100
AcDbArc
 50
245.9478284883505
 51
300.0
  0
ARC
  5
253
330
1F
100
AcDbEntity
  8
VISIBLE
100
AcDbCircle
 10
0.3830613197887356
 20
5.755272867030232
 30
0.0
 40
0.1040910275315675
100
AcDbArc
 50
300.0
 51
316.2401344008645
  0
ELLIPSE
  5
254
330
1F
100
AcDbEntity
  8
VISIBLE
100
AcDbEllipse
 10
0.1643670096179113
 20
5.207920331379998
 30
0.0
 11
-0.05191712869936094
 21
-0.089923104690385
 31
0.0
210
0.0
220
0.0
230
-1.0
 40
0.5773502691896235
 41
0.0497793961439653
 42
0.7004792159940545
  0
ELLIPSE
  5
255
330
1F
100
AcDbEntity
  8
VISIBLE
100
AcDbEllipse
 10
0.1695336818077071
 20
5.197746546291533
 30
0.0
 11
0.1037177925275019
 21
0.0
 31
0.0
210
0.0
220
0.0
230
-1.0
 40
0.577350269189623
 41
2.426701538021984
 42
3.081514552654261
  0
ARC
  5
256
330
1F
100
AcDbEntity
  8
VISIBLE
100
AcDbCircle
 10
0.1695336818077071
 20
5.204937351800404
 30
0.0
 40
0.1040910275315675
100
AcDbArc
 50
185.9478284883505
 51
235.0680652477204
  0
ELLIPSE
  5
257
330
1F
100
AcDbEntity
  8
VISIBLE
100
AcDbEllipse
 10
0.3785868504193459
 20
4.901561958590816
 30
0.0
 11
-0.009237329970807284
 21
-0.1034225543319947
 31
0.0
210
0.0
220
0.0
230
1.0
 40
0.7886751345948105
 41
6.192792485089933
 42
8.988979602493728
  0
ELLIPSE
  5
258
330
1F
100
AcDbEntity
  8
VISIBLE
100
AcDbEllipse
 10
0.3892887400330909
 20
4.897566912351685
 30
0.0
 11
0.05185889626375095
 21
0.08982224315326093
 31
0.0
210
0.0
220
0.0
230
1.0
 40
0.5773502691896228
 41
6.223107206244054
 42
6.459970161694206
  0
ELLIPSE
  5
259
330
1F
100
AcDbEntity
  8
VISIBLE
100
AcDbEllipse
 10
0.3884544239203889
 20
4.900680622473862
 30
0.0
 11
0.009226968992914308
 21
0.1033065512442546
 31
0.0
210
0.0
220
0.0
230
-1.0
 40
0.7886751345948094
 41
0.1091414127853401
 42
0.2803723630426161
  0
ELLIPSE
  5
25A
330
1F
100
AcDbEntity
  8
VISIBLE
100
AcDbEllipse
 10
0.3778946475989398
 20
4.904145294685714
 30
0.0
 11
-0.05191712869936094
 21
-0.089923104690385
 31
0.0
210
0.0
220
0.0
230
-1.0
 40
0.5773502691896272
 41
0.049779396143965
 42
0.6152831432948149
  0
ELLIPSE
  5
25B
330
1F
100
AcDbEntity
  8
VISIBLE
100
AcDbEllipse
 10
0.3778946475989398
 20
4.904145294685714
 30
0.0
 11
-0.05191712869936094
 21
-0.089923104690385
 31
0.0
210
0.0
220
0.0
230
-1.0
 40
0.5773502691896272
 41
2.208291299794257
 42
2.809365432719641
  0
ELLIPSE
  5
25C
330
1F
100
AcDbEntity
  8
VISIBLE
100
AcDbEllipse
 10
0.3892887400330909
 20
4.897566912351685
 30
0.0
 11
0.05185889626375095
 21
0.08982224315326093
 31
0.0
210
0.0
220
0.0
230
1.0
 40
0.5773502691896228
 41
0.3323064356287897
 42
1.038838970570478
  0
ELLIPSE
  5
25D
330
1F
100
AcDbEntity
  8
VISIBLE
100
AcDbEllipse
 10
0.3892887400330909
 20
4.897566912351685
 30
0.0
 11
0.05185889626375095
 21
0.08982224315326093
 31
0.0
210
0.0
220
0.0
230
1.0
 40
0.5773502691896228
 41
2.388120697837109
 42
3.201670754525315
  0
ELLIPSE
  5
25E
330
1F
100
AcDbEntity
  8
VISIBLE
100
AcDbEllipse
 10
0.3884544239203889
 20
4.900680622473862
 30
0.0
 11
0.009226968992914308
 21
0.1033065512442546
 31
0.0
210
0.0
220
0.0
230
-1.0
 40
0.7886751345948094
 41
0.4358939441567762
 42
3.032451240804448
  0
ELLIPSE
  5
25F
330
1F
100
AcDbEntity
  8
VISIBLE
100
AcDbEllipse
 10
0.3778946475989398
 20
4.904145294685714
 30
0.0
 11
-0.05191712869936049
 21
-0.089923104690385
 31
0.0
210
0.0
220
0.0
230
-1.0
 40
0.5773502691896284
 41
2.964712213194043
 42
3.091813257445832
  0
ELLIPSE
  5
260
330
1F
100
AcDbEntity
  8
VISIBLE
100
AcDbEllipse
 10
0.3785868504193459
 20
4.901561958590815
 30
0.0
 11
-0.009237329970807284
 21
-0.1034225543319947
 31
0.0
210
0.0
220
0.0
230
1.0
 40
0.7886751345948105
 41
2.861141075788543
 42
3.231985475679445
  0
ARC
  5
261
330
1F
100
AcDbEntity
  8
VISIBLE
100
AcDbCircle
 10
0.3830613197887356
 20
4.90116231510612
 30
0.0
 40
0.1040910275315675
100
AcDbArc
 50
258.3400396244099
 51
272.8060068330464
  0
ARC
  5
262
330
1F
100
AcDbEntity
  8
VISIBLE
100
AcDbCircle
 10
0.3830613197887356
 20
4.90116231510612
 30
0.0
 40
0.1040910275315675
100
AcDbArc
 50
235.0680652477202
 51
245.9478284883505
  0
ARC
  5
263
330
1F
100
AcDbEntity
  8
VISIBLE
100
AcDbCircle
 10
0.3830613197887356
 20
4.90116231510612
 30
0.0
 40
0.1040910275315675
100
AcDbArc
 50
76.98617444491919
 51
91.4521416535557
  0
ARC
  5
264
330
1F
100
AcDbEntity
  8
VISIBLE
100
AcDbCircle
 10
0.3830613197887356
 20
4.90116231510612
 30
0.0
 40
0.1040910275315675
100
AcDbArc
 50
54.05217151164942
 51
56.26475720215176
  0
ARC
  5
265
330
1F
100
AcDbEntity
  8
VISIBLE
100
AcDbCircle
 10
0.3830613197887356
 20
4.90116231510612
 30
0.0
 40
0.1040910275315675
100
AcDbArc
 50
56.26475720215176
 51
64.93193475227966
  0
ELLIPSE
  5
266
330
1F
100
AcDbEntity
  8
VISIBLE
100
AcDbEllipse
 10
0.8049499235609963
 20
5.150705773221256
 30
0.0
 11
-0.05191712869936094
 21
-0.089923104690385
 31
0.0
210
0.0
220
0.0
230
-1.0
 40
0.5773502691896272
 41
0.5821805735978567
 42
1.762167881523043
  0
ELLIPSE
  5
267
330
1F
100
AcDbEntity
  8
VISIBLE
100
AcDbEllipse
 10
0.805642126381402
 20
5.142156477967172
 30
0.0
 11
0.08092881802570329
 21
-0.06505443430317737
 31
0.0
210
0.0
220
0.0
230
1.0
 40
0.2113248654051836
 41
2.273138472240954
 42
3.156807697546155
  0
ARC
  5
268
330
1F
100
AcDbEntity
  8
VISIBLE
100
AcDbCircle
 10
0.8101165957507916
 20
5.147722793641663
 30
0.0
 40
0.1040910275315675
100
AcDbArc
 50
145.3244361081865
 51
205.9845493408905
  0
ELLIPSE
  5
269
330
1F
100
AcDbEntity
  8
VISIBLE
100
AcDbEllipse
 10
0.3778946475989402
 20
5.758255846609826
 30
0.0
 11
-0.05191712869936094
 21
-0.089923104690385
 31
0.0
210
0.0
220
0.0
230
-1.0
 40
0.5773502691896272
 41
0.049779396143965
 42
1.747676767190637
  0
ELLIPSE
  5
26A
330
1F
100
AcDbEntity
  8
VISIBLE
100
AcDbEllipse
 10
0.3776682156570819
 20
5.748563754153619
 30
0.0
 11
0.08083804485887569
 21
-0.06498146651293979
 31
0.0
210
0.0
220
0.0
230
1.0
 40
0.2113248654051892
 41
2.273217686999595
 42
3.159952350885769
  0
ARC
  5
26B
330
1F
100
AcDbEntity
  8
VISIBLE
100
AcDbCircle
 10
0.3830613197887356
 20
5.755272867030232
 30
0.0
 40
0.1040910275315675
100
AcDbArc
 50
146.1719118251414
 51
235.0680652477204
  0
ELLIPSE
  5
26C
330
1F
100
AcDbEntity
  8
VISIBLE
100
AcDbEllipse
 10
0.1757611020520629
 20
5.201341949045969
 30
0.0
 11
0.05185889626375095
 21
0.08982224315326093
 31
0.0
210
0.0
220
0.0
230
1.0
 40
0.5773502691896228
 41
6.223107206244045
 42
6.249390466935036
  0
ELLIPSE
  5
26D
330
1F
100
AcDbEntity
  8
VISIBLE
100
AcDbEllipse
 10
0.1757611020520629
 20
5.201341949045969
 30
0.0
 11
0.05185889626375095
 21
0.08982224315326093
 31
0.0
210
0.0
220
0.0
230
1.0
 40
0.5773502691896228
 41
0.7819425225424829
 42
2.285687442362702
  0
ELLIPSE
  5
26E
330
1F
100
AcDbEntity
  8
VISIBLE
100
AcDbEllipse
 10
0.1695336818077071
 20
5.197746546291533
 30
0.0
 11
0.1037177925275019
 21
0.0
 31
0.0
210
0.0
220
0.0
230
-1.0
 40
0.577350269189623
 41
0.0600781009355327
 42
2.271179956907816
  0
ELLIPSE
  5
26F
330
1F
100
AcDbEntity
  8
VISIBLE
100
AcDbEllipse
 10
0.1643670096179113
 20
5.207920331379998
 30
0.0
 11
-0.05191712869936094
 21
-0.089923104690385
 31
0.0
210
0.0
220
0.0
230
-1.0
 40
0.5773502691896235
 41
0.0497793961439653
 42
0.7004792159940545
  0
ELLIPSE
  5
270
330
1F
100
AcDbEntity
  8
VISIBLE
100
AcDbEllipse
 10
0.1695336818077071
 20
5.210903310959591
 30
0.0
 11
-0.1038342573987214
 21
0.0
 31
0.0
210
0.0
220
0.0
230
1.0
 40
0.5773502691896254
 41
6.23340591103561
 42
6.99815563750603
  0
ELLIPSE
  5
271
330
1F
100
AcDbEntity
  8
VISIBLE
100
AcDbEllipse
 10
0.1695336818077071
 20
5.210903310959591
 30
0.0
 11
-0.1038342573987214
 21
0.0
 31
0.0
210
0.0
220
0.0
230
1.0
 40
0.5773502691896254
 41
0.8703171108008305
 42
3.191372049733769
  0
ELLIPSE
  5
272
330
1F
100
AcDbEntity
  8
VISIBLE
100
AcDbEllipse
 10
0.1757611020520629
 20
5.201341949045968
 30
0.0
 11
0.05185889626375095
 21
0.08982224315326093
 31
0.0
210
0.0
220
0.0
230
1.0
 40
0.5773502691896228
 41
2.441209023476857
 42
3.201670754525315
  0
ELLIPSE
  5
273
330
1F
100
AcDbEntity
  8
VISIBLE
100
AcDbEllipse
 10
0.1695336818077071
 20
5.197746546291533
 30
0.0
 11
0.1037177925275019
 21
0.0
 31
0.0
210
0.0
220
0.0
230
-1.0
 40
0.577350269189623
 41
2.426701538021984
 42
3.081514552654261
  0
ELLIPSE
  5
274
330
1F
100
AcDbEntity
  8
VISIBLE
100
AcDbEllipse
 10
0.1643670096179113
 20
5.207920331379998
 30
0.0
 11
-0.05191712869936049
 21
-0.089923104690385
 31
0.0
210
0.0
220
0.0
230
-1.0
 40
0.5773502691896284
 41
0.8558259964684506
 42
2.30361250886107
  0
ARC
  5
275
330
1F
100
AcDbEntity
  8
VISIBLE
100
AcDbCircle
 10
0.1695336818077071
 20
5.204937351800404
 30
0.0
 40
0.1040910275315675
100
AcDbArc
 50
235.0680652477204
 51
238.0113079331077
  0
ARC
  5
276
330
1F
100
AcDbEntity
  8
VISIBLE
100
AcDbCircle
 10
0.1695336818077071
 20
5.204937351800404
 30
0.0
 40
0.1040910275315675
100
AcDbArc
 50
238.0113079331077
 51
245.9478284883505
  0
ARC
  5
277
330
1F
100
AcDbEntity
  8
VISIBLE
100
AcDbCircle
 10
0.1695336818077071
 20
5.204937351800404
 30
0.0
 40
0.1040910275315675
100
AcDbArc
 50
175.0680652477205
 51
185.9478284883505
  0
ARC
  5
278
330
1F
100
AcDbEntity
  8
VISIBLE
100
AcDbCircle
 10
0.1695336818077071
 20
5.204937351800404
 30
0.0
 40
0.1040910275315675
100
AcDbArc
 50
54.05217151164923
 51
54.91095423734799
  0
ARC
  5
279
330
1F
100
AcDbEntity
  8
VISIBLE
100
AcDbCircle
 10
0.1695336818077071
 20
5.204937351800404
 30
0.0
 40
0.1040910275315675
100
AcDbArc
 50
354.0521715116495
 51
4.931934752279527
  0
ELLIPSE
  5
27A
330
1F
100
AcDbEntity
  8
VISIBLE
100
AcDbEllipse
 10
0.3778946475989398
 20
4.904145294685714
 30
0.0
 11
-0.05191712869936094
 21
-0.089923104690385
 31
0.0
210
0.0
220
0.0
230
-1.0
 40
0.5773502691896272
 41
0.049779396143965
 42
0.6152831432948149
  0
ELLIPSE
  5
27B
330
1F
100
AcDbEntity
  8
VISIBLE
100
AcDbEllipse
 10
0.3778946475989398
 20
4.904145294685714
 30
0.0
 11
-0.05191712869936094
 21
-0.089923104690385
 31
0.0
210
0.0
220
0.0
230
-1.0
 40
0.5773502691896272
 41
2.208291299794257
 42
2.809365432719641
  0
ELLIPSE
  5
27C
330
1F
100
AcDbEntity
  8
VISIBLE
100
AcDbEllipse
 10
0.3785868504193459
 20
4.901561958590815
 30
0.0
 11
-0.009237329970807284
 21
-0.1034225543319947
 31
0.0
210
0.0
220
0.0
230
1.0
 40
0.7886751345948105
 41
2.861141075788543
 42
3.231985475679445
  0
ARC
  5
27D
330
1F
100
AcDbEntity
  8
VISIBLE
100
AcDbCircle
 10
0.3830613197887356
 20
4.90116231510612
 30
0.0
 40
0.1040910275315675
100
AcDbArc
 50
91.4521416535557
 51
104.4972793821827
  0
ARC
  5
27E
330
1F
100
AcDbEntity
  8
VISIBLE
100
AcDbCircle
 10
0.3830613197887356
 20
4.90116231510612
 30
0.0
 40
0.1040910275315675
100
AcDbArc
 50
212.7362191570161
 51
235.0680652477202
  0
ELLIPSE
  5
27F
330
1F
100
AcDbEntity
  8
VISIBLE
100
AcDbEllipse
 10
0.9204112059582252
 20
5.316914461353314
 30
0.0
 11
0.09242768620149988
 21
-0.04731464712941502
 31
0.0
210
0.0
220
0.0
230
-1.0
 40
0.0711623659616826
 41
0.0050204181704254
 42
2.103155484945934
  0
ELLIPSE
  5
280
330
1F
100
AcDbEntity
  8
VISIBLE
100
AcDbEllipse
 10
0.929959699069494
 20
5.319806670774359
 30
0.0
 11
0.05185889626375051
 21
0.08982224315326093
 31
0.0
210
0.0
220
0.0
230
1.0
 40
0.5773502691896278
 41
1.728569837224243
 42
3.201670754525308
  0
ARC
  5
281
330
1F
100
AcDbEntity
  8
VISIBLE
100
AcDbCircle
 10
0.9237322788251383
 20
5.323402073528794
 30
0.0
 40
0.1040910275315675
100
AcDbArc
 50
245.9478284883509
 51
299.9999999999998
  0
ARC
  5
282
330
1F
100
AcDbEntity
  8
VISIBLE
100
AcDbCircle
 10
0.9237322788251383
 20
5.323402073528794
 30
0.0
 40
0.1040910275315675
100
AcDbArc
 50
299.9999999999998
 51
328.8561490467425
  0
ELLIPSE
  5
283
330
1F
100
AcDbEntity
  8
VISIBLE
100
AcDbEllipse
 10
0.3892887400330913
 20
5.751677464275796
 30
0.0
 11
0.05185889626375095
 21
0.08982224315326093
 31
0.0
210
0.0
220
0.0
230
1.0
 40
0.5773502691896228
 41
6.223107206244054
 42
7.521675198345694
  0
ELLIPSE
  5
284
330
1F
100
AcDbEntity
  8
VISIBLE
100
AcDbEllipse
 10
0.3776682156570819
 20
5.748563754153619
 30
0.0
 11
0.08083804485887569
 21
-0.06498146651293979
 31
0.0
210
0.0
220
0.0
230
1.0
 40
0.2113248654051892
 41
6.264825609883583
 42
8.400881413065035
  0
ELLIPSE
  5
285
330
1F
100
AcDbEntity
  8
VISIBLE
100
AcDbEllipse
 10
0.3778946475989402
 20
5.758255846609826
 30
0.0
 11
-0.05191712869936094
 21
-0.089923104690385
 31
0.0
210
0.0
220
0.0
230
-1.0
 40
0.5773502691896272
 41
0.049779396143965
 42
1.747676767190637
  0
ELLIPSE
  5
286
330
1F
100
AcDbEntity
  8
VISIBLE
100
AcDbEllipse
 10
0.3875357891581253
 20
5.760839182704723
 30
0.0
 11
-0.08092881802570373
 21
0.06505443430317825
 31
0.0
210
0.0
220
0.0
230
-1.0
 40
0.2113248654051844
 41
0.015215043956388
 42
0.8684541813488283
  0
ELLIPSE
  5
287
330
1F
100
AcDbEntity
  8
VISIBLE
100
AcDbEllipse
 10
0.3875357891581253
 20
5.760839182704722
 30
0.0
 11
-0.08092881802570373
 21
0.06505443430317825
 31
0.0
210
0.0
220
0.0
230
-1.0
 40
0.2113248654051844
 41
1.023800961823211
 42
3.126377609633407
  0
ELLIPSE
  5
288
330
1F
100
AcDbEntity
  8
VISIBLE
100
AcDbEllipse
 10
0.3892887400330913
 20
5.751677464275796
 30
0.0
 11
0.05185889626375095
 21
0.08982224315326093
 31
0.0
210
0.0
220
0.0
230
1.0
 40
0.5773502691896228
 41
1.394011472280259
 42
3.201670754525315
  0
ELLIPSE
  5
289
330
1F
100
AcDbEntity
  8
VISIBLE
100
AcDbEllipse
 10
0.3776682156570819
 20
5.748563754153619
 30
0.0
 11
0.08083804485887569
 21
-0.06498146651293979
 31
0.0
210
0.0
220
0.0
230
1.0
 40
0.2113248654051892
 41
2.273217686999595
 42
3.159952350885769
  0
ELLIPSE
  5
28A
330
1F
100
AcDbEntity
  8
VISIBLE
100
AcDbEllipse
 10
0.3778946475989398
 20
5.758255846609825
 30
0.0
 11
-0.05191712869936049
 21
-0.089923104690385
 31
0.0
210
0.0
220
0.0
230
-1.0
 40
0.5773502691896284
 41
1.903023547665059
 42
3.091813257445825
  0
ARC
  5
28B
330
1F
100
AcDbEntity
  8
VISIBLE
100
AcDbCircle
 10
0.3830613197887356
 20
5.755272867030232
 30
0.0
 40
0.1040910275315675
100
AcDbArc
 50
235.0680652477204
 51
245.9478284883505
  0
ARC
  5
28C
330
1F
100
AcDbEntity
  8
VISIBLE
100
AcDbCircle
 10
0.3830613197887356
 20
5.755272867030232
 30
0.0
 40
0.1040910275315675
100
AcDbArc
 50
137.0876101178199
 51
146.1719118251414
  0
ARC
  5
28D
330
1F
100
AcDbEntity
  8
VISIBLE
100
AcDbCircle
 10
0.3830613197887356
 20
5.755272867030232
 30
0.0
 40
0.1040910275315675
100
AcDbArc
 50
54.05217151164904
 51
63.91028820747167
  0
ARC
  5
28E
330
1F
100
AcDbEntity
  8
VISIBLE
100
AcDbCircle
 10
0.3830613197887356
 20
5.755272867030232
 30
0.0
 40
0.1040910275315675
100
AcDbArc
 50
63.91028820747167
 51
64.93193475227945
  0
ARC
  5
28F
330
1F
100
AcDbEntity
  8
VISIBLE
100
AcDbCircle
 10
0.3830613197887356
 20
5.755272867030232
 30
0.0
 40
0.1040910275315675
100
AcDbArc
 50
316.2401344008645
 51
325.3244361081864
  0
ELLIPSE
  5
290
330
1F
100
AcDbEntity
  8
VISIBLE
100
AcDbEllipse
 10
0.1643670096179113
 20
5.207920331379998
 30
0.0
 11
-0.05191712869936049
 21
-0.089923104690385
 31
0.0
210
0.0
220
0.0
230
-1.0
 40
0.5773502691896284
 41
0.8558259964684506
 42
2.30361250886107
  0
ELLIPSE
  5
291
330
1F
100
AcDbEntity
  8
VISIBLE
100
AcDbEllipse
 10
0.1695336818077071
 20
5.210903310959591
 30
0.0
 11
-0.1038342573987214
 21
0.0
 31
0.0
210
0.0
220
0.0
230
1.0
 40
0.5773502691896254
 41
6.23340591103561
 42
6.99815563750603
  0
ARC
  5
292
330
1F
100
AcDbEntity
  8
VISIBLE
100
AcDbCircle
 10
0.1695336818077071
 20
5.204937351800404
 30
0.0
 40
0.1040910275315675
100
AcDbArc
 50
109.1120419212672
 51
175.0680652477205
  0
ELLIPSE
  5
293
330
1F
100
AcDbEntity
  8
VISIBLE
100
AcDbEllipse
 10
0.5173434085061213
 20
4.921152027376126
 30
0.0
 11
0.03635163860893132
 21
-0.09726310389859895
 31
0.0
210
0.0
220
0.0
230
1.0
 40
0.6688348434219175
 41
6.219832525620294
 42
8.658350397072304
  0
ELLIPSE
  5
294
330
1F
100
AcDbEntity
  8
VISIBLE
100
AcDbEllipse
 10
0.5286590075802602
 20
4.919458308102723
 30
0.0
 11
0.05185889626375095
 21
0.08982224315326093
 31
0.0
210
0.0
220
0.0
230
1.0
 40
0.5773502691896228
 41
0.6813722860276538
 42
1.586140726283043
  0
ELLIPSE
  5
295
330
1F
100
AcDbEntity
  8
VISIBLE
100
AcDbEllipse
 10
0.5286590075802602
 20
4.919458308102723
 30
0.0
 11
0.05185889626375095
 21
0.08982224315326093
 31
0.0
210
0.0
220
0.0
230
1.0
 40
0.5773502691896228
 41
2.912655521841776
 42
3.201670754525315
  0
ARC
  5
296
330
1F
100
AcDbEntity
  8
VISIBLE
100
AcDbCircle
 10
0.5224315873359044
 20
4.923053710857159
 30
0.0
 40
0.1040910275315675
100
AcDbArc
 50
245.9478284883509
 51
285.0748151010903
  0
ELLIPSE
  5
297
330
1F
100
AcDbEntity
  8
VISIBLE
100
AcDbEllipse
 10
0.929959699069494
 20
5.319806670774359
 30
0.0
 11
0.05185889626375139
 21
0.08982224315326093
 31
0.0
210
0.0
220
0.0
230
1.0
 40
0.5773502691896252
 41
6.223107206244059
 42
7.856233563289656
  0
ELLIPSE
  5
298
330
1F
100
AcDbEntity
  8
VISIBLE
100
AcDbEllipse
 10
0.9277351873985209
 20
5.331221630472799
 30
0.0
 11
-0.09232401542038904
 21
0.04726157703075184
 31
0.0
210
0.0
220
0.0
230
1.0
 40
0.0711623659616796
 41
1.038532754524972
 42
3.147650599447275
  0
ARC
  5
299
330
1F
100
AcDbEntity
  8
VISIBLE
100
AcDbCircle
 10
0.9237322788251383
 20
5.323402073528794
 30
0.0
 40
0.1040910275315675
100
AcDbArc
 50
337.7574761777897
 51
54.05217151164923
  0
ENDSEC
  0
SECTION
  2
OBJECTS
  0
DICTIONARY
  5
C
330
0
100
AcDbDictionary
  3
ACAD_GROUP
350
D
  3
ACAD_LAYOUT
350
1A
  3
ACAD_MATERIAL
350
43
  3
ACAD_MLEADERSTYLE
350
2BD
  3
ACAD_MLINESTYLE
350
17
  3
ACAD_PLOTSETTINGS
350
19
  3
ACAD_SCALELIST
350
47
  3
ACAD_VISUALSTYLE
350
2A
  3
ACDBHEADERROUNDTRIPXREC
350
29C
  3
ACDBVARIABLEDICTIONARY
350
6C
  3
ONSHAPE_DATA
350
29A
  0
DICTIONARY
  5
D
102
{ACAD_REACTORS
330
C
102
}
330
C
100
AcDbDictionary
  0
DICTIONARY
  5
1A
102
{ACAD_REACTORS
330
C
102
}
330
C
100
AcDbDictionary
  0
DICTIONARY
  5
43
102
{ACAD_REACTORS
330
C
102
}
330
C
100
AcDbDictionary
  3
BYBLOCK
350
45
  3
BYLAYER
350
44
  3
GLOBAL
350
46
  0
DICTIONARY
  5
2BD
102
{ACAD_REACTORS
330
C
102
}
330
C
100
AcDbDictionary
  0
DICTIONARY
  5
17
102
{ACAD_REACTORS
330
C
102
}
330
C
100
AcDbDictionary
  3
STANDARD
350
18
  0
DICTIONARY
  5
19
102
{ACAD_REACTORS
330
C
102
}
330
C
100
AcDbDictionary
  0
DICTIONARY
  5
47
102
{ACAD_REACTORS
330
C
102
}
330
C
100
AcDbDictionary
  3
A0
350
48
  3
A1
350
49
  3
A2
350
4A
  3
A3
350
4B
  3
A4
350
4C
  3
A5
350
4D
  3
A6
350
4E
  3
A7
350
4F
  3
A8
350
50
  3
A9
350
51
  3
B0
350
52
  3
B1
350
53
  3
B2
350
54
  3
B3
350
55
  3
B4
350
56
  3
B5
350
57
  3
B6
350
58
  3
B7
350
59
  3
B8
350
5A
  3
B9
350
5B
  3
C0
350
5C
  3
C1
350
5D
  3
C2
350
5E
  3
C3
350
5F
  3
C4
350
60
  3
C5
350
61
  3
C6
350
62
  3
C7
350
63
  3
C8
350
64
  3
C9
350
65
  3
D0
350
66
  3
D1
350
67
  3
D2
350
68
  0
DICTIONARY
  5
2A
102
{ACAD_REACTORS
330
C
102
}
330
C
100
AcDbDictionary
  3
2DWIREFRAME
350
2F
  3
BASIC
350
32
  3
BRIGHTEN
350
36
  3
COLORCHANGE
350
3A
  3
CONCEPTUAL
350
34
  3
DIM
350
35
  3
EDGECOLOROFF
350
3D
  3
FACEPATTERN
350
39
  3
FLAT
350
2B
  3
FLATWITHEDGES
350
2C
  3
GOURAUD
350
2D
  3
GOURAUDWITHEDGES
350
2E
  3
HIDDEN
350
31
  3
JITTEROFF
350
3B
  3
LINEPATTERN
350
38
  3
OVERHANGOFF
350
3C
  3
REALISTIC
350
33
  3
SHADED
350
42
  3
SHADED_WITH_EDGES
350
41
  3
SHADES_OF_GRAY
350
3E
  3
SKETCHY
350
3F
  3
THICKEN
350
37
  3
WIREFRAME
350
30
  3
X-RAY
350
40
  0
DICTIONARY
  5
29C
102
{ACAD_REACTORS
330
C
102
}
330
C
100
AcDbDictionary
  3
CEPSNTYPE
350
2A5
  3
DIMSTYLEDATA
350
2BB
  3
FINGERPRINTGUID
350
2A6
  3
HYPERLINKBASE
350
29F
  3
INSUNITS
350
2A4
  3
LAYOUTDICT
350
2A1
  3
LWETCUNION
350
2A3
  3
PLOTSETDICT
350
2A2
  3
PSVPSCALE
350
2A8
  3
PUCSBASE
350
2AB
  3
PUCSORGBACK
350
2B1
  3
PUCSORGBOTTOM
350
2AD
  3
PUCSORGFRONT
350
2B0
  3
PUCSORGLEFT
350
2AE
  3
PUCSORGRIGHT
350
2AF
  3
PUCSORGTOP
350
2AC
  3
PUCSORTHOREF
350
2A9
  3
PUCSORTHOVIEW
350
2AA
  3
STYLESHEET
350
2A0
  3
TSTACKALIGN
350
29D
  3
TSTACKSIZE
350
29E
  3
UCSBASE
350
2B4
  3
UCSORGBACK
350
2BA
  3
UCSORGBOTTOM
350
2B6
  3
UCSORGFRONT
350
2B9
  3
UCSORGLEFT
350
2B7
  3
UCSORGRIGHT
350
2B8
  3
UCSORGTOP
350
2B5
  3
UCSORTHOREF
350
2B2
  3
UCSORTHOVIEW
350
2B3
  3
VERSIONGUID
350
2A7
  0
DICTIONARY
  5
6C
102
{ACAD_REACTORS
330
C
102
}
330
C
100
AcDbDictionary
  3
CANNOSCALE
350
2C2
  3
CTABLESTYLE
350
2BC
  3
DIMASSOC
350
2C0
  3
HIDETEXT
350
2C1
  3
MSLTSCALE
350
2C3
  3
OLEFRAME
350
6D
  0
DICTIONARY
  5
29A
102
{ACAD_REACTORS
330
C
102
}
330
C
100
AcDbDictionary
280
     1
  3
DIM_UNITS
360
29B
  0
MATERIAL
  5
45
102
{ACAD_REACTORS
330
43
102
}
102
{ACAD_XDICTIONARY
360
2C6
102
}
330
43
100
AcDbMaterial
  1
BYBLOCK
  0
MATERIAL
  5
44
102
{ACAD_REACTORS
330
43
102
}
102
{ACAD_XDICTIONARY
360
2C4
102
}
330
43
100
AcDbMaterial
  1
BYLAYER
  0
MATERIAL
  5
46
102
{ACAD_REACTORS
330
43
102
}
102
{ACAD_XDICTIONARY
360
2C8
102
}
330
43
100
AcDbMaterial
  1
GLOBAL
  0
MLINESTYLE
  5
18
102
{ACAD_REACTORS
330
17
102
}
330
17
100
AcDbMlineStyle
  2
Standard
 70
     0
  3

 62
   256
 51
90.0
 52
90.0
 71
     2
 49
0.5
 62
   256
  6
BYLAYER
 49
-0.5
 62
   256
  6
BYLAYER
  0
ACAD_PROXY_OBJECT
  5
48
102
{ACAD_REACTORS
330
47
102
}
330
47
100
AcDbProxyObject
 90
      499
 91
      503
 93
       41
310
903313A31580
  0
ACAD_PROXY_OBJECT
  5
49
102
{ACAD_REACTORS
330
47
102
}
330
47
100
AcDbProxyObject
 90
      499
 91
      503
 93
      105
310
903313A324000000000000004000
  0
ACAD_PROXY_OBJECT
  5
4A
102
{ACAD_REACTORS
330
47
102
}
330
47
100
AcDbProxyObject
 90
      499
 91
      503
 93
      105
310
903313A344000000000000104000
  0
ACAD_PROXY_OBJECT
  5
4B
102
{ACAD_REACTORS
330
47
102
}
330
47
100
AcDbProxyObject
 90
      499
 91
      503
 93
      105
310
903313A354000000000000144000
  0
ACAD_PROXY_OBJECT
  5
4C
102
{ACAD_REACTORS
330
47
102
}
330
47
100
AcDbProxyObject
 90
      499
 91
      503
 93
      105
310
903313A384000000000000204000
  0
ACAD_PROXY_OBJECT
  5
4D
102
{ACAD_REACTORS
330
47
102
}
330
47
100
AcDbProxyObject
 90
      499
 91
      503
 93
      113
310
904313A31304000000000000244000
  0
ACAD_PROXY_OBJECT
  5
4E
102
{ACAD_REACTORS
330
47
102
}
330
47
100
AcDbProxyObject
 90
      499
 91
      503
 93
      113
310
904313A31364000000000000304000
  0
ACAD_PROXY_OBJECT
  5
4F
102
{ACAD_REACTORS
330
47
102
}
330
47
100
AcDbProxyObject
 90
      499
 91
      503
 93
      113
310
904313A32304000000000000344000
  0
ACAD_PROXY_OBJECT
  5
50
102
{ACAD_REACTORS
330
47
102
}
330
47
100
AcDbProxyObject
 90
      499
 91
      503
 93
      113
310
904313A333040000000000003E4000
  0
ACAD_PROXY_OBJECT
  5
51
102
{ACAD_REACTORS
330
47
102
}
330
47
100
AcDbProxyObject
 90
      499
 91
      503
 93
      113
310
904313A34304000000000000444000
  0
ACAD_PROXY_OBJECT
  5
52
102
{ACAD_REACTORS
330
47
102
}
330
47
100
AcDbProxyObject
 90
      499
 91
      503
 93
      113
310
904313A35304000000000000494000
  0
ACAD_PROXY_OBJECT
  5
53
102
{ACAD_REACTORS
330
47
102
}
330
47
100
AcDbProxyObject
 90
      499
 91
      503
 93
      121
310
905313A3130304000000000000594000
  0
ACAD_PROXY_OBJECT
  5
54
102
{ACAD_REACTORS
330
47
102
}
330
47
100
AcDbProxyObject
 90
      499
 91
      503
 93
      105
310
903323A310000000000000010100
  0
ACAD_PROXY_OBJECT
  5
55
102
{ACAD_REACTORS
330
47
102
}
330
47
100
AcDbProxyObject
 90
      499
 91
      503
 93
      105
310
903343A310000000000000410100
  0
ACAD_PROXY_OBJECT
  5
56
102
{ACAD_REACTORS
330
47
102
}
330
47
100
AcDbProxyObject
 90
      499
 91
      503
 93
      105
310
903383A310000000000000810100
  0
ACAD_PROXY_OBJECT
  5
57
102
{ACAD_REACTORS
330
47
102
}
330
47
100
AcDbProxyObject
 90
      499
 91
      503
 93
      113
310
90431303A310000000000000910100
  0
ACAD_PROXY_OBJECT
  5
58
102
{ACAD_REACTORS
330
47
102
}
330
47
100
AcDbProxyObject
 90
      499
 91
      503
 93
      121
310
9053130303A310000000000001650100
  0
ACAD_PROXY_OBJECT
  5
59
102
{ACAD_REACTORS
330
47
102
}
330
47
100
AcDbProxyObject
 90
      499
 91
      503
 93
      257
310
90E312F31323822203D2031272D3022000000000000200FC000000000000284000
  0
ACAD_PROXY_OBJECT
  5
5A
102
{ACAD_REACTORS
330
47
102
}
330
47
100
AcDbProxyObject
 90
      499
 91
      503
 93
      249
310
90D312F363422203D2031272D3022000000000000240FC000000000000284000
  0
ACAD_PROXY_OBJECT
  5
5B
102
{ACAD_REACTORS
330
47
102
}
330
47
100
AcDbProxyObject
 90
      499
 91
      503
 93
      249
310
90D312F333222203D2031272D3022000000000000280FC000000000000284000
  0
ACAD_PROXY_OBJECT
  5
5C
102
{ACAD_REACTORS
330
47
102
}
330
47
100
AcDbProxyObject
 90
      499
 91
      503
 93
      249
310
90D312F313622203D2031272D30220000000000002C0FC000000000000284000
  0
ACAD_PROXY_OBJECT
  5
5D
102
{ACAD_REACTORS
330
47
102
}
330
47
100
AcDbProxyObject
 90
      499
 91
      503
 93
      249
310
90D332F333222203D2031272D30220000000000002E0FC000000000000284000
  0
ACAD_PROXY_OBJECT
  5
5E
102
{ACAD_REACTORS
330
47
102
}
330
47
100
AcDbProxyObject
 90
      499
 91
      503
 93
      241
310
90C312F3822203D2031272D3022000000000000300FC000000000000284000
  0
ACAD_PROXY_OBJECT
  5
5F
102
{ACAD_REACTORS
330
47
102
}
330
47
100
AcDbProxyObject
 90
      499
 91
      503
 93
      249
310
90D332F313622203D2031272D3022000000000000320FC000000000000284000
  0
ACAD_PROXY_OBJECT
  5
60
102
{ACAD_REACTORS
330
47
102
}
330
47
100
AcDbProxyObject
 90
      499
 91
      503
 93
      241
310
90C312F3422203D2031272D3022000000000000340FC000000000000284000
  0
ACAD_PROXY_OBJECT
  5
61
102
{ACAD_REACTORS
330
47
102
}
330
47
100
AcDbProxyObject
 90
      499
 91
      503
 93
      241
310
90C332F3822203D2031272D3022000000000000360FC000000000000284000
  0
ACAD_PROXY_OBJECT
  5
62
102
{ACAD_REACTORS
330
47
102
}
330
47
100
AcDbProxyObject
 90
      499
 91
      503
 93
      241
310
90C312F3222203D2031272D3022000000000000380FC000000000000284000
  0
ACAD_PROXY_OBJECT
  5
63
102
{ACAD_REACTORS
330
47
102
}
330
47
100
AcDbProxyObject
 90
      499
 91
      503
 93
      241
310
90C332F3422203D2031272D30220000000000003A0FC000000000000284000
  0
ACAD_PROXY_OBJECT
  5
64
102
{ACAD_REACTORS
330
47
102
}
330
47
100
AcDbProxyObject
 90
      499
 91
      503
 93
      161
310
90A3122203D2031272D30224000000000000284000
  0
ACAD_PROXY_OBJECT
  5
65
102
{ACAD_REACTORS
330
47
102
}
330
47
100
AcDbProxyObject
 90
      499
 91
      503
 93
      257
310
90E312D312F3222203D2031272D30220000000000003E0FC000000000000284000
  0
ACAD_PROXY_OBJECT
  5
66
102
{ACAD_REACTORS
330
47
102
}
330
47
100
AcDbProxyObject
 90
      499
 91
      503
 93
      225
310
90A3322203D2031272D302200000000000002100000000000000284000
  0
ACAD_PROXY_OBJECT
  5
67
102
{ACAD_REACTORS
330
47
102
}
330
47
100
AcDbProxyObject
 90
      499
 91
      503
 93
      225
310
90A3622203D2031272D302200000000000006100000000000000284000
  0
ACAD_PROXY_OBJECT
  5
68
102
{ACAD_REACTORS
330
47
102
}
330
47
100
AcDbProxyObject
 90
      499
 91
      503
 93
      249
310
90D31272D3022203D2031272D30220000000000000A100000000000000284000
  0
ACAD_PROXY_OBJECT
  5
2F
102
{ACAD_REACTORS
330
2A
102
}
330
2A
100
AcDbProxyObject
 90
      499
 91
      501
 93
      436
310
42CC9915DA5C99599C985B595049028333333333333E33F0000000000000F90107901411070040501600405405064090741402480A0340
1001
ACAD
1000
AcDbSavedByObjectVersion
1070
     0
  0
ACAD_PROXY_OBJECT
  5
32
102
{ACAD_REACTORS
330
2A
102
}
330
2A
100
AcDbProxyObject
 90
      499
 91
      501
 93
      388
310
4150985CDA58D07406404333333333333E33F0000000000000F90107A41107004050150841D405064090741402480A0350
1001
ACAD
1000
AcDbSavedByObjectVersion
1070
     0
  0
ACAD_PROXY_OBJECT
  5
36
102
{ACAD_REACTORS
330
2A
102
}
330
2A
100
AcDbProxyObject
 90
      499
 91
      501
 93
      428
310
42109C9A59DA1D195B90C409028333333333333E33F0000000000000F9010790141107004050150841D405064090741402480A029950
1001
ACAD
1000
AcDbSavedByObjectVersion
1070
     0
  0
ACAD_PROXY_OBJECT
  5
3A
102
{ACAD_REACTORS
330
2A
102
}
330
2A
100
AcDbProxyObject
 90
      499
 91
      501
 93
      452
310
42D0DBDB1BDC90DA185B99D95104090240C333333333333E33F0000000000000F90108901411070040501508421405064090741402480A0350
1001
ACAD
1000
AcDbSavedByObjectVersion
1070
     0
  0
ACAD_PROXY_OBJECT
  5
34
102
{ACAD_REACTORS
330
2A
102
}
330
2A
100
AcDbProxyObject
 90
      499
 91
      501
 93
      500
310
4290DBDB98D95C1D1D585B10940D028333333333333E33F0000000000000F90107902409070040501000000000018199010841D405064090740C02480A0340
1001
ACAD
1000
AcDbSavedByObjectVersion
1070
     0
  0
ACAD_PROXY_OBJECT
  5
35
102
{ACAD_REACTORS
330
2A
102
}
330
2A
100
AcDbProxyObject
 90
      499
 91
      501
 93
      412
310
40D11A5B50B409028333333333333E33F0000000000000F9010790141107004050150841D405064090741402480A02677FFFFFD0
1001
ACAD
1000
AcDbSavedByObjectVersion
1070
     0
  0
ACAD_PROXY_OBJECT
  5
3D
102
{ACAD_REACTORS
330
2A
102
}
330
2A
100
AcDbProxyObject
 90
      499
 91
      501
 93
      452
310
43115919D950DBDB1BDC93D999916409028333333333333E33F0000000000000F9010790141107004050150841D405064090741402480A0350
1001
ACAD
1000
AcDbSavedByObjectVersion
1070
     0
  0
ACAD_PROXY_OBJECT
  5
39
102
{ACAD_REACTORS
330
2A
102
}
330
2A
100
AcDbProxyObject
 90
      499
 91
      501
 93
      444
310
42D19858D95C185D1D195C9B90F409028333333333333E33F0000000000000F9010790141107004050150841D405064090741402480A0350
1001
ACAD
1000
AcDbSavedByObjectVersion
1070
     0
  0
ACAD_PROXY_OBJECT
  5
2B
102
{ACAD_REACTORS
330
2A
102
}
330
2A
100
AcDbProxyObject
 90
      499
 91
      501
 93
      380
310
41119B185D240901404333333333333E33F0000000000000F9010740A907004050150841D405064090741402480A1B50
1001
ACAD
1000
AcDbSavedByObjectVersion
1070
     0
  0
ACAD_PROXY_OBJECT
  5
2C
102
{ACAD_REACTORS
330
2A
102
}
330
2A
100
AcDbProxyObject
 90
      499
 91
      501
 93
      468
310
43519B185D15DA5D1A115919D95CD0140901404333333333333E33F0000000000000F90107409019070040501600405405064090741402480A1B50
1001
ACAD
1000
AcDbSavedByObjectVersion
1070
     0
  0
ACAD_PROXY_OBJECT
  5
2D
102
{ACAD_REACTORS
330
2A
102
}
330
2A
100
AcDbProxyObject
 90
      499
 91
      501
 93
      404
310
41D1DBDD5C985D5910240902404333333333333E33F0000000000000F9010740A9070040501641D405064090741402480A1B50
1001
ACAD
1000
AcDbSavedByObjectVersion
1070
     0
  0
ACAD_PROXY_OBJECT
  5
2E
102
{ACAD_REACTORS
330
2A
102
}
330
2A
100
AcDbProxyObject
 90
      499
 91
      501
 93
      492
310
4411DBDD5C985D5915DA5D1A115919D95CD0340902404333333333333E33F0000000000000F90107409019070040501600405405064090741402480A1B50
1001
ACAD
1000
AcDbSavedByObjectVersion
1070
     0
  0
ACAD_PROXY_OBJECT
  5
31
102
{ACAD_REACTORS
330
2A
102
}
330
2A
100
AcDbProxyObject
 90
      499
 91
      501
 93
      476
310
41921A5919195B90640502408333333333333E33F0000000000000F901079024090700405020000000000001110200405405064090740C02480A0340
1001
ACAD
1000
AcDbSavedByObjectVersion
1070
     0
  0
ACAD_PROXY_OBJECT
  5
3B
102
{ACAD_REACTORS
330
2A
102
}
330
2A
100
AcDbProxyObject
 90
      499
 91
      501
 93
      428
310
42529A5D1D195C93D999914409028333333333333E33F0000000000000F9010790141107004050150A41D405064090741402480A0350
1001
ACAD
1000
AcDbSavedByObjectVersion
1070
     0
  0
ACAD_PROXY_OBJECT
  5
38
102
{ACAD_REACTORS
330
2A
102
}
330
2A
100
AcDbProxyObject
 90
      499
 91
      501
 93
      444
310
42D31A5B995C185D1D195C9B90E409028333333333333E33F0000000000000F9010790141107004050750841D405064090741402483A0350
1001
ACAD
1000
AcDbSavedByObjectVersion
1070
     0
  0
ACAD_PROXY_OBJECT
  5
3C
102
{ACAD_REACTORS
330
2A
102
}
330
2A
100
AcDbProxyObject
 90
      499
 91
      501
 93
      444
310
42D3DD995C9A185B99D3D999915409028333333333333E33F0000000000000F9010790141107004050150941D405064090741402480A0350
1001
ACAD
1000
AcDbSavedByObjectVersion
1070
     0
  0
ACAD_PROXY_OBJECT
  5
33
102
{ACAD_REACTORS
330
2A
102
}
330
2A
100
AcDbProxyObject
 90
      499
 91
      501
 93
      428
310
425499585B1A5CDD1A58D08409038333333333333E33F0000000000000F9010740A907004050150800405405064090740C02480A1B40
1001
ACAD
1000
AcDbSavedByObjectVersion
1070
     0
  0
ACAD_PROXY_OBJECT
  5
42
102
{ACAD_REACTORS
330
2A
102
}
330
2A
100
AcDbProxyObject
 90
      499
 91
      501
 93
      420
310
4194DA1859195911B40902404333333333333E33F0000000000000F9010740A41107004050150800405405064090840C02480A0B40
1001
ACAD
1000
AcDbSavedByObjectVersion
1070
     0
  0
ACAD_PROXY_OBJECT
  5
41
102
{ACAD_REACTORS
330
2A
102
}
330
2A
100
AcDbProxyObject
 90
      499
 91
      501
 93
      516
310
4454DA18591959081DDA5D1A08195919D95CD1A40902404333333333333E33F0000000000000F901074090142907004050250800405405064090740C02480A0B40
1001
ACAD
1000
AcDbSavedByObjectVersion
1070
     0
  0
ACAD_PROXY_OBJECT
  5
3E
102
{ACAD_REACTORS
330
2A
102
}
330
2A
100
AcDbProxyObject
 90
      499
 91
      501
 93
      532
310
4394DA1859195CC81BD98811DC985E5174090240C333333333333E33F0000000000000F901079024090741D01000000000000111010841D405064090740C02480A0340
1001
ACAD
1000
AcDbSavedByObjectVersion
1070
     0
  0
ACAD_PROXY_OBJECT
  5
3F
102
{ACAD_REACTORS
330
2A
102
}
330
2A
100
AcDbProxyObject
 90
      499
 91
      501
 93
      476
310
41D4DAD95D18DA1E51840502408333333333333E33F0000000000000F901079024090741D01000000000000111010B41D405064090741802480A0340
1001
ACAD
1000
AcDbSavedByObjectVersion
1070
     0
  0
ACAD_PROXY_OBJECT
  5
37
102
{ACAD_REACTORS
330
2A
102
}
330
2A
100
AcDbProxyObject
 90
      499
 91
      501
 93
      412
310
41D51A1A58DAD95B90D409028333333333333E33F0000000000000F9010790141107004050150C41D405064090741402480A0350
1001
ACAD
1000
AcDbSavedByObjectVersion
1070
     0
  0
ACAD_PROXY_OBJECT
  5
30
102
{ACAD_REACTORS
330
2A
102
}
330
2A
100
AcDbProxyObject
 90
      499
 91
      501
 93
      420
310
4255DA5C99599C985B595059028333333333333E33F0000000000000F90107901411070040501600405405064090740C02480A0340
1001
ACAD
1000
AcDbSavedByObjectVersion
1070
     0
  0
ACAD_PROXY_OBJECT
  5
40
102
{ACAD_REACTORS
330
2A
102
}
330
2A
100
AcDbProxyObject
 90
      499
 91
      501
 93
      404
310
41560B54985E51940902404000000000000E03F0000000000000F9010740501907004050150841D405064090740C02480A1B40
1001
ACAD
1000
AcDbSavedByObjectVersion
1070
     0
  0
XRECORD
  5
2A5
102
{ACAD_REACTORS
330
29C
102
}
330
29C
100
AcDbXrecord
 90
        0
  0
XRECORD
  5
2BB
102
{ACAD_REACTORS
330
29C
102
}
330
29C
100
AcDbXrecord
1000
DSTYLE
1002
{
1070
   179
 70
     1
1070
   271
 70
     3
1070
    44
 40
0.08
1070
   371
 70
    13
1070
   372
 70
    13
1070
   272
 70
     3
1070
   340
340
70
1070
   140
 40
0.12
1070
   284
 70
     7
1070
   288
 70
     1
1070
    78
 70
     7
1070
    90
 70
     1
1002
}
  0
XRECORD
  5
2A6
102
{ACAD_REACTORS
330
29C
102
}
330
29C
100
AcDbXrecord
  1
{9C0306DF-3E54-AFC5-D6EC-CEEA3B1BF768}
  0
XRECORD
  5
29F
102
{ACAD_REACTORS
330
29C
102
}
330
29C
100
AcDbXrecord
  1

  0
XRECORD
  5
2A4
102
{ACAD_REACTORS
330
29C
102
}
330
29C
100
AcDbXrecord
 90
        1
  0
XRECORD
  5
2A1
102
{ACAD_REACTORS
330
29C
102
}
330
29C
100
AcDbXrecord
340
1A
  0
XRECORD
  5
2A3
102
{ACAD_REACTORS
330
29C
102
}
330
29C
100
AcDbXrecord
 90
    10269
  0
XRECORD
  5
2A2
102
{ACAD_REACTORS
330
29C
102
}
330
29C
100
AcDbXrecord
340
19
  0
XRECORD
  5
2A8
102
{ACAD_REACTORS
330
29C
102
}
330
29C
100
AcDbXrecord
 40
0.0
  0
XRECORD
  5
2AB
102
{ACAD_REACTORS
330
29C
102
}
330
29C
100
AcDbXrecord
340
0
  0
XRECORD
  5
2B1
102
{ACAD_REACTORS
330
29C
102
}
330
29C
100
AcDbXrecord
 10
0.0
 20
0.0
 30
0.0
  0
XRECORD
  5
2AD
102
{ACAD_REACTORS
330
29C
102
}
330
29C
100
AcDbXrecord
 10
0.0
 20
0.0
 30
0.0
  0
XRECORD
  5
2B0
102
{ACAD_REACTORS
330
29C
102
}
330
29C
100
AcDbXrecord
 10
0.0
 20
0.0
 30
0.0
  0
XRECORD
  5
2AE
102
{ACAD_REACTORS
330
29C
102
}
330
29C
100
AcDbXrecord
 10
0.0
 20
0.0
 30
0.0
  0
XRECORD
  5
2AF
102
{ACAD_REACTORS
330
29C
102
}
330
29C
100
AcDbXrecord
 10
0.0
 20
0.0
 30
0.0
  0
XRECORD
  5
2AC
102
{ACAD_REACTORS
330
29C
102
}
330
29C
100
AcDbXrecord
 10
0.0
 20
0.0
 30
0.0
  0
XRECORD
  5
2A9
102
{ACAD_REACTORS
330
29C
102
}
330
29C
100
AcDbXrecord
340
0
  0
XRECORD
  5
2AA
102
{ACAD_REACTORS
330
29C
102
}
330
29C
100
AcDbXrecord
 70
     0
  0
XRECORD
  5
2A0
102
{ACAD_REACTORS
330
29C
102
}
330
29C
100
AcDbXrecord
  1

  0
XRECORD
  5
29D
102
{ACAD_REACTORS
330
29C
102
}
330
29C
100
AcDbXrecord
 90
        1
  0
XRECORD
  5
29E
102
{ACAD_REACTORS
330
29C
102
}
330
29C
100
AcDbXrecord
 90
       70
  0
XRECORD
  5
2B4
102
{ACAD_REACTORS
330
29C
102
}
330
29C
100
AcDbXrecord
340
0
  0
XRECORD
  5
2BA
102
{ACAD_REACTORS
330
29C
102
}
330
29C
100
AcDbXrecord
 10
0.0
 20
0.0
 30
0.0
  0
XRECORD
  5
2B6
102
{ACAD_REACTORS
330
29C
102
}
330
29C
100
AcDbXrecord
 10
0.0
 20
0.0
 30
0.0
  0
XRECORD
  5
2B9
102
{ACAD_REACTORS
330
29C
102
}
330
29C
100
AcDbXrecord
 10
0.0
 20
0.0
 30
0.0
  0
XRECORD
  5
2B7
102
{ACAD_REACTORS
330
29C
102
}
330
29C
100
AcDbXrecord
 10
0.0
 20
0.0
 30
0.0
  0
XRECORD
  5
2B8
102
{ACAD_REACTORS
330
29C
102
}
330
29C
100
AcDbXrecord
 10
0.0
 20
0.0
 30
0.0
  0
XRECORD
  5
2B5
102
{ACAD_REACTORS
330
29C
102
}
330
29C
100
AcDbXrecord
 10
0.0
 20
0.0
 30
0.0
  0
XRECORD
  5
2B2
102
{ACAD_REACTORS
330
29C
102
}
330
29C
100
AcDbXrecord
340
0
  0
XRECORD
  5
2B3
102
{ACAD_REACTORS
330
29C
102
}
330
29C
100
AcDbXrecord
 70
     0
  0
XRECORD
  5
2A7
102
{ACAD_REACTORS
330
29C
102
}
330
29C
100
AcDbXrecord
  1
{FAEB1C32-E019-11D5-929B-00C0DF256EC4}
  0
DICTIONARYVAR
  5
2C2
102
{ACAD_REACTORS
330
6C
102
}
330
6C
100
DictionaryVariables
280
     0
  1
1:1
  0
DICTIONARYVAR
  5
2BC
102
{ACAD_REACTORS
330
6C
102
}
330
6C
100
DictionaryVariables
280
     0
  1
Standard
  0
DICTIONARYVAR
  5
2C0
102
{ACAD_REACTORS
330
6C
102
}
330
6C
100
DictionaryVariables
280
     0
  1
2
  0
DICTIONARYVAR
  5
2C1
102
{ACAD_REACTORS
330
6C
102
}
330
6C
100
DictionaryVariables
280
     0
  1
1
  0
DICTIONARYVAR
  5
2C3
102
{ACAD_REACTORS
330
6C
102
}
330
6C
100
DictionaryVariables
280
     0
  1
1
  0
DICTIONARYVAR
  5
6D
102
{ACAD_REACTORS
330
6C
102
}
330
6C
100
DictionaryVariables
280
     0
  1
0
  0
XRECORD
  5
29B
102
{ACAD_REACTORS
330
29A
102
}
330
29A
100
AcDbXrecord
 70
     1
  0
DICTIONARY
  5
2C6
330
45
100
AcDbDictionary
280
     1
  3
ACAD_XREC_ROUNDTRIP
360
2C7
  0
DICTIONARY
  5
2C4
330
44
100
AcDbDictionary
280
     1
  3
ACAD_XREC_ROUNDTRIP
360
2C5
  0
DICTIONARY
  5
2C8
330
46
100
AcDbDictionary
280
     1
  3
ACAD_XREC_ROUNDTRIP
360
2C9
  0
XRECORD
  5
2C7
102
{ACAD_REACTORS
330
2C6
102
}
330
2C6
100
AcDbXrecord
102
MATERIAL
148
0.0
149
0.0
149
0.0
 93
        0
 94
      127
282
     0
 72
     1
 77
     1
171
     1
175
     1
179
     1
273
     0
  0
XRECORD
  5
2C5
102
{ACAD_REACTORS
330
2C4
102
}
330
2C4
100
AcDbXrecord
102
MATERIAL
148
0.0
149
0.0
149
0.0
 93
        0
 94
      127
282
     0
 72
     1
 77
     1
171
     1
175
     1
179
     1
273
     0
  0
XRECORD
  5
2C9
102
{ACAD_REACTORS
330
2C8
102
}
330
2C8
100
AcDbXrecord
102
MATERIAL
148
0.0
149
0.0
149
0.0
 93
        0
 94
      127
282
     0
 72
     1
 77
     1
171
     1
175
     1
179
     1
273
     0
  0
ENDSEC
  0
EOF
