  0
SECTION
  2
HEADER
  9
$ACADVER
  1
AC1014
  9
$ACADMAINTVER
 70
     9
  9
$DWGCODEPAGE
  3
ANSI_1252
  9
$INSBASE
 10
0.0
 20
0.0
 30
0.0
  9
$EXTMIN
 10
1.000000000000000E+20
 20
1.000000000000000E+20
 30
1.000000000000000E+20
  9
$EXTMAX
 10
-1.000000000000000E+20
 20
-1.000000000000000E+20
 30
-1.000000000000000E+20
  9
$LIMMIN
 10
0.0
 20
0.0
  9
$LIMMAX
 10
12.0
 20
9.0
  9
$ORTHOMODE
 70
     0
  9
$REGENMODE
 70
     1
  9
$FILLMODE
 70
     1
  9
$QTEXTMODE
 70
     0
  9
$MIRRTEXT
 70
     1
  9
$DRAGMODE
 70
     2
  9
$LTSCALE
 40
0.5
  9
$OSMODE
 70
    23
  9
$ATTMODE
 70
     1
  9
$TEXTSIZE
 40
0.12
  9
$TRACEWID
 40
0.05
  9
$TEXTSTYLE
  7
ONSHAPE-STANDARD
  9
$CLAYER
  8
0
  9
$CELTYPE
  6
BYLAYER
  9
$CECOLOR
 62
   256
  9
$CELTSCALE
 40
1.0
  9
$DELOBJ
 70
     1
  9
$DISPSILH
 70
     0
  9
$DIMSCALE
 40
1.0
  9
$DIMASZ
 40
0.18
  9
$DIMEXO
 40
0.0625
  9
$DIMDLI
 40
0.38
  9
$DIMRND
 40
0.0
  9
$DIMDLE
 40
0.0
  9
$DIMEXE
 40
0.08
  9
$DIMTP
 40
0.0
  9
$DIMTM
 40
0.0
  9
$DIMTXT
 40
0.12
  9
$DIMCEN
 40
0.09
  9
$DIMTSZ
 40
0.0
  9
$DIMTOL
 70
     0
  9
$DIMLIM
 70
     0
  9
$DIMTIH
 70
     1
  9
$DIMTOH
 70
     1
  9
$DIMSE1
 70
     0
  9
$DIMSE2
 70
     0
  9
$DIMTAD
 70
     0
  9
$DIMZIN
 70
     7
  9
$DIMBLK
  1

  9
$DIMASO
 70
     1
  9
$DIMSHO
 70
     1
  9
$DIMPOST
  1

  9
$DIMAPOST
  1

  9
$DIMALT
 70
     0
  9
$DIMALTD
 70
     2
  9
$DIMALTF
 40
25.4
  9
$DIMLFAC
 40
1.0
  9
$DIMTOFL
 70
     0
  9
$DIMTVP
 40
0.0
  9
$DIMTIX
 70
     0
  9
$DIMSOXD
 70
     0
  9
$DIMSAH
 70
     0
  9
$DIMBLK1
  1

  9
$DIMBLK2
  1

  9
$DIMSTYLE
  2
ONSHAPE-STANDARD
  9
$DIMCLRD
 70
     0
  9
$DIMCLRE
 70
     0
  9
$DIMCLRT
 70
     0
  9
$DIMTFAC
 40
1.0
  9
$DIMGAP
 40
0.09
  9
$DIMJUST
 70
     0
  9
$DIMSD1
 70
     0
  9
$DIMSD2
 70
     0
  9
$DIMTOLJ
 70
     1
  9
$DIMTZIN
 70
     7
  9
$DIMALTZ
 70
     0
  9
$DIMALTTZ
 70
     0
  9
$DIMFIT
 70
     3
  9
$DIMUPT
 70
     1
  9
$DIMUNIT
 70
     2
  9
$DIMDEC
 70
     3
  9
$DIMTDEC
 70
     3
  9
$DIMALTU
 70
     2
  9
$DIMALTTD
 70
     2
  9
$DIMTXSTY
  7
ONSHAPE-STANDARD-DIMENSION
  9
$DIMAUNIT
 70
     0
  9
$LUNITS
 70
     2
  9
$LUPREC
 70
     4
  9
$SKETCHINC
 40
0.1
  9
$FILLETRAD
 40
0.5
  9
$AUNITS
 70
     0
  9
$AUPREC
 70
     0
  9
$MENU
  1
.
  9
$ELEVATION
 40
0.0
  9
$PELEVATION
 40
0.0
  9
$THICKNESS
 40
0.0
  9
$LIMCHECK
 70
     0
  9
$CHAMFERA
 40
0.0
  9
$CHAMFERB
 40
0.0
  9
$CHAMFERC
 40
0.0
  9
$CHAMFERD
 40
0.0
  9
$SKPOLY
 70
     0
  9
$TDCREATE
 40
2457809.24724537
  9
$TDUPDATE
 40
2457809.24724537
  9
$TDINDWG
 40
0.0
  9
$TDUSRTIMER
 40
0.0
  9
$USRTIMER
 70
     1
  9
$ANGBASE
 50
0.0
  9
$ANGDIR
 70
     0
  9
$PDMODE
 70
     0
  9
$PDSIZE
 40
0.0
  9
$PLINEWID
 40
0.0
  9
$COORDS
 70
     1
  9
$SPLFRAME
 70
     0
  9
$SPLINETYPE
 70
     6
  9
$SPLINESEGS
 70
     8
  9
$ATTDIA
 70
     0
  9
$ATTREQ
 70
     1
  9
$HANDLING
 70
     1
  9
$HANDSEED
  5
2AD
  9
$SURFTAB1
 70
     6
  9
$SURFTAB2
 70
     6
  9
$SURFTYPE
 70
     6
  9
$SURFU
 70
     6
  9
$SURFV
 70
     6
  9
$UCSNAME
  2

  9
$UCSORG
 10
0.0
 20
0.0
 30
0.0
  9
$UCSXDIR
 10
1.0
 20
0.0
 30
0.0
  9
$UCSYDIR
 10
0.0
 20
1.0
 30
0.0
  9
$PUCSNAME
  2

  9
$PUCSORG
 10
0.0
 20
0.0
 30
0.0
  9
$PUCSXDIR
 10
1.0
 20
0.0
 30
0.0
  9
$PUCSYDIR
 10
0.0
 20
1.0
 30
0.0
  9
$USERI1
 70
     0
  9
$USERI2
 70
     0
  9
$USERI3
 70
     0
  9
$USERI4
 70
     0
  9
$USERI5
 70
     0
  9
$USERR1
 40
0.0
  9
$USERR2
 40
0.0
  9
$USERR3
 40
0.0
  9
$USERR4
 40
0.0
  9
$USERR5
 40
0.0
  9
$WORLDVIEW
 70
     1
  9
$SHADEDGE
 70
     3
  9
$SHADEDIF
 70
    70
  9
$TILEMODE
 70
     1
  9
$MAXACTVP
 70
    64
  9
$PINSBASE
 10
0.0
 20
0.0
 30
0.0
  9
$PLIMCHECK
 70
     0
  9
$PEXTMIN
 10
1.000000000000000E+20
 20
1.000000000000000E+20
 30
1.000000000000000E+20
  9
$PEXTMAX
 10
-1.000000000000000E+20
 20
-1.000000000000000E+20
 30
-1.000000000000000E+20
  9
$PLIMMIN
 10
0.0
 20
0.0
  9
$PLIMMAX
 10
12.0
 20
9.0
  9
$UNITMODE
 70
     0
  9
$VISRETAIN
 70
     1
  9
$PLINEGEN
 70
     0
  9
$PSLTSCALE
 70
     1
  9
$TREEDEPTH
 70
  3020
  9
$PICKSTYLE
 70
     1
  9
$CMLSTYLE
  2
STANDARD
  9
$CMLJUST
 70
     0
  9
$CMLSCALE
 40
1.0
  9
$PROXYGRAPHICS
 70
     1
  9
$MEASUREMENT
 70
     0
  0
ENDSEC
  0
SECTION
  2
CLASSES
  0
CLASS
  1
ACDBDICTIONARYWDFLT
  2
AcDbDictionaryWithDefault
  3
ObjectDBX Classes
 90
        0
280
     0
281
     0
  0
CLASS
  1
VISUALSTYLE
  2
AcDbVisualStyle
  3
ObjectDBX Classes
 90
     4095
280
     0
281
     0
  0
CLASS
  1
MATERIAL
  2
AcDbMaterial
  3
ObjectDBX Classes
 90
     1153
280
     0
281
     0
  0
CLASS
  1
SCALE
  2
AcDbScale
  3
ObjectDBX Classes
 90
     1153
280
     0
281
     0
  0
CLASS
  1
SUN
  2
AcDbSun
  3
SCENEOE
 90
     1153
280
     0
281
     0
  0
CLASS
  1
TABLESTYLE
  2
AcDbTableStyle
  3
ObjectDBX Classes
 90
     4095
280
     0
281
     0
  0
CLASS
  1
DICTIONARYVAR
  2
AcDbDictionaryVar
  3
ObjectDBX Classes
 90
        0
280
     0
281
     0
  0
CLASS
  1
XRECORD
  2
AcDbXrecord
  3
ObjectDBX Classes
 90
        0
280
     0
281
     0
  0
CLASS
  1
LWPOLYLINE
  2
AcDbPolyline
  3
ObjectDBX Classes
 90
        0
280
     0
281
     1
  0
CLASS
  1
HATCH
  2
AcDbHatch
  3
ObjectDBX Classes
 90
        0
280
     0
281
     1
  0
CLASS
  1
ACDBPLACEHOLDER
  2
AcDbPlaceHolder
  3
ObjectDBX Classes
 90
        0
280
     0
281
     0
  0
CLASS
  1
LAYOUT
  2
AcDbLayout
  3
ObjectDBX Classes
 90
        0
280
     0
281
     0
  0
ENDSEC
  0
SECTION
  2
TABLES
  0
TABLE
  2
VPORT
  5
8
330
0
100
AcDbSymbolTable
 70
     1
  0
VPORT
  5
29
330
8
100
AcDbSymbolTableRecord
100
AcDbViewportTableRecord
  2
*ACTIVE
 70
     0
 10
0.0
 20
0.0
 11
1.0
 21
1.0
 12
0.3288331995057803
 22
5.484410399999788
 13
0.0
 23
0.0
 14
0.5
 24
0.5
 15
0.5
 25
0.5
 16
0.0
 26
0.0
 36
1.0
 17
0.0
 27
0.0
 37
0.0
 40
1.444398316987388
 41
0.3644284883901929
 42
50.0
 43
0.0
 44
0.0
 50
0.0
 51
0.0
 71
     0
 72
   100
 73
     1
 74
     3
 75
     0
 76
     0
 77
     0
 78
     0
  0
ENDTAB
  0
TABLE
  2
LTYPE
  5
5
330
0
100
AcDbSymbolTable
 70
     1
  0
LTYPE
  5
14
330
5
100
AcDbSymbolTableRecord
100
AcDbLinetypeTableRecord
  2
BYBLOCK
 70
     0
  3

 72
    65
 73
     0
 40
0.0
  0
LTYPE
  5
15
330
5
100
AcDbSymbolTableRecord
100
AcDbLinetypeTableRecord
  2
BYLAYER
 70
     0
  3

 72
    65
 73
     0
 40
0.0
  0
LTYPE
  5
16
330
5
100
AcDbSymbolTableRecord
100
AcDbLinetypeTableRecord
  2
CONTINUOUS
 70
     0
  3
Solid line
 72
    65
 73
     0
 40
0.0
  0
ENDTAB
  0
TABLE
  2
LAYER
  5
2
330
0
100
AcDbSymbolTable
 70
     3
  0
LAYER
  5
10
330
2
100
AcDbSymbolTableRecord
100
AcDbLayerTableRecord
  2
0
 70
     0
 62
     7
  6
CONTINUOUS
  0
LAYER
  5
72
330
2
100
AcDbSymbolTableRecord
100
AcDbLayerTableRecord
  2
ANNOTATION_TEXT
 70
     0
 62
     7
  6
CONTINUOUS
  0
LAYER
  5
76
330
2
100
AcDbSymbolTableRecord
100
AcDbLayerTableRecord
  2
VISIBLE
 70
     0
 62
     7
  6
CONTINUOUS
  0
ENDTAB
  0
TABLE
  2
STYLE
  5
3
330
0
100
AcDbSymbolTable
 70
     3
  0
STYLE
  5
11
330
3
100
AcDbSymbolTableRecord
100
AcDbTextStyleTableRecord
  2
STANDARD
 70
     0
 40
0.0
 41
1.0
 50
0.0
 71
     0
 42
0.12
  3
txt
  4

  0
STYLE
  5
6E
330
3
100
AcDbSymbolTableRecord
100
AcDbTextStyleTableRecord
  2
ONSHAPE-STANDARD
 70
     0
 40
0.0
 41
1.0
 50
0.0
 71
     0
 42
0.12
  3
NotoSans-Regular.ttf
  4

1001
ACAD
1000
Noto Sans
1071
        0
  0
STYLE
  5
70
330
3
100
AcDbSymbolTableRecord
100
AcDbTextStyleTableRecord
  2
ONSHAPE-STANDARD-DIMENSION
 70
     0
 40
0.0
 41
1.0
 50
0.0
 71
     0
 42
0.12
  3

  4

1001
ACAD
1000
Noto Sans
1071
        0
  0
ENDTAB
  0
TABLE
  2
VIEW
  5
6
330
0
100
AcDbSymbolTable
 70
     0
  0
ENDTAB
  0
TABLE
  2
UCS
  5
7
330
0
100
AcDbSymbolTable
 70
     0
  0
ENDTAB
  0
TABLE
  2
APPID
  5
9
330
0
100
AcDbSymbolTable
 70
     1
  0
APPID
  5
12
330
9
100
AcDbSymbolTableRecord
100
AcDbRegAppTableRecord
  2
ACAD
 70
     0
  0
ENDTAB
  0
TABLE
  2
DIMSTYLE
  5
A
330
0
100
AcDbSymbolTable
 70
     2
  0
DIMSTYLE
105
27
330
A
100
AcDbSymbolTableRecord
100
AcDbDimStyleTableRecord
  2
STANDARD
 70
     0
  3

  4

  5

  6

  7

 40
1.0
 41
0.18
 42
0.0625
 43
0.38
 44
0.18
 45
0.0
 46
0.0
 47
0.0
 48
0.0
140
0.18
141
0.09
142
0.0
143
25.4
144
1.0
145
0.0
146
1.0
147
0.09
 71
     0
 72
     0
 73
     1
 74
     1
 75
     0
 76
     0
 77
     0
 78
     0
170
     0
171
     2
172
     0
173
     0
174
     0
175
     0
176
     0
177
     0
178
     0
270
     2
271
     4
272
     4
273
     2
274
     2
340
11
275
     0
280
     0
281
     0
282
     0
283
     1
284
     0
285
     0
286
     0
287
     3
288
     0
  0
DIMSTYLE
105
6F
330
A
100
AcDbSymbolTableRecord
100
AcDbDimStyleTableRecord
  2
ONSHAPE-STANDARD
 70
     0
  3

  4

  5

  6

  7

 40
1.0
 41
0.18
 42
0.0625
 43
0.38
 44
0.08
 45
0.0
 46
0.0
 47
0.0
 48
0.0
140
0.12
141
0.09
142
0.0
143
25.4
144
1.0
145
0.0
146
1.0
147
0.09
 71
     0
 72
     0
 73
     1
 74
     1
 75
     0
 76
     0
 77
     0
 78
     7
170
     0
171
     2
172
     0
173
     0
174
     0
175
     0
176
     0
177
     0
178
     0
179
     1
270
     2
271
     3
272
     3
273
     2
274
     2
340
70
275
     0
280
     0
281
     0
282
     0
283
     1
284
     7
285
     0
286
     0
287
     3
288
     1
  0
ENDTAB
  0
TABLE
  2
BLOCK_RECORD
  5
1
330
0
100
AcDbSymbolTable
 70
     1
  0
BLOCK_RECORD
  5
1F
330
1
100
AcDbSymbolTableRecord
100
AcDbBlockTableRecord
  2
*MODEL_SPACE
  0
BLOCK_RECORD
  5
1B
330
1
100
AcDbSymbolTableRecord
100
AcDbBlockTableRecord
  2
*PAPER_SPACE
  0
ENDTAB
  0
ENDSEC
  0
SECTION
  2
BLOCKS
  0
BLOCK
  5
20
330
1F
100
AcDbEntity
  8
0
100
AcDbBlockBegin
  2
*MODEL_SPACE
 70
     0
 10
0.0
 20
0.0
 30
0.0
  3
*MODEL_SPACE
  1

  0
ENDBLK
  5
21
330
1F
100
AcDbEntity
  8
0
100
AcDbBlockEnd
  0
BLOCK
  5
1C
330
1B
100
AcDbEntity
 67
     1
  8
0
100
AcDbBlockBegin
  2
*PAPER_SPACE
 70
     0
 10
0.0
 20
0.0
 30
0.0
  3
*PAPER_SPACE
  1

  0
ENDBLK
  5
1D
330
1B
100
AcDbEntity
 67
     1
  8
0
100
AcDbBlockEnd
  0
ENDSEC
  0
SECTION
  2
ENTITIES
  0
MTEXT
  5
71
330
1F
100
AcDbEntity
  8
ANNOTATION_TEXT
 60
     1
100
AcDbMText
 10
0.3288331995057803
 20
4.645568170251687
 30
0.0
 40
0.12
 41
0.0
 71
     2
 72
     1
  1

  7
ONSHAPE-STANDARD
1001
ACAD
1000
ACAD_MTEXT_DEFINED_HEIGHT_BEGIN
1070
    46
1040
0.12
1000
ACAD_MTEXT_DEFINED_HEIGHT_END
  0
ELLIPSE
  5
77
330
1F
100
AcDbEntity
  8
VISIBLE
100
AcDbEllipse
 10
0.3373400137596114
 20
6.088357763148313
 30
0.0
 11
0.0
 21
0.1037177925275019
 31
0.0
210
0.0
220
0.0
230
-1.0
 40
0.2588190451025179
 41
0.0850145332845136
 42
0.8951904635698587
  0
ELLIPSE
  5
78
330
1F
100
AcDbEntity
  8
VISIBLE
100
AcDbEllipse
 10
0.3311125935152557
 20
6.088357763148313
 30
0.0
 11
0.0
 21
0.1037177925275019
 31
0.0
210
0.0
220
0.0
230
1.0
 40
0.9659258262890664
 41
5.960729753135131
 42
6.198170773895057
  0
ARC
  5
79
330
1F
100
AcDbEntity
  8
VISIBLE
100
AcDbCircle
 10
0.3288331995057803
 20
6.088357763148313
 30
0.0
 40
0.1040910275315675
100
AcDbArc
 50
37.63065581659588
 51
70.91933245614744
  0
ELLIPSE
  5
7A
330
1F
100
AcDbEntity
  8
VISIBLE
100
AcDbEllipse
 10
0.3311125935152557
 20
6.088357763148313
 30
0.0
 11
0.0
 21
0.1037177925275019
 31
0.0
210
0.0
220
0.0
230
1.0
 40
0.9659258262890664
 41
0.0705070478296342
 42
2.808909968793078
  0
ELLIPSE
  5
7B
330
1F
100
AcDbEntity
  8
VISIBLE
100
AcDbEllipse
 10
0.3217753940414925
 20
6.088357763148313
 30
0.0
 11
0.0
 21
-0.1038342573987219
 31
0.0
210
0.0
220
0.0
230
1.0
 40
0.2588190451025197
 41
2.189657079312548
 42
3.056673706186416
  0
ELLIPSE
  5
7C
330
1F
100
AcDbEntity
  8
VISIBLE
100
AcDbEllipse
 10
0.3311125935152557
 20
6.088357763148313
 30
0.0
 11
0.0
 21
0.1037177925275019
 31
0.0
210
0.0
220
0.0
230
1.0
 40
0.9659258262890664
 41
5.960729753135131
 42
6.198170773895057
  0
ELLIPSE
  5
7D
330
1F
100
AcDbEntity
  8
VISIBLE
100
AcDbEllipse
 10
0.3269420662312887
 20
6.088357763148313
 30
0.0
 11
0.0
 21
-0.1038342573987219
 31
0.0
210
0.0
220
0.0
230
-1.0
 40
0.965925826289066
 41
0.2734253419280095
 42
2.875853010538921
  0
ELLIPSE
  5
7E
330
1F
100
AcDbEntity
  8
VISIBLE
100
AcDbEllipse
 10
0.3373400137596114
 20
6.088357763148313
 30
0.0
 11
0.0
 21
0.1037177925275019
 31
0.0
210
0.0
220
0.0
230
-1.0
 40
0.2588190451025179
 41
0.0850145332845136
 42
0.8951904635698587
  0
ELLIPSE
  5
7F
330
1F
100
AcDbEntity
  8
VISIBLE
100
AcDbEllipse
 10
0.3217753940414925
 20
6.088357763148313
 30
0.0
 11
0.0
 21
-0.1038342573987219
 31
0.0
210
0.0
220
0.0
230
1.0
 40
0.2588190451025197
 41
2.189657079312548
 42
3.056673706186416
  0
ELLIPSE
  5
80
330
1F
100
AcDbEntity
  8
VISIBLE
100
AcDbEllipse
 10
0.3311125935152557
 20
6.088357763148313
 30
0.0
 11
0.0
 21
0.1037177925275019
 31
0.0
210
0.0
220
0.0
230
1.0
 40
0.9659258262890664
 41
0.0705070478296342
 42
2.808909968793078
  0
ARC
  5
81
330
1F
100
AcDbEntity
  8
VISIBLE
100
AcDbCircle
 10
0.3288331995057803
 20
6.088357763148313
 30
0.0
 40
0.1040910275315675
100
AcDbArc
 50
70.91933245614744
 51
105.736678626865
  0
ELLIPSE
  5
82
330
1F
100
AcDbEntity
  8
VISIBLE
100
AcDbEllipse
 10
0.3269420662312887
 20
6.088357763148313
 30
0.0
 11
0.0
 21
-0.1038342573987219
 31
0.0
210
0.0
220
0.0
230
-1.0
 40
0.965925826289066
 41
0.2734253419280095
 42
2.875853010538921
  0
ARC
  5
83
330
1F
100
AcDbEntity
  8
VISIBLE
100
AcDbCircle
 10
0.3288331995057803
 20
6.088357763148313
 30
0.0
 40
0.1040910275315675
100
AcDbArc
 50
105.736678626865
 51
142.3693441834025
  0
ARC
  5
84
330
1F
100
AcDbEntity
  8
VISIBLE
100
AcDbCircle
 10
0.3288331995057803
 20
6.088357763148313
 30
0.0
 40
0.1040910275315675
100
AcDbArc
 50
142.3693441834025
 51
143.9693980455872
  0
ARC
  5
85
330
1F
100
AcDbEntity
  8
VISIBLE
100
AcDbCircle
 10
0.3288331995057803
 20
6.088357763148313
 30
0.0
 40
0.1040910275315675
100
AcDbArc
 50
143.9693980455872
 51
246.56228778954
  0
ARC
  5
86
330
1F
100
AcDbEntity
  8
VISIBLE
100
AcDbCircle
 10
0.3288331995057803
 20
6.088357763148313
 30
0.0
 40
0.1040910275315675
100
AcDbArc
 50
246.56228778954
 51
248.2155358672928
  0
ARC
  5
87
330
1F
100
AcDbEntity
  8
VISIBLE
100
AcDbCircle
 10
0.3288331995057803
 20
6.088357763148313
 30
0.0
 40
0.1040910275315675
100
AcDbArc
 50
248.2155358672928
 51
249.3032714823078
  0
ARC
  5
88
330
1F
100
AcDbEntity
  8
VISIBLE
100
AcDbCircle
 10
0.3288331995057803
 20
6.088357763148313
 30
0.0
 40
0.1040910275315675
100
AcDbArc
 50
249.3032714823078
 51
252.8571888185363
  0
ARC
  5
89
330
1F
100
AcDbEntity
  8
VISIBLE
100
AcDbCircle
 10
0.3288331995057803
 20
6.088357763148313
 30
0.0
 40
0.1040910275315675
100
AcDbArc
 50
252.8571888185363
 51
253.8380811624801
  0
ELLIPSE
  5
8A
330
1F
100
AcDbEntity
  8
VISIBLE
100
AcDbEllipse
 10
0.4824431405651426
 20
5.596480530526136
 30
0.0
 11
-0.1037262973848803
 21
-0.004733734294125824
 31
0.0
210
0.0
220
0.0
230
-1.0
 40
0.1677312594965218
 41
1.921367314606206
 42
3.129619559809228
  0
ELLIPSE
  5
8B
330
1F
100
AcDbEntity
  8
VISIBLE
100
AcDbEllipse
 10
0.4912783466658155
 20
5.589284759017278
 30
0.0
 11
0.0
 21
0.1037177925275019
 31
0.0
210
0.0
220
0.0
230
-1.0
 40
0.2588190451025179
 41
0.0227541091035681
 42
1.325756353765823
  0
ARC
  5
8C
330
1F
100
AcDbEntity
  8
VISIBLE
100
AcDbCircle
 10
0.4827715324119843
 20
5.589284759017278
 30
0.0
 40
0.1040910275315675
100
AcDbArc
 50
6.696172660473473
 51
77.36285339039131
  0
ARC
  5
8D
330
1F
100
AcDbEntity
  8
VISIBLE
100
AcDbCircle
 10
0.4827715324119843
 20
5.589284759017278
 30
0.0
 40
0.1040910275315675
100
AcDbArc
 50
77.36285339039131
 51
84.97488913569202
  0
ELLIPSE
  5
8E
330
1F
100
AcDbEntity
  8
VISIBLE
100
AcDbEllipse
 10
0.4727111118294962
 20
5.786384081574051
 30
0.0
 11
0.0
 21
0.1037177925275019
 31
0.0
210
0.0
220
0.0
230
-1.0
 40
0.2588190451025179
 41
0.0227541091035681
 42
0.9766905033669506
  0
ELLIPSE
  5
8F
330
1F
100
AcDbEntity
  8
VISIBLE
100
AcDbEllipse
 10
0.4653439945804028
 20
5.778757080567775
 30
0.0
 11
0.1025788683429925
 21
0.01532828288651356
 31
0.0
210
0.0
220
0.0
230
1.0
 40
0.4829629131445325
 41
6.236334552924248
 42
7.468907936121042
  0
ELLIPSE
  5
90
330
1F
100
AcDbEntity
  8
VISIBLE
100
AcDbEllipse
 10
0.4571464921113773
 20
5.786384081574051
 30
0.0
 11
0.0
 21
-0.1038342573987219
 31
0.0
210
0.0
220
0.0
230
1.0
 40
0.2588190451025197
 41
0.4391624853543121
 42
2.009476154989811
  0
ELLIPSE
  5
91
330
1F
100
AcDbEntity
  8
VISIBLE
100
AcDbEllipse
 10
0.4632587309384189
 20
5.792711936840664
 30
0.0
 11
-0.1026940543144663
 21
-0.01534549503930727
 31
0.0
210
0.0
220
0.0
230
-1.0
 40
0.4829629131445319
 41
0.0388223778604112
 42
1.80042765829283
  0
ELLIPSE
  5
92
330
1F
100
AcDbEntity
  8
VISIBLE
100
AcDbEllipse
 10
0.4632587309384189
 20
5.792711936840664
 30
0.0
 11
-0.1026940543144663
 21
-0.01534549503930727
 31
0.0
210
0.0
220
0.0
230
-1.0
 40
0.4829629131445319
 41
1.955774438767202
 42
3.102770275729362
  0
ELLIPSE
  5
93
330
1F
100
AcDbEntity
  8
VISIBLE
100
AcDbEllipse
 10
0.4727111118294962
 20
5.786384081574051
 30
0.0
 11
0.0
 21
0.1037177925275019
 31
0.0
210
0.0
220
0.0
230
-1.0
 40
0.2588190451025179
 41
1.132212084481133
 42
2.683495883972412
  0
ELLIPSE
  5
94
330
1F
100
AcDbEntity
  8
VISIBLE
100
AcDbEllipse
 10
0.4653439945804028
 20
5.778757080567775
 30
0.0
 11
0.1025788683429925
 21
0.01532828288651356
 31
0.0
210
0.0
220
0.0
230
1.0
 40
0.4829629131445325
 41
1.341244210055614
 42
3.188443407845141
  0
ELLIPSE
  5
95
330
1F
100
AcDbEntity
  8
VISIBLE
100
AcDbEllipse
 10
0.4571464921113773
 20
5.786384081574051
 30
0.0
 11
0.0
 21
-0.1038342573987219
 31
0.0
210
0.0
220
0.0
230
1.0
 40
0.2588190451025197
 41
2.164822935464192
 42
3.160449255568456
  0
ARC
  5
96
330
1F
100
AcDbEntity
  8
VISIBLE
100
AcDbCircle
 10
0.4642042975756651
 20
5.786384081574051
 30
0.0
 40
0.1040910275315675
100
AcDbArc
 50
183.9007113929655
 51
194.0435644655877
  0
ARC
  5
97
330
1F
100
AcDbEntity
  8
VISIBLE
100
AcDbCircle
 10
0.4642042975756651
 20
5.786384081574051
 30
0.0
 40
0.1040910275315675
100
AcDbArc
 50
84.97488913569202
 51
92.14912289044074
  0
ARC
  5
98
330
1F
100
AcDbEntity
  8
VISIBLE
100
AcDbCircle
 10
0.4642042975756651
 20
5.786384081574051
 30
0.0
 40
0.1040910275315675
100
AcDbArc
 50
92.14912289044074
 51
94.16748914235926
  0
ARC
  5
99
330
1F
100
AcDbEntity
  8
VISIBLE
100
AcDbCircle
 10
0.4642042975756651
 20
5.786384081574051
 30
0.0
 40
0.1040910275315675
100
AcDbArc
 50
2.953996941367963
 51
13.09685001399047
  0
ELLIPSE
  5
9A
330
1F
100
AcDbEntity
  8
VISIBLE
100
AcDbEllipse
 10
0.4632587309384189
 20
5.792711936840664
 30
0.0
 11
-0.1026940543144663
 21
-0.01534549503930727
 31
0.0
210
0.0
220
0.0
230
-1.0
 40
0.4829629131445319
 41
0.0388223778604112
 42
1.80042765829283
  0
ELLIPSE
  5
9B
330
1F
100
AcDbEntity
  8
VISIBLE
100
AcDbEllipse
 10
0.4571464921113773
 20
5.786384081574051
 30
0.0
 11
0.0
 21
-0.1038342573987219
 31
0.0
210
0.0
220
0.0
230
1.0
 40
0.2588190451025197
 41
2.164822935464192
 42
3.160449255568456
  0
ARC
  5
9C
330
1F
100
AcDbEntity
  8
VISIBLE
100
AcDbCircle
 10
0.4642042975756651
 20
5.786384081574051
 30
0.0
 40
0.1040910275315675
100
AcDbArc
 50
94.16748914235926
 51
100.9348830348359
  0
ARC
  5
9D
330
1F
100
AcDbEntity
  8
VISIBLE
100
AcDbCircle
 10
0.4642042975756651
 20
5.786384081574051
 30
0.0
 40
0.1040910275315675
100
AcDbArc
 50
100.9348830348359
 51
110.9358605192854
  0
ARC
  5
9E
330
1F
100
AcDbEntity
  8
VISIBLE
100
AcDbCircle
 10
0.4642042975756651
 20
5.786384081574051
 30
0.0
 40
0.1040910275315675
100
AcDbArc
 50
110.9358605192854
 51
132.1800011771278
  0
ARC
  5
9F
330
1F
100
AcDbEntity
  8
VISIBLE
100
AcDbCircle
 10
0.4642042975756651
 20
5.786384081574051
 30
0.0
 40
0.1040910275315675
100
AcDbArc
 50
132.1800011771278
 51
140.0860419895924
  0
ARC
  5
A0
330
1F
100
AcDbEntity
  8
VISIBLE
100
AcDbCircle
 10
0.4642042975756651
 20
5.786384081574051
 30
0.0
 40
0.1040910275315675
100
AcDbArc
 50
140.0860419895924
 51
183.9007113929655
  0
ELLIPSE
  5
A1
330
1F
100
AcDbEntity
  8
VISIBLE
100
AcDbEllipse
 10
0.3805183374873131
 20
6.054434345712406
 30
0.0
 11
-0.0846207456911241
 21
-0.06017376843959621
 31
0.0
210
0.0
220
0.0
230
-1.0
 40
0.9076733711903685
 41
2.320271214450118
 42
2.988804256700048
  0
ELLIPSE
  5
A2
330
1F
100
AcDbEntity
  8
VISIBLE
100
AcDbEllipse
 10
0.3908022357241068
 20
6.051935280493564
 30
0.0
 11
0.0
 21
0.1037177925275019
 31
0.0
210
0.0
220
0.0
230
-1.0
 40
0.2588190451025179
 41
0.0227541091035681
 42
0.2785588025692373
  0
ARC
  5
A3
330
1F
100
AcDbEntity
  8
VISIBLE
100
AcDbCircle
 10
0.3822954214702756
 20
6.051935280493564
 30
0.0
 40
0.1040910275315675
100
AcDbArc
 50
45.04527281080735
 51
73.83808116248204
  0
ARC
  5
A4
330
1F
100
AcDbEntity
  8
VISIBLE
100
AcDbCircle
 10
0.3822954214702756
 20
6.051935280493564
 30
0.0
 40
0.1040910275315675
100
AcDbArc
 50
73.83808116248204
 51
77.38106160327521
  0
ARC
  5
A5
330
1F
100
AcDbEntity
  8
VISIBLE
100
AcDbCircle
 10
0.3822954214702756
 20
6.051935280493564
 30
0.0
 40
0.1040910275315675
100
AcDbArc
 50
77.38106160327521
 51
84.97488913569202
  0
ELLIPSE
  5
A6
330
1F
100
AcDbEntity
  8
VISIBLE
100
AcDbEllipse
 10
0.3844373512008437
 20
6.048923142551753
 30
0.0
 11
0.08452583150291382
 21
0.06010627500951138
 31
0.0
210
0.0
220
0.0
230
1.0
 40
0.9076733711903641
 41
6.098489960698503
 42
7.104411160438127
  0
ELLIPSE
  5
A7
330
1F
100
AcDbEntity
  8
VISIBLE
100
AcDbEllipse
 10
0.3908022357241068
 20
6.051935280493564
 30
0.0
 11
0.0
 21
0.1037177925275019
 31
0.0
210
0.0
220
0.0
230
-1.0
 40
0.2588190451025179
 41
0.434080383683378
 42
1.584671695414902
  0
ARC
  5
A8
330
1F
100
AcDbEntity
  8
VISIBLE
100
AcDbCircle
 10
0.3822954214702756
 20
6.051935280493564
 30
0.0
 40
0.1040910275315675
100
AcDbArc
 50
350.6372748479837
 51
0.0
  0
ARC
  5
A9
330
1F
100
AcDbEntity
  8
VISIBLE
100
AcDbCircle
 10
0.3822954214702756
 20
6.051935280493564
 30
0.0
 40
0.1040910275315675
100
AcDbArc
 50
0.0
 51
23.78596990211622
  0
ELLIPSE
  5
AA
330
1F
100
AcDbEntity
  8
VISIBLE
100
AcDbEllipse
 10
0.3752376160059878
 20
6.051935280493564
 30
0.0
 11
0.0
 21
-0.1038342573987219
 31
0.0
210
0.0
220
0.0
230
1.0
 40
0.2588190451025197
 41
1.528352231016187
 42
2.70760785578753
  0
ELLIPSE
  5
AB
330
1F
100
AcDbEntity
  8
VISIBLE
100
AcDbEllipse
 10
0.3844373512008437
 20
6.048923142551753
 30
0.0
 11
0.08452583150291382
 21
0.06010627500951138
 31
0.0
210
0.0
220
0.0
230
1.0
 40
0.9076733711903641
 41
0.9767474343726992
 42
3.32628800007088
  0
ARC
  5
AC
330
1F
100
AcDbEntity
  8
VISIBLE
100
AcDbCircle
 10
0.3822954214702756
 20
6.051935280493564
 30
0.0
 40
0.1040910275315675
100
AcDbArc
 50
227.047255609066
 51
236.5099539105874
  0
ARC
  5
AD
330
1F
100
AcDbEntity
  8
VISIBLE
100
AcDbCircle
 10
0.3822954214702756
 20
6.051935280493564
 30
0.0
 40
0.1040910275315675
100
AcDbArc
 50
236.5099539105874
 51
237.654942054626
  0
ELLIPSE
  5
AE
330
1F
100
AcDbEntity
  8
VISIBLE
100
AcDbEllipse
 10
0.3908022357241068
 20
6.051935280493564
 30
0.0
 11
0.0
 21
0.1037177925275019
 31
0.0
210
0.0
220
0.0
230
-1.0
 40
0.2588190451025179
 41
0.0227541091035681
 42
0.2785588025692373
  0
ELLIPSE
  5
AF
330
1F
100
AcDbEntity
  8
VISIBLE
100
AcDbEllipse
 10
0.3844373512008437
 20
6.048923142551753
 30
0.0
 11
0.08452583150291382
 21
0.06010627500951138
 31
0.0
210
0.0
220
0.0
230
1.0
 40
0.9076733711903641
 41
6.098489960698503
 42
7.104411160438127
  0
ELLIPSE
  5
B0
330
1F
100
AcDbEntity
  8
VISIBLE
100
AcDbEllipse
 10
0.3752376160059878
 20
6.051935280493564
 30
0.0
 11
0.0
 21
-0.1038342573987219
 31
0.0
210
0.0
220
0.0
230
1.0
 40
0.2588190451025197
 41
1.528352231016187
 42
2.70760785578753
  0
ELLIPSE
  5
B1
330
1F
100
AcDbEntity
  8
VISIBLE
100
AcDbEllipse
 10
0.3805183374873131
 20
6.054434345712406
 30
0.0
 11
-0.0846207456911241
 21
-0.06017376843959621
 31
0.0
210
0.0
220
0.0
230
-1.0
 40
0.9076733711903685
 41
0.1527883968897315
 42
2.164924433975726
  0
ELLIPSE
  5
B2
330
1F
100
AcDbEntity
  8
VISIBLE
100
AcDbEllipse
 10
0.3805183374873131
 20
6.054434345712406
 30
0.0
 11
-0.0846207456911241
 21
-0.06017376843959621
 31
0.0
210
0.0
220
0.0
230
-1.0
 40
0.9076733711903685
 41
2.320271214450118
 42
2.988804256700048
  0
ELLIPSE
  5
B3
330
1F
100
AcDbEntity
  8
VISIBLE
100
AcDbEllipse
 10
0.3908022357241068
 20
6.051935280493564
 30
0.0
 11
0.0
 21
0.1037177925275019
 31
0.0
210
0.0
220
0.0
230
-1.0
 40
0.2588190451025179
 41
0.434080383683378
 42
1.584671695414902
  0
ELLIPSE
  5
B4
330
1F
100
AcDbEntity
  8
VISIBLE
100
AcDbEllipse
 10
0.3844373512008437
 20
6.048923142551753
 30
0.0
 11
0.08452583150291382
 21
0.06010627500951138
 31
0.0
210
0.0
220
0.0
230
1.0
 40
0.9076733711903641
 41
0.9767474343726992
 42
3.32628800007088
  0
ELLIPSE
  5
B5
330
1F
100
AcDbEntity
  8
VISIBLE
100
AcDbEllipse
 10
0.3752376160059878
 20
6.051935280493564
 30
0.0
 11
0.0
 21
-0.1038342573987219
 31
0.0
210
0.0
220
0.0
230
1.0
 40
0.2588190451025197
 41
2.862954636261921
 42
3.160449255568456
  0
ARC
  5
B6
330
1F
100
AcDbEntity
  8
VISIBLE
100
AcDbCircle
 10
0.3822954214702756
 20
6.051935280493564
 30
0.0
 40
0.1040910275315675
100
AcDbArc
 50
205.7879527003752
 51
208.7276577900309
  0
ARC
  5
B7
330
1F
100
AcDbEntity
  8
VISIBLE
100
AcDbCircle
 10
0.3822954214702756
 20
6.051935280493564
 30
0.0
 40
0.1040910275315675
100
AcDbArc
 50
208.7276577900309
 51
217.6304784065946
  0
ARC
  5
B8
330
1F
100
AcDbEntity
  8
VISIBLE
100
AcDbCircle
 10
0.3822954214702756
 20
6.051935280493564
 30
0.0
 40
0.1040910275315675
100
AcDbArc
 50
217.6304784065946
 51
221.2292030233623
  0
ARC
  5
B9
330
1F
100
AcDbEntity
  8
VISIBLE
100
AcDbCircle
 10
0.3822954214702756
 20
6.051935280493564
 30
0.0
 40
0.1040910275315675
100
AcDbArc
 50
221.2292030233623
 51
221.4651889053664
  0
ARC
  5
BA
330
1F
100
AcDbEntity
  8
VISIBLE
100
AcDbCircle
 10
0.3822954214702756
 20
6.051935280493564
 30
0.0
 40
0.1040910275315675
100
AcDbArc
 50
221.4651889053664
 51
224.0600946456553
  0
ARC
  5
BB
330
1F
100
AcDbEntity
  8
VISIBLE
100
AcDbCircle
 10
0.3822954214702756
 20
6.051935280493564
 30
0.0
 40
0.1040910275315675
100
AcDbArc
 50
224.0600946456553
 51
227.047255609066
  0
ARC
  5
BC
330
1F
100
AcDbEntity
  8
VISIBLE
100
AcDbCircle
 10
0.3822954214702756
 20
6.051935280493564
 30
0.0
 40
0.1040910275315675
100
AcDbArc
 50
84.97488913569202
 51
94.16748914235926
  0
ARC
  5
BD
330
1F
100
AcDbEntity
  8
VISIBLE
100
AcDbCircle
 10
0.3822954214702756
 20
6.051935280493564
 30
0.0
 40
0.1040910275315675
100
AcDbArc
 50
23.78596990211622
 51
45.04527281080735
  0
ELLIPSE
  5
BE
330
1F
100
AcDbEntity
  8
VISIBLE
100
AcDbEllipse
 10
0.3805183374873131
 20
6.054434345712406
 30
0.0
 11
-0.0846207456911241
 21
-0.06017376843959621
 31
0.0
210
0.0
220
0.0
230
-1.0
 40
0.9076733711903685
 41
0.1527883968897315
 42
2.164924433975726
  0
ELLIPSE
  5
BF
330
1F
100
AcDbEntity
  8
VISIBLE
100
AcDbEllipse
 10
0.3752376160059878
 20
6.051935280493564
 30
0.0
 11
0.0
 21
-0.1038342573987219
 31
0.0
210
0.0
220
0.0
230
1.0
 40
0.2588190451025197
 41
2.862954636261921
 42
3.160449255568456
  0
ARC
  5
C0
330
1F
100
AcDbEntity
  8
VISIBLE
100
AcDbCircle
 10
0.3822954214702756
 20
6.051935280493564
 30
0.0
 40
0.1040910275315675
100
AcDbArc
 50
94.16748914235926
 51
103.3351011957121
  0
ARC
  5
C1
330
1F
100
AcDbEntity
  8
VISIBLE
100
AcDbCircle
 10
0.3822954214702756
 20
6.051935280493564
 30
0.0
 40
0.1040910275315675
100
AcDbArc
 50
103.3351011957121
 51
203.7200126273941
  0
ARC
  5
C2
330
1F
100
AcDbEntity
  8
VISIBLE
100
AcDbCircle
 10
0.3822954214702756
 20
6.051935280493564
 30
0.0
 40
0.1040910275315675
100
AcDbArc
 50
203.7200126273941
 51
205.7879527003752
  0
ELLIPSE
  5
C3
330
1F
100
AcDbEntity
  8
VISIBLE
100
AcDbEllipse
 10
0.4278606183113673
 20
5.951757627766091
 30
0.0
 11
-0.09922148952733424
 21
-0.03060472227485534
 31
0.0
210
0.0
220
0.0
230
-1.0
 40
0.7399421116938533
 41
2.050666808023987
 42
3.064108082362091
  0
ELLIPSE
  5
C4
330
1F
100
AcDbEntity
  8
VISIBLE
100
AcDbEllipse
 10
0.4378161247013201
 20
5.947060921476075
 30
0.0
 11
0.0
 21
0.1037177925275019
 31
0.0
210
0.0
220
0.0
230
-1.0
 40
0.2588190451025179
 41
0.0227541091035681
 42
0.6276246529681093
  0
ARC
  5
C5
330
1F
100
AcDbEntity
  8
VISIBLE
100
AcDbCircle
 10
0.429309310447489
 20
5.947060921476075
 30
0.0
 40
0.1040910275315675
100
AcDbArc
 50
23.13226557693215
 51
57.65494205462633
  0
ARC
  5
C6
330
1F
100
AcDbEntity
  8
VISIBLE
100
AcDbCircle
 10
0.429309310447489
 20
5.947060921476075
 30
0.0
 40
0.1040910275315675
100
AcDbArc
 50
57.65494205462633
 51
62.04799649836825
  0
ARC
  5
C7
330
1F
100
AcDbEntity
  8
VISIBLE
100
AcDbCircle
 10
0.429309310447489
 20
5.947060921476075
 30
0.0
 40
0.1040910275315675
100
AcDbArc
 50
62.04799649836825
 51
84.97488913569202
  0
ELLIPSE
  5
C8
330
1F
100
AcDbEntity
  8
VISIBLE
100
AcDbEllipse
 10
0.4310554275621268
 20
5.941399953882658
 30
0.0
 11
0.09911019853061021
 21
0.03057039473086664
 31
0.0
210
0.0
220
0.0
230
1.0
 40
0.7399421116938496
 41
6.189645008626344
 42
7.374015566864252
  0
ELLIPSE
  5
C9
330
1F
100
AcDbEntity
  8
VISIBLE
100
AcDbEllipse
 10
0.4378161247013201
 20
5.947060921476075
 30
0.0
 11
0.0
 21
0.1037177925275019
 31
0.0
210
0.0
220
0.0
230
-1.0
 40
0.2588190451025179
 41
0.7831462340822641
 42
2.148713695789984
  0
ARC
  5
CA
330
1F
100
AcDbEntity
  8
VISIBLE
100
AcDbCircle
 10
0.429309310447489
 20
5.947060921476075
 30
0.0
 40
0.1040910275315675
100
AcDbArc
 50
320.0860419895923
 51
0.0
  0
ARC
  5
CB
330
1F
100
AcDbEntity
  8
VISIBLE
100
AcDbCircle
 10
0.429309310447489
 20
5.947060921476075
 30
0.0
 40
0.1040910275315675
100
AcDbArc
 50
0.0
 51
9.916568474480153
  0
ELLIPSE
  5
CC
330
1F
100
AcDbEntity
  8
VISIBLE
100
AcDbEllipse
 10
0.4222515049832012
 20
5.947060921476075
 30
0.0
 11
0.0
 21
-0.1038342573987219
 31
0.0
210
0.0
220
0.0
230
1.0
 40
0.2588190451025197
 41
0.9725861804983277
 42
2.358542005388663
  0
ELLIPSE
  5
CD
330
1F
100
AcDbEntity
  8
VISIBLE
100
AcDbEllipse
 10
0.4310554275621259
 20
5.941399953882658
 30
0.0
 11
0.09911019853061021
 21
0.03057039473086664
 31
0.0
210
0.0
220
0.0
230
1.0
 40
0.7399421116938496
 41
1.246351840798831
 42
3.235132952143013
  0
ARC
  5
CE
330
1F
100
AcDbEntity
  8
VISIBLE
100
AcDbCircle
 10
0.429309310447489
 20
5.947060921476075
 30
0.0
 40
0.1040910275315675
100
AcDbArc
 50
204.3680343568163
 51
244.4198324839379
  0
ELLIPSE
  5
CF
330
1F
100
AcDbEntity
  8
VISIBLE
100
AcDbEllipse
 10
0.4378161247013201
 20
5.947060921476075
 30
0.0
 11
0.0
 21
0.1037177925275019
 31
0.0
210
0.0
220
0.0
230
-1.0
 40
0.2588190451025179
 41
0.0227541091035681
 42
0.6276246529681093
  0
ELLIPSE
  5
D0
330
1F
100
AcDbEntity
  8
VISIBLE
100
AcDbEllipse
 10
0.4310554275621268
 20
5.941399953882658
 30
0.0
 11
0.09911019853061021
 21
0.03057039473086664
 31
0.0
210
0.0
220
0.0
230
1.0
 40
0.7399421116938496
 41
6.189645008626344
 42
7.374015566864252
  0
ELLIPSE
  5
D1
330
1F
100
AcDbEntity
  8
VISIBLE
100
AcDbEllipse
 10
0.4222515049832012
 20
5.947060921476075
 30
0.0
 11
0.0
 21
-0.1038342573987219
 31
0.0
210
0.0
220
0.0
230
1.0
 40
0.2588190451025197
 41
0.9725861804983277
 42
2.358542005388663
  0
ELLIPSE
  5
D2
330
1F
100
AcDbEntity
  8
VISIBLE
100
AcDbEllipse
 10
0.4278606183113673
 20
5.951757627766092
 30
0.0
 11
-0.09922148952733424
 21
-0.03060472227485534
 31
0.0
210
0.0
220
0.0
230
-1.0
 40
0.7399421116938533
 41
0.0774845712277012
 42
1.89532002754959
  0
ELLIPSE
  5
D3
330
1F
100
AcDbEntity
  8
VISIBLE
100
AcDbEllipse
 10
0.4278606183113673
 20
5.951757627766091
 30
0.0
 11
-0.09922148952733424
 21
-0.03060472227485534
 31
0.0
210
0.0
220
0.0
230
-1.0
 40
0.7399421116938533
 41
2.050666808023987
 42
3.064108082362091
  0
ELLIPSE
  5
D4
330
1F
100
AcDbEntity
  8
VISIBLE
100
AcDbEllipse
 10
0.4378161247013201
 20
5.947060921476075
 30
0.0
 11
0.0
 21
0.1037177925275019
 31
0.0
210
0.0
220
0.0
230
-1.0
 40
0.2588190451025179
 41
0.7831462340822641
 42
2.148713695789984
  0
ELLIPSE
  5
D5
330
1F
100
AcDbEntity
  8
VISIBLE
100
AcDbEllipse
 10
0.4310554275621259
 20
5.941399953882658
 30
0.0
 11
0.09911019853061021
 21
0.03057039473086664
 31
0.0
210
0.0
220
0.0
230
1.0
 40
0.7399421116938496
 41
1.246351840798831
 42
3.235132952143013
  0
ELLIPSE
  5
D6
330
1F
100
AcDbEntity
  8
VISIBLE
100
AcDbEllipse
 10
0.4222515049832012
 20
5.947060921476075
 30
0.0
 11
0.0
 21
-0.1038342573987219
 31
0.0
210
0.0
220
0.0
230
1.0
 40
0.2588190451025197
 41
2.513888785863067
 42
3.160449255568424
  0
ARC
  5
D7
330
1F
100
AcDbEntity
  8
VISIBLE
100
AcDbCircle
 10
0.429309310447489
 20
5.947060921476075
 30
0.0
 40
0.1040910275315675
100
AcDbArc
 50
191.1523372543648
 51
193.9381087689798
  0
ARC
  5
D8
330
1F
100
AcDbEntity
  8
VISIBLE
100
AcDbCircle
 10
0.429309310447489
 20
5.947060921476075
 30
0.0
 40
0.1040910275315675
100
AcDbArc
 50
193.9381087689798
 51
194.795044973653
  0
ARC
  5
D9
330
1F
100
AcDbEntity
  8
VISIBLE
100
AcDbCircle
 10
0.429309310447489
 20
5.947060921476075
 30
0.0
 40
0.1040910275315675
100
AcDbArc
 50
194.795044973653
 51
195.1441556959415
  0
ARC
  5
DA
330
1F
100
AcDbEntity
  8
VISIBLE
100
AcDbCircle
 10
0.429309310447489
 20
5.947060921476075
 30
0.0
 40
0.1040910275315675
100
AcDbArc
 50
195.1441556959415
 51
204.3680343568163
  0
ARC
  5
DB
330
1F
100
AcDbEntity
  8
VISIBLE
100
AcDbCircle
 10
0.429309310447489
 20
5.947060921476075
 30
0.0
 40
0.1040910275315675
100
AcDbArc
 50
84.97488913569202
 51
91.80649543595337
  0
ARC
  5
DC
330
1F
100
AcDbEntity
  8
VISIBLE
100
AcDbCircle
 10
0.429309310447489
 20
5.947060921476075
 30
0.0
 40
0.1040910275315675
100
AcDbArc
 50
91.80649543595337
 51
92.59930009841509
  0
ARC
  5
DD
330
1F
100
AcDbEntity
  8
VISIBLE
100
AcDbCircle
 10
0.429309310447489
 20
5.947060921476075
 30
0.0
 40
0.1040910275315675
100
AcDbArc
 50
92.59930009841509
 51
94.16748914235926
  0
ARC
  5
DE
330
1F
100
AcDbEntity
  8
VISIBLE
100
AcDbCircle
 10
0.429309310447489
 20
5.947060921476075
 30
0.0
 40
0.1040910275315675
100
AcDbArc
 50
9.916568474480153
 51
23.13226557693215
  0
ELLIPSE
  5
DF
330
1F
100
AcDbEntity
  8
VISIBLE
100
AcDbEllipse
 10
0.4278606183113673
 20
5.951757627766092
 30
0.0
 11
-0.09922148952733424
 21
-0.03060472227485534
 31
0.0
210
0.0
220
0.0
230
-1.0
 40
0.7399421116938533
 41
0.0774845712277012
 42
1.89532002754959
  0
ELLIPSE
  5
E0
330
1F
100
AcDbEntity
  8
VISIBLE
100
AcDbEllipse
 10
0.4222515049832012
 20
5.947060921476075
 30
0.0
 11
0.0
 21
-0.1038342573987219
 31
0.0
210
0.0
220
0.0
230
1.0
 40
0.2588190451025197
 41
2.513888785863067
 42
3.160449255568424
  0
ARC
  5
E1
330
1F
100
AcDbEntity
  8
VISIBLE
100
AcDbCircle
 10
0.429309310447489
 20
5.947060921476075
 30
0.0
 40
0.1040910275315675
100
AcDbArc
 50
94.16748914235926
 51
94.88946023582095
  0
ARC
  5
E2
330
1F
100
AcDbEntity
  8
VISIBLE
100
AcDbCircle
 10
0.429309310447489
 20
5.947060921476075
 30
0.0
 40
0.1040910275315675
100
AcDbArc
 50
94.88946023582095
 51
170.6372748479833
  0
ARC
  5
E3
330
1F
100
AcDbEntity
  8
VISIBLE
100
AcDbCircle
 10
0.429309310447489
 20
5.947060921476075
 30
0.0
 40
0.1040910275315675
100
AcDbArc
 50
170.6372748479833
 51
171.7629440671301
  0
ARC
  5
E4
330
1F
100
AcDbEntity
  8
VISIBLE
100
AcDbCircle
 10
0.429309310447489
 20
5.947060921476075
 30
0.0
 40
0.1040910275315675
100
AcDbArc
 50
171.7629440671301
 51
172.2600246776899
  0
ARC
  5
E5
330
1F
100
AcDbEntity
  8
VISIBLE
100
AcDbCircle
 10
0.429309310447489
 20
5.947060921476075
 30
0.0
 40
0.1040910275315675
100
AcDbArc
 50
172.2600246776899
 51
178.6517229868608
  0
ARC
  5
E6
330
1F
100
AcDbEntity
  8
VISIBLE
100
AcDbCircle
 10
0.429309310447489
 20
5.947060921476075
 30
0.0
 40
0.1040910275315675
100
AcDbArc
 50
178.6517229868608
 51
191.1523372543648
  0
ELLIPSE
  5
E7
330
1F
100
AcDbEntity
  8
VISIBLE
100
AcDbEllipse
 10
0.4727111118294962
 20
5.786384081574051
 30
0.0
 11
0.0
 21
0.1037177925275019
 31
0.0
210
0.0
220
0.0
230
-1.0
 40
0.2588190451025179
 41
0.0227541091035681
 42
0.9766905033669506
  0
ELLIPSE
  5
E8
330
1F
100
AcDbEntity
  8
VISIBLE
100
AcDbEllipse
 10
0.4632587309384189
 20
5.792711936840664
 30
0.0
 11
-0.1026940543144663
 21
-0.01534549503930727
 31
0.0
210
0.0
220
0.0
230
-1.0
 40
0.4829629131445319
 41
1.955774438767202
 42
3.102770275729362
  0
ARC
  5
E9
330
1F
100
AcDbEntity
  8
VISIBLE
100
AcDbCircle
 10
0.4642042975756651
 20
5.786384081574051
 30
0.0
 40
0.1040910275315675
100
AcDbArc
 50
13.09685001399047
 51
64.41983248393794
  0
ARC
  5
EA
330
1F
100
AcDbEntity
  8
VISIBLE
100
AcDbCircle
 10
0.4642042975756651
 20
5.786384081574051
 30
0.0
 40
0.1040910275315675
100
AcDbArc
 50
64.41983248393794
 51
82.89485125739067
  0
ARC
  5
EB
330
1F
100
AcDbEntity
  8
VISIBLE
100
AcDbCircle
 10
0.4642042975756651
 20
5.786384081574051
 30
0.0
 40
0.1040910275315675
100
AcDbArc
 50
82.89485125739067
 51
84.97488913569202
  0
ELLIPSE
  5
EC
330
1F
100
AcDbEntity
  8
VISIBLE
100
AcDbEllipse
 10
0.4653439945804028
 20
5.778757080567775
 30
0.0
 11
0.1025788683429925
 21
0.01532828288651356
 31
0.0
210
0.0
220
0.0
230
1.0
 40
0.4829629131445325
 41
6.236334552924248
 42
7.468907936121042
  0
ELLIPSE
  5
ED
330
1F
100
AcDbEntity
  8
VISIBLE
100
AcDbEllipse
 10
0.4727111118294962
 20
5.786384081574051
 30
0.0
 11
0.0
 21
0.1037177925275019
 31
0.0
210
0.0
220
0.0
230
-1.0
 40
0.2588190451025179
 41
1.132212084481133
 42
2.683495883972412
  0
ARC
  5
EE
330
1F
100
AcDbEntity
  8
VISIBLE
100
AcDbCircle
 10
0.4642042975756651
 20
5.786384081574051
 30
0.0
 40
0.1040910275315675
100
AcDbArc
 50
293.400187321379
 51
0.0
  0
ARC
  5
EF
330
1F
100
AcDbEntity
  8
VISIBLE
100
AcDbCircle
 10
0.4642042975756651
 20
5.786384081574051
 30
0.0
 40
0.1040910275315675
100
AcDbArc
 50
0.0
 51
2.953996941367963
  0
ELLIPSE
  5
F0
330
1F
100
AcDbEntity
  8
VISIBLE
100
AcDbEllipse
 10
0.4571464921113773
 20
5.786384081574051
 30
0.0
 11
0.0
 21
-0.1038342573987219
 31
0.0
210
0.0
220
0.0
230
1.0
 40
0.2588190451025197
 41
0.4391624853543121
 42
2.009476154989811
  0
ELLIPSE
  5
F1
330
1F
100
AcDbEntity
  8
VISIBLE
100
AcDbEllipse
 10
0.4653439945804028
 20
5.778757080567775
 30
0.0
 11
0.1025788683429925
 21
0.01532828288651356
 31
0.0
210
0.0
220
0.0
230
1.0
 40
0.4829629131445325
 41
1.341244210055614
 42
3.188443407845141
  0
ARC
  5
F2
330
1F
100
AcDbEntity
  8
VISIBLE
100
AcDbCircle
 10
0.4642042975756651
 20
5.786384081574051
 30
0.0
 40
0.1040910275315675
100
AcDbArc
 50
194.0435644655877
 51
257.3628533903908
  0
ELLIPSE
  5
F3
330
1F
100
AcDbEntity
  8
VISIBLE
100
AcDbEllipse
 10
0.4275631933328512
 20
5.016098910930085
 30
0.0
 11
0.09911019853061021
 21
-0.03057039473086664
 31
0.0
210
0.0
220
0.0
230
-1.0
 40
0.7399421116938496
 41
0.0935402985532163
 42
1.090830259684676
  0
ELLIPSE
  5
F4
330
1F
100
AcDbEntity
  8
VISIBLE
100
AcDbEllipse
 10
0.4378161247013201
 20
5.021759878523502
 30
0.0
 11
0.0
 21
0.1037177925275019
 31
0.0
210
0.0
220
0.0
230
-1.0
 40
0.2588190451025179
 41
2.528475486076585
 42
3.118838544486225
  0
ARC
  5
F5
330
1F
100
AcDbEntity
  8
VISIBLE
100
AcDbCircle
 10
0.429309310447489
 20
5.021759878523502
 30
0.0
 40
0.1040910275315675
100
AcDbArc
 50
275.025110864308
 51
297.6169875168584
  0
ARC
  5
F6
330
1F
100
AcDbEntity
  8
VISIBLE
100
AcDbCircle
 10
0.429309310447489
 20
5.021759878523502
 30
0.0
 40
0.1040910275315675
100
AcDbArc
 50
297.6169875168584
 51
300.6027240674359
  0
ARC
  5
F7
330
1F
100
AcDbEntity
  8
VISIBLE
100
AcDbCircle
 10
0.429309310447489
 20
5.021759878523502
 30
0.0
 40
0.1040910275315675
100
AcDbArc
 50
300.6027240674359
 51
302.3450579453736
  0
ARC
  5
F8
330
1F
100
AcDbEntity
  8
VISIBLE
100
AcDbCircle
 10
0.429309310447489
 20
5.021759878523502
 30
0.0
 40
0.1040910275315675
100
AcDbArc
 50
302.3450579453736
 51
335.6319656431831
  0
ELLIPSE
  5
F9
330
1F
100
AcDbEntity
  8
VISIBLE
100
AcDbEllipse
 10
0.2732290478107169
 20
4.919897657447824
 30
0.0
 11
-0.08452583150291337
 21
-0.06010627500951139
 31
0.0
210
0.0
220
0.0
230
-1.0
 40
0.9076733711903672
 41
0.1846953464810833
 42
2.164845219217116
  0
ELLIPSE
  5
FA
330
1F
100
AcDbEntity
  8
VISIBLE
100
AcDbEllipse
 10
0.268313172076998
 20
4.916885519506013
 30
0.0
 11
0.0
 21
-0.1038342573987219
 31
0.0
210
0.0
220
0.0
230
1.0
 40
0.2588190451025197
 41
2.877445750594314
 42
3.160449255568456
  0
ARC
  5
FB
330
1F
100
AcDbEntity
  8
VISIBLE
100
AcDbCircle
 10
0.2753709775412849
 20
4.916885519506013
 30
0.0
 40
0.1040910275315675
100
AcDbArc
 50
94.16748914235878
 51
96.43467645735564
  0
ARC
  5
FC
330
1F
100
AcDbEntity
  8
VISIBLE
100
AcDbCircle
 10
0.2753709775412849
 20
4.916885519506013
 30
0.0
 40
0.1040910275315675
100
AcDbArc
 50
96.43467645735564
 51
105.1601181291631
  0
ARC
  5
FD
330
1F
100
AcDbEntity
  8
VISIBLE
100
AcDbCircle
 10
0.2753709775412849
 20
4.916885519506013
 30
0.0
 40
0.1040910275315675
100
AcDbArc
 50
105.1601181291631
 51
111.2622414627985
  0
ARC
  5
FE
330
1F
100
AcDbEntity
  8
VISIBLE
100
AcDbCircle
 10
0.2753709775412849
 20
4.916885519506013
 30
0.0
 40
0.1040910275315675
100
AcDbArc
 50
111.2622414627985
 51
165.0113362872629
  0
ARC
  5
FF
330
1F
100
AcDbEntity
  8
VISIBLE
100
AcDbCircle
 10
0.2753709775412849
 20
4.916885519506013
 30
0.0
 40
0.1040910275315675
100
AcDbArc
 50
165.0113362872629
 51
170.6372748479837
  0
ARC
  5
100
330
1F
100
AcDbEntity
  8
VISIBLE
100
AcDbCircle
 10
0.2753709775412849
 20
4.916885519506013
 30
0.0
 40
0.1040910275315675
100
AcDbArc
 50
170.6372748479837
 51
203.7859699021162
  0
ELLIPSE
  5
101
330
1F
100
AcDbEntity
  8
VISIBLE
100
AcDbEllipse
 10
0.1752232584464175
 20
5.37234026947344
 30
0.0
 11
0.1037262973848798
 21
0.004733734294125824
 31
0.0
210
0.0
220
0.0
230
1.0
 40
0.1677312594965226
 41
6.271212213398978
 42
7.503410646163177
  0
ELLIPSE
  5
102
330
1F
100
AcDbEntity
  8
VISIBLE
100
AcDbEllipse
 10
0.1834016808534082
 20
5.379536040982299
 30
0.0
 11
0.0
 21
0.1037177925275019
 31
0.0
210
0.0
220
0.0
230
-1.0
 40
0.2588190451025222
 41
0.0227541091035677
 42
1.311248868310936
  0
ELLIPSE
  5
103
330
1F
100
AcDbEntity
  8
VISIBLE
100
AcDbEllipse
 10
0.1744990539836464
 20
5.388209146517528
 30
0.0
 11
-0.1036099536061537
 21
-0.004728424738601689
 31
0.0
210
0.0
220
0.0
230
-1.0
 40
0.1677312594965196
 41
0.0144476023328421
 42
1.765941319373173
  0
ELLIPSE
  5
104
330
1F
100
AcDbEntity
  8
VISIBLE
100
AcDbEllipse
 10
0.1678370611352893
 20
5.379536040982299
 30
0.0
 11
0.0
 21
-0.1038342573987219
 31
0.0
210
0.0
220
0.0
230
1.0
 40
0.2588190451025197
 41
0.4391624853543269
 42
1.674901418923326
  0
ELLIPSE
  5
105
330
1F
100
AcDbEntity
  8
VISIBLE
100
AcDbEllipse
 10
0.1834016808534082
 20
5.379536040982299
 30
0.0
 11
0.0
 21
0.1037177925275019
 31
0.0
210
0.0
220
0.0
230
-1.0
 40
0.2588190451025222
 41
1.466770449425097
 42
2.68349588397234
  0
ELLIPSE
  5
106
330
1F
100
AcDbEntity
  8
VISIBLE
100
AcDbEllipse
 10
0.1744990539836464
 20
5.388209146517528
 30
0.0
 11
-0.1036099536061537
 21
-0.004728424738601689
 31
0.0
210
0.0
220
0.0
230
-1.0
 40
0.1677312594965196
 41
1.921462900487338
 42
3.127145051256942
  0
ELLIPSE
  5
107
330
1F
100
AcDbEntity
  8
VISIBLE
100
AcDbEllipse
 10
0.1678370611352893
 20
5.379536040982299
 30
0.0
 11
0.0
 21
-0.1038342573987219
 31
0.0
210
0.0
220
0.0
230
1.0
 40
0.2588190451025197
 41
1.830248199397717
 42
3.160449255568439
  0
ELLIPSE
  5
108
330
1F
100
AcDbEntity
  8
VISIBLE
100
AcDbEllipse
 10
0.1752232584464175
 20
5.37234026947344
 30
0.0
 11
0.1037262973848798
 21
0.004733734294125824
 31
0.0
210
0.0
220
0.0
230
1.0
 40
0.1677312594965226
 41
1.375572119457995
 42
3.153565747370354
  0
ARC
  5
109
330
1F
100
AcDbEntity
  8
VISIBLE
100
AcDbCircle
 10
0.1748948665995766
 20
5.379536040982299
 30
0.0
 40
0.1040910275315675
100
AcDbArc
 50
358.5297911442893
 51
0.0
  0
ARC
  5
10A
330
1F
100
AcDbEntity
  8
VISIBLE
100
AcDbCircle
 10
0.1748948665995766
 20
5.379536040982299
 30
0.0
 40
0.1040910275315675
100
AcDbArc
 50
177.6895962460934
 51
186.6961726604735
  0
ARC
  5
10B
330
1F
100
AcDbEntity
  8
VISIBLE
100
AcDbCircle
 10
0.1748948665995766
 20
5.379536040982299
 30
0.0
 40
0.1040910275315675
100
AcDbArc
 50
84.97488913569178
 51
94.16748914235902
  0
ARC
  5
10C
330
1F
100
AcDbEntity
  8
VISIBLE
100
AcDbCircle
 10
0.1748948665995766
 20
5.379536040982299
 30
0.0
 40
0.1040910275315675
100
AcDbArc
 50
0.0
 51
7.536367558669298
  0
ELLIPSE
  5
10D
330
1F
100
AcDbEntity
  8
VISIBLE
100
AcDbEllipse
 10
0.2269083964279499
 20
5.942364215186057
 30
0.0
 11
0.09922148952733424
 21
-0.03060472227485534
 31
0.0
210
0.0
220
0.0
230
-1.0
 40
0.739942111693845
 41
1.246272626040206
 42
3.064108082362081
  0
ELLIPSE
  5
10E
330
1F
100
AcDbEntity
  8
VISIBLE
100
AcDbEllipse
 10
0.2212992830997838
 20
5.947060921476075
 30
0.0
 11
0.0
 21
-0.1038342573987219
 31
0.0
210
0.0
220
0.0
230
1.0
 40
0.2588190451025197
 41
6.264328705200953
 42
6.910889174906312
  0
ARC
  5
10F
330
1F
100
AcDbEntity
  8
VISIBLE
100
AcDbCircle
 10
0.2283570885640716
 20
5.947060921476075
 30
0.0
 40
0.1040910275315675
100
AcDbArc
 50
168.8476627456357
 51
219.9139580104078
  0
ARC
  5
110
330
1F
100
AcDbEntity
  8
VISIBLE
100
AcDbCircle
 10
0.2283570885640716
 20
5.947060921476075
 30
0.0
 40
0.1040910275315675
100
AcDbArc
 50
219.9139580104078
 51
234.5923361170722
  0
ARC
  5
111
330
1F
100
AcDbEntity
  8
VISIBLE
100
AcDbCircle
 10
0.2283570885640716
 20
5.947060921476075
 30
0.0
 40
0.1040910275315675
100
AcDbArc
 50
234.5923361170722
 51
243.3231190530934
  0
ARC
  5
112
330
1F
100
AcDbEntity
  8
VISIBLE
100
AcDbCircle
 10
0.2283570885640716
 20
5.947060921476075
 30
0.0
 40
0.1040910275315675
100
AcDbArc
 50
243.3231190530934
 51
259.0651169651648
  0
ARC
  5
113
330
1F
100
AcDbEntity
  8
VISIBLE
100
AcDbCircle
 10
0.2283570885640716
 20
5.947060921476075
 30
0.0
 40
0.1040910275315675
100
AcDbArc
 50
259.0651169651648
 51
265.8325108576412
  0
ELLIPSE
  5
114
330
1F
100
AcDbEntity
  8
VISIBLE
100
AcDbEllipse
 10
0.4651498642129113
 20
5.18876457369214
 30
0.0
 11
-0.1026940543144663
 21
0.01534549503930727
 31
0.0
210
0.0
220
0.0
230
1.0
 40
0.4829629131445319
 41
6.244362929319156
 42
8.083612965472401
  0
ELLIPSE
  5
115
330
1F
100
AcDbEntity
  8
VISIBLE
100
AcDbEllipse
 10
0.4571464921113773
 20
5.182436718425526
 30
0.0
 11
0.0
 21
-0.1038342573987219
 31
0.0
210
0.0
220
0.0
230
1.0
 40
0.2588190451025197
 41
1.117625384267611
 42
2.702430168235485
  0
ARC
  5
116
330
1F
100
AcDbEntity
  8
VISIBLE
100
AcDbCircle
 10
0.4642042975756651
 20
5.182436718425526
 30
0.0
 40
0.1040910275315675
100
AcDbArc
 50
102.6371466096096
 51
166.9031499860091
  0
ELLIPSE
  5
117
330
1F
100
AcDbEntity
  8
VISIBLE
100
AcDbEllipse
 10
0.2771480615242474
 20
4.914386454287171
 30
0.0
 11
0.0846207456911241
 21
0.06017376843959621
 31
0.0
210
0.0
220
0.0
230
1.0
 40
0.9076733711903685
 41
0.499158046359428
 42
0.8213214391396578
  0
ELLIPSE
  5
118
330
1F
100
AcDbEntity
  8
VISIBLE
100
AcDbEllipse
 10
0.283877791795117
 20
4.916885519506013
 30
0.0
 11
0.0
 21
0.1037177925275019
 31
0.0
210
0.0
220
0.0
230
-1.0
 40
0.2588190451025179
 41
0.419572898228509
 42
0.8480530662495481
  0
ELLIPSE
  5
119
330
1F
100
AcDbEntity
  8
VISIBLE
100
AcDbEllipse
 10
0.1744990539836464
 20
5.388209146517528
 30
0.0
 11
-0.1036099536061537
 21
-0.004728424738601689
 31
0.0
210
0.0
220
0.0
230
-1.0
 40
0.1677312594965196
 41
1.921462900487338
 42
3.127145051256942
  0
ELLIPSE
  5
11A
330
1F
100
AcDbEntity
  8
VISIBLE
100
AcDbEllipse
 10
0.1834016808534082
 20
5.379536040982299
 30
0.0
 11
0.0
 21
0.1037177925275019
 31
0.0
210
0.0
220
0.0
230
-1.0
 40
0.2588190451025222
 41
0.0227541091035677
 42
1.311248868310936
  0
ARC
  5
11B
330
1F
100
AcDbEntity
  8
VISIBLE
100
AcDbCircle
 10
0.1748948665995766
 20
5.379536040982299
 30
0.0
 40
0.1040910275315675
100
AcDbArc
 50
7.536367558669298
 51
84.97488913569178
  0
ELLIPSE
  5
11C
330
1F
100
AcDbEntity
  8
VISIBLE
100
AcDbEllipse
 10
0.2301032056787093
 20
5.952721889069492
 30
0.0
 11
-0.09911019853061021
 21
0.03057039473086576
 31
0.0
210
0.0
220
0.0
230
1.0
 40
0.7399421116938515
 41
6.189645008626368
 42
8.178426119970524
  0
ELLIPSE
  5
11D
330
1F
100
AcDbEntity
  8
VISIBLE
100
AcDbEllipse
 10
0.2212992830997838
 20
5.947060921476075
 30
0.0
 11
0.0
 21
-0.1038342573987219
 31
0.0
210
0.0
220
0.0
230
1.0
 40
0.2588190451025197
 41
0.7830506482011299
 42
1.613240422573598
  0
ARC
  5
11E
330
1F
100
AcDbEntity
  8
VISIBLE
100
AcDbCircle
 10
0.2283570885640716
 20
5.947060921476075
 30
0.0
 40
0.1040910275315675
100
AcDbArc
 50
122.3450579453735
 51
155.6319656431836
  0
ELLIPSE
  5
11F
330
1F
100
AcDbEntity
  8
VISIBLE
100
AcDbEllipse
 10
0.4378161247013201
 20
5.021759878523502
 30
0.0
 11
0.0
 21
0.1037177925275019
 31
0.0
210
0.0
220
0.0
230
-1.0
 40
0.2588190451025179
 41
0.9928789577998022
 42
2.372953904962421
  0
ELLIPSE
  5
120
330
1F
100
AcDbEntity
  8
VISIBLE
100
AcDbEllipse
 10
0.4307580025836106
 20
5.02645658481352
 30
0.0
 11
-0.09922148952733424
 21
0.03060472227485534
 31
0.0
210
0.0
220
0.0
230
1.0
 40
0.7399421116938533
 41
2.050666808023978
 42
3.219077224817505
  0
ARC
  5
121
330
1F
100
AcDbEntity
  8
VISIBLE
100
AcDbCircle
 10
0.429309310447489
 20
5.021759878523502
 30
0.0
 40
0.1040910275315675
100
AcDbArc
 50
348.8476627456357
 51
0.0
  0
ARC
  5
122
330
1F
100
AcDbEntity
  8
VISIBLE
100
AcDbCircle
 10
0.429309310447489
 20
5.021759878523502
 30
0.0
 40
0.1040910275315675
100
AcDbArc
 50
0.0
 51
39.91395801040767
  0
ELLIPSE
  5
123
330
1F
100
AcDbEntity
  8
VISIBLE
100
AcDbEllipse
 10
0.2732290478107169
 20
4.919897657447824
 30
0.0
 11
-0.08452583150291337
 21
-0.06010627500951139
 31
0.0
210
0.0
220
0.0
230
-1.0
 40
0.9076733711903672
 41
2.320366800331263
 42
2.699194047413806
  0
ELLIPSE
  5
124
330
1F
100
AcDbEntity
  8
VISIBLE
100
AcDbEllipse
 10
0.283877791795117
 20
4.916885519506013
 30
0.0
 11
0.0
 21
0.1037177925275019
 31
0.0
210
0.0
220
0.0
230
-1.0
 40
0.2588190451025179
 41
0.0227541091035681
 42
0.2640513171143529
  0
ARC
  5
125
330
1F
100
AcDbEntity
  8
VISIBLE
100
AcDbCircle
 10
0.2753709775412849
 20
4.916885519506013
 30
0.0
 40
0.1040910275315675
100
AcDbArc
 50
60.79128769861394
 51
64.10297027526606
  0
ARC
  5
126
330
1F
100
AcDbEntity
  8
VISIBLE
100
AcDbCircle
 10
0.2753709775412849
 20
4.916885519506013
 30
0.0
 40
0.1040910275315675
100
AcDbArc
 50
64.10297027526606
 51
84.97488913569153
  0
ELLIPSE
  5
127
330
1F
100
AcDbEntity
  8
VISIBLE
100
AcDbEllipse
 10
0.1744990539836464
 20
5.388209146517528
 30
0.0
 11
-0.1036099536061537
 21
-0.004728424738601689
 31
0.0
210
0.0
220
0.0
230
-1.0
 40
0.1677312594965196
 41
0.0144476023328421
 42
1.765941319373173
  0
ELLIPSE
  5
128
330
1F
100
AcDbEntity
  8
VISIBLE
100
AcDbEllipse
 10
0.1678370611352893
 20
5.379536040982299
 30
0.0
 11
0.0
 21
-0.1038342573987219
 31
0.0
210
0.0
220
0.0
230
1.0
 40
0.2588190451025197
 41
1.830248199397717
 42
3.160449255568439
  0
ARC
  5
129
330
1F
100
AcDbEntity
  8
VISIBLE
100
AcDbCircle
 10
0.1748948665995766
 20
5.379536040982299
 30
0.0
 40
0.1040910275315675
100
AcDbArc
 50
94.16748914235902
 51
177.6895962460934
  0
ELLIPSE
  5
12A
330
1F
100
AcDbEntity
  8
VISIBLE
100
AcDbEllipse
 10
0.2269083964279499
 20
5.942364215186057
 30
0.0
 11
0.09922148952733424
 21
-0.03060472227485534
 31
0.0
210
0.0
220
0.0
230
-1.0
 40
0.739942111693845
 41
0.0774845712277141
 42
1.090925845565819
  0
ELLIPSE
  5
12B
330
1F
100
AcDbEntity
  8
VISIBLE
100
AcDbEllipse
 10
0.2368639028179027
 20
5.947060921476075
 30
0.0
 11
0.0
 21
0.1037177925275019
 31
0.0
210
0.0
220
0.0
230
-1.0
 40
0.2588190451025179
 41
1.556920958174892
 42
2.358446419507523
  0
ELLIPSE
  5
12C
330
1F
100
AcDbEntity
  8
VISIBLE
100
AcDbEllipse
 10
0.2301032056787093
 20
5.952721889069492
 30
0.0
 11
-0.09911019853061021
 21
0.03057039473086576
 31
0.0
210
0.0
220
0.0
230
1.0
 40
0.7399421116938515
 41
6.189645008626368
 42
8.178426119970524
  0
ELLIPSE
  5
12D
330
1F
100
AcDbEntity
  8
VISIBLE
100
AcDbEllipse
 10
0.2212992830997838
 20
5.947060921476075
 30
0.0
 11
0.0
 21
-0.1038342573987219
 31
0.0
210
0.0
220
0.0
230
1.0
 40
0.2588190451025197
 41
6.264328705200953
 42
6.910889174906312
  0
ELLIPSE
  5
12E
330
1F
100
AcDbEntity
  8
VISIBLE
100
AcDbEllipse
 10
0.2368639028179027
 20
5.947060921476075
 30
0.0
 11
0.0
 21
0.1037177925275019
 31
0.0
210
0.0
220
0.0
230
-1.0
 40
0.2588190451025179
 41
2.513968000621688
 42
3.118838544486225
  0
ELLIPSE
  5
12F
330
1F
100
AcDbEntity
  8
VISIBLE
100
AcDbEllipse
 10
0.2301032056787093
 20
5.952721889069492
 30
0.0
 11
-0.09911019853061021
 21
0.03057039473086576
 31
0.0
210
0.0
220
0.0
230
1.0
 40
0.7399421116938515
 41
2.050762393905111
 42
3.118689169715616
  0
ELLIPSE
  5
130
330
1F
100
AcDbEntity
  8
VISIBLE
100
AcDbEllipse
 10
0.2212992830997838
 20
5.947060921476075
 30
0.0
 11
0.0
 21
-0.1038342573987219
 31
0.0
210
0.0
220
0.0
230
1.0
 40
0.2588190451025197
 41
0.7830506482011299
 42
1.613240422573598
  0
ELLIPSE
  5
131
330
1F
100
AcDbEntity
  8
VISIBLE
100
AcDbEllipse
 10
0.2269083964279499
 20
5.942364215186057
 30
0.0
 11
0.09922148952733424
 21
-0.03060472227485534
 31
0.0
210
0.0
220
0.0
230
-1.0
 40
0.739942111693845
 41
1.246272626040206
 42
3.064108082362081
  0
ARC
  5
132
330
1F
100
AcDbEntity
  8
VISIBLE
100
AcDbCircle
 10
0.2283570885640716
 20
5.947060921476075
 30
0.0
 40
0.1040910275315675
100
AcDbArc
 50
336.8677344230678
 51
344.8558443040586
  0
ARC
  5
133
330
1F
100
AcDbEntity
  8
VISIBLE
100
AcDbCircle
 10
0.2283570885640716
 20
5.947060921476075
 30
0.0
 40
0.1040910275315675
100
AcDbArc
 50
265.8325108576412
 51
267.8508771095608
  0
ARC
  5
134
330
1F
100
AcDbEntity
  8
VISIBLE
100
AcDbCircle
 10
0.2283570885640716
 20
5.947060921476075
 30
0.0
 40
0.1040910275315675
100
AcDbArc
 50
267.8508771095608
 51
275.025110864308
  0
ARC
  5
135
330
1F
100
AcDbEntity
  8
VISIBLE
100
AcDbCircle
 10
0.2283570885640716
 20
5.947060921476075
 30
0.0
 40
0.1040910275315675
100
AcDbArc
 50
155.6319656431836
 51
168.8476627456357
  0
ELLIPSE
  5
136
330
1F
100
AcDbEntity
  8
VISIBLE
100
AcDbEllipse
 10
0.4912783466658155
 20
5.589284759017278
 30
0.0
 11
0.0
 21
0.1037177925275019
 31
0.0
210
0.0
220
0.0
230
-1.0
 40
0.2588190451025179
 41
1.481277934879991
 42
3.118838544486225
  0
ELLIPSE
  5
137
330
1F
100
AcDbEntity
  8
VISIBLE
100
AcDbEllipse
 10
0.4831673450279146
 20
5.580611653482049
 30
0.0
 11
0.1036099536061537
 21
0.004728424738601689
 31
0.0
210
0.0
220
0.0
230
1.0
 40
0.1677312594965196
 41
6.268737704846745
 42
7.503315060282032
  0
ARC
  5
138
330
1F
100
AcDbEntity
  8
VISIBLE
100
AcDbCircle
 10
0.4827715324119843
 20
5.589284759017278
 30
0.0
 40
0.1040910275315675
100
AcDbArc
 50
275.025110864308
 51
357.6895962460934
  0
ELLIPSE
  5
139
330
1F
100
AcDbEntity
  8
VISIBLE
100
AcDbEllipse
 10
0.4222515049832012
 20
5.021759878523502
 30
0.0
 11
0.0
 21
-0.1038342573987219
 31
0.0
210
0.0
220
0.0
230
1.0
 40
0.2588190451025197
 41
6.264328705200918
 42
6.896398060573929
  0
ELLIPSE
  5
13A
330
1F
100
AcDbEntity
  8
VISIBLE
100
AcDbEllipse
 10
0.4275631933328512
 20
5.016098910930085
 30
0.0
 11
0.09911019853061021
 21
-0.03057039473086664
 31
0.0
210
0.0
220
0.0
230
-1.0
 40
0.7399421116938496
 41
1.246351840798849
 42
3.048052355036576
  0
ARC
  5
13B
330
1F
100
AcDbEntity
  8
VISIBLE
100
AcDbCircle
 10
0.429309310447489
 20
5.021759878523502
 30
0.0
 40
0.1040910275315675
100
AcDbArc
 50
170.0834315255203
 51
180.1634201840659
  0
ARC
  5
13C
330
1F
100
AcDbEntity
  8
VISIBLE
100
AcDbCircle
 10
0.429309310447489
 20
5.021759878523502
 30
0.0
 40
0.1040910275315675
100
AcDbArc
 50
180.1634201840659
 51
187.7399753223101
  0
ARC
  5
13D
330
1F
100
AcDbEntity
  8
VISIBLE
100
AcDbCircle
 10
0.429309310447489
 20
5.021759878523502
 30
0.0
 40
0.1040910275315675
100
AcDbArc
 50
187.7399753223101
 51
188.1170768898529
  0
ARC
  5
13E
330
1F
100
AcDbEntity
  8
VISIBLE
100
AcDbCircle
 10
0.429309310447489
 20
5.021759878523502
 30
0.0
 40
0.1040910275315675
100
AcDbArc
 50
188.1170768898529
 51
189.0158739573653
  0
ARC
  5
13F
330
1F
100
AcDbEntity
  8
VISIBLE
100
AcDbCircle
 10
0.429309310447489
 20
5.021759878523502
 30
0.0
 40
0.1040910275315675
100
AcDbArc
 50
189.0158739573653
 51
189.3627251520167
  0
ARC
  5
140
330
1F
100
AcDbEntity
  8
VISIBLE
100
AcDbCircle
 10
0.429309310447489
 20
5.021759878523502
 30
0.0
 40
0.1040910275315675
100
AcDbArc
 50
189.3627251520167
 51
189.6500402890826
  0
ARC
  5
141
330
1F
100
AcDbEntity
  8
VISIBLE
100
AcDbCircle
 10
0.429309310447489
 20
5.021759878523502
 30
0.0
 40
0.1040910275315675
100
AcDbArc
 50
189.6500402890826
 51
249.0509072118612
  0
ARC
  5
142
330
1F
100
AcDbEntity
  8
VISIBLE
100
AcDbCircle
 10
0.429309310447489
 20
5.021759878523502
 30
0.0
 40
0.1040910275315675
100
AcDbArc
 50
249.0509072118612
 51
254.8398818708375
  0
ARC
  5
143
330
1F
100
AcDbEntity
  8
VISIBLE
100
AcDbCircle
 10
0.429309310447489
 20
5.021759878523502
 30
0.0
 40
0.1040910275315675
100
AcDbArc
 50
254.8398818708375
 51
263.5653235426454
  0
ARC
  5
144
330
1F
100
AcDbEntity
  8
VISIBLE
100
AcDbCircle
 10
0.429309310447489
 20
5.021759878523502
 30
0.0
 40
0.1040910275315675
100
AcDbArc
 50
263.5653235426454
 51
264.8196773999702
  0
ARC
  5
145
330
1F
100
AcDbEntity
  8
VISIBLE
100
AcDbCircle
 10
0.429309310447489
 20
5.021759878523502
 30
0.0
 40
0.1040910275315675
100
AcDbArc
 50
264.8196773999702
 51
265.8325108576407
  0
ELLIPSE
  5
146
330
1F
100
AcDbEntity
  8
VISIBLE
100
AcDbEllipse
 10
0.2771480615242474
 20
4.914386454287171
 30
0.0
 11
0.0846207456911241
 21
0.06017376843959621
 31
0.0
210
0.0
220
0.0
230
1.0
 40
0.9076733711903685
 41
0.499158046359428
 42
0.8213214391396578
  0
ELLIPSE
  5
147
330
1F
100
AcDbEntity
  8
VISIBLE
100
AcDbEllipse
 10
0.283877791795117
 20
4.916885519506013
 30
0.0
 11
0.0
 21
0.1037177925275019
 31
0.0
210
0.0
220
0.0
230
-1.0
 40
0.2588190451025179
 41
0.0227541091035681
 42
0.2640513171143529
  0
ELLIPSE
  5
148
330
1F
100
AcDbEntity
  8
VISIBLE
100
AcDbEllipse
 10
0.2732290478107169
 20
4.919897657447824
 30
0.0
 11
-0.08452583150291337
 21
-0.06010627500951139
 31
0.0
210
0.0
220
0.0
230
-1.0
 40
0.9076733711903672
 41
0.1846953464810833
 42
2.164845219217116
  0
ELLIPSE
  5
149
330
1F
100
AcDbEntity
  8
VISIBLE
100
AcDbEllipse
 10
0.268313172076998
 20
4.916885519506013
 30
0.0
 11
0.0
 21
-0.1038342573987219
 31
0.0
210
0.0
220
0.0
230
1.0
 40
0.2588190451025197
 41
2.189570488439198
 42
2.722098970119919
  0
ELLIPSE
  5
14A
330
1F
100
AcDbEntity
  8
VISIBLE
100
AcDbEllipse
 10
0.283877791795117
 20
4.916885519506013
 30
0.0
 11
0.0
 21
0.1037177925275019
 31
0.0
210
0.0
220
0.0
230
-1.0
 40
0.2588190451025179
 41
0.419572898228509
 42
0.8480530662495481
  0
ELLIPSE
  5
14B
330
1F
100
AcDbEntity
  8
VISIBLE
100
AcDbEllipse
 10
0.2732290478107169
 20
4.919897657447824
 30
0.0
 11
-0.08452583150291337
 21
-0.06010627500951139
 31
0.0
210
0.0
220
0.0
230
-1.0
 40
0.9076733711903672
 41
2.320366800331263
 42
2.699194047413806
  0
ELLIPSE
  5
14C
330
1F
100
AcDbEntity
  8
VISIBLE
100
AcDbEllipse
 10
0.268313172076998
 20
4.916885519506013
 30
0.0
 11
0.0
 21
-0.1038342573987219
 31
0.0
210
0.0
220
0.0
230
1.0
 40
0.2588190451025197
 41
2.877445750594314
 42
3.160449255568456
  0
ELLIPSE
  5
14D
330
1F
100
AcDbEntity
  8
VISIBLE
100
AcDbEllipse
 10
0.2771480615242474
 20
4.914386454287171
 30
0.0
 11
0.0846207456911241
 21
0.06017376843959621
 31
0.0
210
0.0
220
0.0
230
1.0
 40
0.9076733711903685
 41
0.9766682196140591
 42
3.294381050479524
  0
ARC
  5
14E
330
1F
100
AcDbEntity
  8
VISIBLE
100
AcDbCircle
 10
0.2753709775412849
 20
4.916885519506013
 30
0.0
 40
0.1040910275315675
100
AcDbArc
 50
203.7859699021162
 51
225.0452728108071
  0
ARC
  5
14F
330
1F
100
AcDbEntity
  8
VISIBLE
100
AcDbCircle
 10
0.2753709775412849
 20
4.916885519506013
 30
0.0
 40
0.1040910275315675
100
AcDbArc
 50
84.97488913569153
 51
94.16748914235878
  0
ELLIPSE
  5
150
330
1F
100
AcDbEntity
  8
VISIBLE
100
AcDbEllipse
 10
0.1678370611352893
 20
5.379536040982299
 30
0.0
 11
0.0
 21
-0.1038342573987219
 31
0.0
210
0.0
220
0.0
230
1.0
 40
0.2588190451025197
 41
0.4391624853543269
 42
1.674901418923326
  0
ELLIPSE
  5
151
330
1F
100
AcDbEntity
  8
VISIBLE
100
AcDbEllipse
 10
0.1752232584464175
 20
5.37234026947344
 30
0.0
 11
0.1037262973848798
 21
0.004733734294125824
 31
0.0
210
0.0
220
0.0
230
1.0
 40
0.1677312594965226
 41
1.375572119457995
 42
3.153565747370354
  0
ARC
  5
152
330
1F
100
AcDbEntity
  8
VISIBLE
100
AcDbCircle
 10
0.1748948665995766
 20
5.379536040982299
 30
0.0
 40
0.1040910275315675
100
AcDbArc
 50
186.6961726604735
 51
257.3628533903911
  0
ELLIPSE
  5
153
330
1F
100
AcDbEntity
  8
VISIBLE
100
AcDbEllipse
 10
0.2735938935583224
 20
6.049436215274722
 30
0.0
 11
0.0846207456911241
 21
-0.06017376843959532
 31
0.0
210
0.0
220
0.0
230
-1.0
 40
0.9076733711903731
 41
0.4469885134948093
 42
0.8213214391396622
  0
ELLIPSE
  5
154
330
1F
100
AcDbEntity
  8
VISIBLE
100
AcDbEllipse
 10
0.2838777917951161
 20
6.051935280493564
 30
0.0
 11
0.0
 21
0.1037177925275019
 31
0.0
210
0.0
220
0.0
230
-1.0
 40
0.2588190451025179
 41
2.863033851020556
 42
3.118838544486225
  0
ARC
  5
155
330
1F
100
AcDbEntity
  8
VISIBLE
100
AcDbCircle
 10
0.2753709775412849
 20
6.051935280493564
 30
0.0
 40
0.1040910275315675
100
AcDbArc
 50
275.0251108643084
 51
296.3333016063738
  0
ARC
  5
156
330
1F
100
AcDbEntity
  8
VISIBLE
100
AcDbCircle
 10
0.2753709775412849
 20
6.051935280493564
 30
0.0
 40
0.1040910275315675
100
AcDbArc
 50
296.3333016063738
 51
299.2087123013861
  0
ELLIPSE
  5
157
330
1F
100
AcDbEntity
  8
VISIBLE
100
AcDbEllipse
 10
0.4757137269476965
 20
5.589284759017278
 30
0.0
 11
0.0
 21
-0.1038342573987219
 31
0.0
210
0.0
220
0.0
230
1.0
 40
0.2588190451025197
 41
6.264328705200918
 42
7.943595611770537
  0
ELLIPSE
  5
158
330
1F
100
AcDbEntity
  8
VISIBLE
100
AcDbEllipse
 10
0.4831673450279146
 20
5.580611653482049
 30
0.0
 11
0.1036099536061537
 21
0.004728424738601689
 31
0.0
210
0.0
220
0.0
230
1.0
 40
0.1677312594965196
 41
1.37565133421662
 42
3.15604025592264
  0
ARC
  5
159
330
1F
100
AcDbEntity
  8
VISIBLE
100
AcDbCircle
 10
0.4827715324119843
 20
5.589284759017278
 30
0.0
 40
0.1040910275315675
100
AcDbArc
 50
187.5363675586693
 51
265.8325108576407
  0
ELLIPSE
  5
15A
330
1F
100
AcDbEntity
  8
VISIBLE
100
AcDbEllipse
 10
0.4378161247013201
 20
5.021759878523502
 30
0.0
 11
0.0
 21
0.1037177925275019
 31
0.0
210
0.0
220
0.0
230
-1.0
 40
0.2588190451025179
 41
0.9928789577998022
 42
2.372953904962421
  0
ELLIPSE
  5
15B
330
1F
100
AcDbEntity
  8
VISIBLE
100
AcDbEllipse
 10
0.4275631933328512
 20
5.016098910930085
 30
0.0
 11
0.09911019853061021
 21
-0.03057039473086664
 31
0.0
210
0.0
220
0.0
230
-1.0
 40
0.7399421116938496
 41
0.0935402985532163
 42
1.090830259684676
  0
ELLIPSE
  5
15C
330
1F
100
AcDbEntity
  8
VISIBLE
100
AcDbEllipse
 10
0.4222515049832012
 20
5.021759878523502
 30
0.0
 11
0.0
 21
-0.1038342573987219
 31
0.0
210
0.0
220
0.0
230
1.0
 40
0.2588190451025197
 41
6.264328705200918
 42
6.896398060573929
  0
ELLIPSE
  5
15D
330
1F
100
AcDbEntity
  8
VISIBLE
100
AcDbEllipse
 10
0.4307580025836106
 20
5.02645658481352
 30
0.0
 11
-0.09922148952733424
 21
0.03060472227485534
 31
0.0
210
0.0
220
0.0
230
1.0
 40
0.7399421116938533
 41
6.205700735951873
 42
8.178505334729174
  0
ELLIPSE
  5
15E
330
1F
100
AcDbEntity
  8
VISIBLE
100
AcDbEllipse
 10
0.4307580025836106
 20
5.02645658481352
 30
0.0
 11
-0.09922148952733424
 21
0.03060472227485534
 31
0.0
210
0.0
220
0.0
230
1.0
 40
0.7399421116938533
 41
2.050666808023978
 42
3.219077224817505
  0
ELLIPSE
  5
15F
330
1F
100
AcDbEntity
  8
VISIBLE
100
AcDbEllipse
 10
0.4378161247013201
 20
5.021759878523502
 30
0.0
 11
0.0
 21
0.1037177925275019
 31
0.0
210
0.0
220
0.0
230
-1.0
 40
0.2588190451025179
 41
2.528475486076585
 42
3.118838544486225
  0
ELLIPSE
  5
160
330
1F
100
AcDbEntity
  8
VISIBLE
100
AcDbEllipse
 10
0.4275631933328512
 20
5.016098910930085
 30
0.0
 11
0.09911019853061021
 21
-0.03057039473086664
 31
0.0
210
0.0
220
0.0
230
-1.0
 40
0.7399421116938496
 41
1.246351840798849
 42
3.048052355036576
  0
ELLIPSE
  5
161
330
1F
100
AcDbEntity
  8
VISIBLE
100
AcDbEllipse
 10
0.4222515049832012
 20
5.021759878523502
 30
0.0
 11
0.0
 21
-0.1038342573987219
 31
0.0
210
0.0
220
0.0
230
1.0
 40
0.2588190451025197
 41
0.7685595338687246
 42
2.169006473091473
  0
ARC
  5
162
330
1F
100
AcDbEntity
  8
VISIBLE
100
AcDbCircle
 10
0.429309310447489
 20
5.021759878523502
 30
0.0
 40
0.1040910275315675
100
AcDbArc
 50
335.6319656431831
 51
348.8476627456357
  0
ARC
  5
163
330
1F
100
AcDbEntity
  8
VISIBLE
100
AcDbCircle
 10
0.429309310447489
 20
5.021759878523502
 30
0.0
 40
0.1040910275315675
100
AcDbArc
 50
265.8325108576407
 51
267.2505768205665
  0
ARC
  5
164
330
1F
100
AcDbEntity
  8
VISIBLE
100
AcDbCircle
 10
0.429309310447489
 20
5.021759878523502
 30
0.0
 40
0.1040910275315675
100
AcDbArc
 50
267.2505768205665
 51
268.1935045640466
  0
ARC
  5
165
330
1F
100
AcDbEntity
  8
VISIBLE
100
AcDbCircle
 10
0.429309310447489
 20
5.021759878523502
 30
0.0
 40
0.1040910275315675
100
AcDbArc
 50
268.1935045640466
 51
275.025110864308
  0
ARC
  5
166
330
1F
100
AcDbEntity
  8
VISIBLE
100
AcDbCircle
 10
0.429309310447489
 20
5.021759878523502
 30
0.0
 40
0.1040910275315675
100
AcDbArc
 50
156.8677344230678
 51
164.8558443040585
  0
ARC
  5
167
330
1F
100
AcDbEntity
  8
VISIBLE
100
AcDbCircle
 10
0.429309310447489
 20
5.021759878523502
 30
0.0
 40
0.1040910275315675
100
AcDbArc
 50
164.8558443040585
 51
165.0642662913437
  0
ARC
  5
168
330
1F
100
AcDbEntity
  8
VISIBLE
100
AcDbCircle
 10
0.429309310447489
 20
5.021759878523502
 30
0.0
 40
0.1040910275315675
100
AcDbArc
 50
165.0642662913437
 51
166.582614057888
  0
ARC
  5
169
330
1F
100
AcDbEntity
  8
VISIBLE
100
AcDbCircle
 10
0.429309310447489
 20
5.021759878523502
 30
0.0
 40
0.1040910275315675
100
AcDbArc
 50
166.582614057888
 51
170.0834315255203
  0
ELLIPSE
  5
16A
330
1F
100
AcDbEntity
  8
VISIBLE
100
AcDbEllipse
 10
0.268313172076998
 20
4.916885519506013
 30
0.0
 11
0.0
 21
-0.1038342573987219
 31
0.0
210
0.0
220
0.0
230
1.0
 40
0.2588190451025197
 41
2.189570488439198
 42
2.722098970119919
  0
ELLIPSE
  5
16B
330
1F
100
AcDbEntity
  8
VISIBLE
100
AcDbEllipse
 10
0.2771480615242474
 20
4.914386454287171
 30
0.0
 11
0.0846207456911241
 21
0.06017376843959621
 31
0.0
210
0.0
220
0.0
230
1.0
 40
0.9076733711903685
 41
0.9766682196140591
 42
3.294381050479524
  0
ARC
  5
16C
330
1F
100
AcDbEntity
  8
VISIBLE
100
AcDbCircle
 10
0.2753709775412849
 20
4.916885519506013
 30
0.0
 40
0.1040910275315675
100
AcDbArc
 50
225.0452728108071
 51
253.838081162482
  0
ELLIPSE
  5
16D
330
1F
100
AcDbEntity
  8
VISIBLE
100
AcDbEllipse
 10
0.1834016808534082
 20
5.589284759017278
 30
0.0
 11
0.0
 21
0.1037177925275019
 31
0.0
210
0.0
220
0.0
230
-1.0
 40
0.2588190451025222
 41
1.815836299823974
 42
3.118838544486225
  0
ELLIPSE
  5
16E
330
1F
100
AcDbEntity
  8
VISIBLE
100
AcDbEllipse
 10
0.1745664747527362
 20
5.582088987508418
 30
0.0
 11
0.1037262973848803
 21
-0.004733734294125824
 31
0.0
210
0.0
220
0.0
230
-1.0
 40
0.1677312594965218
 41
0.0119730937805154
 42
1.220225338983596
  0
ARC
  5
16F
330
1F
100
AcDbEntity
  8
VISIBLE
100
AcDbCircle
 10
0.1748948665995766
 20
5.589284759017278
 30
0.0
 40
0.1040910275315675
100
AcDbArc
 50
275.025110864308
 51
353.3038273395265
  0
ELLIPSE
  5
170
330
1F
100
AcDbEntity
  8
VISIBLE
100
AcDbEllipse
 10
0.2838777917951161
 20
6.051935280493564
 30
0.0
 11
0.0
 21
0.1037177925275019
 31
0.0
210
0.0
220
0.0
230
-1.0
 40
0.2588190451025179
 41
2.293539587340191
 42
2.707512269906415
  0
ELLIPSE
  5
171
330
1F
100
AcDbEntity
  8
VISIBLE
100
AcDbEllipse
 10
0.277512907271853
 20
6.054947418435374
 30
0.0
 11
-0.08452583150291382
 21
0.06010627500951138
 31
0.0
210
0.0
220
0.0
230
1.0
 40
0.9076733711903641
 41
2.320366800331251
 42
2.633955489442681
  0
ELLIPSE
  5
172
330
1F
100
AcDbEntity
  8
VISIBLE
100
AcDbEllipse
 10
0.4912783466658155
 20
5.589284759017278
 30
0.0
 11
0.0
 21
0.1037177925275019
 31
0.0
210
0.0
220
0.0
230
-1.0
 40
0.2588190451025179
 41
0.0227541091035681
 42
1.325756353765823
  0
ELLIPSE
  5
173
330
1F
100
AcDbEntity
  8
VISIBLE
100
AcDbEllipse
 10
0.4831673450279146
 20
5.580611653482049
 30
0.0
 11
0.1036099536061537
 21
0.004728424738601689
 31
0.0
210
0.0
220
0.0
230
1.0
 40
0.1677312594965196
 41
6.268737704846745
 42
7.503315060282032
  0
ELLIPSE
  5
174
330
1F
100
AcDbEntity
  8
VISIBLE
100
AcDbEllipse
 10
0.4757137269476965
 20
5.589284759017278
 30
0.0
 11
0.0
 21
-0.1038342573987219
 31
0.0
210
0.0
220
0.0
230
1.0
 40
0.2588190451025197
 41
6.264328705200918
 42
7.943595611770537
  0
ELLIPSE
  5
175
330
1F
100
AcDbEntity
  8
VISIBLE
100
AcDbEllipse
 10
0.4824431405651426
 20
5.596480530526136
 30
0.0
 11
-0.1037262973848803
 21
-0.004733734294125824
 31
0.0
210
0.0
220
0.0
230
-1.0
 40
0.1677312594965218
 41
0.0119730937806078
 42
1.766020534131793
  0
ELLIPSE
  5
176
330
1F
100
AcDbEntity
  8
VISIBLE
100
AcDbEllipse
 10
0.4824431405651426
 20
5.596480530526136
 30
0.0
 11
-0.1037262973848803
 21
-0.004733734294125824
 31
0.0
210
0.0
220
0.0
230
-1.0
 40
0.1677312594965218
 41
1.921367314606206
 42
3.129619559809228
  0
ELLIPSE
  5
177
330
1F
100
AcDbEntity
  8
VISIBLE
100
AcDbEllipse
 10
0.4912783466658155
 20
5.589284759017278
 30
0.0
 11
0.0
 21
0.1037177925275019
 31
0.0
210
0.0
220
0.0
230
-1.0
 40
0.2588190451025179
 41
1.481277934879991
 42
3.118838544486225
  0
ELLIPSE
  5
178
330
1F
100
AcDbEntity
  8
VISIBLE
100
AcDbEllipse
 10
0.4831673450279146
 20
5.580611653482049
 30
0.0
 11
0.1036099536061537
 21
0.004728424738601689
 31
0.0
210
0.0
220
0.0
230
1.0
 40
0.1677312594965196
 41
1.37565133421662
 42
3.15604025592264
  0
ELLIPSE
  5
179
330
1F
100
AcDbEntity
  8
VISIBLE
100
AcDbEllipse
 10
0.4757137269476965
 20
5.589284759017278
 30
0.0
 11
0.0
 21
-0.1038342573987219
 31
0.0
210
0.0
220
0.0
230
1.0
 40
0.2588190451025197
 41
1.815757085065337
 42
3.160449255568456
  0
ARC
  5
17A
330
1F
100
AcDbEntity
  8
VISIBLE
100
AcDbCircle
 10
0.4827715324119843
 20
5.589284759017278
 30
0.0
 40
0.1040910275315675
100
AcDbArc
 50
357.6895962460934
 51
0.0
  0
ARC
  5
17B
330
1F
100
AcDbEntity
  8
VISIBLE
100
AcDbCircle
 10
0.4827715324119843
 20
5.589284759017278
 30
0.0
 40
0.1040910275315675
100
AcDbArc
 50
265.8325108576407
 51
275.025110864308
  0
ARC
  5
17C
330
1F
100
AcDbEntity
  8
VISIBLE
100
AcDbCircle
 10
0.4827715324119843
 20
5.589284759017278
 30
0.0
 40
0.1040910275315675
100
AcDbArc
 50
178.5297911442894
 51
187.5363675586693
  0
ARC
  5
17D
330
1F
100
AcDbEntity
  8
VISIBLE
100
AcDbCircle
 10
0.4827715324119843
 20
5.589284759017278
 30
0.0
 40
0.1040910275315675
100
AcDbArc
 50
84.97488913569202
 51
89.00300351813442
  0
ARC
  5
17E
330
1F
100
AcDbEntity
  8
VISIBLE
100
AcDbCircle
 10
0.4827715324119843
 20
5.589284759017278
 30
0.0
 40
0.1040910275315675
100
AcDbArc
 50
89.00300351813442
 51
94.16748914235926
  0
ARC
  5
17F
330
1F
100
AcDbEntity
  8
VISIBLE
100
AcDbCircle
 10
0.4827715324119843
 20
5.589284759017278
 30
0.0
 40
0.1040910275315675
100
AcDbArc
 50
0.0
 51
6.696172660473473
  0
ELLIPSE
  5
180
330
1F
100
AcDbEntity
  8
VISIBLE
100
AcDbEllipse
 10
0.4307580025836106
 20
5.02645658481352
 30
0.0
 11
-0.09922148952733424
 21
0.03060472227485534
 31
0.0
210
0.0
220
0.0
230
1.0
 40
0.7399421116938533
 41
6.205700735951873
 42
8.178505334729174
  0
ELLIPSE
  5
181
330
1F
100
AcDbEntity
  8
VISIBLE
100
AcDbEllipse
 10
0.4222515049832012
 20
5.021759878523502
 30
0.0
 11
0.0
 21
-0.1038342573987219
 31
0.0
210
0.0
220
0.0
230
1.0
 40
0.2588190451025197
 41
0.7685595338687246
 42
2.169006473091473
  0
ARC
  5
182
330
1F
100
AcDbEntity
  8
VISIBLE
100
AcDbCircle
 10
0.429309310447489
 20
5.021759878523502
 30
0.0
 40
0.1040910275315675
100
AcDbArc
 50
115.5801675160621
 51
156.8677344230678
  0
ELLIPSE
  5
183
330
1F
100
AcDbEntity
  8
VISIBLE
100
AcDbEllipse
 10
0.2298057807001941
 20
5.017063172233485
 30
0.0
 11
0.09922148952733424
 21
0.03060472227485534
 31
0.0
210
0.0
220
0.0
230
1.0
 40
0.7399421116938533
 41
0.0125632498257554
 42
1.090925845565815
  0
ELLIPSE
  5
184
330
1F
100
AcDbEntity
  8
VISIBLE
100
AcDbEllipse
 10
0.2368639028179027
 20
5.021759878523502
 30
0.0
 11
0.0
 21
0.1037177925275019
 31
0.0
210
0.0
220
0.0
230
-1.0
 40
0.2588190451025179
 41
0.7686387486273775
 42
1.584671695414902
  0
ELLIPSE
  5
185
330
1F
100
AcDbEntity
  8
VISIBLE
100
AcDbEllipse
 10
0.1834016808534082
 20
5.589284759017278
 30
0.0
 11
0.0
 21
0.1037177925275019
 31
0.0
210
0.0
220
0.0
230
-1.0
 40
0.2588190451025222
 41
0.4580967696174159
 42
1.660314718709813
  0
ELLIPSE
  5
186
330
1F
100
AcDbEntity
  8
VISIBLE
100
AcDbEllipse
 10
0.1752906792155073
 20
5.597957864552506
 30
0.0
 11
-0.1036099536061537
 21
0.004728424738601689
 31
0.0
210
0.0
220
0.0
230
1.0
 40
0.1677312594965196
 41
1.921462900487338
 42
3.156040255922629
  0
ARC
  5
187
330
1F
100
AcDbEntity
  8
VISIBLE
100
AcDbCircle
 10
0.1748948665995766
 20
5.589284759017278
 30
0.0
 40
0.1040910275315675
100
AcDbArc
 50
2.310403753906593
 51
66.59981267862192
  0
ELLIPSE
  5
188
330
1F
100
AcDbEntity
  8
VISIBLE
100
AcDbEllipse
 10
0.277512907271853
 20
6.054947418435374
 30
0.0
 11
-0.08452583150291382
 21
0.06010627500951138
 31
0.0
210
0.0
220
0.0
230
1.0
 40
0.9076733711903641
 41
6.098489960698512
 42
8.448030526396671
  0
ELLIPSE
  5
189
330
1F
100
AcDbEntity
  8
VISIBLE
100
AcDbEllipse
 10
0.268313172076998
 20
6.051935280493564
 30
0.0
 11
0.0
 21
-0.1038342573987219
 31
0.0
210
0.0
220
0.0
230
1.0
 40
0.2588190451025197
 41
0.4339847978022628
 42
0.9523772664804553
  0
ARC
  5
18A
330
1F
100
AcDbEntity
  8
VISIBLE
100
AcDbCircle
 10
0.2753709775412849
 20
6.051935280493564
 30
0.0
 40
0.1040910275315675
100
AcDbArc
 50
106.1619188375164
 51
132.9527443909349
  0
ELLIPSE
  5
18B
330
1F
100
AcDbEntity
  8
VISIBLE
100
AcDbEllipse
 10
0.4824431405651426
 20
5.596480530526136
 30
0.0
 11
-0.1037262973848803
 21
-0.004733734294125824
 31
0.0
210
0.0
220
0.0
230
-1.0
 40
0.1677312594965218
 41
0.0119730937806078
 42
1.766020534131793
  0
ELLIPSE
  5
18C
330
1F
100
AcDbEntity
  8
VISIBLE
100
AcDbEllipse
 10
0.4757137269476965
 20
5.589284759017278
 30
0.0
 11
0.0
 21
-0.1038342573987219
 31
0.0
210
0.0
220
0.0
230
1.0
 40
0.2588190451025197
 41
1.815757085065337
 42
3.160449255568456
  0
ARC
  5
18D
330
1F
100
AcDbEntity
  8
VISIBLE
100
AcDbCircle
 10
0.4827715324119843
 20
5.589284759017278
 30
0.0
 40
0.1040910275315675
100
AcDbArc
 50
94.16748914235926
 51
97.83990187311531
  0
ARC
  5
18E
330
1F
100
AcDbEntity
  8
VISIBLE
100
AcDbCircle
 10
0.4827715324119843
 20
5.589284759017278
 30
0.0
 40
0.1040910275315675
100
AcDbArc
 50
97.83990187311531
 51
113.400187321379
  0
ARC
  5
18F
330
1F
100
AcDbEntity
  8
VISIBLE
100
AcDbCircle
 10
0.4827715324119843
 20
5.589284759017278
 30
0.0
 40
0.1040910275315675
100
AcDbArc
 50
113.400187321379
 51
178.5297911442894
  0
ELLIPSE
  5
190
330
1F
100
AcDbEntity
  8
VISIBLE
100
AcDbEllipse
 10
0.3908022357241068
 20
4.916885519506013
 30
0.0
 11
0.0
 21
0.1037177925275019
 31
0.0
210
0.0
220
0.0
230
-1.0
 40
0.2588190451025179
 41
1.556920958174892
 42
2.722019755361284
  0
ELLIPSE
  5
191
330
1F
100
AcDbEntity
  8
VISIBLE
100
AcDbEllipse
 10
0.3840725054532381
 20
4.919384584724855
 30
0.0
 11
-0.0846207456911241
 21
0.06017376843959532
 31
0.0
210
0.0
220
0.0
230
1.0
 40
0.9076733711903731
 41
2.320271214450114
 42
3.29438105047952
  0
ARC
  5
192
330
1F
100
AcDbEntity
  8
VISIBLE
100
AcDbCircle
 10
0.3822954214702756
 20
4.916885519506013
 30
0.0
 40
0.1040910275315675
100
AcDbArc
 50
334.2120472996247
 51
0.0
  0
ARC
  5
193
330
1F
100
AcDbEntity
  8
VISIBLE
100
AcDbCircle
 10
0.3822954214702756
 20
4.916885519506013
 30
0.0
 40
0.1040910275315675
100
AcDbArc
 50
0.0
 51
9.362725152016251
  0
ELLIPSE
  5
194
330
1F
100
AcDbEntity
  8
VISIBLE
100
AcDbEllipse
 10
0.2368639028179027
 20
5.021759878523502
 30
0.0
 11
0.0
 21
0.1037177925275019
 31
0.0
210
0.0
220
0.0
230
-1.0
 40
0.2588190451025179
 41
0.0227541091035681
 42
0.6131171675132122
  0
ELLIPSE
  5
195
330
1F
100
AcDbEntity
  8
VISIBLE
100
AcDbEllipse
 10
0.2266109714494338
 20
5.027420846116919
 30
0.0
 11
-0.09911019853061021
 21
-0.03057039473086664
 31
0.0
210
0.0
220
0.0
230
-1.0
 40
0.7399421116938496
 41
2.050762393905123
 42
3.048052355036577
  0
ARC
  5
196
330
1F
100
AcDbEntity
  8
VISIBLE
100
AcDbCircle
 10
0.2283570885640716
 20
5.021759878523502
 30
0.0
 40
0.1040910275315675
100
AcDbArc
 50
24.36803435681628
 51
64.41983248393794
  0
ARC
  5
197
330
1F
100
AcDbEntity
  8
VISIBLE
100
AcDbCircle
 10
0.2283570885640716
 20
5.021759878523502
 30
0.0
 40
0.1040910275315675
100
AcDbArc
 50
64.41983248393794
 51
84.97488913569202
  0
ELLIPSE
  5
198
330
1F
100
AcDbEntity
  8
VISIBLE
100
AcDbEllipse
 10
0.1752906792155073
 20
5.597957864552506
 30
0.0
 11
-0.1036099536061537
 21
0.004728424738601689
 31
0.0
210
0.0
220
0.0
230
1.0
 40
0.1677312594965196
 41
6.268737704846735
 42
8.049126626552761
  0
ELLIPSE
  5
199
330
1F
100
AcDbEntity
  8
VISIBLE
100
AcDbEllipse
 10
0.1678370611352893
 20
5.589284759017278
 30
0.0
 11
0.0
 21
-0.1038342573987219
 31
0.0
210
0.0
220
0.0
230
1.0
 40
0.2588190451025197
 41
1.48118234899885
 42
2.702430168235485
  0
ARC
  5
19A
330
1F
100
AcDbEntity
  8
VISIBLE
100
AcDbCircle
 10
0.1748948665995766
 20
5.589284759017278
 30
0.0
 40
0.1040910275315675
100
AcDbArc
 50
102.6371466096089
 51
172.4636324413312
  0
ELLIPSE
  5
19B
330
1F
100
AcDbEntity
  8
VISIBLE
100
AcDbEllipse
 10
0.2735938935583224
 20
6.049436215274722
 30
0.0
 11
0.0846207456911241
 21
-0.06017376843959532
 31
0.0
210
0.0
220
0.0
230
-1.0
 40
0.9076733711903731
 41
0.4469885134948093
 42
0.8213214391396622
  0
ELLIPSE
  5
19C
330
1F
100
AcDbEntity
  8
VISIBLE
100
AcDbEllipse
 10
0.2838777917951161
 20
6.051935280493564
 30
0.0
 11
0.0
 21
0.1037177925275019
 31
0.0
210
0.0
220
0.0
230
-1.0
 40
0.2588190451025179
 41
2.293539587340191
 42
2.707512269906415
  0
ELLIPSE
  5
19D
330
1F
100
AcDbEntity
  8
VISIBLE
100
AcDbEllipse
 10
0.277512907271853
 20
6.054947418435374
 30
0.0
 11
-0.08452583150291382
 21
0.06010627500951138
 31
0.0
210
0.0
220
0.0
230
1.0
 40
0.9076733711903641
 41
6.098489960698512
 42
8.448030526396671
  0
ELLIPSE
  5
19E
330
1F
100
AcDbEntity
  8
VISIBLE
100
AcDbEllipse
 10
0.268313172076998
 20
6.051935280493564
 30
0.0
 11
0.0
 21
-0.1038342573987219
 31
0.0
210
0.0
220
0.0
230
1.0
 40
0.2588190451025197
 41
6.264328705200918
 42
6.561823324507456
  0
ELLIPSE
  5
19F
330
1F
100
AcDbEntity
  8
VISIBLE
100
AcDbEllipse
 10
0.2838777917951161
 20
6.051935280493564
 30
0.0
 11
0.0
 21
0.1037177925275019
 31
0.0
210
0.0
220
0.0
230
-1.0
 40
0.2588190451025179
 41
2.863033851020556
 42
3.118838544486225
  0
ELLIPSE
  5
1A0
330
1F
100
AcDbEntity
  8
VISIBLE
100
AcDbEllipse
 10
0.277512907271853
 20
6.054947418435374
 30
0.0
 11
-0.08452583150291382
 21
0.06010627500951138
 31
0.0
210
0.0
220
0.0
230
1.0
 40
0.9076733711903641
 41
2.320366800331251
 42
2.633955489442681
  0
ELLIPSE
  5
1A1
330
1F
100
AcDbEntity
  8
VISIBLE
100
AcDbEllipse
 10
0.268313172076998
 20
6.051935280493564
 30
0.0
 11
0.0
 21
-0.1038342573987219
 31
0.0
210
0.0
220
0.0
230
1.0
 40
0.2588190451025197
 41
0.4339847978022628
 42
0.9523772664804553
  0
ELLIPSE
  5
1A2
330
1F
100
AcDbEntity
  8
VISIBLE
100
AcDbEllipse
 10
0.2735938935583224
 20
6.049436215274722
 30
0.0
 11
0.0846207456911241
 21
-0.06017376843959532
 31
0.0
210
0.0
220
0.0
230
-1.0
 40
0.9076733711903731
 41
0.9766682196140636
 42
2.988804256700055
  0
ARC
  5
1A3
330
1F
100
AcDbEntity
  8
VISIBLE
100
AcDbCircle
 10
0.2753709775412849
 20
6.051935280493564
 30
0.0
 40
0.1040910275315675
100
AcDbArc
 50
265.8325108576412
 51
275.0251108643084
  0
ARC
  5
1A4
330
1F
100
AcDbEntity
  8
VISIBLE
100
AcDbCircle
 10
0.2753709775412849
 20
6.051935280493564
 30
0.0
 40
0.1040910275315675
100
AcDbArc
 50
132.9527443909349
 51
154.2120472996259
  0
ELLIPSE
  5
1A5
330
1F
100
AcDbEntity
  8
VISIBLE
100
AcDbEllipse
 10
0.4912783466658155
 20
5.379536040982299
 30
0.0
 11
0.0
 21
0.1037177925275019
 31
0.0
210
0.0
220
0.0
230
-1.0
 40
0.2588190451025179
 41
0.0227541091035681
 42
1.674822204164684
  0
ELLIPSE
  5
1A6
330
1F
100
AcDbEntity
  8
VISIBLE
100
AcDbEllipse
 10
0.4830999242588243
 20
5.386731812491159
 30
0.0
 11
-0.1037262973848803
 21
0.004733734294125824
 31
0.0
210
0.0
220
0.0
230
1.0
 40
0.1677312594965218
 41
1.921367314606206
 42
3.153565747370296
  0
ARC
  5
1A7
330
1F
100
AcDbEntity
  8
VISIBLE
100
AcDbCircle
 10
0.4827715324119843
 20
5.379536040982299
 30
0.0
 40
0.1040910275315675
100
AcDbArc
 50
1.470208855711145
 51
84.97488913569202
  0
ELLIPSE
  5
1A8
330
1F
100
AcDbEntity
  8
VISIBLE
100
AcDbEllipse
 10
0.3801534917397076
 20
4.913873381564201
 30
0.0
 11
0.08452583150291382
 21
-0.06010627500951138
 31
0.0
210
0.0
220
0.0
230
-1.0
 40
0.9076733711903641
 41
0.1846953464810875
 42
0.8212258532585415
  0
ELLIPSE
  5
1A9
330
1F
100
AcDbEntity
  8
VISIBLE
100
AcDbEllipse
 10
0.3908022357241068
 20
4.916885519506013
 30
0.0
 11
0.0
 21
0.1037177925275019
 31
0.0
210
0.0
220
0.0
230
-1.0
 40
0.2588190451025179
 41
2.877541336475441
 42
3.118838544486225
  0
ARC
  5
1AA
330
1F
100
AcDbEntity
  8
VISIBLE
100
AcDbCircle
 10
0.3822954214702756
 20
4.916885519506013
 30
0.0
 40
0.1040910275315675
100
AcDbArc
 50
275.025110864308
 51
282.2560988652343
  0
ARC
  5
1AB
330
1F
100
AcDbEntity
  8
VISIBLE
100
AcDbCircle
 10
0.3822954214702756
 20
4.916885519506013
 30
0.0
 40
0.1040910275315675
100
AcDbArc
 50
282.2560988652343
 51
285.2690016159935
  0
ARC
  5
1AC
330
1F
100
AcDbEntity
  8
VISIBLE
100
AcDbCircle
 10
0.3822954214702756
 20
4.916885519506013
 30
0.0
 40
0.1040910275315675
100
AcDbArc
 50
285.2690016159935
 51
286.1619188375195
  0
ARC
  5
1AD
330
1F
100
AcDbEntity
  8
VISIBLE
100
AcDbCircle
 10
0.3822954214702756
 20
4.916885519506013
 30
0.0
 40
0.1040910275315675
100
AcDbArc
 50
286.1619188375195
 51
312.9527443909337
  0
ELLIPSE
  5
1AE
330
1F
100
AcDbEntity
  8
VISIBLE
100
AcDbEllipse
 10
0.2266109714494338
 20
5.027420846116919
 30
0.0
 11
-0.09911019853061021
 21
-0.03057039473086664
 31
0.0
210
0.0
220
0.0
230
-1.0
 40
0.7399421116938496
 41
0.0935402985532166
 42
1.895240812790961
  0
ELLIPSE
  5
1AF
330
1F
100
AcDbEntity
  8
VISIBLE
100
AcDbEllipse
 10
0.2212992830997838
 20
5.021759878523502
 30
0.0
 11
0.0
 21
-0.1038342573987219
 31
0.0
210
0.0
220
0.0
230
1.0
 40
0.2588190451025197
 41
2.52837990019545
 42
3.160449255568424
  0
ARC
  5
1B0
330
1F
100
AcDbEntity
  8
VISIBLE
100
AcDbCircle
 10
0.2283570885640716
 20
5.021759878523502
 30
0.0
 40
0.1040910275315675
100
AcDbArc
 50
94.16748914235878
 51
100.9348830348344
  0
ARC
  5
1B1
330
1F
100
AcDbEntity
  8
VISIBLE
100
AcDbCircle
 10
0.2283570885640716
 20
5.021759878523502
 30
0.0
 40
0.1040910275315675
100
AcDbArc
 50
100.9348830348344
 51
116.6768809469064
  0
ARC
  5
1B2
330
1F
100
AcDbEntity
  8
VISIBLE
100
AcDbCircle
 10
0.2283570885640716
 20
5.021759878523502
 30
0.0
 40
0.1040910275315675
100
AcDbArc
 50
116.6768809469064
 51
125.4076638829287
  0
ARC
  5
1B3
330
1F
100
AcDbEntity
  8
VISIBLE
100
AcDbCircle
 10
0.2283570885640716
 20
5.021759878523502
 30
0.0
 40
0.1040910275315675
100
AcDbArc
 50
125.4076638829287
 51
140.0860419895922
  0
ARC
  5
1B4
330
1F
100
AcDbEntity
  8
VISIBLE
100
AcDbCircle
 10
0.2283570885640716
 20
5.021759878523502
 30
0.0
 40
0.1040910275315675
100
AcDbArc
 50
140.0860419895922
 51
189.9165684744802
  0
ELLIPSE
  5
1B5
330
1F
100
AcDbEntity
  8
VISIBLE
100
AcDbEllipse
 10
0.1745664747527362
 20
5.582088987508418
 30
0.0
 11
0.1037262973848803
 21
-0.004733734294125824
 31
0.0
210
0.0
220
0.0
230
-1.0
 40
0.1677312594965218
 41
0.0119730937805154
 42
1.220225338983596
  0
ELLIPSE
  5
1B6
330
1F
100
AcDbEntity
  8
VISIBLE
100
AcDbEllipse
 10
0.1834016808534082
 20
5.589284759017278
 30
0.0
 11
0.0
 21
0.1037177925275019
 31
0.0
210
0.0
220
0.0
230
-1.0
 40
0.2588190451025222
 41
0.4580967696174159
 42
1.660314718709813
  0
ELLIPSE
  5
1B7
330
1F
100
AcDbEntity
  8
VISIBLE
100
AcDbEllipse
 10
0.1752906792155073
 20
5.597957864552506
 30
0.0
 11
-0.1036099536061537
 21
0.004728424738601689
 31
0.0
210
0.0
220
0.0
230
1.0
 40
0.1677312594965196
 41
6.268737704846735
 42
8.049126626552761
  0
ELLIPSE
  5
1B8
330
1F
100
AcDbEntity
  8
VISIBLE
100
AcDbEllipse
 10
0.1678370611352893
 20
5.589284759017278
 30
0.0
 11
0.0
 21
-0.1038342573987219
 31
0.0
210
0.0
220
0.0
230
1.0
 40
0.2588190451025197
 41
6.264328705200936
 42
7.609020875704042
  0
ELLIPSE
  5
1B9
330
1F
100
AcDbEntity
  8
VISIBLE
100
AcDbEllipse
 10
0.1834016808534082
 20
5.589284759017278
 30
0.0
 11
0.0
 21
0.1037177925275019
 31
0.0
210
0.0
220
0.0
230
-1.0
 40
0.2588190451025222
 41
1.815836299823974
 42
3.118838544486225
  0
ELLIPSE
  5
1BA
330
1F
100
AcDbEntity
  8
VISIBLE
100
AcDbEllipse
 10
0.1752906792155073
 20
5.597957864552506
 30
0.0
 11
-0.1036099536061537
 21
0.004728424738601689
 31
0.0
210
0.0
220
0.0
230
1.0
 40
0.1677312594965196
 41
1.921462900487338
 42
3.156040255922629
  0
ELLIPSE
  5
1BB
330
1F
100
AcDbEntity
  8
VISIBLE
100
AcDbEllipse
 10
0.1678370611352893
 20
5.589284759017278
 30
0.0
 11
0.0
 21
-0.1038342573987219
 31
0.0
210
0.0
220
0.0
230
1.0
 40
0.2588190451025197
 41
1.48118234899885
 42
2.702430168235485
  0
ELLIPSE
  5
1BC
330
1F
100
AcDbEntity
  8
VISIBLE
100
AcDbEllipse
 10
0.1745664747527362
 20
5.582088987508418
 30
0.0
 11
0.1037262973848803
 21
-0.004733734294125824
 31
0.0
210
0.0
220
0.0
230
-1.0
 40
0.1677312594965218
 41
1.375572119457996
 42
3.129619559809238
  0
ARC
  5
1BD
330
1F
100
AcDbEntity
  8
VISIBLE
100
AcDbCircle
 10
0.1748948665995766
 20
5.589284759017278
 30
0.0
 40
0.1040910275315675
100
AcDbArc
 50
353.3038273395265
 51
0.0
  0
ARC
  5
1BE
330
1F
100
AcDbEntity
  8
VISIBLE
100
AcDbCircle
 10
0.1748948665995766
 20
5.589284759017278
 30
0.0
 40
0.1040910275315675
100
AcDbArc
 50
265.832510857641
 51
275.025110864308
  0
ARC
  5
1BF
330
1F
100
AcDbEntity
  8
VISIBLE
100
AcDbCircle
 10
0.1748948665995766
 20
5.589284759017278
 30
0.0
 40
0.1040910275315675
100
AcDbArc
 50
172.4636324413312
 51
181.4702088557111
  0
ARC
  5
1C0
330
1F
100
AcDbEntity
  8
VISIBLE
100
AcDbCircle
 10
0.1748948665995766
 20
5.589284759017278
 30
0.0
 40
0.1040910275315675
100
AcDbArc
 50
0.0
 51
2.310403753906593
  0
ELLIPSE
  5
1C1
330
1F
100
AcDbEntity
  8
VISIBLE
100
AcDbEllipse
 10
0.2735938935583224
 20
6.049436215274722
 30
0.0
 11
0.0846207456911241
 21
-0.06017376843959532
 31
0.0
210
0.0
220
0.0
230
-1.0
 40
0.9076733711903731
 41
0.9766682196140636
 42
2.988804256700055
  0
ELLIPSE
  5
1C2
330
1F
100
AcDbEntity
  8
VISIBLE
100
AcDbEllipse
 10
0.268313172076998
 20
6.051935280493564
 30
0.0
 11
0.0
 21
-0.1038342573987219
 31
0.0
210
0.0
220
0.0
230
1.0
 40
0.2588190451025197
 41
6.264328705200918
 42
6.561823324507456
  0
ARC
  5
1C3
330
1F
100
AcDbEntity
  8
VISIBLE
100
AcDbCircle
 10
0.2753709775412849
 20
6.051935280493564
 30
0.0
 40
0.1040910275315675
100
AcDbArc
 50
154.2120472996259
 51
189.3627251520163
  0
ARC
  5
1C4
330
1F
100
AcDbEntity
  8
VISIBLE
100
AcDbCircle
 10
0.2753709775412849
 20
6.051935280493564
 30
0.0
 40
0.1040910275315675
100
AcDbArc
 50
189.3627251520163
 51
254.8398818708369
  0
ARC
  5
1C5
330
1F
100
AcDbEntity
  8
VISIBLE
100
AcDbCircle
 10
0.2753709775412849
 20
6.051935280493564
 30
0.0
 40
0.1040910275315675
100
AcDbArc
 50
254.8398818708369
 51
263.5653235426454
  0
ARC
  5
1C6
330
1F
100
AcDbEntity
  8
VISIBLE
100
AcDbCircle
 10
0.2753709775412849
 20
6.051935280493564
 30
0.0
 40
0.1040910275315675
100
AcDbArc
 50
263.5653235426454
 51
265.8325108576412
  0
ELLIPSE
  5
1C7
330
1F
100
AcDbEntity
  8
VISIBLE
100
AcDbEllipse
 10
0.4912783466658155
 20
5.379536040982299
 30
0.0
 11
0.0
 21
0.1037177925275019
 31
0.0
210
0.0
220
0.0
230
-1.0
 40
0.2588190451025179
 41
1.830343785278849
 42
3.118838544486225
  0
ELLIPSE
  5
1C8
330
1F
100
AcDbEntity
  8
VISIBLE
100
AcDbEllipse
 10
0.4823757197960532
 20
5.370862935447071
 30
0.0
 11
0.1036099536061537
 21
-0.004728424738601689
 31
0.0
210
0.0
220
0.0
230
-1.0
 40
0.1677312594965196
 41
0.0144476023328518
 42
1.220129753102447
  0
ARC
  5
1C9
330
1F
100
AcDbEntity
  8
VISIBLE
100
AcDbCircle
 10
0.4827715324119843
 20
5.379536040982299
 30
0.0
 40
0.1040910275315675
100
AcDbArc
 50
275.025110864308
 51
282.6371466096092
  0
ARC
  5
1CA
330
1F
100
AcDbEntity
  8
VISIBLE
100
AcDbCircle
 10
0.4827715324119843
 20
5.379536040982299
 30
0.0
 40
0.1040910275315675
100
AcDbArc
 50
282.6371466096092
 51
352.4636324413312
  0
ELLIPSE
  5
1CB
330
1F
100
AcDbEntity
  8
VISIBLE
100
AcDbEllipse
 10
0.3752376160059878
 20
4.916885519506013
 30
0.0
 11
0.0
 21
-0.1038342573987219
 31
0.0
210
0.0
220
0.0
230
1.0
 40
0.2588190451025197
 41
6.264328705200918
 42
6.547332210175062
  0
ELLIPSE
  5
1CC
330
1F
100
AcDbEntity
  8
VISIBLE
100
AcDbEllipse
 10
0.3801534917397076
 20
4.913873381564201
 30
0.0
 11
0.08452583150291382
 21
-0.06010627500951138
 31
0.0
210
0.0
220
0.0
230
-1.0
 40
0.9076733711903641
 41
0.9767474343726992
 42
2.956897307108702
  0
ARC
  5
1CD
330
1F
100
AcDbEntity
  8
VISIBLE
100
AcDbCircle
 10
0.3822954214702756
 20
4.916885519506013
 30
0.0
 40
0.1040910275315675
100
AcDbArc
 50
156.2140300978844
 51
159.3123204597911
  0
ARC
  5
1CE
330
1F
100
AcDbEntity
  8
VISIBLE
100
AcDbCircle
 10
0.3822954214702756
 20
4.916885519506013
 30
0.0
 40
0.1040910275315675
100
AcDbArc
 50
159.3123204597911
 51
245.5614258892008
  0
ARC
  5
1CF
330
1F
100
AcDbEntity
  8
VISIBLE
100
AcDbCircle
 10
0.3822954214702756
 20
4.916885519506013
 30
0.0
 40
0.1040910275315675
100
AcDbArc
 50
245.5614258892008
 51
248.2155358672919
  0
ARC
  5
1D0
330
1F
100
AcDbEntity
  8
VISIBLE
100
AcDbCircle
 10
0.3822954214702756
 20
4.916885519506013
 30
0.0
 40
0.1040910275315675
100
AcDbArc
 50
248.2155358672919
 51
256.6648988042879
  0
ARC
  5
1D1
330
1F
100
AcDbEntity
  8
VISIBLE
100
AcDbCircle
 10
0.3822954214702756
 20
4.916885519506013
 30
0.0
 40
0.1040910275315675
100
AcDbArc
 50
256.6648988042879
 51
265.8325108576407
  0
ELLIPSE
  5
1D2
330
1F
100
AcDbEntity
  8
VISIBLE
100
AcDbEllipse
 10
0.2298057807001941
 20
5.017063172233485
 30
0.0
 11
0.09922148952733424
 21
0.03060472227485534
 31
0.0
210
0.0
220
0.0
230
1.0
 40
0.7399421116938533
 41
0.0125632498257554
 42
1.090925845565815
  0
ELLIPSE
  5
1D3
330
1F
100
AcDbEntity
  8
VISIBLE
100
AcDbEllipse
 10
0.2368639028179027
 20
5.021759878523502
 30
0.0
 11
0.0
 21
0.1037177925275019
 31
0.0
210
0.0
220
0.0
230
-1.0
 40
0.2588190451025179
 41
0.0227541091035681
 42
0.6131171675132122
  0
ELLIPSE
  5
1D4
330
1F
100
AcDbEntity
  8
VISIBLE
100
AcDbEllipse
 10
0.2266109714494338
 20
5.027420846116919
 30
0.0
 11
-0.09911019853061021
 21
-0.03057039473086664
 31
0.0
210
0.0
220
0.0
230
-1.0
 40
0.7399421116938496
 41
0.0935402985532166
 42
1.895240812790961
  0
ELLIPSE
  5
1D5
330
1F
100
AcDbEntity
  8
VISIBLE
100
AcDbEllipse
 10
0.2212992830997838
 20
5.021759878523502
 30
0.0
 11
0.0
 21
-0.1038342573987219
 31
0.0
210
0.0
220
0.0
230
1.0
 40
0.2588190451025197
 41
1.528352231016187
 42
2.373033119721039
  0
ELLIPSE
  5
1D6
330
1F
100
AcDbEntity
  8
VISIBLE
100
AcDbEllipse
 10
0.2368639028179027
 20
5.021759878523502
 30
0.0
 11
0.0
 21
0.1037177925275019
 31
0.0
210
0.0
220
0.0
230
-1.0
 40
0.2588190451025179
 41
0.7686387486273775
 42
1.584671695414902
  0
ELLIPSE
  5
1D7
330
1F
100
AcDbEntity
  8
VISIBLE
100
AcDbEllipse
 10
0.2266109714494338
 20
5.027420846116919
 30
0.0
 11
-0.09911019853061021
 21
-0.03057039473086664
 31
0.0
210
0.0
220
0.0
230
-1.0
 40
0.7399421116938496
 41
2.050762393905123
 42
3.048052355036577
  0
ELLIPSE
  5
1D8
330
1F
100
AcDbEntity
  8
VISIBLE
100
AcDbEllipse
 10
0.2212992830997838
 20
5.021759878523502
 30
0.0
 11
0.0
 21
-0.1038342573987219
 31
0.0
210
0.0
220
0.0
230
1.0
 40
0.2588190451025197
 41
2.52837990019545
 42
3.160449255568424
  0
ELLIPSE
  5
1D9
330
1F
100
AcDbEntity
  8
VISIBLE
100
AcDbEllipse
 10
0.2298057807001941
 20
5.017063172233485
 30
0.0
 11
0.09922148952733424
 21
0.03060472227485534
 31
0.0
210
0.0
220
0.0
230
1.0
 40
0.7399421116938533
 41
1.246272626040203
 42
3.219077224817508
  0
ARC
  5
1DA
330
1F
100
AcDbEntity
  8
VISIBLE
100
AcDbCircle
 10
0.2283570885640716
 20
5.021759878523502
 30
0.0
 40
0.1040910275315675
100
AcDbArc
 50
189.9165684744802
 51
203.1322655769326
  0
ARC
  5
1DB
330
1F
100
AcDbEntity
  8
VISIBLE
100
AcDbCircle
 10
0.2283570885640716
 20
5.021759878523502
 30
0.0
 40
0.1040910275315675
100
AcDbArc
 50
84.97488913569202
 51
92.14912289043926
  0
ARC
  5
1DC
330
1F
100
AcDbEntity
  8
VISIBLE
100
AcDbCircle
 10
0.2283570885640716
 20
5.021759878523502
 30
0.0
 40
0.1040910275315675
100
AcDbArc
 50
92.14912289043926
 51
94.16748914235878
  0
ARC
  5
1DD
330
1F
100
AcDbEntity
  8
VISIBLE
100
AcDbCircle
 10
0.2283570885640716
 20
5.021759878523502
 30
0.0
 40
0.1040910275315675
100
AcDbArc
 50
15.14415569594146
 51
24.36803435681628
  0
ELLIPSE
  5
1DE
330
1F
100
AcDbEntity
  8
VISIBLE
100
AcDbEllipse
 10
0.1745664747527362
 20
5.582088987508418
 30
0.0
 11
0.1037262973848803
 21
-0.004733734294125824
 31
0.0
210
0.0
220
0.0
230
-1.0
 40
0.1677312594965218
 41
1.375572119457996
 42
3.129619559809238
  0
ELLIPSE
  5
1DF
330
1F
100
AcDbEntity
  8
VISIBLE
100
AcDbEllipse
 10
0.1678370611352893
 20
5.589284759017278
 30
0.0
 11
0.0
 21
-0.1038342573987219
 31
0.0
210
0.0
220
0.0
230
1.0
 40
0.2588190451025197
 41
6.264328705200936
 42
7.609020875704042
  0
ARC
  5
1E0
330
1F
100
AcDbEntity
  8
VISIBLE
100
AcDbCircle
 10
0.1748948665995766
 20
5.589284759017278
 30
0.0
 40
0.1040910275315675
100
AcDbArc
 50
181.4702088557111
 51
265.832510857641
  0
ELLIPSE
  5
1E1
330
1F
100
AcDbEntity
  8
VISIBLE
100
AcDbEllipse
 10
0.4757137269476965
 20
5.379536040982299
 30
0.0
 11
0.0
 21
-0.1038342573987219
 31
0.0
210
0.0
220
0.0
230
1.0
 40
0.2588190451025197
 41
6.264328705200918
 42
7.594529761371675
  0
ELLIPSE
  5
1E2
330
1F
100
AcDbEntity
  8
VISIBLE
100
AcDbEllipse
 10
0.4823757197960532
 20
5.370862935447071
 30
0.0
 11
0.1036099536061537
 21
-0.004728424738601689
 31
0.0
210
0.0
220
0.0
230
-1.0
 40
0.1677312594965196
 41
1.375651334216619
 42
3.127145051256953
  0
ARC
  5
1E3
330
1F
100
AcDbEntity
  8
VISIBLE
100
AcDbCircle
 10
0.4827715324119843
 20
5.379536040982299
 30
0.0
 40
0.1040910275315675
100
AcDbArc
 50
182.3104037539066
 51
246.5998126786206
  0
ARC
  5
1E4
330
1F
100
AcDbEntity
  8
VISIBLE
100
AcDbCircle
 10
0.4827715324119843
 20
5.379536040982299
 30
0.0
 40
0.1040910275315675
100
AcDbArc
 50
246.5998126786206
 51
258.4887307592545
  0
ARC
  5
1E5
330
1F
100
AcDbEntity
  8
VISIBLE
100
AcDbCircle
 10
0.4827715324119843
 20
5.379536040982299
 30
0.0
 40
0.1040910275315675
100
AcDbArc
 50
258.4887307592545
 51
262.1600981268876
  0
ARC
  5
1E6
330
1F
100
AcDbEntity
  8
VISIBLE
100
AcDbCircle
 10
0.4827715324119843
 20
5.379536040982299
 30
0.0
 40
0.1040910275315675
100
AcDbArc
 50
262.1600981268876
 51
265.8325108576407
  0
ELLIPSE
  5
1E7
330
1F
100
AcDbEntity
  8
VISIBLE
100
AcDbEllipse
 10
0.3752376160059878
 20
4.916885519506013
 30
0.0
 11
0.0
 21
-0.1038342573987219
 31
0.0
210
0.0
220
0.0
230
1.0
 40
0.2588190451025197
 41
0.4194936834698739
 42
1.613240422573598
  0
ELLIPSE
  5
1E8
330
1F
100
AcDbEntity
  8
VISIBLE
100
AcDbEllipse
 10
0.3908022357241068
 20
4.916885519506013
 30
0.0
 11
0.0
 21
0.1037177925275019
 31
0.0
210
0.0
220
0.0
230
-1.0
 40
0.2588190451025179
 41
1.556920958174892
 42
2.722019755361284
  0
ELLIPSE
  5
1E9
330
1F
100
AcDbEntity
  8
VISIBLE
100
AcDbEllipse
 10
0.3801534917397076
 20
4.913873381564201
 30
0.0
 11
0.08452583150291382
 21
-0.06010627500951138
 31
0.0
210
0.0
220
0.0
230
-1.0
 40
0.9076733711903641
 41
0.1846953464810875
 42
0.8212258532585415
  0
ELLIPSE
  5
1EA
330
1F
100
AcDbEntity
  8
VISIBLE
100
AcDbEllipse
 10
0.3752376160059878
 20
4.916885519506013
 30
0.0
 11
0.0
 21
-0.1038342573987219
 31
0.0
210
0.0
220
0.0
230
1.0
 40
0.2588190451025197
 41
6.264328705200918
 42
6.547332210175062
  0
ELLIPSE
  5
1EB
330
1F
100
AcDbEntity
  8
VISIBLE
100
AcDbEllipse
 10
0.3840725054532381
 20
4.919384584724855
 30
0.0
 11
-0.0846207456911241
 21
0.06017376843959621
 31
0.0
210
0.0
220
0.0
230
1.0
 40
0.9076733711903685
 41
6.130396910289868
 42
8.44810974115532
  0
ELLIPSE
  5
1EC
330
1F
100
AcDbEntity
  8
VISIBLE
100
AcDbEllipse
 10
0.3840725054532381
 20
4.919384584724855
 30
0.0
 11
-0.0846207456911241
 21
0.06017376843959532
 31
0.0
210
0.0
220
0.0
230
1.0
 40
0.9076733711903731
 41
2.320271214450114
 42
3.29438105047952
  0
ELLIPSE
  5
1ED
330
1F
100
AcDbEntity
  8
VISIBLE
100
AcDbEllipse
 10
0.3908022357241068
 20
4.916885519506013
 30
0.0
 11
0.0
 21
0.1037177925275019
 31
0.0
210
0.0
220
0.0
230
-1.0
 40
0.2588190451025179
 41
2.877541336475441
 42
3.118838544486225
  0
ELLIPSE
  5
1EE
330
1F
100
AcDbEntity
  8
VISIBLE
100
AcDbEllipse
 10
0.3801534917397076
 20
4.913873381564201
 30
0.0
 11
0.08452583150291382
 21
-0.06010627500951138
 31
0.0
210
0.0
220
0.0
230
-1.0
 40
0.9076733711903641
 41
0.9767474343726992
 42
2.956897307108702
  0
ARC
  5
1EF
330
1F
100
AcDbEntity
  8
VISIBLE
100
AcDbCircle
 10
0.3822954214702756
 20
4.916885519506013
 30
0.0
 40
0.1040910275315675
100
AcDbArc
 50
312.9527443909337
 51
334.2120472996247
  0
ARC
  5
1F0
330
1F
100
AcDbEntity
  8
VISIBLE
100
AcDbCircle
 10
0.3822954214702756
 20
4.916885519506013
 30
0.0
 40
0.1040910275315675
100
AcDbArc
 50
265.8325108576407
 51
275.025110864308
  0
ARC
  5
1F1
330
1F
100
AcDbEntity
  8
VISIBLE
100
AcDbCircle
 10
0.3822954214702756
 20
4.916885519506013
 30
0.0
 40
0.1040910275315675
100
AcDbArc
 50
134.954727189193
 51
138.7707969766383
  0
ARC
  5
1F2
330
1F
100
AcDbEntity
  8
VISIBLE
100
AcDbCircle
 10
0.3822954214702756
 20
4.916885519506013
 30
0.0
 40
0.1040910275315675
100
AcDbArc
 50
138.7707969766383
 51
142.3693441834052
  0
ARC
  5
1F3
330
1F
100
AcDbEntity
  8
VISIBLE
100
AcDbCircle
 10
0.3822954214702756
 20
4.916885519506013
 30
0.0
 40
0.1040910275315675
100
AcDbArc
 50
142.3693441834052
 51
143.4692703715579
  0
ARC
  5
1F4
330
1F
100
AcDbEntity
  8
VISIBLE
100
AcDbCircle
 10
0.3822954214702756
 20
4.916885519506013
 30
0.0
 40
0.1040910275315675
100
AcDbArc
 50
143.4692703715579
 51
150.5127723111236
  0
ARC
  5
1F5
330
1F
100
AcDbEntity
  8
VISIBLE
100
AcDbCircle
 10
0.3822954214702756
 20
4.916885519506013
 30
0.0
 40
0.1040910275315675
100
AcDbArc
 50
150.5127723111236
 51
155.3772719883894
  0
ARC
  5
1F6
330
1F
100
AcDbEntity
  8
VISIBLE
100
AcDbCircle
 10
0.3822954214702756
 20
4.916885519506013
 30
0.0
 40
0.1040910275315675
100
AcDbArc
 50
155.3772719883894
 51
156.2140300978844
  0
ELLIPSE
  5
1F7
330
1F
100
AcDbEntity
  8
VISIBLE
100
AcDbEllipse
 10
0.2212992830997838
 20
5.021759878523502
 30
0.0
 11
0.0
 21
-0.1038342573987219
 31
0.0
210
0.0
220
0.0
230
1.0
 40
0.2588190451025197
 41
1.528352231016187
 42
2.373033119721039
  0
ELLIPSE
  5
1F8
330
1F
100
AcDbEntity
  8
VISIBLE
100
AcDbEllipse
 10
0.2298057807001941
 20
5.017063172233485
 30
0.0
 11
0.09922148952733424
 21
0.03060472227485534
 31
0.0
210
0.0
220
0.0
230
1.0
 40
0.7399421116938533
 41
1.246272626040203
 42
3.219077224817508
  0
ARC
  5
1F9
330
1F
100
AcDbEntity
  8
VISIBLE
100
AcDbCircle
 10
0.2283570885640716
 20
5.021759878523502
 30
0.0
 40
0.1040910275315675
100
AcDbArc
 50
203.1322655769326
 51
237.6549420546266
  0
ELLIPSE
  5
1FA
330
1F
100
AcDbEntity
  8
VISIBLE
100
AcDbEllipse
 10
0.2019689156897271
 20
5.786384081574051
 30
0.0
 11
0.0
 21
0.1037177925275019
 31
0.0
210
0.0
220
0.0
230
-1.0
 40
0.2588190451025222
 41
2.164902150222841
 42
3.118838544486225
  0
ELLIPSE
  5
1FB
330
1F
100
AcDbEntity
  8
VISIBLE
100
AcDbEllipse
 10
0.1925165347986497
 20
5.780056226307437
 30
0.0
 11
0.1026940543144659
 21
-0.01534549503930727
 31
0.0
210
0.0
220
0.0
230
-1.0
 40
0.4829629131445339
 41
0.0388223778604099
 42
1.185818214822584
  0
ARC
  5
1FC
330
1F
100
AcDbEntity
  8
VISIBLE
100
AcDbCircle
 10
0.1934621014358959
 20
5.786384081574051
 30
0.0
 40
0.1040910275315675
100
AcDbArc
 50
275.025110864308
 51
282.6371466096089
  0
ARC
  5
1FD
330
1F
100
AcDbEntity
  8
VISIBLE
100
AcDbCircle
 10
0.1934621014358959
 20
5.786384081574051
 30
0.0
 40
0.1040910275315675
100
AcDbArc
 50
282.6371466096089
 51
346.9031499860091
  0
ELLIPSE
  5
1FE
330
1F
100
AcDbEntity
  8
VISIBLE
100
AcDbEllipse
 10
0.4912783466658155
 20
5.379536040982299
 30
0.0
 11
0.0
 21
0.1037177925275019
 31
0.0
210
0.0
220
0.0
230
-1.0
 40
0.2588190451025179
 41
0.0227541091035681
 42
1.674822204164684
  0
ELLIPSE
  5
1FF
330
1F
100
AcDbEntity
  8
VISIBLE
100
AcDbEllipse
 10
0.4823757197960532
 20
5.370862935447071
 30
0.0
 11
0.1036099536061537
 21
-0.004728424738601689
 31
0.0
210
0.0
220
0.0
230
-1.0
 40
0.1677312594965196
 41
0.0144476023328518
 42
1.220129753102447
  0
ELLIPSE
  5
200
330
1F
100
AcDbEntity
  8
VISIBLE
100
AcDbEllipse
 10
0.4757137269476965
 20
5.379536040982299
 30
0.0
 11
0.0
 21
-0.1038342573987219
 31
0.0
210
0.0
220
0.0
230
1.0
 40
0.2588190451025197
 41
6.264328705200918
 42
7.594529761371675
  0
ELLIPSE
  5
201
330
1F
100
AcDbEntity
  8
VISIBLE
100
AcDbEllipse
 10
0.4830999242588243
 20
5.386731812491159
 30
0.0
 11
-0.1037262973848803
 21
0.004733734294125824
 31
0.0
210
0.0
220
0.0
230
1.0
 40
0.1677312594965218
 41
6.271212213399068
 42
8.049205841311387
  0
ELLIPSE
  5
202
330
1F
100
AcDbEntity
  8
VISIBLE
100
AcDbEllipse
 10
0.4830999242588243
 20
5.386731812491159
 30
0.0
 11
-0.1037262973848803
 21
0.004733734294125824
 31
0.0
210
0.0
220
0.0
230
1.0
 40
0.1677312594965218
 41
1.921367314606206
 42
3.153565747370296
  0
ELLIPSE
  5
203
330
1F
100
AcDbEntity
  8
VISIBLE
100
AcDbEllipse
 10
0.4912783466658155
 20
5.379536040982299
 30
0.0
 11
0.0
 21
0.1037177925275019
 31
0.0
210
0.0
220
0.0
230
-1.0
 40
0.2588190451025179
 41
1.830343785278849
 42
3.118838544486225
  0
ELLIPSE
  5
204
330
1F
100
AcDbEntity
  8
VISIBLE
100
AcDbEllipse
 10
0.4823757197960532
 20
5.370862935447071
 30
0.0
 11
0.1036099536061537
 21
-0.004728424738601689
 31
0.0
210
0.0
220
0.0
230
-1.0
 40
0.1677312594965196
 41
1.375651334216619
 42
3.127145051256953
  0
ELLIPSE
  5
205
330
1F
100
AcDbEntity
  8
VISIBLE
100
AcDbEllipse
 10
0.4757137269476965
 20
5.379536040982299
 30
0.0
 11
0.0
 21
-0.1038342573987219
 31
0.0
210
0.0
220
0.0
230
1.0
 40
0.2588190451025197
 41
1.466691234666475
 42
3.160449255568456
  0
ARC
  5
206
330
1F
100
AcDbEntity
  8
VISIBLE
100
AcDbCircle
 10
0.4827715324119843
 20
5.379536040982299
 30
0.0
 40
0.1040910275315675
100
AcDbArc
 50
352.4636324413312
 51
0.0
  0
ARC
  5
207
330
1F
100
AcDbEntity
  8
VISIBLE
100
AcDbCircle
 10
0.4827715324119843
 20
5.379536040982299
 30
0.0
 40
0.1040910275315675
100
AcDbArc
 50
265.8325108576407
 51
270.9969964818499
  0
ARC
  5
208
330
1F
100
AcDbEntity
  8
VISIBLE
100
AcDbCircle
 10
0.4827715324119843
 20
5.379536040982299
 30
0.0
 40
0.1040910275315675
100
AcDbArc
 50
270.9969964818499
 51
275.025110864308
  0
ARC
  5
209
330
1F
100
AcDbEntity
  8
VISIBLE
100
AcDbCircle
 10
0.4827715324119843
 20
5.379536040982299
 30
0.0
 40
0.1040910275315675
100
AcDbArc
 50
173.3038273395265
 51
182.3104037539066
  0
ARC
  5
20A
330
1F
100
AcDbEntity
  8
VISIBLE
100
AcDbCircle
 10
0.4827715324119843
 20
5.379536040982299
 30
0.0
 40
0.1040910275315675
100
AcDbArc
 50
84.97488913569202
 51
94.16748914235926
  0
ARC
  5
20B
330
1F
100
AcDbEntity
  8
VISIBLE
100
AcDbCircle
 10
0.4827715324119843
 20
5.379536040982299
 30
0.0
 40
0.1040910275315675
100
AcDbArc
 50
0.0
 51
1.470208855711145
  0
ELLIPSE
  5
20C
330
1F
100
AcDbEntity
  8
VISIBLE
100
AcDbEllipse
 10
0.3840725054532381
 20
4.919384584724855
 30
0.0
 11
-0.0846207456911241
 21
0.06017376843959621
 31
0.0
210
0.0
220
0.0
230
1.0
 40
0.9076733711903685
 41
6.130396910289868
 42
8.44810974115532
  0
ELLIPSE
  5
20D
330
1F
100
AcDbEntity
  8
VISIBLE
100
AcDbEllipse
 10
0.3752376160059878
 20
4.916885519506013
 30
0.0
 11
0.0
 21
-0.1038342573987219
 31
0.0
210
0.0
220
0.0
230
1.0
 40
0.2588190451025197
 41
0.4194936834698739
 42
1.613240422573598
  0
ARC
  5
20E
330
1F
100
AcDbEntity
  8
VISIBLE
100
AcDbCircle
 10
0.3822954214702756
 20
4.916885519506013
 30
0.0
 40
0.1040910275315675
100
AcDbArc
 50
122.345057945374
 51
123.2000518019286
  0
ARC
  5
20F
330
1F
100
AcDbEntity
  8
VISIBLE
100
AcDbCircle
 10
0.3822954214702756
 20
4.916885519506013
 30
0.0
 40
0.1040910275315675
100
AcDbArc
 50
123.2000518019286
 51
134.954727189193
  0
ELLIPSE
  5
210
330
1F
100
AcDbEntity
  8
VISIBLE
100
AcDbEllipse
 10
0.1944076680731417
 20
5.176108863158912
 30
0.0
 11
0.1026940543144663
 21
0.01534549503930727
 31
0.0
210
0.0
220
0.0
230
1.0
 40
0.4829629131445319
 41
6.244362929319157
 42
7.469003522002177
  0
ELLIPSE
  5
211
330
1F
100
AcDbEntity
  8
VISIBLE
100
AcDbEllipse
 10
0.2019689156897271
 20
5.182436718425526
 30
0.0
 11
0.0
 21
0.1037177925275019
 31
0.0
210
0.0
220
0.0
230
-1.0
 40
0.2588190451025222
 41
1.117704599026234
 42
2.148713695789989
  0
ARC
  5
212
330
1F
100
AcDbEntity
  8
VISIBLE
100
AcDbCircle
 10
0.1934621014358959
 20
5.182436718425526
 30
0.0
 40
0.1040910275315675
100
AcDbArc
 50
320.0860419895918
 51
0.0
  0
ARC
  5
213
330
1F
100
AcDbEntity
  8
VISIBLE
100
AcDbCircle
 10
0.1934621014358959
 20
5.182436718425526
 30
0.0
 40
0.1040910275315675
100
AcDbArc
 50
0.0
 51
3.900711392965515
  0
ELLIPSE
  5
214
330
1F
100
AcDbEntity
  8
VISIBLE
100
AcDbEllipse
 10
0.2019689156897271
 20
5.786384081574051
 30
0.0
 11
0.0
 21
0.1037177925275019
 31
0.0
210
0.0
220
0.0
230
-1.0
 40
0.2588190451025222
 41
0.9928789577998036
 42
2.009380569108681
  0
ELLIPSE
  5
215
330
1F
100
AcDbEntity
  8
VISIBLE
100
AcDbEllipse
 10
0.1946017984406336
 20
5.794011082580325
 30
0.0
 11
-0.1025788683429925
 21
0.01532828288651356
 31
0.0
210
0.0
220
0.0
230
1.0
 40
0.4829629131445331
 41
1.955870024648341
 42
3.18844340784513
  0
ARC
  5
216
330
1F
100
AcDbEntity
  8
VISIBLE
100
AcDbCircle
 10
0.1934621014358959
 20
5.786384081574051
 30
0.0
 40
0.1040910275315675
100
AcDbArc
 50
357.0460030586315
 51
0.0
  0
ARC
  5
217
330
1F
100
AcDbEntity
  8
VISIBLE
100
AcDbCircle
 10
0.1934621014358959
 20
5.786384081574051
 30
0.0
 40
0.1040910275315675
100
AcDbArc
 50
0.0
 51
39.91395801040782
  0
ELLIPSE
  5
218
330
1F
100
AcDbEntity
  8
VISIBLE
100
AcDbEllipse
 10
0.4830999242588243
 20
5.386731812491159
 30
0.0
 11
-0.1037262973848803
 21
0.004733734294125824
 31
0.0
210
0.0
220
0.0
230
1.0
 40
0.1677312594965218
 41
6.271212213399068
 42
8.049205841311387
  0
ELLIPSE
  5
219
330
1F
100
AcDbEntity
  8
VISIBLE
100
AcDbEllipse
 10
0.4757137269476965
 20
5.379536040982299
 30
0.0
 11
0.0
 21
-0.1038342573987219
 31
0.0
210
0.0
220
0.0
230
1.0
 40
0.2588190451025197
 41
1.466691234666475
 42
3.160449255568456
  0
ARC
  5
21A
330
1F
100
AcDbEntity
  8
VISIBLE
100
AcDbCircle
 10
0.4827715324119843
 20
5.379536040982299
 30
0.0
 40
0.1040910275315675
100
AcDbArc
 50
94.16748914235926
 51
173.3038273395265
  0
ELLIPSE
  5
21B
330
1F
100
AcDbEntity
  8
VISIBLE
100
AcDbEllipse
 10
0.3307243327802718
 20
4.880463036851264
 30
0.0
 11
0.0
 21
0.1038342573987219
 31
0.0
210
0.0
220
0.0
230
1.0
 40
0.965925826289066
 41
3.226511600993186
 42
3.407332296640656
  0
ELLIPSE
  5
21C
330
1F
100
AcDbEntity
  8
VISIBLE
100
AcDbEllipse
 10
0.3373400137596114
 20
4.880463036851264
 30
0.0
 11
0.0
 21
0.1037177925275019
 31
0.0
210
0.0
220
0.0
230
-1.0
 40
0.2588190451025179
 41
2.246402190019935
 42
3.071085605760163
  0
ARC
  5
21D
330
1F
100
AcDbEntity
  8
VISIBLE
100
AcDbCircle
 10
0.3288331995057803
 20
4.880463036851264
 30
0.0
 40
0.1040910275315675
100
AcDbArc
 50
285.7366786268651
 51
322.3693441834059
  0
ELLIPSE
  5
21E
330
1F
100
AcDbEntity
  8
VISIBLE
100
AcDbEllipse
 10
0.1923224044311582
 20
5.190063719431801
 30
0.0
 11
-0.1025788683429925
 21
-0.01532828288651356
 31
0.0
210
0.0
220
0.0
230
-1.0
 40
0.4829629131445331
 41
1.95587002464835
 42
3.094741899334446
  0
ELLIPSE
  5
21F
330
1F
100
AcDbEntity
  8
VISIBLE
100
AcDbEllipse
 10
0.2019689156897271
 20
5.182436718425526
 30
0.0
 11
0.0
 21
0.1037177925275019
 31
0.0
210
0.0
220
0.0
230
-1.0
 40
0.2588190451025222
 41
0.0227541091035677
 42
0.9621830179120784
  0
ARC
  5
220
330
1F
100
AcDbEntity
  8
VISIBLE
100
AcDbCircle
 10
0.1934621014358959
 20
5.182436718425526
 30
0.0
 40
0.1040910275315675
100
AcDbArc
 50
14.04356446558772
 51
77.36285339039107
  0
ARC
  5
221
330
1F
100
AcDbEntity
  8
VISIBLE
100
AcDbCircle
 10
0.1934621014358959
 20
5.182436718425526
 30
0.0
 40
0.1040910275315675
100
AcDbArc
 50
77.36285339039107
 51
84.97488913569202
  0
ELLIPSE
  5
222
330
1F
100
AcDbEntity
  8
VISIBLE
100
AcDbEllipse
 10
0.1946017984406336
 20
5.794011082580325
 30
0.0
 11
-0.1025788683429925
 21
0.01532828288651356
 31
0.0
210
0.0
220
0.0
230
1.0
 40
0.4829629131445331
 41
6.236334552924237
 42
8.083533750713771
  0
ELLIPSE
  5
223
330
1F
100
AcDbEntity
  8
VISIBLE
100
AcDbEllipse
 10
0.1864042959716081
 20
5.786384081574051
 30
0.0
 11
0.0
 21
-0.1038342573987219
 31
0.0
210
0.0
220
0.0
230
1.0
 40
0.2588190451025154
 41
1.132116498599996
 42
2.169006473091465
  0
ARC
  5
224
330
1F
100
AcDbEntity
  8
VISIBLE
100
AcDbCircle
 10
0.1934621014358959
 20
5.786384081574051
 30
0.0
 40
0.1040910275315675
100
AcDbArc
 50
115.5801675160623
 51
165.9564355344123
  0
ELLIPSE
  5
225
330
1F
100
AcDbEntity
  8
VISIBLE
100
AcDbEllipse
 10
0.4727111118294962
 20
5.182436718425526
 30
0.0
 11
0.0
 21
0.1037177925275019
 31
0.0
210
0.0
220
0.0
230
-1.0
 40
0.2588190451025179
 41
0.4580967696174558
 42
2.023888054563546
  0
ELLIPSE
  5
226
330
1F
100
AcDbEntity
  8
VISIBLE
100
AcDbEllipse
 10
0.4651498642129104
 20
5.18876457369214
 30
0.0
 11
-0.1026940543144663
 21
0.01534549503930727
 31
0.0
210
0.0
220
0.0
230
1.0
 40
0.4829629131445319
 41
1.955774438767211
 42
3.180415031450203
  0
ARC
  5
227
330
1F
100
AcDbEntity
  8
VISIBLE
100
AcDbCircle
 10
0.4642042975756651
 20
5.182436718425526
 30
0.0
 40
0.1040910275315675
100
AcDbArc
 50
356.0992886070349
 51
0.0
  0
ARC
  5
228
330
1F
100
AcDbEntity
  8
VISIBLE
100
AcDbCircle
 10
0.4642042975756651
 20
5.182436718425526
 30
0.0
 40
0.1040910275315675
100
AcDbArc
 50
0.0
 51
66.59981267862105
  0
ELLIPSE
  5
229
330
1F
100
AcDbEntity
  8
VISIBLE
100
AcDbEllipse
 10
0.1923224044311582
 20
5.190063719431801
 30
0.0
 11
-0.1025788683429925
 21
-0.01532828288651356
 31
0.0
210
0.0
220
0.0
230
-1.0
 40
0.4829629131445331
 41
0.0468507542553366
 42
1.800348443534179
  0
ELLIPSE
  5
22A
330
1F
100
AcDbEntity
  8
VISIBLE
100
AcDbEllipse
 10
0.1864042959716081
 20
5.182436718425526
 30
0.0
 11
0.0
 21
-0.1038342573987219
 31
0.0
210
0.0
220
0.0
230
1.0
 40
0.2588190451025154
 41
2.179314049796574
 42
3.160449255568439
  0
ARC
  5
22B
330
1F
100
AcDbEntity
  8
VISIBLE
100
AcDbCircle
 10
0.1934621014358959
 20
5.182436718425526
 30
0.0
 40
0.1040910275315675
100
AcDbArc
 50
94.16748914235902
 51
97.83990187311531
  0
ARC
  5
22C
330
1F
100
AcDbEntity
  8
VISIBLE
100
AcDbCircle
 10
0.1934621014358959
 20
5.182436718425526
 30
0.0
 40
0.1040910275315675
100
AcDbArc
 50
97.83990187311531
 51
113.400187321379
  0
ARC
  5
22D
330
1F
100
AcDbEntity
  8
VISIBLE
100
AcDbCircle
 10
0.1934621014358959
 20
5.182436718425526
 30
0.0
 40
0.1040910275315675
100
AcDbArc
 50
113.400187321379
 51
182.9539969413684
  0
ELLIPSE
  5
22E
330
1F
100
AcDbEntity
  8
VISIBLE
100
AcDbEllipse
 10
0.1864042959716081
 20
5.786384081574051
 30
0.0
 11
0.0
 21
-0.1038342573987219
 31
0.0
210
0.0
220
0.0
230
1.0
 40
0.2588190451025154
 41
1.132116498599996
 42
2.169006473091465
  0
ELLIPSE
  5
22F
330
1F
100
AcDbEntity
  8
VISIBLE
100
AcDbEllipse
 10
0.1925165347986497
 20
5.780056226307437
 30
0.0
 11
0.1026940543144659
 21
-0.01534549503930727
 31
0.0
210
0.0
220
0.0
230
-1.0
 40
0.4829629131445339
 41
0.0388223778604099
 42
1.185818214822584
  0
ELLIPSE
  5
230
330
1F
100
AcDbEntity
  8
VISIBLE
100
AcDbEllipse
 10
0.2019689156897271
 20
5.786384081574051
 30
0.0
 11
0.0
 21
0.1037177925275019
 31
0.0
210
0.0
220
0.0
230
-1.0
 40
0.2588190451025222
 41
0.9928789577998036
 42
2.009380569108681
  0
ELLIPSE
  5
231
330
1F
100
AcDbEntity
  8
VISIBLE
100
AcDbEllipse
 10
0.1946017984406336
 20
5.794011082580325
 30
0.0
 11
-0.1025788683429925
 21
0.01532828288651356
 31
0.0
210
0.0
220
0.0
230
1.0
 40
0.4829629131445331
 41
6.236334552924237
 42
8.083533750713771
  0
ELLIPSE
  5
232
330
1F
100
AcDbEntity
  8
VISIBLE
100
AcDbEllipse
 10
0.1864042959716081
 20
5.786384081574051
 30
0.0
 11
0.0
 21
-0.1038342573987219
 31
0.0
210
0.0
220
0.0
230
1.0
 40
0.2588190451025154
 41
6.264328705200935
 42
7.259955025305185
  0
ELLIPSE
  5
233
330
1F
100
AcDbEntity
  8
VISIBLE
100
AcDbEllipse
 10
0.2019689156897271
 20
5.786384081574051
 30
0.0
 11
0.0
 21
0.1037177925275019
 31
0.0
210
0.0
220
0.0
230
-1.0
 40
0.2588190451025222
 41
2.164902150222841
 42
3.118838544486225
  0
ELLIPSE
  5
234
330
1F
100
AcDbEntity
  8
VISIBLE
100
AcDbEllipse
 10
0.1946017984406336
 20
5.794011082580325
 30
0.0
 11
-0.1025788683429925
 21
0.01532828288651356
 31
0.0
210
0.0
220
0.0
230
1.0
 40
0.4829629131445331
 41
1.955870024648341
 42
3.18844340784513
  0
ELLIPSE
  5
235
330
1F
100
AcDbEntity
  8
VISIBLE
100
AcDbEllipse
 10
0.1925165347986502
 20
5.780056226307437
 30
0.0
 11
0.1026940543144663
 21
-0.01534549503930727
 31
0.0
210
0.0
220
0.0
230
-1.0
 40
0.4829629131445319
 41
1.341164995296983
 42
3.10277027572938
  0
ARC
  5
236
330
1F
100
AcDbEntity
  8
VISIBLE
100
AcDbCircle
 10
0.1934621014358959
 20
5.786384081574051
 30
0.0
 40
0.1040910275315675
100
AcDbArc
 50
346.9031499860091
 51
357.0460030586315
  0
ARC
  5
237
330
1F
100
AcDbEntity
  8
VISIBLE
100
AcDbCircle
 10
0.1934621014358959
 20
5.786384081574051
 30
0.0
 40
0.1040910275315675
100
AcDbArc
 50
265.8325108576407
 51
270.9969964818512
  0
ARC
  5
238
330
1F
100
AcDbEntity
  8
VISIBLE
100
AcDbCircle
 10
0.1934621014358959
 20
5.786384081574051
 30
0.0
 40
0.1040910275315675
100
AcDbArc
 50
270.9969964818512
 51
275.025110864308
  0
ARC
  5
239
330
1F
100
AcDbEntity
  8
VISIBLE
100
AcDbCircle
 10
0.1934621014358959
 20
5.786384081574051
 30
0.0
 40
0.1040910275315675
100
AcDbArc
 50
165.9564355344123
 51
176.099288607035
  0
ELLIPSE
  5
23A
330
1F
100
AcDbEntity
  8
VISIBLE
100
AcDbEllipse
 10
0.4727111118294962
 20
5.182436718425526
 30
0.0
 11
0.0
 21
0.1037177925275019
 31
0.0
210
0.0
220
0.0
230
-1.0
 40
0.2588190451025179
 41
2.179409635677717
 42
3.118838544486225
  0
ELLIPSE
  5
23B
330
1F
100
AcDbEntity
  8
VISIBLE
100
AcDbEllipse
 10
0.4630646005709274
 20
5.174809717419252
 30
0.0
 11
0.1025788683429925
 21
-0.01532828288651356
 31
0.0
210
0.0
220
0.0
230
-1.0
 40
0.4829629131445325
 41
0.046850754255349
 42
1.185722628941448
  0
ARC
  5
23C
330
1F
100
AcDbEntity
  8
VISIBLE
100
AcDbCircle
 10
0.4642042975756651
 20
5.182436718425526
 30
0.0
 40
0.1040910275315675
100
AcDbArc
 50
275.025110864308
 51
276.0828023239481
  0
ARC
  5
23D
330
1F
100
AcDbEntity
  8
VISIBLE
100
AcDbCircle
 10
0.4642042975756651
 20
5.182436718425526
 30
0.0
 40
0.1040910275315675
100
AcDbArc
 50
276.0828023239481
 51
295.5801675160616
  0
ARC
  5
23E
330
1F
100
AcDbEntity
  8
VISIBLE
100
AcDbCircle
 10
0.4642042975756651
 20
5.182436718425526
 30
0.0
 40
0.1040910275315675
100
AcDbArc
 50
295.5801675160616
 51
345.9564355344123
  0
ELLIPSE
  5
23F
330
1F
100
AcDbEntity
  8
VISIBLE
100
AcDbEllipse
 10
0.3265538054963049
 20
4.880463036851264
 30
0.0
 11
0.0
 21
-0.1037177925275019
 31
0.0
210
0.0
220
0.0
230
-1.0
 40
0.9659258262890664
 41
0.3224555540444471
 42
2.819137099545338
  0
ARC
  5
240
330
1F
100
AcDbEntity
  8
VISIBLE
100
AcDbCircle
 10
0.3288331995057803
 20
4.880463036851264
 30
0.0
 40
0.1040910275315675
100
AcDbArc
 50
109.0806675438526
 51
110.9490927881388
  0
ARC
  5
241
330
1F
100
AcDbEntity
  8
VISIBLE
100
AcDbCircle
 10
0.3288331995057803
 20
4.880463036851264
 30
0.0
 40
0.1040910275315675
100
AcDbArc
 50
110.9490927881388
 51
111.7844641327065
  0
ARC
  5
242
330
1F
100
AcDbEntity
  8
VISIBLE
100
AcDbCircle
 10
0.3288331995057803
 20
4.880463036851264
 30
0.0
 40
0.1040910275315675
100
AcDbArc
 50
111.7844641327065
 51
113.6964702978372
  0
ARC
  5
243
330
1F
100
AcDbEntity
  8
VISIBLE
100
AcDbCircle
 10
0.3288331995057803
 20
4.880463036851264
 30
0.0
 40
0.1040910275315675
100
AcDbArc
 50
113.6964702978372
 51
217.6306558165955
  0
ARC
  5
244
330
1F
100
AcDbEntity
  8
VISIBLE
100
AcDbCircle
 10
0.3288331995057803
 20
4.880463036851264
 30
0.0
 40
0.1040910275315675
100
AcDbArc
 50
217.6306558165955
 51
250.9193324561474
  0
ELLIPSE
  5
245
330
1F
100
AcDbEntity
  8
VISIBLE
100
AcDbEllipse
 10
0.1944076680731417
 20
5.176108863158912
 30
0.0
 11
0.1026940543144663
 21
0.01534549503930727
 31
0.0
210
0.0
220
0.0
230
1.0
 40
0.4829629131445319
 41
6.244362929319157
 42
7.469003522002177
  0
ELLIPSE
  5
246
330
1F
100
AcDbEntity
  8
VISIBLE
100
AcDbEllipse
 10
0.2019689156897271
 20
5.182436718425526
 30
0.0
 11
0.0
 21
0.1037177925275019
 31
0.0
210
0.0
220
0.0
230
-1.0
 40
0.2588190451025222
 41
0.0227541091035677
 42
0.9621830179120784
  0
ELLIPSE
  5
247
330
1F
100
AcDbEntity
  8
VISIBLE
100
AcDbEllipse
 10
0.1923224044311582
 20
5.190063719431801
 30
0.0
 11
-0.1025788683429925
 21
-0.01532828288651356
 31
0.0
210
0.0
220
0.0
230
-1.0
 40
0.4829629131445331
 41
0.0468507542553366
 42
1.800348443534179
  0
ELLIPSE
  5
248
330
1F
100
AcDbEntity
  8
VISIBLE
100
AcDbEllipse
 10
0.1864042959716081
 20
5.182436718425526
 30
0.0
 11
0.0
 21
-0.1038342573987219
 31
0.0
210
0.0
220
0.0
230
1.0
 40
0.2588190451025154
 41
0.9725861804983119
 42
2.023967269322184
  0
ELLIPSE
  5
249
330
1F
100
AcDbEntity
  8
VISIBLE
100
AcDbEllipse
 10
0.2019689156897271
 20
5.182436718425526
 30
0.0
 11
0.0
 21
0.1037177925275019
 31
0.0
210
0.0
220
0.0
230
-1.0
 40
0.2588190451025222
 41
1.117704599026234
 42
2.148713695789989
  0
ELLIPSE
  5
24A
330
1F
100
AcDbEntity
  8
VISIBLE
100
AcDbEllipse
 10
0.1923224044311582
 20
5.190063719431801
 30
0.0
 11
-0.1025788683429925
 21
-0.01532828288651356
 31
0.0
210
0.0
220
0.0
230
-1.0
 40
0.4829629131445331
 41
1.95587002464835
 42
3.094741899334446
  0
ELLIPSE
  5
24B
330
1F
100
AcDbEntity
  8
VISIBLE
100
AcDbEllipse
 10
0.1864042959716081
 20
5.182436718425526
 30
0.0
 11
0.0
 21
-0.1038342573987219
 31
0.0
210
0.0
220
0.0
230
1.0
 40
0.2588190451025154
 41
2.179314049796574
 42
3.160449255568439
  0
ELLIPSE
  5
24C
330
1F
100
AcDbEntity
  8
VISIBLE
100
AcDbEllipse
 10
0.1944076680731417
 20
5.176108863158912
 30
0.0
 11
0.1026940543144663
 21
0.01534549503930727
 31
0.0
210
0.0
220
0.0
230
1.0
 40
0.4829629131445319
 41
1.341164995296968
 42
3.180415031450205
  0
ARC
  5
24D
330
1F
100
AcDbEntity
  8
VISIBLE
100
AcDbCircle
 10
0.1934621014358959
 20
5.182436718425526
 30
0.0
 40
0.1040910275315675
100
AcDbArc
 50
182.9539969413684
 51
193.0968500139904
  0
ARC
  5
24E
330
1F
100
AcDbEntity
  8
VISIBLE
100
AcDbCircle
 10
0.1934621014358959
 20
5.182436718425526
 30
0.0
 40
0.1040910275315675
100
AcDbArc
 50
84.97488913569202
 51
89.00300351815423
  0
ARC
  5
24F
330
1F
100
AcDbEntity
  8
VISIBLE
100
AcDbCircle
 10
0.1934621014358959
 20
5.182436718425526
 30
0.0
 40
0.1040910275315675
100
AcDbArc
 50
89.00300351815423
 51
94.16748914235902
  0
ARC
  5
250
330
1F
100
AcDbEntity
  8
VISIBLE
100
AcDbCircle
 10
0.1934621014358959
 20
5.182436718425526
 30
0.0
 40
0.1040910275315675
100
AcDbArc
 50
3.900711392965515
 51
14.04356446558772
  0
ELLIPSE
  5
251
330
1F
100
AcDbEntity
  8
VISIBLE
100
AcDbEllipse
 10
0.1864042959716081
 20
5.786384081574051
 30
0.0
 11
0.0
 21
-0.1038342573987219
 31
0.0
210
0.0
220
0.0
230
1.0
 40
0.2588190451025154
 41
6.264328705200935
 42
7.259955025305185
  0
ELLIPSE
  5
252
330
1F
100
AcDbEntity
  8
VISIBLE
100
AcDbEllipse
 10
0.1925165347986502
 20
5.780056226307437
 30
0.0
 11
0.1026940543144663
 21
-0.01534549503930727
 31
0.0
210
0.0
220
0.0
230
-1.0
 40
0.4829629131445319
 41
1.341164995296983
 42
3.10277027572938
  0
ARC
  5
253
330
1F
100
AcDbEntity
  8
VISIBLE
100
AcDbCircle
 10
0.1934621014358959
 20
5.786384081574051
 30
0.0
 40
0.1040910275315675
100
AcDbArc
 50
176.099288607035
 51
246.5998126786212
  0
ARC
  5
254
330
1F
100
AcDbEntity
  8
VISIBLE
100
AcDbCircle
 10
0.1934621014358959
 20
5.786384081574051
 30
0.0
 40
0.1040910275315675
100
AcDbArc
 50
246.5998126786212
 51
262.1600981268845
  0
ARC
  5
255
330
1F
100
AcDbEntity
  8
VISIBLE
100
AcDbCircle
 10
0.1934621014358959
 20
5.786384081574051
 30
0.0
 40
0.1040910275315675
100
AcDbArc
 50
262.1600981268845
 51
265.8325108576407
  0
ELLIPSE
  5
256
330
1F
100
AcDbEntity
  8
VISIBLE
100
AcDbEllipse
 10
0.4630646005709274
 20
5.174809717419252
 30
0.0
 11
0.1025788683429925
 21
-0.01532828288651356
 31
0.0
210
0.0
220
0.0
230
-1.0
 40
0.4829629131445325
 41
1.341244210055608
 42
3.094741899334456
  0
ELLIPSE
  5
257
330
1F
100
AcDbEntity
  8
VISIBLE
100
AcDbEllipse
 10
0.4571464921113773
 20
5.182436718425526
 30
0.0
 11
0.0
 21
-0.1038342573987219
 31
0.0
210
0.0
220
0.0
230
1.0
 40
0.2588190451025197
 41
6.264328705200918
 42
7.245463910972797
  0
ARC
  5
258
330
1F
100
AcDbEntity
  8
VISIBLE
100
AcDbCircle
 10
0.4642042975756651
 20
5.182436718425526
 30
0.0
 40
0.1040910275315675
100
AcDbArc
 50
177.0460030586316
 51
219.9139580104076
  0
ARC
  5
259
330
1F
100
AcDbEntity
  8
VISIBLE
100
AcDbCircle
 10
0.4642042975756651
 20
5.182436718425526
 30
0.0
 40
0.1040910275315675
100
AcDbArc
 50
219.9139580104076
 51
259.0651169651645
  0
ARC
  5
25A
330
1F
100
AcDbEntity
  8
VISIBLE
100
AcDbCircle
 10
0.4642042975756651
 20
5.182436718425526
 30
0.0
 40
0.1040910275315675
100
AcDbArc
 50
259.0651169651645
 51
265.8325108576407
  0
ELLIPSE
  5
25B
330
1F
100
AcDbEntity
  8
VISIBLE
100
AcDbEllipse
 10
0.3217753940414925
 20
4.880463036851264
 30
0.0
 11
0.0
 21
-0.1038342573987219
 31
0.0
210
0.0
220
0.0
230
1.0
 40
0.2588190451025197
 41
0.0704278330709956
 42
0.951935574277245
  0
ELLIPSE
  5
25C
330
1F
100
AcDbEntity
  8
VISIBLE
100
AcDbEllipse
 10
0.3265538054963049
 20
4.880463036851264
 30
0.0
 11
0.0
 21
-0.1037177925275019
 31
0.0
210
0.0
220
0.0
230
-1.0
 40
0.9659258262890664
 41
0.3224555540444471
 42
2.819137099545338
  0
ELLIPSE
  5
25D
330
1F
100
AcDbEntity
  8
VISIBLE
100
AcDbEllipse
 10
0.3373400137596114
 20
4.880463036851264
 30
0.0
 11
0.0
 21
0.1037177925275019
 31
0.0
210
0.0
220
0.0
230
-1.0
 40
0.2588190451025179
 41
2.246402190019935
 42
3.071085605760163
  0
ELLIPSE
  5
25E
330
1F
100
AcDbEntity
  8
VISIBLE
100
AcDbEllipse
 10
0.3307243327802718
 20
4.880463036851264
 30
0.0
 11
0.0
 21
0.1038342573987219
 31
0.0
210
0.0
220
0.0
230
1.0
 40
0.965925826289066
 41
3.226511600993186
 42
3.407332296640656
  0
ELLIPSE
  5
25F
330
1F
100
AcDbEntity
  8
VISIBLE
100
AcDbEllipse
 10
0.3307243327802718
 20
4.880463036851264
 30
0.0
 11
0.0
 21
0.1038342573987219
 31
0.0
210
0.0
220
0.0
230
1.0
 40
0.965925826289066
 41
0.3254684797744972
 42
3.071164820518794
  0
ARC
  5
260
330
1F
100
AcDbEntity
  8
VISIBLE
100
AcDbCircle
 10
0.3288331995057803
 20
4.880463036851264
 30
0.0
 40
0.1040910275315675
100
AcDbArc
 50
250.9193324561474
 51
285.7366786268651
  0
ARC
  5
261
330
1F
100
AcDbEntity
  8
VISIBLE
100
AcDbCircle
 10
0.3288331995057803
 20
4.880463036851264
 30
0.0
 40
0.1040910275315675
100
AcDbArc
 50
106.1619188375189
 51
108.5699978098543
  0
ARC
  5
262
330
1F
100
AcDbEntity
  8
VISIBLE
100
AcDbCircle
 10
0.3288331995057803
 20
4.880463036851264
 30
0.0
 40
0.1040910275315675
100
AcDbArc
 50
108.5699978098543
 51
109.0806675438526
  0
ELLIPSE
  5
263
330
1F
100
AcDbEntity
  8
VISIBLE
100
AcDbEllipse
 10
0.1864042959716081
 20
5.182436718425526
 30
0.0
 11
0.0
 21
-0.1038342573987219
 31
0.0
210
0.0
220
0.0
230
1.0
 40
0.2588190451025154
 41
0.9725861804983119
 42
2.023967269322184
  0
ELLIPSE
  5
264
330
1F
100
AcDbEntity
  8
VISIBLE
100
AcDbEllipse
 10
0.1944076680731417
 20
5.176108863158912
 30
0.0
 11
0.1026940543144663
 21
0.01534549503930727
 31
0.0
210
0.0
220
0.0
230
1.0
 40
0.4829629131445319
 41
1.341164995296968
 42
3.180415031450205
  0
ARC
  5
265
330
1F
100
AcDbEntity
  8
VISIBLE
100
AcDbCircle
 10
0.1934621014358959
 20
5.182436718425526
 30
0.0
 40
0.1040910275315675
100
AcDbArc
 50
193.0968500139904
 51
244.4198324839377
  0
ELLIPSE
  5
266
330
1F
100
AcDbEntity
  8
VISIBLE
100
AcDbEllipse
 10
0.2368639028179027
 20
5.947060921476075
 30
0.0
 11
0.0
 21
0.1037177925275019
 31
0.0
210
0.0
220
0.0
230
-1.0
 40
0.2588190451025179
 41
2.513968000621688
 42
3.118838544486225
  0
ELLIPSE
  5
267
330
1F
100
AcDbEntity
  8
VISIBLE
100
AcDbEllipse
 10
0.2269083964279499
 20
5.942364215186057
 30
0.0
 11
0.09922148952733424
 21
-0.03060472227485534
 31
0.0
210
0.0
220
0.0
230
-1.0
 40
0.739942111693845
 41
0.0774845712277141
 42
1.090925845565819
  0
ARC
  5
268
330
1F
100
AcDbEntity
  8
VISIBLE
100
AcDbCircle
 10
0.2283570885640716
 20
5.947060921476075
 30
0.0
 40
0.1040910275315675
100
AcDbArc
 50
275.025110864308
 51
295.580167516062
  0
ARC
  5
269
330
1F
100
AcDbEntity
  8
VISIBLE
100
AcDbCircle
 10
0.2283570885640716
 20
5.947060921476075
 30
0.0
 40
0.1040910275315675
100
AcDbArc
 50
295.580167516062
 51
336.8677344230678
  0
ELLIPSE
  5
26A
330
1F
100
AcDbEntity
  8
VISIBLE
100
AcDbEllipse
 10
0.4571464921113773
 20
5.182436718425526
 30
0.0
 11
0.0
 21
-0.1038342573987219
 31
0.0
210
0.0
220
0.0
230
1.0
 40
0.2588190451025197
 41
1.117625384267611
 42
2.702430168235485
  0
ELLIPSE
  5
26B
330
1F
100
AcDbEntity
  8
VISIBLE
100
AcDbEllipse
 10
0.4727111118294962
 20
5.182436718425526
 30
0.0
 11
0.0
 21
0.1037177925275019
 31
0.0
210
0.0
220
0.0
230
-1.0
 40
0.2588190451025179
 41
0.4580967696174558
 42
2.023888054563546
  0
ELLIPSE
  5
26C
330
1F
100
AcDbEntity
  8
VISIBLE
100
AcDbEllipse
 10
0.4630646005709274
 20
5.174809717419252
 30
0.0
 11
0.1025788683429925
 21
-0.01532828288651356
 31
0.0
210
0.0
220
0.0
230
-1.0
 40
0.4829629131445325
 41
0.046850754255349
 42
1.185722628941448
  0
ELLIPSE
  5
26D
330
1F
100
AcDbEntity
  8
VISIBLE
100
AcDbEllipse
 10
0.4571464921113773
 20
5.182436718425526
 30
0.0
 11
0.0
 21
-0.1038342573987219
 31
0.0
210
0.0
220
0.0
230
1.0
 40
0.2588190451025197
 41
6.264328705200918
 42
7.245463910972797
  0
ELLIPSE
  5
26E
330
1F
100
AcDbEntity
  8
VISIBLE
100
AcDbEllipse
 10
0.4651498642129113
 20
5.18876457369214
 30
0.0
 11
-0.1026940543144663
 21
0.01534549503930727
 31
0.0
210
0.0
220
0.0
230
1.0
 40
0.4829629131445319
 41
6.244362929319156
 42
8.083612965472401
  0
ELLIPSE
  5
26F
330
1F
100
AcDbEntity
  8
VISIBLE
100
AcDbEllipse
 10
0.4651498642129104
 20
5.18876457369214
 30
0.0
 11
-0.1026940543144663
 21
0.01534549503930727
 31
0.0
210
0.0
220
0.0
230
1.0
 40
0.4829629131445319
 41
1.955774438767211
 42
3.180415031450203
  0
ELLIPSE
  5
270
330
1F
100
AcDbEntity
  8
VISIBLE
100
AcDbEllipse
 10
0.4727111118294962
 20
5.182436718425526
 30
0.0
 11
0.0
 21
0.1037177925275019
 31
0.0
210
0.0
220
0.0
230
-1.0
 40
0.2588190451025179
 41
2.179409635677717
 42
3.118838544486225
  0
ELLIPSE
  5
271
330
1F
100
AcDbEntity
  8
VISIBLE
100
AcDbEllipse
 10
0.4630646005709274
 20
5.174809717419252
 30
0.0
 11
0.1025788683429925
 21
-0.01532828288651356
 31
0.0
210
0.0
220
0.0
230
-1.0
 40
0.4829629131445325
 41
1.341244210055608
 42
3.094741899334456
  0
ARC
  5
272
330
1F
100
AcDbEntity
  8
VISIBLE
100
AcDbCircle
 10
0.4642042975756651
 20
5.182436718425526
 30
0.0
 40
0.1040910275315675
100
AcDbArc
 50
345.9564355344123
 51
356.0992886070349
  0
ARC
  5
273
330
1F
100
AcDbEntity
  8
VISIBLE
100
AcDbCircle
 10
0.4642042975756651
 20
5.182436718425526
 30
0.0
 40
0.1040910275315675
100
AcDbArc
 50
265.8325108576407
 51
267.8508771095603
  0
ARC
  5
274
330
1F
100
AcDbEntity
  8
VISIBLE
100
AcDbCircle
 10
0.4642042975756651
 20
5.182436718425526
 30
0.0
 40
0.1040910275315675
100
AcDbArc
 50
267.8508771095603
 51
275.025110864308
  0
ARC
  5
275
330
1F
100
AcDbEntity
  8
VISIBLE
100
AcDbCircle
 10
0.4642042975756651
 20
5.182436718425526
 30
0.0
 40
0.1040910275315675
100
AcDbArc
 50
166.9031499860091
 51
177.0460030586316
  0
ELLIPSE
  5
276
330
1F
100
AcDbEntity
  8
VISIBLE
100
AcDbEllipse
 10
0.3217753940414925
 20
4.880463036851264
 30
0.0
 11
0.0
 21
-0.1038342573987219
 31
0.0
210
0.0
220
0.0
230
1.0
 40
0.2588190451025197
 41
0.0704278330709956
 42
0.951935574277245
  0
ELLIPSE
  5
277
330
1F
100
AcDbEntity
  8
VISIBLE
100
AcDbEllipse
 10
0.3307243327802718
 20
4.880463036851264
 30
0.0
 11
0.0
 21
0.1038342573987219
 31
0.0
210
0.0
220
0.0
230
1.0
 40
0.965925826289066
 41
0.3254684797744972
 42
3.071164820518794
  0
ELLIPSE
  5
278
330
1F
100
AcDbEntity
  8
VISIBLE
100
AcDbEllipse
 10
0.1752232584464175
 20
5.37234026947344
 30
0.0
 11
0.1037262973848798
 21
0.004733734294125824
 31
0.0
210
0.0
220
0.0
230
1.0
 40
0.1677312594965226
 41
6.271212213398978
 42
7.503410646163177
  0
ELLIPSE
  5
279
330
1F
100
AcDbEntity
  8
VISIBLE
100
AcDbEllipse
 10
0.1834016808534082
 20
5.379536040982299
 30
0.0
 11
0.0
 21
0.1037177925275019
 31
0.0
210
0.0
220
0.0
230
-1.0
 40
0.2588190451025222
 41
1.466770449425097
 42
2.68349588397234
  0
ARC
  5
27A
330
1F
100
AcDbEntity
  8
VISIBLE
100
AcDbCircle
 10
0.1748948665995766
 20
5.379536040982299
 30
0.0
 40
0.1040910275315675
100
AcDbArc
 50
293.4001873213787
 51
358.5297911442893
  0
ELLIPSE
  5
27B
330
1F
100
AcDbEntity
  8
VISIBLE
100
AcDbEllipse
 10
0.2368639028179027
 20
5.947060921476075
 30
0.0
 11
0.0
 21
0.1037177925275019
 31
0.0
210
0.0
220
0.0
230
-1.0
 40
0.2588190451025179
 41
1.556920958174892
 42
2.358446419507523
  0
ELLIPSE
  5
27C
330
1F
100
AcDbEntity
  8
VISIBLE
100
AcDbEllipse
 10
0.2301032056787093
 20
5.952721889069492
 30
0.0
 11
-0.09911019853061021
 21
0.03057039473086576
 31
0.0
210
0.0
220
0.0
230
1.0
 40
0.7399421116938515
 41
2.050762393905111
 42
3.118689169715616
  0
ENDSEC
  0
SECTION
  2
OBJECTS
  0
DICTIONARY
  5
C
330
0
100
AcDbDictionary
  3
ACAD_GROUP
350
D
  3
ACAD_LAYOUT
350
1A
  3
ACAD_MATERIAL
350
43
  3
ACAD_MLEADERSTYLE
350
2A0
  3
ACAD_MLINESTYLE
350
17
  3
ACAD_PLOTSETTINGS
350
19
  3
ACAD_SCALELIST
350
47
  3
ACAD_VISUALSTYLE
350
2A
  3
ACDBHEADERROUNDTRIPXREC
350
27F
  3
ACDBVARIABLEDICTIONARY
350
6C
  3
ONSHAPE_DATA
350
27D
  0
DICTIONARY
  5
D
102
{ACAD_REACTORS
330
C
102
}
330
C
100
AcDbDictionary
  0
DICTIONARY
  5
1A
102
{ACAD_REACTORS
330
C
102
}
330
C
100
AcDbDictionary
  0
DICTIONARY
  5
43
102
{ACAD_REACTORS
330
C
102
}
330
C
100
AcDbDictionary
  3
BYBLOCK
350
45
  3
BYLAYER
350
44
  3
GLOBAL
350
46
  0
DICTIONARY
  5
2A0
102
{ACAD_REACTORS
330
C
102
}
330
C
100
AcDbDictionary
  0
DICTIONARY
  5
17
102
{ACAD_REACTORS
330
C
102
}
330
C
100
AcDbDictionary
  3
STANDARD
350
18
  0
DICTIONARY
  5
19
102
{ACAD_REACTORS
330
C
102
}
330
C
100
AcDbDictionary
  0
DICTIONARY
  5
47
102
{ACAD_REACTORS
330
C
102
}
330
C
100
AcDbDictionary
  3
A0
350
48
  3
A1
350
49
  3
A2
350
4A
  3
A3
350
4B
  3
A4
350
4C
  3
A5
350
4D
  3
A6
350
4E
  3
A7
350
4F
  3
A8
350
50
  3
A9
350
51
  3
B0
350
52
  3
B1
350
53
  3
B2
350
54
  3
B3
350
55
  3
B4
350
56
  3
B5
350
57
  3
B6
350
58
  3
B7
350
59
  3
B8
350
5A
  3
B9
350
5B
  3
C0
350
5C
  3
C1
350
5D
  3
C2
350
5E
  3
C3
350
5F
  3
C4
350
60
  3
C5
350
61
  3
C6
350
62
  3
C7
350
63
  3
C8
350
64
  3
C9
350
65
  3
D0
350
66
  3
D1
350
67
  3
D2
350
68
  0
DICTIONARY
  5
2A
102
{ACAD_REACTORS
330
C
102
}
330
C
100
AcDbDictionary
  3
2DWIREFRAME
350
2F
  3
BASIC
350
32
  3
BRIGHTEN
350
36
  3
COLORCHANGE
350
3A
  3
CONCEPTUAL
350
34
  3
DIM
350
35
  3
EDGECOLOROFF
350
3D
  3
FACEPATTERN
350
39
  3
FLAT
350
2B
  3
FLATWITHEDGES
350
2C
  3
GOURAUD
350
2D
  3
GOURAUDWITHEDGES
350
2E
  3
HIDDEN
350
31
  3
JITTEROFF
350
3B
  3
LINEPATTERN
350
38
  3
OVERHANGOFF
350
3C
  3
REALISTIC
350
33
  3
SHADED
350
42
  3
SHADED_WITH_EDGES
350
41
  3
SHADES_OF_GRAY
350
3E
  3
SKETCHY
350
3F
  3
THICKEN
350
37
  3
WIREFRAME
350
30
  3
X-RAY
350
40
  0
DICTIONARY
  5
27F
102
{ACAD_REACTORS
330
C
102
}
330
C
100
AcDbDictionary
  3
CEPSNTYPE
350
288
  3
DIMSTYLEDATA
350
29E
  3
FINGERPRINTGUID
350
289
  3
HYPERLINKBASE
350
282
  3
INSUNITS
350
287
  3
LAYOUTDICT
350
284
  3
LWETCUNION
350
286
  3
PLOTSETDICT
350
285
  3
PSVPSCALE
350
28B
  3
PUCSBASE
350
28E
  3
PUCSORGBACK
350
294
  3
PUCSORGBOTTOM
350
290
  3
PUCSORGFRONT
350
293
  3
PUCSORGLEFT
350
291
  3
PUCSORGRIGHT
350
292
  3
PUCSORGTOP
350
28F
  3
PUCSORTHOREF
350
28C
  3
PUCSORTHOVIEW
350
28D
  3
STYLESHEET
350
283
  3
TSTACKALIGN
350
280
  3
TSTACKSIZE
350
281
  3
UCSBASE
350
297
  3
UCSORGBACK
350
29D
  3
UCSORGBOTTOM
350
299
  3
UCSORGFRONT
350
29C
  3
UCSORGLEFT
350
29A
  3
UCSORGRIGHT
350
29B
  3
UCSORGTOP
350
298
  3
UCSORTHOREF
350
295
  3
UCSORTHOVIEW
350
296
  3
VERSIONGUID
350
28A
  0
DICTIONARY
  5
6C
102
{ACAD_REACTORS
330
C
102
}
330
C
100
AcDbDictionary
  3
CANNOSCALE
350
2A5
  3
CTABLESTYLE
350
29F
  3
DIMASSOC
350
2A3
  3
HIDETEXT
350
2A4
  3
MSLTSCALE
350
2A6
  3
OLEFRAME
350
6D
  0
DICTIONARY
  5
27D
102
{ACAD_REACTORS
330
C
102
}
330
C
100
AcDbDictionary
280
     1
  3
DIM_UNITS
360
27E
  0
MATERIAL
  5
45
102
{ACAD_REACTORS
330
43
102
}
102
{ACAD_XDICTIONARY
360
2A9
102
}
330
43
100
AcDbMaterial
  1
BYBLOCK
  0
MATERIAL
  5
44
102
{ACAD_REACTORS
330
43
102
}
102
{ACAD_XDICTIONARY
360
2A7
102
}
330
43
100
AcDbMaterial
  1
BYLAYER
  0
MATERIAL
  5
46
102
{ACAD_REACTORS
330
43
102
}
102
{ACAD_XDICTIONARY
360
2AB
102
}
330
43
100
AcDbMaterial
  1
GLOBAL
  0
MLINESTYLE
  5
18
102
{ACAD_REACTORS
330
17
102
}
330
17
100
AcDbMlineStyle
  2
Standard
 70
     0
  3

 62
   256
 51
90.0
 52
90.0
 71
     2
 49
0.5
 62
   256
  6
BYLAYER
 49
-0.5
 62
   256
  6
BYLAYER
  0
ACAD_PROXY_OBJECT
  5
48
102
{ACAD_REACTORS
330
47
102
}
330
47
100
AcDbProxyObject
 90
      499
 91
      503
 93
       41
310
903313A31580
  0
ACAD_PROXY_OBJECT
  5
49
102
{ACAD_REACTORS
330
47
102
}
330
47
100
AcDbProxyObject
 90
      499
 91
      503
 93
      105
310
903313A324000000000000004000
  0
ACAD_PROXY_OBJECT
  5
4A
102
{ACAD_REACTORS
330
47
102
}
330
47
100
AcDbProxyObject
 90
      499
 91
      503
 93
      105
310
903313A344000000000000104000
  0
ACAD_PROXY_OBJECT
  5
4B
102
{ACAD_REACTORS
330
47
102
}
330
47
100
AcDbProxyObject
 90
      499
 91
      503
 93
      105
310
903313A354000000000000144000
  0
ACAD_PROXY_OBJECT
  5
4C
102
{ACAD_REACTORS
330
47
102
}
330
47
100
AcDbProxyObject
 90
      499
 91
      503
 93
      105
310
903313A384000000000000204000
  0
ACAD_PROXY_OBJECT
  5
4D
102
{ACAD_REACTORS
330
47
102
}
330
47
100
AcDbProxyObject
 90
      499
 91
      503
 93
      113
310
904313A31304000000000000244000
  0
ACAD_PROXY_OBJECT
  5
4E
102
{ACAD_REACTORS
330
47
102
}
330
47
100
AcDbProxyObject
 90
      499
 91
      503
 93
      113
310
904313A31364000000000000304000
  0
ACAD_PROXY_OBJECT
  5
4F
102
{ACAD_REACTORS
330
47
102
}
330
47
100
AcDbProxyObject
 90
      499
 91
      503
 93
      113
310
904313A32304000000000000344000
  0
ACAD_PROXY_OBJECT
  5
50
102
{ACAD_REACTORS
330
47
102
}
330
47
100
AcDbProxyObject
 90
      499
 91
      503
 93
      113
310
904313A333040000000000003E4000
  0
ACAD_PROXY_OBJECT
  5
51
102
{ACAD_REACTORS
330
47
102
}
330
47
100
AcDbProxyObject
 90
      499
 91
      503
 93
      113
310
904313A34304000000000000444000
  0
ACAD_PROXY_OBJECT
  5
52
102
{ACAD_REACTORS
330
47
102
}
330
47
100
AcDbProxyObject
 90
      499
 91
      503
 93
      113
310
904313A35304000000000000494000
  0
ACAD_PROXY_OBJECT
  5
53
102
{ACAD_REACTORS
330
47
102
}
330
47
100
AcDbProxyObject
 90
      499
 91
      503
 93
      121
310
905313A3130304000000000000594000
  0
ACAD_PROXY_OBJECT
  5
54
102
{ACAD_REACTORS
330
47
102
}
330
47
100
AcDbProxyObject
 90
      499
 91
      503
 93
      105
310
903323A310000000000000010100
  0
ACAD_PROXY_OBJECT
  5
55
102
{ACAD_REACTORS
330
47
102
}
330
47
100
AcDbProxyObject
 90
      499
 91
      503
 93
      105
310
903343A310000000000000410100
  0
ACAD_PROXY_OBJECT
  5
56
102
{ACAD_REACTORS
330
47
102
}
330
47
100
AcDbProxyObject
 90
      499
 91
      503
 93
      105
310
903383A310000000000000810100
  0
ACAD_PROXY_OBJECT
  5
57
102
{ACAD_REACTORS
330
47
102
}
330
47
100
AcDbProxyObject
 90
      499
 91
      503
 93
      113
310
90431303A310000000000000910100
  0
ACAD_PROXY_OBJECT
  5
58
102
{ACAD_REACTORS
330
47
102
}
330
47
100
AcDbProxyObject
 90
      499
 91
      503
 93
      121
310
9053130303A310000000000001650100
  0
ACAD_PROXY_OBJECT
  5
59
102
{ACAD_REACTORS
330
47
102
}
330
47
100
AcDbProxyObject
 90
      499
 91
      503
 93
      257
310
90E312F31323822203D2031272D3022000000000000200FC000000000000284000
  0
ACAD_PROXY_OBJECT
  5
5A
102
{ACAD_REACTORS
330
47
102
}
330
47
100
AcDbProxyObject
 90
      499
 91
      503
 93
      249
310
90D312F363422203D2031272D3022000000000000240FC000000000000284000
  0
ACAD_PROXY_OBJECT
  5
5B
102
{ACAD_REACTORS
330
47
102
}
330
47
100
AcDbProxyObject
 90
      499
 91
      503
 93
      249
310
90D312F333222203D2031272D3022000000000000280FC000000000000284000
  0
ACAD_PROXY_OBJECT
  5
5C
102
{ACAD_REACTORS
330
47
102
}
330
47
100
AcDbProxyObject
 90
      499
 91
      503
 93
      249
310
90D312F313622203D2031272D30220000000000002C0FC000000000000284000
  0
ACAD_PROXY_OBJECT
  5
5D
102
{ACAD_REACTORS
330
47
102
}
330
47
100
AcDbProxyObject
 90
      499
 91
      503
 93
      249
310
90D332F333222203D2031272D30220000000000002E0FC000000000000284000
  0
ACAD_PROXY_OBJECT
  5
5E
102
{ACAD_REACTORS
330
47
102
}
330
47
100
AcDbProxyObject
 90
      499
 91
      503
 93
      241
310
90C312F3822203D2031272D3022000000000000300FC000000000000284000
  0
ACAD_PROXY_OBJECT
  5
5F
102
{ACAD_REACTORS
330
47
102
}
330
47
100
AcDbProxyObject
 90
      499
 91
      503
 93
      249
310
90D332F313622203D2031272D3022000000000000320FC000000000000284000
  0
ACAD_PROXY_OBJECT
  5
60
102
{ACAD_REACTORS
330
47
102
}
330
47
100
AcDbProxyObject
 90
      499
 91
      503
 93
      241
310
90C312F3422203D2031272D3022000000000000340FC000000000000284000
  0
ACAD_PROXY_OBJECT
  5
61
102
{ACAD_REACTORS
330
47
102
}
330
47
100
AcDbProxyObject
 90
      499
 91
      503
 93
      241
310
90C332F3822203D2031272D3022000000000000360FC000000000000284000
  0
ACAD_PROXY_OBJECT
  5
62
102
{ACAD_REACTORS
330
47
102
}
330
47
100
AcDbProxyObject
 90
      499
 91
      503
 93
      241
310
90C312F3222203D2031272D3022000000000000380FC000000000000284000
  0
ACAD_PROXY_OBJECT
  5
63
102
{ACAD_REACTORS
330
47
102
}
330
47
100
AcDbProxyObject
 90
      499
 91
      503
 93
      241
310
90C332F3422203D2031272D30220000000000003A0FC000000000000284000
  0
ACAD_PROXY_OBJECT
  5
64
102
{ACAD_REACTORS
330
47
102
}
330
47
100
AcDbProxyObject
 90
      499
 91
      503
 93
      161
310
90A3122203D2031272D30224000000000000284000
  0
ACAD_PROXY_OBJECT
  5
65
102
{ACAD_REACTORS
330
47
102
}
330
47
100
AcDbProxyObject
 90
      499
 91
      503
 93
      257
310
90E312D312F3222203D2031272D30220000000000003E0FC000000000000284000
  0
ACAD_PROXY_OBJECT
  5
66
102
{ACAD_REACTORS
330
47
102
}
330
47
100
AcDbProxyObject
 90
      499
 91
      503
 93
      225
310
90A3322203D2031272D302200000000000002100000000000000284000
  0
ACAD_PROXY_OBJECT
  5
67
102
{ACAD_REACTORS
330
47
102
}
330
47
100
AcDbProxyObject
 90
      499
 91
      503
 93
      225
310
90A3622203D2031272D302200000000000006100000000000000284000
  0
ACAD_PROXY_OBJECT
  5
68
102
{ACAD_REACTORS
330
47
102
}
330
47
100
AcDbProxyObject
 90
      499
 91
      503
 93
      249
310
90D31272D3022203D2031272D30220000000000000A100000000000000284000
  0
ACAD_PROXY_OBJECT
  5
2F
102
{ACAD_REACTORS
330
2A
102
}
330
2A
100
AcDbProxyObject
 90
      499
 91
      501
 93
      436
310
42CC9915DA5C99599C985B595049028333333333333E33F0000000000000F90107901411070040501600405405064090741402480A0340
1001
ACAD
1000
AcDbSavedByObjectVersion
1070
     0
  0
ACAD_PROXY_OBJECT
  5
32
102
{ACAD_REACTORS
330
2A
102
}
330
2A
100
AcDbProxyObject
 90
      499
 91
      501
 93
      388
310
4150985CDA58D07406404333333333333E33F0000000000000F90107A41107004050150841D405064090741402480A0350
1001
ACAD
1000
AcDbSavedByObjectVersion
1070
     0
  0
ACAD_PROXY_OBJECT
  5
36
102
{ACAD_REACTORS
330
2A
102
}
330
2A
100
AcDbProxyObject
 90
      499
 91
      501
 93
      428
310
42109C9A59DA1D195B90C409028333333333333E33F0000000000000F9010790141107004050150841D405064090741402480A029950
1001
ACAD
1000
AcDbSavedByObjectVersion
1070
     0
  0
ACAD_PROXY_OBJECT
  5
3A
102
{ACAD_REACTORS
330
2A
102
}
330
2A
100
AcDbProxyObject
 90
      499
 91
      501
 93
      452
310
42D0DBDB1BDC90DA185B99D95104090240C333333333333E33F0000000000000F90108901411070040501508421405064090741402480A0350
1001
ACAD
1000
AcDbSavedByObjectVersion
1070
     0
  0
ACAD_PROXY_OBJECT
  5
34
102
{ACAD_REACTORS
330
2A
102
}
330
2A
100
AcDbProxyObject
 90
      499
 91
      501
 93
      500
310
4290DBDB98D95C1D1D585B10940D028333333333333E33F0000000000000F90107902409070040501000000000018199010841D405064090740C02480A0340
1001
ACAD
1000
AcDbSavedByObjectVersion
1070
     0
  0
ACAD_PROXY_OBJECT
  5
35
102
{ACAD_REACTORS
330
2A
102
}
330
2A
100
AcDbProxyObject
 90
      499
 91
      501
 93
      412
310
40D11A5B50B409028333333333333E33F0000000000000F9010790141107004050150841D405064090741402480A02677FFFFFD0
1001
ACAD
1000
AcDbSavedByObjectVersion
1070
     0
  0
ACAD_PROXY_OBJECT
  5
3D
102
{ACAD_REACTORS
330
2A
102
}
330
2A
100
AcDbProxyObject
 90
      499
 91
      501
 93
      452
310
43115919D950DBDB1BDC93D999916409028333333333333E33F0000000000000F9010790141107004050150841D405064090741402480A0350
1001
ACAD
1000
AcDbSavedByObjectVersion
1070
     0
  0
ACAD_PROXY_OBJECT
  5
39
102
{ACAD_REACTORS
330
2A
102
}
330
2A
100
AcDbProxyObject
 90
      499
 91
      501
 93
      444
310
42D19858D95C185D1D195C9B90F409028333333333333E33F0000000000000F9010790141107004050150841D405064090741402480A0350
1001
ACAD
1000
AcDbSavedByObjectVersion
1070
     0
  0
ACAD_PROXY_OBJECT
  5
2B
102
{ACAD_REACTORS
330
2A
102
}
330
2A
100
AcDbProxyObject
 90
      499
 91
      501
 93
      380
310
41119B185D240901404333333333333E33F0000000000000F9010740A907004050150841D405064090741402480A1B50
1001
ACAD
1000
AcDbSavedByObjectVersion
1070
     0
  0
ACAD_PROXY_OBJECT
  5
2C
102
{ACAD_REACTORS
330
2A
102
}
330
2A
100
AcDbProxyObject
 90
      499
 91
      501
 93
      468
310
43519B185D15DA5D1A115919D95CD0140901404333333333333E33F0000000000000F90107409019070040501600405405064090741402480A1B50
1001
ACAD
1000
AcDbSavedByObjectVersion
1070
     0
  0
ACAD_PROXY_OBJECT
  5
2D
102
{ACAD_REACTORS
330
2A
102
}
330
2A
100
AcDbProxyObject
 90
      499
 91
      501
 93
      404
310
41D1DBDD5C985D5910240902404333333333333E33F0000000000000F9010740A9070040501641D405064090741402480A1B50
1001
ACAD
1000
AcDbSavedByObjectVersion
1070
     0
  0
ACAD_PROXY_OBJECT
  5
2E
102
{ACAD_REACTORS
330
2A
102
}
330
2A
100
AcDbProxyObject
 90
      499
 91
      501
 93
      492
310
4411DBDD5C985D5915DA5D1A115919D95CD0340902404333333333333E33F0000000000000F90107409019070040501600405405064090741402480A1B50
1001
ACAD
1000
AcDbSavedByObjectVersion
1070
     0
  0
ACAD_PROXY_OBJECT
  5
31
102
{ACAD_REACTORS
330
2A
102
}
330
2A
100
AcDbProxyObject
 90
      499
 91
      501
 93
      476
310
41921A5919195B90640502408333333333333E33F0000000000000F901079024090700405020000000000001110200405405064090740C02480A0340
1001
ACAD
1000
AcDbSavedByObjectVersion
1070
     0
  0
ACAD_PROXY_OBJECT
  5
3B
102
{ACAD_REACTORS
330
2A
102
}
330
2A
100
AcDbProxyObject
 90
      499
 91
      501
 93
      428
310
42529A5D1D195C93D999914409028333333333333E33F0000000000000F9010790141107004050150A41D405064090741402480A0350
1001
ACAD
1000
AcDbSavedByObjectVersion
1070
     0
  0
ACAD_PROXY_OBJECT
  5
38
102
{ACAD_REACTORS
330
2A
102
}
330
2A
100
AcDbProxyObject
 90
      499
 91
      501
 93
      444
310
42D31A5B995C185D1D195C9B90E409028333333333333E33F0000000000000F9010790141107004050750841D405064090741402483A0350
1001
ACAD
1000
AcDbSavedByObjectVersion
1070
     0
  0
ACAD_PROXY_OBJECT
  5
3C
102
{ACAD_REACTORS
330
2A
102
}
330
2A
100
AcDbProxyObject
 90
      499
 91
      501
 93
      444
310
42D3DD995C9A185B99D3D999915409028333333333333E33F0000000000000F9010790141107004050150941D405064090741402480A0350
1001
ACAD
1000
AcDbSavedByObjectVersion
1070
     0
  0
ACAD_PROXY_OBJECT
  5
33
102
{ACAD_REACTORS
330
2A
102
}
330
2A
100
AcDbProxyObject
 90
      499
 91
      501
 93
      428
310
425499585B1A5CDD1A58D08409038333333333333E33F0000000000000F9010740A907004050150800405405064090740C02480A1B40
1001
ACAD
1000
AcDbSavedByObjectVersion
1070
     0
  0
ACAD_PROXY_OBJECT
  5
42
102
{ACAD_REACTORS
330
2A
102
}
330
2A
100
AcDbProxyObject
 90
      499
 91
      501
 93
      420
310
4194DA1859195911B40902404333333333333E33F0000000000000F9010740A41107004050150800405405064090840C02480A0B40
1001
ACAD
1000
AcDbSavedByObjectVersion
1070
     0
  0
ACAD_PROXY_OBJECT
  5
41
102
{ACAD_REACTORS
330
2A
102
}
330
2A
100
AcDbProxyObject
 90
      499
 91
      501
 93
      516
310
4454DA18591959081DDA5D1A08195919D95CD1A40902404333333333333E33F0000000000000F901074090142907004050250800405405064090740C02480A0B40
1001
ACAD
1000
AcDbSavedByObjectVersion
1070
     0
  0
ACAD_PROXY_OBJECT
  5
3E
102
{ACAD_REACTORS
330
2A
102
}
330
2A
100
AcDbProxyObject
 90
      499
 91
      501
 93
      532
310
4394DA1859195CC81BD98811DC985E5174090240C333333333333E33F0000000000000F901079024090741D01000000000000111010841D405064090740C02480A0340
1001
ACAD
1000
AcDbSavedByObjectVersion
1070
     0
  0
ACAD_PROXY_OBJECT
  5
3F
102
{ACAD_REACTORS
330
2A
102
}
330
2A
100
AcDbProxyObject
 90
      499
 91
      501
 93
      476
310
41D4DAD95D18DA1E51840502408333333333333E33F0000000000000F901079024090741D01000000000000111010B41D405064090741802480A0340
1001
ACAD
1000
AcDbSavedByObjectVersion
1070
     0
  0
ACAD_PROXY_OBJECT
  5
37
102
{ACAD_REACTORS
330
2A
102
}
330
2A
100
AcDbProxyObject
 90
      499
 91
      501
 93
      412
310
41D51A1A58DAD95B90D409028333333333333E33F0000000000000F9010790141107004050150C41D405064090741402480A0350
1001
ACAD
1000
AcDbSavedByObjectVersion
1070
     0
  0
ACAD_PROXY_OBJECT
  5
30
102
{ACAD_REACTORS
330
2A
102
}
330
2A
100
AcDbProxyObject
 90
      499
 91
      501
 93
      420
310
4255DA5C99599C985B595059028333333333333E33F0000000000000F90107901411070040501600405405064090740C02480A0340
1001
ACAD
1000
AcDbSavedByObjectVersion
1070
     0
  0
ACAD_PROXY_OBJECT
  5
40
102
{ACAD_REACTORS
330
2A
102
}
330
2A
100
AcDbProxyObject
 90
      499
 91
      501
 93
      404
310
41560B54985E51940902404000000000000E03F0000000000000F9010740501907004050150841D405064090740C02480A1B40
1001
ACAD
1000
AcDbSavedByObjectVersion
1070
     0
  0
XRECORD
  5
288
102
{ACAD_REACTORS
330
27F
102
}
330
27F
100
AcDbXrecord
 90
        0
  0
XRECORD
  5
29E
102
{ACAD_REACTORS
330
27F
102
}
330
27F
100
AcDbXrecord
1000
DSTYLE
1002
{
1070
   179
 70
     1
1070
   271
 70
     3
1070
    44
 40
0.08
1070
   371
 70
    13
1070
   372
 70
    13
1070
   272
 70
     3
1070
   340
340
70
1070
   140
 40
0.12
1070
   284
 70
     7
1070
   288
 70
     1
1070
    78
 70
     7
1070
    90
 70
     1
1002
}
  0
XRECORD
  5
289
102
{ACAD_REACTORS
330
27F
102
}
330
27F
100
AcDbXrecord
  1
{DB548CD5-9128-7E1D-4276-E06E89457167}
  0
XRECORD
  5
282
102
{ACAD_REACTORS
330
27F
102
}
330
27F
100
AcDbXrecord
  1

  0
XRECORD
  5
287
102
{ACAD_REACTORS
330
27F
102
}
330
27F
100
AcDbXrecord
 90
        1
  0
XRECORD
  5
284
102
{ACAD_REACTORS
330
27F
102
}
330
27F
100
AcDbXrecord
340
1A
  0
XRECORD
  5
286
102
{ACAD_REACTORS
330
27F
102
}
330
27F
100
AcDbXrecord
 90
    10269
  0
XRECORD
  5
285
102
{ACAD_REACTORS
330
27F
102
}
330
27F
100
AcDbXrecord
340
19
  0
XRECORD
  5
28B
102
{ACAD_REACTORS
330
27F
102
}
330
27F
100
AcDbXrecord
 40
0.0
  0
XRECORD
  5
28E
102
{ACAD_REACTORS
330
27F
102
}
330
27F
100
AcDbXrecord
340
0
  0
XRECORD
  5
294
102
{ACAD_REACTORS
330
27F
102
}
330
27F
100
AcDbXrecord
 10
0.0
 20
0.0
 30
0.0
  0
XRECORD
  5
290
102
{ACAD_REACTORS
330
27F
102
}
330
27F
100
AcDbXrecord
 10
0.0
 20
0.0
 30
0.0
  0
XRECORD
  5
293
102
{ACAD_REACTORS
330
27F
102
}
330
27F
100
AcDbXrecord
 10
0.0
 20
0.0
 30
0.0
  0
XRECORD
  5
291
102
{ACAD_REACTORS
330
27F
102
}
330
27F
100
AcDbXrecord
 10
0.0
 20
0.0
 30
0.0
  0
XRECORD
  5
292
102
{ACAD_REACTORS
330
27F
102
}
330
27F
100
AcDbXrecord
 10
0.0
 20
0.0
 30
0.0
  0
XRECORD
  5
28F
102
{ACAD_REACTORS
330
27F
102
}
330
27F
100
AcDbXrecord
 10
0.0
 20
0.0
 30
0.0
  0
XRECORD
  5
28C
102
{ACAD_REACTORS
330
27F
102
}
330
27F
100
AcDbXrecord
340
0
  0
XRECORD
  5
28D
102
{ACAD_REACTORS
330
27F
102
}
330
27F
100
AcDbXrecord
 70
     0
  0
XRECORD
  5
283
102
{ACAD_REACTORS
330
27F
102
}
330
27F
100
AcDbXrecord
  1

  0
XRECORD
  5
280
102
{ACAD_REACTORS
330
27F
102
}
330
27F
100
AcDbXrecord
 90
        1
  0
XRECORD
  5
281
102
{ACAD_REACTORS
330
27F
102
}
330
27F
100
AcDbXrecord
 90
       70
  0
XRECORD
  5
297
102
{ACAD_REACTORS
330
27F
102
}
330
27F
100
AcDbXrecord
340
0
  0
XRECORD
  5
29D
102
{ACAD_REACTORS
330
27F
102
}
330
27F
100
AcDbXrecord
 10
0.0
 20
0.0
 30
0.0
  0
XRECORD
  5
299
102
{ACAD_REACTORS
330
27F
102
}
330
27F
100
AcDbXrecord
 10
0.0
 20
0.0
 30
0.0
  0
XRECORD
  5
29C
102
{ACAD_REACTORS
330
27F
102
}
330
27F
100
AcDbXrecord
 10
0.0
 20
0.0
 30
0.0
  0
XRECORD
  5
29A
102
{ACAD_REACTORS
330
27F
102
}
330
27F
100
AcDbXrecord
 10
0.0
 20
0.0
 30
0.0
  0
XRECORD
  5
29B
102
{ACAD_REACTORS
330
27F
102
}
330
27F
100
AcDbXrecord
 10
0.0
 20
0.0
 30
0.0
  0
XRECORD
  5
298
102
{ACAD_REACTORS
330
27F
102
}
330
27F
100
AcDbXrecord
 10
0.0
 20
0.0
 30
0.0
  0
XRECORD
  5
295
102
{ACAD_REACTORS
330
27F
102
}
330
27F
100
AcDbXrecord
340
0
  0
XRECORD
  5
296
102
{ACAD_REACTORS
330
27F
102
}
330
27F
100
AcDbXrecord
 70
     0
  0
XRECORD
  5
28A
102
{ACAD_REACTORS
330
27F
102
}
330
27F
100
AcDbXrecord
  1
{FAEB1C32-E019-11D5-929B-00C0DF256EC4}
  0
DICTIONARYVAR
  5
2A5
102
{ACAD_REACTORS
330
6C
102
}
330
6C
100
DictionaryVariables
280
     0
  1
1:1
  0
DICTIONARYVAR
  5
29F
102
{ACAD_REACTORS
330
6C
102
}
330
6C
100
DictionaryVariables
280
     0
  1
Standard
  0
DICTIONARYVAR
  5
2A3
102
{ACAD_REACTORS
330
6C
102
}
330
6C
100
DictionaryVariables
280
     0
  1
2
  0
DICTIONARYVAR
  5
2A4
102
{ACAD_REACTORS
330
6C
102
}
330
6C
100
DictionaryVariables
280
     0
  1
1
  0
DICTIONARYVAR
  5
2A6
102
{ACAD_REACTORS
330
6C
102
}
330
6C
100
DictionaryVariables
280
     0
  1
1
  0
DICTIONARYVAR
  5
6D
102
{ACAD_REACTORS
330
6C
102
}
330
6C
100
DictionaryVariables
280
     0
  1
0
  0
XRECORD
  5
27E
102
{ACAD_REACTORS
330
27D
102
}
330
27D
100
AcDbXrecord
 70
     1
  0
DICTIONARY
  5
2A9
330
45
100
AcDbDictionary
280
     1
  3
ACAD_XREC_ROUNDTRIP
360
2AA
  0
DICTIONARY
  5
2A7
330
44
100
AcDbDictionary
280
     1
  3
ACAD_XREC_ROUNDTRIP
360
2A8
  0
DICTIONARY
  5
2AB
330
46
100
AcDbDictionary
280
     1
  3
ACAD_XREC_ROUNDTRIP
360
2AC
  0
XRECORD
  5
2AA
102
{ACAD_REACTORS
330
2A9
102
}
330
2A9
100
AcDbXrecord
102
MATERIAL
148
0.0
149
0.0
149
0.0
 93
        0
 94
      127
282
     0
 72
     1
 77
     1
171
     1
175
     1
179
     1
273
     0
  0
XRECORD
  5
2A8
102
{ACAD_REACTORS
330
2A7
102
}
330
2A7
100
AcDbXrecord
102
MATERIAL
148
0.0
149
0.0
149
0.0
 93
        0
 94
      127
282
     0
 72
     1
 77
     1
171
     1
175
     1
179
     1
273
     0
  0
XRECORD
  5
2AC
102
{ACAD_REACTORS
330
2AB
102
}
330
2AB
100
AcDbXrecord
102
MATERIAL
148
0.0
149
0.0
149
0.0
 93
        0
 94
      127
282
     0
 72
     1
 77
     1
171
     1
175
     1
179
     1
273
     0
  0
ENDSEC
  0
EOF
